# This file uses meters as units for non-parametric coordinates.

mtllib Boys_FencePost_01_0201.mtl
g default
v -715.439438 0.000000 552.751251
v -684.560562 0.000000 552.751251
v -715.439438 380.294830 552.751251
v -684.560562 380.294830 552.751251
v -715.439438 380.294830 521.872437
v -684.560562 380.294830 521.872437
v -715.439438 0.000000 521.872437
v -684.560562 0.000000 521.872437
v -723.325916 380.294830 560.637695
v -676.674084 380.294830 560.637695
v -684.998299 390.685608 552.313538
v -715.001701 390.685608 552.313538
v -676.674084 380.294830 513.985962
v -684.998299 390.685608 522.310211
v -723.325916 380.294830 513.985962
v -715.001701 390.685608 522.310211
vt 0.245977 0.000000
vt 0.327174 0.000000
vt 0.327174 1.000000
vt 0.245977 1.000000
vt 0.163984 0.000000
vt 0.245181 0.000000
vt 0.245181 1.000000
vt 0.163984 1.000000
vt 0.597749 0.081197
vt 0.597749 0.000000
vt 0.678946 0.000000
vt 0.678946 0.081197
vt 0.575374 0.101935
vt 0.575374 0.020738
vt 0.596111 0.000000
vt 0.596111 0.122673
vt 0.494177 0.020738
vt 0.473439 0.000000
vt 0.494177 0.101935
vt 0.473439 0.122673
vt 0.358324 0.113146
vt 0.359580 0.030356
vt 0.442371 0.031612
vt 0.441115 0.114402
vt 0.327969 0.142595
vt 0.330132 0.000000
vt 0.472727 0.002163
vt 0.470564 0.144758
vt 0.081992 0.000000
vt 0.163189 0.000000
vt 0.163189 1.000000
vt 0.081992 1.000000
vt 0.000000 0.000000
vt 0.081197 0.000000
vt 0.081197 1.000000
vt 0.000000 1.000000
vn 0.000000 0.000000 1.000000
vn 0.000000 0.000000 1.000000
vn 0.000000 0.000000 1.000000
vn 0.000000 0.000000 1.000000
vn 0.000000 0.000000 -1.000000
vn 0.000000 0.000000 -1.000000
vn 0.000000 0.000000 -1.000000
vn 0.000000 0.000000 -1.000000
vn 0.000000 -1.000000 0.000000
vn 0.000000 -1.000000 0.000000
vn 0.000000 -1.000000 0.000000
vn 0.000000 -1.000000 0.000000
vn 1.000000 0.000000 0.000000
vn 1.000000 0.000000 0.000000
vn 1.000000 0.000000 0.000000
vn 1.000000 0.000000 0.000000
vn -1.000000 0.000000 0.000000
vn -1.000000 0.000000 0.000000
vn -1.000000 0.000000 0.000000
vn -1.000000 0.000000 0.000000
vn 0.000000 0.625224 0.780446
vn 0.000000 0.625224 0.780446
vn 0.000000 0.625224 0.780446
vn 0.000000 0.625224 0.780446
vn 0.780444 0.625226 0.000000
vn 0.780444 0.625226 0.000000
vn 0.780444 0.625226 0.000000
vn 0.780444 0.625226 0.000000
vn 0.000000 0.625228 -0.780442
vn 0.000000 0.625228 -0.780442
vn 0.000000 0.625228 -0.780442
vn 0.000000 0.625228 -0.780442
vn -0.780444 0.625226 0.000000
vn -0.780444 0.625226 0.000000
vn -0.780444 0.625226 0.000000
vn -0.780444 0.625226 0.000000
vn 0.000000 -1.000000 0.000001
vn 0.000000 -1.000000 0.000001
vn 0.000000 -1.000000 0.000001
vn 0.000000 -1.000000 0.000001
vn 0.000000 -1.000000 -0.000001
vn 0.000000 -1.000000 -0.000001
vn 0.000000 1.000000 0.000000
vn 0.000000 1.000000 0.000000
vn 0.000000 1.000000 0.000000
vn 0.000000 1.000000 0.000000
vn 0.000000 -1.000000 -0.000001
vn 0.000000 -1.000000 -0.000001
s off
g Fence_Post
usemtl aiStandardSurface1SG
f 1/29/1 2/30/2 4/31/3 3/32/4
f 5/33/5 6/34/6 8/35/7 7/36/8
f 7/9/9 8/10/10 2/11/11 1/12/12
f 2/1/13 8/2/14 6/3/15 4/4/16
f 7/5/17 1/6/18 3/7/19 5/8/20
f 9/25/21 10/26/22 11/22/23 12/21/24
f 10/26/25 13/27/26 14/23/27 11/22/28
f 13/27/29 15/28/30 16/24/31 14/23/32
f 15/28/33 9/25/34 12/21/35 16/24/36
s 1
f 3/13/37 4/14/38 10/15/39 9/16/40
f 4/14/38 6/17/41 13/18/42 10/15/39
s off
f 12/21/43 11/22/44 14/23/45 16/24/46
s 1
f 6/17/41 5/19/47 15/20/48 13/18/42
f 5/19/47 3/13/37 9/16/40 15/20/48
