# This file uses feet as units for non-parametric coordinates.

mtllib Ground.mtl
g default
v -1211.981286 -4.744146 1226.533214
v 312.183561 -4.744146 1226.533214
v -1211.981286 -4.744146 -594.940600
v 312.183561 -4.744146 -594.940600
vt 0.000000 1.000000
vt 0.000000 0.000000
vt 1.000000 0.000000
vt 1.000000 1.000000
vn 0.000000 1.000000 0.000000
vn 0.000000 1.000000 0.000000
vn 0.000000 1.000000 0.000000
vn 0.000000 1.000000 0.000000
s off
g Ground
usemtl initialShadingGroup
f 1/1/1 2/2/2 4/3/3 3/4/4
