# This file uses meters as units for non-parametric coordinates.

mtllib Boys_KitChair_01_0201.mtl
g default
v 4.254679 0.000000 9.387082
v 4.254679 0.000000 9.550599
v 4.254679 1.255587 9.387082
v 4.254679 1.255587 9.550599
v 4.418196 1.255587 9.387082
v 4.418196 1.255587 9.550599
v 4.418196 0.000000 9.387082
v 4.418196 0.000000 9.550599
v 5.392790 1.532949 9.407108
v 5.368708 1.415931 9.407108
v 5.392790 1.532949 10.605805
v 5.368708 1.415931 10.605805
v 5.472664 1.516512 10.605805
v 5.448583 1.399493 10.605805
v 5.472664 1.516512 9.407108
v 5.448583 1.399493 9.407108
v 5.481387 1.963472 9.407108
v 5.457305 1.846453 9.407108
v 5.481387 1.963472 10.605805
v 5.457305 1.846453 10.605805
v 5.561261 1.947034 10.605805
v 5.537180 1.830015 10.605805
v 5.561261 1.947034 9.407108
v 5.537180 1.830015 9.407108
v 5.569984 2.393994 9.407108
v 5.545903 2.276975 9.407108
v 5.569984 2.393994 10.605805
v 5.545903 2.276975 10.605805
v 5.649859 2.377556 10.605805
v 5.625778 2.260538 10.605805
v 5.649859 2.377556 9.407108
v 5.625778 2.260538 9.407108
v 5.658581 2.824516 9.407108
v 5.634500 2.707497 9.407108
v 5.658581 2.824516 10.605805
v 5.634500 2.707497 10.605805
v 5.738456 2.808079 10.605805
v 5.714375 2.691060 10.605805
v 5.738456 2.808079 9.407108
v 5.714375 2.691060 9.407108
v 5.327193 1.285811 9.377082
v 5.327193 1.285811 9.496553
v 5.648302 2.846184 9.377082
v 5.648302 2.846184 9.496553
v 5.765321 2.822102 9.377082
v 5.765321 2.822102 9.496553
v 5.444212 1.261730 9.377082
v 5.444212 1.261730 9.496553
v 5.444212 1.261730 10.503447
v 5.327193 1.285811 10.503447
v 5.765321 2.822102 10.503447
v 5.648302 2.846184 10.503447
v 5.765321 2.822102 10.622918
v 5.648302 2.846184 10.622918
v 5.444212 1.261730 10.622918
v 5.327193 1.285811 10.622918
v 4.254679 0.000000 10.612918
v 4.418196 0.000000 10.612918
v 4.254679 1.255587 10.612918
v 4.418196 1.255587 10.612918
v 4.254679 1.255587 10.449401
v 4.418196 1.255587 10.449401
v 4.254679 0.000000 10.449401
v 4.418196 0.000000 10.449401
v 5.480515 0.000000 10.612918
v 5.480515 0.000000 10.449401
v 5.480515 1.255587 10.612918
v 5.480515 1.255587 10.449401
v 5.316998 1.255587 10.612918
v 5.316998 1.255587 10.449401
v 5.316998 0.000000 10.612918
v 5.316998 0.000000 10.449401
v 5.480515 0.000000 9.387082
v 5.316998 0.000000 9.387082
v 5.480515 1.255587 9.387082
v 5.316998 1.255587 9.387082
v 5.480515 1.255587 9.550599
v 5.316998 1.255587 9.550599
v 5.480515 0.000000 9.550599
v 5.316998 0.000000 9.550599
v 4.291372 1.041065 9.423775
v 4.291372 1.041065 10.576225
v 4.291372 1.208636 9.423775
v 4.291372 1.208636 10.576225
v 5.443822 1.208636 9.423775
v 5.443822 1.208636 10.576225
v 5.443822 1.041065 9.423775
v 5.443822 1.041065 10.576225
v 4.234679 1.180613 9.367082
v 4.234679 1.180613 10.632918
v 4.234679 1.309830 9.367082
v 4.234679 1.309830 10.632918
v 5.500515 1.309830 9.367082
v 5.500515 1.309830 10.632918
v 5.500515 1.180613 9.367082
v 5.500515 1.180613 10.632918
vt 0.659855 0.621616
vt 0.700332 0.621616
vt 0.700332 0.932425
vt 0.659855 0.932425
vt 0.765276 0.310808
vt 0.805753 0.310808
vt 0.805753 0.621617
vt 0.765276 0.621617
vt 0.576014 0.318309
vt 0.570052 0.289342
vt 0.589825 0.285273
vt 0.595786 0.314240
vt 0.316262 0.468144
vt 0.322223 0.439177
vt 0.341995 0.443246
vt 0.336034 0.472213
vt 0.505733 0.345731
vt 0.499772 0.316764
vt 0.519544 0.312695
vt 0.525505 0.341662
vt 0.562244 0.346088
vt 0.568205 0.317122
vt 0.587977 0.321191
vt 0.582016 0.350158
vt 0.423739 0.407102
vt 0.417778 0.378135
vt 0.437550 0.374066
vt 0.443512 0.403033
vt 0.901932 0.850006
vt 0.907893 0.821039
vt 0.927666 0.825108
vt 0.921704 0.854074
vt 0.322223 0.439178
vt 0.316262 0.410211
vt 0.336034 0.406142
vt 0.341995 0.435109
vt 0.312358 0.880119
vt 0.318319 0.851152
vt 0.338091 0.855221
vt 0.332130 0.884188
vt 0.351402 0.291238
vt 0.380369 0.285277
vt 0.459857 0.671532
vt 0.430890 0.677493
vt 0.645636 0.088679
vt 0.674602 0.094640
vt 0.595115 0.480895
vt 0.566148 0.474934
vt 0.540215 0.285274
vt 0.569182 0.291235
vt 0.489694 0.677490
vt 0.460727 0.671529
vt 0.424716 0.671532
vt 0.395750 0.677493
vt 0.316262 0.291238
vt 0.345229 0.285277
vt 0.679378 0.310808
vt 0.719855 0.310808
vt 0.719855 0.621616
vt 0.679378 0.621616
vt 0.719855 0.310808
vt 0.679378 0.310808
vt 0.679378 0.000000
vt 0.719855 0.000000
vt 0.722327 0.310808
vt 0.762804 0.310808
vt 0.762804 0.621617
vt 0.722327 0.621617
vt 0.722327 0.000000
vt 0.762804 0.000000
vt 0.762804 0.310808
vt 0.722327 0.310808
vt 0.808225 0.310808
vt 0.848702 0.310808
vt 0.848702 0.621616
vt 0.808225 0.621616
vt 0.614434 0.791703
vt 0.573957 0.791703
vt 0.573957 0.480894
vt 0.614434 0.480894
vt 0.128847 0.911968
vt 0.128847 0.626691
vt 0.170328 0.626691
vt 0.170328 0.911968
vt 0.085898 0.911969
vt 0.085898 0.626691
vt 0.127379 0.626691
vt 0.127379 0.911969
vt 0.206937 0.940036
vt 0.206937 0.626691
vt 0.238923 0.626691
vt 0.238923 0.940036
vt 0.277217 0.940036
vt 0.277217 0.626691
vt 0.309204 0.626691
vt 0.309204 0.940036
vt 0.858983 0.821039
vt 0.899460 0.821039
vt 0.899460 0.861516
vt 0.858983 0.861516
vt 0.531008 0.827945
vt 0.571485 0.827945
vt 0.571485 0.868422
vt 0.531008 0.868422
vt 1.000000 0.299819
vt 0.980022 0.299819
vt 0.980022 0.000000
vt 1.000000 0.000000
vt 0.976573 0.899455
vt 0.956595 0.899455
vt 0.956595 0.599637
vt 0.976573 0.599637
vt 0.426043 0.975186
vt 0.406065 0.975186
vt 0.406065 0.675367
vt 0.426043 0.675367
vt 0.976573 0.599637
vt 0.956595 0.599637
vt 0.956595 0.299819
vt 0.976573 0.299819
vt 0.379189 0.913524
vt 0.359211 0.913524
vt 0.359211 0.613706
vt 0.379189 0.613706
vt 1.000000 0.599637
vt 0.980022 0.599637
vt 0.980022 0.299819
vt 1.000000 0.299819
vt 0.976573 0.299819
vt 0.956595 0.299819
vt 0.956595 0.000000
vt 0.976573 0.000000
vt 1.000000 0.899456
vt 0.980022 0.899456
vt 0.980022 0.599637
vt 1.000000 0.599637
vt 0.394351 0.345042
vt 0.394351 0.315160
vt 0.423620 0.315160
vt 0.423620 0.345042
vt 0.386542 0.315160
vt 0.386542 0.285278
vt 0.415811 0.285278
vt 0.415811 0.315160
vt 0.431429 0.374924
vt 0.402160 0.374924
vt 0.402160 0.345042
vt 0.431429 0.345042
vt 0.476345 0.285278
vt 0.505614 0.285278
vt 0.505614 0.315160
vt 0.476345 0.315160
vt 0.645670 0.040477
vt 0.645670 0.080954
vt 0.605193 0.080954
vt 0.605193 0.040477
vt 0.858983 0.821039
vt 0.858983 0.780562
vt 0.899460 0.780562
vt 0.899460 0.821039
vt 0.942409 0.821039
vt 0.901932 0.821039
vt 0.901932 0.780562
vt 0.942409 0.780562
vt 0.352834 0.851153
vt 0.312358 0.851153
vt 0.312358 0.810676
vt 0.352834 0.810676
vt 0.571485 0.827945
vt 0.531008 0.827945
vt 0.531008 0.787468
vt 0.571485 0.787468
vt 0.605193 0.000000
vt 0.645670 0.000000
vt 0.645670 0.040477
vt 0.605193 0.040477
vt 0.316262 0.000000
vt 0.601540 0.000000
vt 0.601540 0.285278
vt 0.316262 0.285278
vt 0.000000 0.313345
vt 0.313345 0.313345
vt 0.313345 0.626691
vt 0.000000 0.626691
vt 0.000000 0.000000
vt 0.313345 0.000000
vt 0.313345 0.313345
vt 0.000000 0.313345
vt 0.616906 0.590874
vt 0.657383 0.590874
vt 0.657383 0.901682
vt 0.616906 0.901682
vt 0.808225 0.000000
vt 0.848702 0.000000
vt 0.848702 0.310808
vt 0.808225 0.310808
vt 0.857016 0.921435
vt 0.827747 0.921435
vt 0.827747 0.621616
vt 0.857016 0.621616
vt 0.796512 0.621617
vt 0.825780 0.621617
vt 0.825780 0.921435
vt 0.796512 0.921435
vt 0.529041 0.928262
vt 0.499772 0.928262
vt 0.499772 0.628444
vt 0.529041 0.628444
vt 0.702804 0.621617
vt 0.732073 0.621617
vt 0.732073 0.921435
vt 0.702804 0.921435
vt 0.794545 0.921435
vt 0.765276 0.921435
vt 0.765276 0.621617
vt 0.794545 0.621617
vt 0.445109 0.285278
vt 0.474378 0.285278
vt 0.474378 0.585096
vt 0.445109 0.585096
vt 0.763309 0.921435
vt 0.734040 0.921435
vt 0.734040 0.621617
vt 0.763309 0.621617
vt 0.445109 0.674739
vt 0.474378 0.674739
vt 0.474378 0.974558
vt 0.445109 0.974558
vt 0.925359 0.000000
vt 0.955241 0.000000
vt 0.955241 0.390281
vt 0.925359 0.390281
vt 0.894123 0.390281
vt 0.924006 0.390281
vt 0.924006 0.780562
vt 0.894123 0.780562
vt 0.925359 0.390281
vt 0.955241 0.390281
vt 0.955241 0.780562
vt 0.925359 0.780562
vt 0.924006 0.390281
vt 0.894123 0.390281
vt 0.894123 0.000000
vt 0.924006 0.000000
vt 0.805753 0.310808
vt 0.765276 0.310808
vt 0.765276 0.000000
vt 0.805753 0.000000
vt 0.851174 0.000000
vt 0.891651 0.000000
vt 0.891651 0.310808
vt 0.851174 0.310808
vt 0.356739 0.810676
vt 0.316262 0.810676
vt 0.316262 0.499867
vt 0.356739 0.499867
vt 0.891651 0.621616
vt 0.851174 0.621616
vt 0.851174 0.310808
vt 0.891651 0.310808
vt 0.636428 0.280065
vt 0.676905 0.280065
vt 0.676905 0.590874
vt 0.636428 0.590874
vt 0.571485 0.787468
vt 0.531008 0.787468
vt 0.531008 0.476660
vt 0.571485 0.476660
vt 0.000000 0.911969
vt 0.000000 0.626691
vt 0.041481 0.626691
vt 0.041481 0.911969
vt 0.042949 0.911969
vt 0.042949 0.626691
vt 0.084430 0.626691
vt 0.084430 0.911969
vt 0.242077 0.940036
vt 0.242077 0.626691
vt 0.274063 0.626691
vt 0.274063 0.940036
vt 0.171797 0.940036
vt 0.171797 0.626691
vt 0.203783 0.626691
vt 0.203783 0.940036
vn -1.000000 0.000000 0.000000
vn -1.000000 0.000000 0.000000
vn -1.000000 0.000000 0.000000
vn -1.000000 0.000000 0.000000
vn 0.000000 1.000000 0.000000
vn 0.000000 1.000000 0.000000
vn 0.000000 1.000000 0.000000
vn 0.000000 1.000000 0.000000
vn 1.000000 0.000000 -0.000000
vn 1.000000 0.000000 -0.000000
vn 1.000000 0.000000 -0.000000
vn 1.000000 0.000000 -0.000000
vn 0.000000 -1.000000 0.000000
vn 0.000000 -1.000000 0.000000
vn 0.000000 -1.000000 0.000000
vn 0.000000 -1.000000 0.000000
vn 0.000000 0.000000 1.000000
vn 0.000000 0.000000 1.000000
vn 0.000000 0.000000 1.000000
vn 0.000000 0.000000 1.000000
vn -0.000000 0.000000 -1.000000
vn -0.000000 0.000000 -1.000000
vn -0.000000 0.000000 -1.000000
vn -0.000000 0.000000 -1.000000
vn -0.979475 0.201567 0.000000
vn -0.979475 0.201567 0.000000
vn -0.979475 0.201567 0.000000
vn -0.979475 0.201567 0.000000
vn 0.000000 0.000000 1.000000
vn 0.000000 0.000000 1.000000
vn 0.000000 0.000000 1.000000
vn 0.000000 0.000000 1.000000
vn 0.979475 -0.201567 -0.000000
vn 0.979475 -0.201567 -0.000000
vn 0.979475 -0.201567 -0.000000
vn 0.979475 -0.201567 -0.000000
vn -0.000000 0.000000 -1.000000
vn -0.000000 0.000000 -1.000000
vn -0.000000 0.000000 -1.000000
vn -0.000000 0.000000 -1.000000
vn -0.201567 -0.979475 0.000000
vn -0.201567 -0.979475 0.000000
vn -0.201567 -0.979475 0.000000
vn -0.201567 -0.979475 0.000000
vn 0.201567 0.979475 -0.000000
vn 0.201567 0.979475 -0.000000
vn 0.201567 0.979475 -0.000000
vn 0.201567 0.979475 -0.000000
vn -0.979475 0.201567 0.000000
vn -0.979475 0.201567 0.000000
vn -0.979475 0.201567 0.000000
vn -0.979475 0.201567 0.000000
vn 0.000000 0.000000 1.000000
vn 0.000000 0.000000 1.000000
vn 0.000000 0.000000 1.000000
vn 0.000000 0.000000 1.000000
vn 0.979475 -0.201566 -0.000000
vn 0.979475 -0.201566 -0.000000
vn 0.979475 -0.201566 -0.000000
vn 0.979475 -0.201566 -0.000000
vn -0.000000 0.000000 -1.000000
vn -0.000000 0.000000 -1.000000
vn -0.000000 0.000000 -1.000000
vn -0.000000 0.000000 -1.000000
vn -0.201565 -0.979475 0.000000
vn -0.201565 -0.979475 0.000000
vn -0.201565 -0.979475 0.000000
vn -0.201565 -0.979475 0.000000
vn 0.201566 0.979475 -0.000000
vn 0.201566 0.979475 -0.000000
vn 0.201566 0.979475 -0.000000
vn 0.201566 0.979475 -0.000000
vn -0.979475 0.201567 0.000000
vn -0.979475 0.201567 0.000000
vn -0.979475 0.201567 0.000000
vn -0.979475 0.201567 0.000000
vn 0.000000 0.000000 1.000000
vn 0.000000 0.000000 1.000000
vn 0.000000 0.000000 1.000000
vn 0.000000 0.000000 1.000000
vn 0.979475 -0.201566 -0.000000
vn 0.979475 -0.201566 -0.000000
vn 0.979475 -0.201566 -0.000000
vn 0.979475 -0.201566 -0.000000
vn -0.000000 0.000000 -1.000000
vn -0.000000 0.000000 -1.000000
vn -0.000000 0.000000 -1.000000
vn -0.000000 0.000000 -1.000000
vn -0.201565 -0.979475 0.000000
vn -0.201565 -0.979475 0.000000
vn -0.201565 -0.979475 0.000000
vn -0.201565 -0.979475 0.000000
vn 0.201566 0.979475 -0.000000
vn 0.201566 0.979475 -0.000000
vn 0.201566 0.979475 -0.000000
vn 0.201566 0.979475 -0.000000
vn -0.979475 0.201567 0.000000
vn -0.979475 0.201567 0.000000
vn -0.979475 0.201567 0.000000
vn -0.979475 0.201567 0.000000
vn 0.000000 0.000000 1.000000
vn 0.000000 0.000000 1.000000
vn 0.000000 0.000000 1.000000
vn 0.000000 0.000000 1.000000
vn 0.979475 -0.201566 -0.000000
vn 0.979475 -0.201566 -0.000000
vn 0.979475 -0.201566 -0.000000
vn 0.979475 -0.201566 -0.000000
vn -0.000000 0.000000 -1.000000
vn -0.000000 0.000000 -1.000000
vn -0.000000 0.000000 -1.000000
vn -0.000000 0.000000 -1.000000
vn -0.201563 -0.979476 0.000000
vn -0.201563 -0.979476 0.000000
vn -0.201563 -0.979476 0.000000
vn -0.201563 -0.979476 0.000000
vn 0.201566 0.979475 -0.000000
vn 0.201566 0.979475 -0.000000
vn 0.201566 0.979475 -0.000000
vn 0.201566 0.979475 -0.000000
vn -0.979475 0.201567 0.000000
vn -0.979475 0.201567 0.000000
vn -0.979475 0.201567 0.000000
vn -0.979475 0.201567 0.000000
vn 0.201565 0.979475 -0.000000
vn 0.201565 0.979475 -0.000000
vn 0.201565 0.979475 -0.000000
vn 0.201565 0.979475 -0.000000
vn 0.979475 -0.201567 -0.000000
vn 0.979475 -0.201567 -0.000000
vn 0.979475 -0.201567 -0.000000
vn 0.979475 -0.201567 -0.000000
vn -0.201566 -0.979475 0.000000
vn -0.201566 -0.979475 0.000000
vn -0.201566 -0.979475 0.000000
vn -0.201566 -0.979475 0.000000
vn 0.000000 0.000000 1.000000
vn 0.000000 0.000000 1.000000
vn 0.000000 0.000000 1.000000
vn 0.000000 0.000000 1.000000
vn -0.000000 0.000000 -1.000000
vn -0.000000 0.000000 -1.000000
vn -0.000000 0.000000 -1.000000
vn -0.000000 0.000000 -1.000000
vn -0.000000 0.000000 -1.000000
vn -0.000000 0.000000 -1.000000
vn -0.000000 0.000000 -1.000000
vn -0.000000 0.000000 -1.000000
vn 0.201565 0.979475 -0.000000
vn 0.201565 0.979475 -0.000000
vn 0.201565 0.979475 -0.000000
vn 0.201565 0.979475 -0.000000
vn 0.000000 0.000000 1.000000
vn 0.000000 0.000000 1.000000
vn 0.000000 0.000000 1.000000
vn 0.000000 0.000000 1.000000
vn -0.201566 -0.979475 0.000000
vn -0.201566 -0.979475 0.000000
vn -0.201566 -0.979475 0.000000
vn -0.201566 -0.979475 0.000000
vn -0.979475 0.201567 0.000000
vn -0.979475 0.201567 0.000000
vn -0.979475 0.201567 0.000000
vn -0.979475 0.201567 0.000000
vn 0.979475 -0.201567 -0.000000
vn 0.979475 -0.201567 -0.000000
vn 0.979475 -0.201567 -0.000000
vn 0.979475 -0.201567 -0.000000
vn 0.000000 0.000000 1.000000
vn 0.000000 0.000000 1.000000
vn 0.000000 0.000000 1.000000
vn 0.000000 0.000000 1.000000
vn 0.000000 1.000000 0.000000
vn 0.000000 1.000000 0.000000
vn 0.000000 1.000000 0.000000
vn 0.000000 1.000000 0.000000
vn -0.000000 0.000000 -1.000000
vn -0.000000 0.000000 -1.000000
vn -0.000000 0.000000 -1.000000
vn -0.000000 0.000000 -1.000000
vn 0.000000 -1.000000 0.000000
vn 0.000000 -1.000000 0.000000
vn 0.000000 -1.000000 0.000000
vn 0.000000 -1.000000 0.000000
vn 1.000000 0.000000 0.000000
vn 1.000000 0.000000 0.000000
vn 1.000000 0.000000 0.000000
vn 1.000000 0.000000 0.000000
vn -1.000000 0.000000 0.000000
vn -1.000000 0.000000 0.000000
vn -1.000000 0.000000 0.000000
vn -1.000000 0.000000 0.000000
vn 1.000000 0.000000 -0.000000
vn 1.000000 0.000000 -0.000000
vn 1.000000 0.000000 -0.000000
vn 1.000000 0.000000 -0.000000
vn 0.000000 1.000000 0.000000
vn 0.000000 1.000000 0.000000
vn 0.000000 1.000000 0.000000
vn 0.000000 1.000000 0.000000
vn -1.000000 0.000000 0.000000
vn -1.000000 0.000000 0.000000
vn -1.000000 0.000000 0.000000
vn -1.000000 0.000000 0.000000
vn 0.000000 -1.000000 0.000000
vn 0.000000 -1.000000 0.000000
vn 0.000000 -1.000000 0.000000
vn 0.000000 -1.000000 0.000000
vn -0.000000 0.000000 -1.000000
vn -0.000000 0.000000 -1.000000
vn -0.000000 0.000000 -1.000000
vn -0.000000 0.000000 -1.000000
vn 0.000000 0.000000 1.000000
vn 0.000000 0.000000 1.000000
vn 0.000000 0.000000 1.000000
vn 0.000000 0.000000 1.000000
vn -0.000000 0.000000 -1.000000
vn -0.000000 0.000000 -1.000000
vn -0.000000 0.000000 -1.000000
vn -0.000000 0.000000 -1.000000
vn 0.000000 1.000000 0.000000
vn 0.000000 1.000000 0.000000
vn 0.000000 1.000000 0.000000
vn 0.000000 1.000000 0.000000
vn 0.000000 0.000000 1.000000
vn 0.000000 0.000000 1.000000
vn 0.000000 0.000000 1.000000
vn 0.000000 0.000000 1.000000
vn 0.000000 -1.000000 0.000000
vn 0.000000 -1.000000 0.000000
vn 0.000000 -1.000000 0.000000
vn 0.000000 -1.000000 0.000000
vn -1.000000 0.000000 0.000000
vn -1.000000 0.000000 0.000000
vn -1.000000 0.000000 0.000000
vn -1.000000 0.000000 0.000000
vn 1.000000 0.000000 -0.000000
vn 1.000000 0.000000 -0.000000
vn 1.000000 0.000000 -0.000000
vn 1.000000 0.000000 -0.000000
vn -1.000000 0.000000 0.000000
vn -1.000000 0.000000 0.000000
vn -1.000000 0.000000 0.000000
vn -1.000000 0.000000 0.000000
vn 1.000000 0.000000 -0.000000
vn 1.000000 0.000000 -0.000000
vn 1.000000 0.000000 -0.000000
vn 1.000000 0.000000 -0.000000
vn 0.000000 -1.000000 0.000000
vn 0.000000 -1.000000 0.000000
vn 0.000000 -1.000000 0.000000
vn 0.000000 -1.000000 0.000000
vn 0.000000 0.000000 1.000000
vn 0.000000 0.000000 1.000000
vn 0.000000 0.000000 1.000000
vn 0.000000 0.000000 1.000000
vn -0.000000 0.000000 -1.000000
vn -0.000000 0.000000 -1.000000
vn -0.000000 0.000000 -1.000000
vn -0.000000 0.000000 -1.000000
vn -1.000000 0.000000 0.000000
vn -1.000000 0.000000 0.000000
vn -1.000000 0.000000 0.000000
vn -1.000000 0.000000 0.000000
vn 0.000000 1.000000 0.000000
vn 0.000000 1.000000 0.000000
vn 0.000000 1.000000 0.000000
vn 0.000000 1.000000 0.000000
vn 1.000000 0.000000 -0.000000
vn 1.000000 0.000000 -0.000000
vn 1.000000 0.000000 -0.000000
vn 1.000000 0.000000 -0.000000
vn 0.000000 -1.000000 0.000000
vn 0.000000 -1.000000 0.000000
vn 0.000000 -1.000000 0.000000
vn 0.000000 -1.000000 0.000000
vn 0.000000 0.000000 1.000000
vn 0.000000 0.000000 1.000000
vn 0.000000 0.000000 1.000000
vn 0.000000 0.000000 1.000000
vn -0.000000 0.000000 -1.000000
vn -0.000000 0.000000 -1.000000
vn -0.000000 0.000000 -1.000000
vn -0.000000 0.000000 -1.000000
s off
g Kit_Chair
usemtl aiStandardSurface1SG
f 1/189/1 2/190/2 4/191/3 3/192/4
f 3/97/5 4/98/6 6/99/7 5/100/8
f 5/193/9 6/194/10 8/195/11 7/196/12
f 7/101/13 8/102/14 2/103/15 1/104/16
f 2/1/17 8/2/18 6/3/19 4/4/20
f 7/5/21 1/6/22 3/7/23 5/8/24
f 9/197/25 10/198/26 12/199/27 11/200/28
f 11/9/29 12/10/30 14/11/31 13/12/32
f 13/201/33 14/202/34 16/203/35 15/204/36
f 15/13/37 16/14/38 10/15/39 9/16/40
f 10/105/41 16/106/42 14/107/43 12/108/44
f 15/109/45 9/110/46 11/111/47 13/112/48
f 17/205/49 18/206/50 20/207/51 19/208/52
f 19/17/53 20/18/54 22/19/55 21/20/56
f 21/209/57 22/210/58 24/211/59 23/212/60
f 23/21/61 24/22/62 18/23/63 17/24/64
f 18/113/65 24/114/66 22/115/67 20/116/68
f 23/117/69 17/118/70 19/119/71 21/120/72
f 25/213/73 26/214/74 28/215/75 27/216/76
f 27/25/77 28/26/78 30/27/79 29/28/80
f 29/217/81 30/218/82 32/219/83 31/220/84
f 31/29/85 32/30/86 26/31/87 25/32/88
f 26/121/89 32/122/90 30/123/91 28/124/92
f 31/125/93 25/126/94 27/127/95 29/128/96
f 33/221/97 34/222/98 36/223/99 35/224/100
f 35/33/101 36/34/102 38/35/103 37/36/104
f 37/225/105 38/226/106 40/227/107 39/228/108
f 39/37/109 40/38/110 34/39/111 33/40/112
f 34/129/113 40/130/114 38/131/115 36/132/116
f 39/133/117 33/134/118 35/135/119 37/136/120
f 41/229/121 42/230/122 44/231/123 43/232/124
f 43/137/125 44/138/126 46/139/127 45/140/128
f 45/233/129 46/234/130 48/235/131 47/236/132
f 47/141/133 48/142/134 42/143/135 41/144/136
f 42/41/137 48/42/138 46/43/139 44/44/140
f 47/45/141 41/46/142 43/47/143 45/48/144
f 49/49/145 50/50/146 52/51/147 51/52/148
f 51/145/149 52/146/150 54/147/151 53/148/152
f 53/53/153 54/54/154 56/55/155 55/56/156
f 55/149/157 56/150/158 50/151/159 49/152/160
f 50/237/161 56/238/162 54/239/163 52/240/164
f 55/241/165 49/242/166 51/243/167 53/244/168
f 57/57/169 58/58/170 60/59/171 59/60/172
f 59/153/173 60/154/174 62/155/175 61/156/176
f 61/61/177 62/62/178 64/63/179 63/64/180
f 63/157/181 64/158/182 58/159/183 57/160/184
f 58/245/185 64/246/186 62/247/187 60/248/188
f 63/249/189 57/250/190 59/251/191 61/252/192
f 65/253/193 66/254/194 68/255/195 67/256/196
f 67/161/197 68/162/198 70/163/199 69/164/200
f 69/257/201 70/258/202 72/259/203 71/260/204
f 71/165/205 72/166/206 66/167/207 65/168/208
f 66/65/209 72/66/210 70/67/211 68/68/212
f 71/69/213 65/70/214 67/71/215 69/72/216
f 73/73/217 74/74/218 76/75/219 75/76/220
f 75/169/221 76/170/222 78/171/223 77/172/224
f 77/77/225 78/78/226 80/79/227 79/80/228
f 79/173/229 80/174/230 74/175/231 73/176/232
f 74/261/233 80/262/234 78/263/235 76/264/236
f 79/265/237 73/266/238 75/267/239 77/268/240
f 81/269/241 82/270/242 84/271/243 83/272/244
f 85/273/245 86/274/246 88/275/247 87/276/248
f 87/177/249 88/178/250 82/179/251 81/180/252
f 82/81/253 88/82/254 86/83/255 84/84/256
f 87/85/257 81/86/258 83/87/259 85/88/260
f 89/277/261 90/278/262 92/279/263 91/280/264
f 91/181/265 92/182/266 94/183/267 93/184/268
f 93/281/269 94/282/270 96/283/271 95/284/272
f 95/185/273 96/186/274 90/187/275 89/188/276
f 90/89/277 96/90/278 94/91/279 92/92/280
f 95/93/281 89/94/282 91/95/283 93/96/284
