# This file uses feet as units for non-parametric coordinates.

mtllib Hallway.mtl
g default
v -1034.185547 264.755459 19.572197
v -60.343140 264.755459 19.572197
v -1034.185547 277.885494 19.572197
v -60.343140 277.885494 19.572197
v -1034.185547 277.885494 -101.955437
v -60.343140 277.885494 -101.955437
v -1034.185547 264.755459 -98.961136
v -60.343140 264.755459 -101.955437
v -1024.947998 277.885494 11.105934
v -69.580811 277.885494 11.105934
v -69.580811 277.885494 -93.489189
v -1024.947998 277.885494 -93.489189
v -543.596008 277.885494 11.105934
v -546.019836 277.885494 -93.489189
v -546.019836 277.885494 -101.955437
v -546.019836 264.755459 -101.955437
v -546.019836 264.755459 19.572197
v -543.596008 277.885494 19.572197
v -449.520081 277.885555 11.105934
v -449.520142 277.885494 -93.489189
v -449.520142 277.885494 -101.955421
v -449.520142 264.755459 -101.955421
v -449.520142 264.755459 19.572189
v -449.520081 277.885555 19.572189
v -1034.185547 542.640927 19.572197
v -543.596008 542.640927 19.572197
v -543.596008 542.640927 11.105934
v -1024.947998 542.640927 11.105934
v -60.343140 542.640927 19.572197
v -60.343140 542.640927 -101.955437
v -69.580811 542.640927 -93.489189
v -69.580811 542.640927 11.105934
v -1034.185547 542.640927 -101.955437
v -546.019836 542.640927 -101.955437
v -1024.947998 542.640927 -93.489189
v -546.019836 542.640927 -93.489189
v -449.520142 542.640927 -101.955421
v -449.520142 542.640927 -93.489189
v -449.520081 542.640988 19.572189
v -449.520081 542.640988 11.105934
v -585.477356 542.640927 -93.489189
v -585.477356 542.640927 -101.955437
v -585.477356 277.885494 -101.955437
v -585.477356 264.755459 -98.961136
v -585.477356 264.755459 19.572197
v -585.477356 277.885494 19.572197
v -585.477356 542.640927 19.572197
v -585.477356 542.640927 11.105934
v -585.477356 277.885494 11.105934
v -585.477356 277.885494 -93.489189
v -687.628784 542.640927 -93.489189
v -687.628845 542.640927 -101.955437
v -687.628845 277.885494 -101.955437
v -687.628845 264.755459 -98.961136
v -687.628845 264.755459 19.572197
v -687.628845 277.885494 19.572197
v -687.628845 542.640927 19.572197
v -687.628784 542.640927 11.105934
v -687.628784 277.885494 11.105934
v -687.628784 277.885494 -93.489189
v -181.265076 542.640927 19.572197
v -181.265137 542.640927 11.105934
v -181.265137 277.885494 11.105934
v -181.265137 277.885494 -93.489189
v -181.265137 542.640927 -93.489189
v -181.265198 542.640927 -101.955437
v -181.265198 277.885494 -101.955437
v -181.265198 264.755459 -101.955437
v -181.265198 264.755459 19.572197
v -181.265198 277.885494 19.572197
v -84.291870 542.640927 19.572197
v -84.291992 542.640927 11.105934
v -84.291992 277.885494 11.105934
v -84.291992 277.885494 -93.489189
v -84.291992 542.640927 -93.489189
v -84.291870 542.640927 -101.955437
v -84.291870 277.885494 -101.955437
v -84.291870 264.755459 -101.955437
v -84.291870 264.755459 19.572197
v -84.291870 277.885494 19.572197
v -1034.185547 475.836117 19.572197
v -1034.185547 475.836117 -101.955437
v -687.628845 475.836117 -101.955437
v -585.477356 475.836117 -101.955437
v -546.019836 475.836117 -101.955437
v -449.520142 475.836117 -101.955421
v -181.265198 475.836117 -101.955437
v -84.291870 475.836117 -101.955437
v -60.343140 475.836117 -101.955437
v -60.343140 475.836117 19.572197
v -84.291870 475.836117 19.572197
v -181.265076 475.836117 19.572197
v -449.520081 475.836178 19.572189
v -449.520081 475.836178 11.105934
v -181.265137 475.836117 11.105934
v -84.291992 475.836117 11.105934
v -69.580811 475.836117 11.105934
v -69.580811 475.836117 -93.489189
v -84.291992 475.836117 -93.489189
v -181.265137 475.836117 -93.489189
v -449.520142 475.836117 -93.489189
v -546.019836 475.836117 -93.489189
v -585.477356 475.836117 -93.489189
v -687.628784 475.836117 -93.489189
v -1024.947998 475.836117 -93.489189
v -1024.947998 475.836117 11.105934
v -687.628784 475.836117 11.105934
v -585.477356 475.836117 11.105934
v -543.596008 475.836117 11.105934
v -543.596008 475.836117 19.572197
v -585.477356 475.836117 19.572197
v -687.628845 475.836117 19.572197
v -348.317871 542.640988 11.105934
v -348.317871 475.836178 11.105934
v -348.317871 277.885525 11.105934
v -348.317932 277.885494 -93.489189
v -348.317871 475.836117 -93.489189
v -348.317932 542.640927 -93.489189
v -348.317871 542.640927 -101.955429
v -348.317871 475.836148 -101.955429
v -348.317871 277.885494 -101.955429
v -348.317871 264.755459 -101.955429
v -348.317871 264.755459 19.572193
v -348.317871 277.885525 19.572193
v -348.317871 475.836178 19.572193
v -348.317871 542.640988 19.572193
v -585.477356 370.102535 -101.955437
v -546.019775 370.102535 -101.955444
v -449.520142 370.102535 -101.955421
v -348.317871 370.102535 -101.955429
v -181.265137 370.102535 -101.955437
v -84.291870 370.102535 -101.955437
v -60.343140 370.102535 -101.955444
v -60.343140 370.102535 19.572197
v -84.291870 370.102535 19.572197
v -84.291992 370.102535 11.105934
v -69.580811 370.102535 11.105934
v -69.580811 370.102535 -93.489189
v -84.291992 370.102535 -93.489189
v -181.265137 370.102535 -93.489189
v -348.317871 370.102535 -93.489189
v -449.520142 370.102535 -93.489189
v -546.019836 370.102535 -93.489189
v -585.477356 370.102535 -93.489189
v -585.477356 277.885494 -101.955437
v -687.628845 277.885494 -101.955437
vt 0.617231 0.358805
vt 0.707819 0.358805
vt 0.707819 0.368593
vt 0.617231 0.368593
vt 0.707819 0.437332
vt 0.617231 0.437332
vt 0.707819 0.516147
vt 0.617231 0.516147
vt 0.707819 0.565944
vt 0.617231 0.565944
vt 0.710770 0.358805
vt 0.799126 0.358805
vt 0.799126 0.368593
vt 0.708538 0.368593
vt 0.799126 0.516147
vt 0.708538 0.516147
vt 0.799126 0.565944
vt 0.708538 0.565944
vt 0.799844 0.358805
vt 0.806155 0.358805
vt 0.806155 0.506360
vt 0.799844 0.506360
vt 0.806155 0.556157
vt 0.799844 0.556157
vt 0.617231 0.565944
vt 0.695198 0.565944
vt 0.695198 0.634684
vt 0.617231 0.634684
vt 0.695198 0.713499
vt 0.617231 0.713499
vt 0.695198 0.763296
vt 0.617231 0.763296
vt 0.697581 0.565944
vt 0.775547 0.565944
vt 0.775547 0.713499
vt 0.697581 0.713499
vt 0.775547 0.763296
vt 0.697581 0.763296
vt 0.807149 0.358805
vt 0.813460 0.358805
vt 0.813460 0.506359
vt 0.807149 0.506359
vt 0.813460 0.556156
vt 0.807149 0.556156
vt 0.915723 0.712141
vt 0.915723 0.460700
vt 0.993689 0.460700
vt 0.993689 0.712141
vt 0.915723 0.384555
vt 0.993689 0.384555
vt 0.909412 0.460700
vt 0.909412 0.384555
vt 0.915723 0.353336
vt 0.993689 0.355143
vt 1.000000 0.460700
vt 0.915723 0.283211
vt 0.993689 0.283211
vt 0.909412 0.353336
vt 0.909412 0.283211
vt 0.915723 0.207774
vt 0.993689 0.207774
vt 0.915723 0.083251
vt 0.993689 0.083251
vt 0.915723 0.010966
vt 0.993689 0.010966
vt 0.909412 0.083251
vt 0.909412 0.010966
vt 0.915723 0.000000
vt 0.993689 0.000000
vt 0.820338 0.725913
vt 0.820338 0.467586
vt 0.908694 0.467586
vt 0.908694 0.725913
vt 0.820338 0.391441
vt 0.908694 0.391441
vt 0.818106 0.362029
vt 0.908694 0.362029
vt 0.818106 0.290097
vt 0.908694 0.290097
vt 0.818106 0.214660
vt 0.908694 0.214660
vt 0.818106 0.090137
vt 0.908694 0.090137
vt 0.818106 0.017852
vt 0.908694 0.017852
vt 0.818106 0.000000
vt 0.908694 0.000000
vt 0.000000 0.725913
vt 0.000000 0.467586
vt 0.009787 0.467586
vt 0.009787 0.725913
vt 0.000000 0.391441
vt 0.009787 0.391441
vt 0.157342 0.467586
vt 0.157342 0.725913
vt 0.000000 0.362029
vt 0.009787 0.360222
vt 0.207139 0.467586
vt 0.207139 0.725913
vt 0.000000 0.290097
vt 0.009787 0.290097
vt 0.157342 0.391441
vt 0.157342 0.360222
vt 0.207139 0.391441
vt 0.000000 0.214660
vt 0.009787 0.214660
vt 0.207139 0.360222
vt 0.000000 0.090137
vt 0.009787 0.090137
vt 0.157342 0.214660
vt 0.157342 0.290097
vt 0.000000 0.017852
vt 0.009787 0.017852
vt 0.157342 0.090137
vt 0.207139 0.214660
vt 0.207139 0.290097
vt 0.000000 0.000000
vt 0.009787 0.000000
vt 0.207139 0.090137
vt 0.078527 0.017852
vt 0.078527 0.000000
vt 0.157342 0.017852
vt 0.207139 0.017852
vt 0.157342 0.000000
vt 0.207139 0.000000
vt 0.415318 0.362029
vt 0.405530 0.362029
vt 0.405530 0.290097
vt 0.415318 0.290097
vt 0.336791 0.362029
vt 0.336791 0.290097
vt 0.405530 0.214660
vt 0.415318 0.214660
vt 0.405530 0.391441
vt 0.336791 0.391441
vt 0.257976 0.362029
vt 0.257976 0.290097
vt 0.336791 0.214660
vt 0.405530 0.090137
vt 0.415318 0.090137
vt 0.257976 0.391441
vt 0.208179 0.362029
vt 0.208179 0.290097
vt 0.336791 0.090137
vt 0.405530 0.017852
vt 0.415318 0.017852
vt 0.208179 0.391441
vt 0.257976 0.214660
vt 0.208179 0.214660
vt 0.257976 0.090137
vt 0.336791 0.017852
vt 0.405530 0.000000
vt 0.415318 0.000000
vt 0.257976 0.467586
vt 0.208179 0.467586
vt 0.208179 0.090137
vt 0.336791 0.000000
vt 0.257976 0.725913
vt 0.208179 0.725913
vt 0.257976 0.017852
vt 0.208179 0.017852
vt 0.257976 0.000000
vt 0.405530 0.725913
vt 0.208179 0.000000
vt 0.814583 0.107364
vt 0.814583 0.358805
vt 0.667028 0.358805
vt 0.667028 0.107364
vt 0.617231 0.358805
vt 0.617231 0.107364
vt 0.667028 0.031219
vt 0.617231 0.031219
vt 0.667028 0.000000
vt 0.617231 0.000000
vt 0.814583 0.000000
vt 0.814583 0.031219
vt 0.416357 0.712141
vt 0.416357 0.460700
vt 0.563912 0.460700
vt 0.563912 0.712141
vt 0.613709 0.460700
vt 0.613709 0.712141
vt 0.563912 0.384555
vt 0.613709 0.384555
vt 0.563912 0.355143
vt 0.613709 0.355143
vt 0.485097 0.384555
vt 0.485097 0.355143
vt 0.563912 0.283211
vt 0.613709 0.283211
vt 0.416357 0.384555
vt 0.416357 0.355143
vt 0.485097 0.283211
vt 0.563912 0.207774
vt 0.613709 0.207774
vt 0.416357 0.283211
vt 0.563912 0.083251
vt 0.613709 0.083251
vt 0.416357 0.207774
vt 0.485097 0.207774
vt 0.485097 0.083251
vt 0.563912 0.010966
vt 0.613709 0.010966
vt 0.416357 0.083251
vt 0.563912 0.000000
vt 0.613709 0.000000
vt 0.416357 0.010966
vt 0.485097 0.010966
vt 0.485097 0.000000
vt 0.416357 0.000000
vt 0.606404 0.919915
vt 0.606404 0.995352
vt 0.458850 0.995352
vt 0.458850 0.919915
vt 0.409053 0.995352
vt 0.409053 0.919915
vt 0.606404 0.795392
vt 0.458850 0.795392
vt 0.409053 0.795392
vt 0.458850 0.723107
vt 0.409053 0.723107
vt 0.458850 0.712141
vt 0.409053 0.712141
vt 0.537665 0.712141
vt 0.537665 0.723107
vt 0.606404 0.712141
vt 0.606404 0.723107
vt 1.000000 0.384555
vt 0.405530 0.467586
vn 0.000000 0.000000 1.000000
vn 0.000000 0.000000 1.000000
vn 0.000000 0.000000 1.000000
vn 0.000000 0.000000 1.000000
vn 0.000000 1.000000 0.000000
vn 0.000000 1.000000 0.000000
vn 0.000000 1.000000 0.000000
vn 0.000000 1.000000 0.000000
vn 0.000000 -1.000000 0.000000
vn 0.000000 -1.000000 0.000000
vn 0.000000 -1.000000 0.000000
vn 0.000000 -1.000000 0.000000
vn 1.000000 0.000000 0.000000
vn 1.000000 0.000000 0.000000
vn 1.000000 0.000000 0.000000
vn 1.000000 0.000000 0.000000
vn -1.000000 -0.000001 0.000000
vn -1.000000 -0.000001 0.000000
vn -1.000000 -0.000001 0.000000
vn -1.000000 -0.000001 0.000000
vn -0.000000 1.000000 -0.000000
vn -0.000000 1.000000 -0.000000
vn -0.000000 1.000000 -0.000000
vn -0.000000 1.000000 -0.000000
vn 0.000000 0.000000 -1.000000
vn 0.000000 0.000000 -1.000000
vn 0.000000 0.000000 -1.000000
vn 0.000000 0.000000 -1.000000
vn 0.000000 -1.000000 0.000000
vn 0.000000 -1.000000 0.000000
vn 0.000000 -1.000000 0.000000
vn 0.000000 -1.000000 0.000000
vn 0.000000 -0.000000 1.000000
vn 0.000000 -0.000000 1.000000
vn 0.000000 -0.000000 1.000000
vn 0.000000 -0.000000 1.000000
vn -0.000001 1.000000 0.000000
vn -0.000001 1.000000 0.000000
vn -0.000001 1.000000 0.000000
vn -0.000001 1.000000 0.000000
vn 0.000000 1.000000 -0.000000
vn 0.000000 1.000000 -0.000000
vn -0.000000 0.000000 -1.000000
vn -0.000000 0.000000 -1.000000
vn 0.000000 -1.000000 0.000000
vn 0.000000 -1.000000 0.000000
vn -0.000000 0.000000 1.000000
vn -0.000000 0.000000 1.000000
vn 0.000000 0.000000 1.000000
vn 0.000000 0.000000 1.000000
vn 0.000000 0.000000 1.000000
vn 0.000000 0.000000 1.000000
vn 1.000000 0.000000 0.000000
vn 1.000000 0.000000 0.000000
vn 1.000000 0.000000 0.000000
vn 1.000000 0.000000 0.000000
vn 0.000000 0.000000 -1.000000
vn 0.000000 0.000000 -1.000000
vn 0.000000 0.000000 -1.000000
vn 0.000000 0.000000 -1.000000
vn 1.000000 0.000000 0.000000
vn 1.000000 0.000000 0.000000
vn 1.000000 0.000000 0.000000
vn 1.000000 0.000000 0.000000
vn -1.000000 0.000000 0.000000
vn -1.000000 0.000000 0.000000
vn -1.000000 0.000000 0.000000
vn -1.000000 0.000000 0.000000
vn 0.000000 0.000000 -1.000000
vn 0.000000 0.000000 -1.000000
vn 0.000000 0.000000 -1.000000
vn 0.000000 0.000000 -1.000000
vn 0.000000 0.000000 1.000000
vn 0.000000 0.000000 1.000000
vn 0.000000 0.000000 1.000000
vn 0.000000 0.000000 1.000000
vn -1.000000 0.000000 0.000000
vn -1.000000 0.000000 0.000000
vn -1.000000 0.000000 0.000000
vn -1.000000 0.000000 0.000000
vn 1.000000 0.000000 0.000000
vn 1.000000 0.000000 0.000000
vn 1.000000 0.000000 0.000000
vn 1.000000 0.000000 0.000000
vn 0.000000 -0.000000 -1.000000
vn 0.000000 -0.000000 -1.000000
vn 0.000000 -0.000000 -1.000000
vn 0.000000 -0.000000 -1.000000
vn 0.000000 0.000000 1.000000
vn 0.000000 0.000000 1.000000
vn 0.000000 0.000000 1.000000
vn 0.000000 0.000000 1.000000
vn -0.000000 0.000000 -1.000000
vn -0.000000 0.000000 -1.000000
vn -0.000000 0.000000 -1.000000
vn -0.000000 -0.000000 -1.000000
vn 0.000000 0.000000 1.000000
vn 0.000000 0.000000 1.000000
vn 0.000000 0.000000 1.000000
vn 0.000000 0.000000 1.000000
vn -1.000000 0.000000 0.000000
vn -1.000000 0.000000 0.000000
vn -1.000000 0.000000 0.000000
vn -1.000000 0.000000 0.000000
vn -0.000000 0.000000 1.000000
vn -0.000000 0.000000 1.000000
vn -0.000000 0.000000 1.000000
vn -0.000000 0.000000 1.000000
vn 0.000000 0.000000 -1.000000
vn 0.000000 0.000000 -1.000000
vn 0.000000 0.000000 -1.000000
vn 0.000000 0.000000 -1.000000
vn -0.000000 -0.000000 -1.000000
vn -0.000000 -0.000000 -1.000000
vn -0.000000 -0.000000 -1.000000
vn -0.000000 0.000000 -1.000000
vn 0.000000 -1.000000 0.000000
vn 0.000000 -1.000000 0.000000
vn 0.000000 0.000000 1.000000
vn 0.000000 0.000000 1.000000
vn 0.000000 0.000000 1.000000
vn 0.000000 0.000000 1.000000
vn 0.000000 0.000000 1.000000
vn 0.000000 0.000000 1.000000
vn 0.000000 0.000000 -1.000000
vn 0.000000 0.000000 -1.000000
vn 0.000000 0.000000 -1.000000
vn 0.000000 0.000000 -1.000000
vn 0.000000 1.000000 0.000000
vn 0.000000 1.000000 0.000000
vn 0.000000 0.000000 1.000000
vn 0.000000 0.000000 1.000000
vn 0.000000 0.000000 1.000000
vn 0.000000 0.000000 1.000000
vn 0.000000 1.000000 0.000000
vn 0.000000 1.000000 0.000000
vn 0.000000 1.000000 0.000000
vn 0.000000 1.000000 0.000000
vn 0.000000 0.000000 1.000000
vn 0.000000 0.000000 1.000000
vn 0.000000 0.000000 1.000000
vn 0.000000 0.000000 1.000000
vn -0.000000 -0.000000 -1.000000
vn 0.000000 0.000000 -1.000000
vn 0.000000 -0.000000 -1.000000
vn -0.000000 0.000000 -1.000000
vn -0.000000 0.000000 -1.000000
vn -0.000000 0.000000 -1.000000
vn 0.000000 0.000000 -1.000000
vn 0.000000 0.000000 -1.000000
vn 0.000000 -1.000000 0.000000
vn 0.000000 -1.000000 0.000000
vn 0.000000 -1.000000 0.000000
vn 0.000000 -1.000000 0.000000
vn -0.000000 0.000000 1.000000
vn -0.000000 0.000000 1.000000
vn 0.000000 0.000000 1.000000
vn 0.000000 0.000000 1.000000
vn 0.000000 0.000000 -1.000000
vn 0.000000 0.000000 -1.000000
vn 0.000000 0.000000 -1.000000
vn 0.000000 0.000000 -1.000000
vn 0.000000 1.000000 0.000000
vn 0.000000 1.000000 0.000000
vn 0.000000 0.000000 1.000000
vn 0.000000 0.000000 1.000000
vn -0.000000 -0.000000 -1.000000
vn -0.000000 0.000000 -1.000000
vn 0.000000 0.000000 -1.000000
vn 0.000000 0.000000 -1.000000
vn 0.000000 -1.000000 0.000000
vn 0.000000 -1.000000 0.000000
vn 0.000000 0.000000 1.000000
vn 0.000000 0.000000 1.000000
vn 0.000000 0.000000 1.000000
vn 0.000000 0.000000 1.000000
vn 0.000000 0.000000 1.000000
vn 0.000000 0.000000 1.000000
vn -1.000000 0.000000 0.000000
vn -1.000000 0.000000 0.000000
vn 0.000000 0.000000 -1.000000
vn 0.000000 0.000000 -1.000000
vn -0.000000 0.000000 -1.000000
vn 0.000000 0.000000 -1.000000
vn -0.000000 0.000000 -1.000000
vn 0.000000 0.000000 -1.000000
vn 0.000000 0.000000 -1.000000
vn 0.000000 0.000000 -1.000000
vn 0.000000 0.000000 -1.000000
vn 0.000000 0.000000 -1.000000
vn -0.000000 -0.000000 -1.000000
vn -0.000000 0.000000 -1.000000
vn -0.000000 0.000000 -1.000000
vn -0.000000 0.000000 -1.000000
vn -0.000000 0.000000 -1.000000
vn -0.000000 -0.000000 -1.000000
vn -0.000000 0.000000 -1.000000
vn 0.000000 0.000000 -1.000000
vn -0.000000 0.000000 -1.000000
vn 0.000000 0.000000 -1.000000
vn 1.000000 0.000000 0.000000
vn 1.000000 0.000000 0.000000
vn 1.000000 0.000000 0.000000
vn 1.000000 0.000000 0.000000
vn 0.000000 0.000000 1.000000
vn 0.000000 0.000000 1.000000
vn 0.000000 0.000000 1.000000
vn 0.000000 0.000000 1.000000
vn -0.000000 0.000000 1.000000
vn -0.000000 0.000000 1.000000
vn -0.000000 0.000000 1.000000
vn -0.000000 0.000000 1.000000
vn -1.000000 0.000000 0.000000
vn -1.000000 0.000000 0.000000
vn 0.000000 0.000000 -1.000000
vn 0.000000 0.000000 -1.000000
vn 0.000000 0.000000 -1.000000
vn 0.000000 0.000000 -1.000000
vn 0.000000 0.000000 -1.000000
vn 0.000000 0.000000 -1.000000
vn 0.000000 0.000000 -1.000000
vn 0.000000 0.000000 -1.000000
vn -1.000000 0.000000 0.000000
vn -1.000000 0.000000 0.000000
vn -1.000000 0.000000 0.000000
vn -1.000000 0.000000 0.000000
vn 0.000000 0.000000 1.000000
vn 0.000000 0.000000 1.000000
vn 0.000000 0.000000 1.000000
vn 0.000000 0.000000 1.000000
vn 0.000000 0.000000 1.000000
vn 0.000000 0.000000 1.000000
vn 0.000000 0.000000 1.000000
vn 0.000000 0.000000 1.000000
vn 0.000000 0.000000 1.000000
vn 0.000000 0.000000 1.000000
vn 0.000000 0.000000 1.000000
vn 0.000000 0.000000 1.000000
vn 0.000000 0.000000 1.000000
vn 0.000000 0.000000 1.000000
vn 0.000000 0.000000 1.000000
vn 0.000000 0.000000 1.000000
vn 0.000000 0.000000 1.000000
vn 0.000000 0.000000 1.000000
vn 0.000000 0.000000 1.000000
vn 0.000000 0.000000 1.000000
vn 1.000000 0.000000 0.000000
vn 1.000000 0.000000 0.000000
vn 0.000000 0.000000 -1.000000
vn 0.000000 0.000000 -1.000000
vn 0.000000 0.000000 -1.000000
vn 0.000000 0.000000 -1.000000
vn 1.000000 0.000000 0.000000
vn 1.000000 0.000000 0.000000
vn 0.000000 0.000000 1.000000
vn 0.000000 0.000000 1.000000
vn 0.000000 0.000000 1.000000
vn 0.000000 0.000000 1.000000
vn 0.000000 1.000000 -0.000001
vn 0.000000 1.000000 -0.000001
vn 0.000000 1.000000 -0.000001
vn 0.000000 1.000000 -0.000001
vn 0.000000 1.000000 0.000000
vn 0.000000 1.000000 0.000000
vn 0.000000 1.000000 0.000000
vn 0.000000 1.000000 0.000000
vn 0.000000 1.000000 -0.000002
vn 0.000000 1.000000 -0.000002
vn 0.000000 1.000000 -0.000002
vn 0.000000 1.000000 -0.000002
vn 0.000000 0.000000 -1.000000
vn -0.000000 0.000000 1.000000
s 1
g polySurface5 LivingRoomShape
usemtl initialShadingGroup
f 1/88/1 55/89/2 56/90/3 3/91/4
s 2
f 9/45/5 59/46/6 60/47/7 12/48/8
s 3
f 7/70/9 54/71/10 55/72/11 1/73/12
s off
f 2/1/13 8/2/14 6/3/15 4/4/16
f 7/11/17 1/12/18 3/13/19 5/14/20
s 2
f 13/53/21 19/56/22 20/57/23 14/54/24
s 5
f 16/126/25 15/127/26 21/128/27 22/129/28
s 3
f 17/77/29 16/76/30 22/78/31 23/79/32
s 1
f 18/97/33 17/96/34 23/100/35 24/101/36
s off
f 13/53/37 18/58/38 24/59/39 19/56/40
s 2
f 19/56/22 115/60/41 116/61/42 20/57/23
s 5
f 22/129/28 21/128/27 121/132/43 122/133/44
s 3
f 23/79/32 22/78/31 122/80/45 123/81/46
s 1
f 24/101/36 23/100/35 123/105/47 124/106/48
s 8
f 3/91/49 56/90/50 112/94/51 81/95/52
s 9
f 18/19/53 13/20/54 109/21/55 110/22/56
s 10
f 59/165/57 9/166/58 106/167/59 107/168/60
s 11
f 4/4/61 6/3/62 133/5/63 134/6/64
s 12
f 11/25/65 10/26/66 137/27/67 138/28/68
s 13
f 146/229/69 5/163/70 82/158/71 83/154/72
s 14
f 12/177/73 60/178/74 104/179/75 105/180/76
s 15
f 5/14/77 3/13/78 81/15/79 82/16/80
s 16
f 9/33/81 12/34/82 105/35/83 106/36/84
s 17
f 21/128/85 15/127/86 128/130/87 129/131/88
s 18
f 14/192/89 20/196/90 142/193/91 143/188/92
s 19
f 121/132/93 21/128/94 129/131/95 130/138/96
s 20
f 20/196/97 116/199/98 141/200/99 142/193/100
s 21
f 19/39/101 24/40/102 93/41/103 94/42/104
s 22
f 24/101/105 124/106/106 125/110/107 93/111/108
s 23
f 115/211/109 19/212/110 94/213/111 114/214/112
s 13
f 15/127/113 43/134/114 127/135/115 128/130/116
s 3
f 45/75/117 44/74/118 16/76/30 17/77/29
s 1
f 46/93/119 45/92/120 17/96/34 18/97/33
s 8
f 111/102/121 46/93/122 18/97/123 110/103/124
s 10
f 13/175/125 49/176/126 108/171/127 109/173/128
s 2
f 50/50/129 49/49/130 13/53/21 14/54/24
s 14
f 144/187/131 50/191/132 14/192/133 143/188/134
s 3
f 55/72/11 54/71/10 44/74/118 45/75/117
s 1
f 56/90/3 55/89/2 45/92/120 46/93/119
s 2
f 60/47/7 59/46/6 49/49/130 50/50/129
f 64/63/135 63/62/136 73/64/137 74/65/138
s 20
f 140/201/139 64/204/140 74/207/141 139/208/142
s 19
f 77/145/143 67/139/144 131/144/145 132/151/146
s 5
f 68/140/147 67/139/148 77/145/149 78/146/150
s 3
f 69/83/151 68/82/152 78/84/153 79/85/154
s 1
f 70/109/155 69/108/156 79/112/157 80/113/158
s 23
f 10/226/159 73/227/160 136/225/161 137/224/162
s 2
f 74/65/138 73/64/137 10/68/163 11/69/164
s 20
f 139/208/142 74/207/141 11/210/165 138/209/166
s 19
f 6/152/167 77/145/143 132/151/146 133/157/168
s 5
f 78/146/150 77/145/149 6/152/169 8/153/170
s 3
f 79/85/154 78/84/153 8/86/171 2/87/172
s 1
f 80/113/158 79/112/157 2/117/173 4/118/174
s 22
f 135/120/175 80/113/176 4/118/177 134/121/178
s 15
f 82/16/80 81/15/79 25/17/179 33/18/180
s 13
f 83/154/72 82/158/71 33/159/181 52/155/182
f 84/141/183 83/154/72 52/155/182 42/147/184
f 85/136/185 84/141/183 42/147/184 34/142/186
s 17
f 86/137/187 85/136/188 34/142/189 37/143/190
s 19
f 120/148/191 86/137/192 37/143/193 119/149/194
f 88/160/195 87/150/196 66/156/197 76/161/198
f 89/162/199 88/160/195 76/161/198 30/164/200
s 11
f 90/8/201 89/7/202 30/9/203 29/10/204
s 22
f 71/123/205 91/122/206 90/124/207 29/125/208
f 61/119/209 92/114/210 91/122/206 71/123/205
f 93/111/108 125/110/107 126/115/211 39/116/212
s 21
f 94/42/104 93/41/103 39/43/213 40/44/214
s 23
f 114/214/112 94/213/111 40/215/215 113/216/216
f 96/220/217 95/218/218 62/219/219 72/221/220
f 97/222/221 96/220/217 72/221/220 32/223/222
s 12
f 98/30/223 97/29/224 32/31/225 31/32/226
s 20
f 75/203/227 99/202/228 98/205/229 31/206/230
f 65/198/231 100/197/232 99/202/228 75/203/227
f 101/189/233 117/194/234 118/195/235 38/190/236
s 18
f 102/185/237 101/189/238 38/190/239 36/186/240
s 14
f 41/184/241 103/183/242 102/185/243 36/186/244
f 51/181/245 104/179/75 103/183/242 41/184/241
f 105/180/76 104/179/75 51/181/245 35/182/246
s 16
f 106/36/84 105/35/83 35/37/247 28/38/248
s 10
f 107/168/60 106/167/59 28/169/249 58/170/250
f 108/171/127 107/168/60 58/170/250 48/172/251
f 109/173/128 108/171/127 48/172/251 27/174/252
s 9
f 110/22/56 109/21/55 27/23/253 26/24/254
s 8
f 47/104/255 111/102/121 110/103/124 26/107/256
f 57/98/257 112/94/51 111/102/121 47/104/255
f 81/95/52 112/94/51 57/98/257 25/99/258
s off
f 56/51/259 46/52/260 49/49/261 59/46/262
f 145/228/263 53/55/264 60/47/265 50/50/266
f 73/64/267 63/62/268 70/66/269 80/67/270
s 23
f 95/218/218 114/214/112 113/216/216 62/219/219
f 63/217/271 115/211/109 114/214/112 95/218/218
s 2
f 116/61/42 115/60/41 63/62/136 64/63/135
s 20
f 141/200/99 116/199/98 64/204/140 140/201/139
f 118/195/235 117/194/234 100/197/232 65/198/231
s 19
f 87/150/196 120/148/191 119/149/194 66/156/197
f 67/139/144 121/132/93 130/138/96 131/144/145
s 5
f 122/133/44 121/132/43 67/139/148 68/140/147
s 3
f 123/81/46 122/80/45 68/82/152 69/83/151
s 1
f 124/106/48 123/105/47 69/108/156 70/109/155
s 22
f 125/110/107 124/106/106 70/109/272 92/114/210
f 126/115/211 125/110/107 92/114/210 61/119/209
s 13
f 128/130/116 127/135/115 84/141/183 85/136/185
s 17
f 129/131/88 128/130/87 85/136/188 86/137/187
s 19
f 131/144/145 130/138/96 120/148/191 87/150/196
f 133/157/168 132/151/146 88/160/195 89/162/199
s 11
f 134/6/64 133/5/63 89/7/202 90/8/201
s 22
f 91/122/206 135/120/175 134/121/178 90/124/207
s 23
f 137/224/162 136/225/161 96/220/217 97/222/221
s 12
f 138/28/68 137/27/67 97/29/224 98/30/223
s 20
f 99/202/228 139/208/142 138/209/166 98/205/229
f 117/194/234 141/200/99 140/201/139 100/197/232
s 18
f 143/188/92 142/193/91 101/189/238 102/185/237
s 14
f 103/183/242 144/187/131 143/188/134 102/185/243
