# This file uses meters as units for non-parametric coordinates.

mtllib Boys_DiningTable_01_0201.mtl
g default
v 3.416958 0.000000 8.766434
v 3.416958 0.000000 8.412322
v 3.416958 2.285060 8.766434
v 3.416958 2.285060 8.412322
v 3.062847 2.285060 8.766434
v 3.062847 2.285060 8.412322
v 3.062847 0.000000 8.766434
v 3.062847 0.000000 8.412322
v -3.068181 0.000000 8.412322
v -3.422292 0.000000 8.412322
v -3.068181 2.285060 8.412322
v -3.422292 2.285060 8.412322
v -3.068181 2.285060 8.766434
v -3.422292 2.285060 8.766434
v -3.068181 0.000000 8.766434
v -3.422292 0.000000 8.766434
v -3.192189 1.804641 11.409545
v 3.192189 1.804641 11.409545
v -3.192189 2.155644 11.409545
v 3.192189 2.155644 11.409545
v -3.192189 2.155644 8.591423
v 3.192189 2.155644 8.591423
v -3.192189 1.804641 8.591423
v 3.192189 1.804641 8.591423
v -3.339360 2.088080 11.552473
v 3.339360 2.088080 11.552473
v -3.339360 2.263879 11.552473
v 3.339360 2.263879 11.552473
v -3.339360 2.263879 8.448495
v 3.339360 2.263879 8.448495
v -3.339360 2.088080 8.448495
v 3.339360 2.088080 8.448495
v -3.422292 0.000000 11.233566
v -3.422292 0.000000 11.587678
v -3.422292 2.285060 11.233566
v -3.422292 2.285060 11.587678
v -3.068181 2.285060 11.233566
v -3.068181 2.285060 11.587678
v -3.068181 0.000000 11.233566
v -3.068181 0.000000 11.587678
v 3.062847 0.000000 11.587678
v 3.416958 0.000000 11.587678
v 3.062847 2.285060 11.587678
v 3.416958 2.285060 11.587678
v 3.062847 2.285060 11.233566
v 3.416958 2.285060 11.233566
v 3.062847 0.000000 11.233566
v 3.416958 0.000000 11.233566
vt 0.114404 0.511266
vt 0.141512 0.511266
vt 0.141512 0.686191
vt 0.114404 0.686191
vt 0.548655 0.663659
vt 0.521548 0.663659
vt 0.521548 0.488734
vt 0.548655 0.488734
vt 0.144687 0.511266
vt 0.171795 0.511266
vt 0.171795 0.686191
vt 0.144687 0.686191
vt 0.642681 0.488734
vt 0.669789 0.488734
vt 0.669789 0.663659
vt 0.642681 0.663659
vt 0.026919 0.726998
vt 0.026919 0.511266
vt 0.053788 0.511266
vt 0.053788 0.726998
vt 0.000000 0.726998
vt 0.000000 0.511266
vt 0.026870 0.511266
vt 0.026870 0.726998
vt 0.370131 0.748881
vt 0.370131 0.511266
vt 0.383588 0.511266
vt 0.383588 0.748881
vt 0.356671 0.748881
vt 0.356671 0.511266
vt 0.370129 0.511266
vt 0.370129 0.748881
vt 0.551831 0.488734
vt 0.578939 0.488734
vt 0.578939 0.663659
vt 0.551831 0.663659
vt 0.323212 0.686191
vt 0.296104 0.686191
vt 0.296104 0.511266
vt 0.323212 0.511266
vt 0.235538 0.511266
vt 0.262645 0.511266
vt 0.262645 0.686191
vt 0.235538 0.686191
vt 0.265821 0.511266
vt 0.292929 0.511266
vt 0.292929 0.686191
vt 0.265821 0.686191
vt 0.851489 0.488734
vt 0.851489 0.515841
vt 0.824382 0.515841
vt 0.824382 0.488734
vt 0.703248 0.515841
vt 0.703248 0.488734
vt 0.730356 0.488734
vt 0.730356 0.515841
vt 0.760639 0.515841
vt 0.733531 0.515841
vt 0.733531 0.488734
vt 0.760639 0.488734
vt 0.821206 0.515841
vt 0.794098 0.515841
vt 0.794098 0.488734
vt 0.821206 0.488734
vt 0.477805 0.488734
vt 0.477805 0.000000
vt 0.693536 0.000000
vt 0.693536 0.488734
vt 0.696518 0.488734
vt 0.696518 0.000000
vt 0.912250 0.000000
vt 0.912250 0.488734
vt 0.000000 0.511266
vt 0.000000 0.000000
vt 0.237614 0.000000
vt 0.237614 0.511266
vt 0.238902 0.511266
vt 0.238902 0.000000
vt 0.476517 0.000000
vt 0.476517 0.511266
vt 0.763815 0.515841
vt 0.763815 0.488734
vt 0.790923 0.488734
vt 0.790923 0.515841
vt 0.881773 0.488734
vt 0.881773 0.515841
vt 0.854665 0.515841
vt 0.854665 0.488734
vt 0.672965 0.488734
vt 0.700072 0.488734
vt 0.700072 0.515842
vt 0.672965 0.515842
vt 0.884948 0.488734
vt 0.912056 0.488734
vt 0.912056 0.515841
vt 0.884948 0.515841
vt 0.609222 0.663659
vt 0.582114 0.663659
vt 0.582114 0.488734
vt 0.609222 0.488734
vt 0.326388 0.511266
vt 0.353496 0.511266
vt 0.353496 0.686191
vt 0.326388 0.686191
vt 0.080945 0.686191
vt 0.053837 0.686191
vt 0.053837 0.511266
vt 0.080945 0.511266
vt 0.202079 0.686191
vt 0.174971 0.686191
vt 0.174971 0.511266
vt 0.202079 0.511266
vt 0.942150 0.488734
vt 0.942150 0.000000
vt 0.969020 0.000000
vt 0.969020 0.488734
vt 0.915232 0.488734
vt 0.915232 0.000000
vt 0.942102 0.000000
vt 0.942102 0.488734
vt 0.969069 0.511266
vt 0.969069 0.000000
vt 0.982527 0.000000
vt 0.982527 0.511266
vt 0.477805 1.000000
vt 0.477805 0.488734
vt 0.491263 0.488734
vt 0.491263 1.000000
vt 0.612398 0.488734
vt 0.639506 0.488734
vt 0.639506 0.663659
vt 0.612398 0.663659
vt 0.232362 0.686191
vt 0.205254 0.686191
vt 0.205254 0.511266
vt 0.232362 0.511266
vt 0.084121 0.511266
vt 0.111228 0.511266
vt 0.111228 0.686191
vt 0.084121 0.686191
vt 0.491264 0.488734
vt 0.518372 0.488734
vt 0.518372 0.663659
vt 0.491264 0.663659
vn 1.000000 0.000000 0.000000
vn 1.000000 0.000000 0.000000
vn 1.000000 0.000000 0.000000
vn 1.000000 0.000000 0.000000
vn 0.000000 1.000000 0.000000
vn 0.000000 1.000000 0.000000
vn 0.000000 1.000000 0.000000
vn 0.000000 1.000000 0.000000
vn -1.000000 0.000000 0.000000
vn -1.000000 0.000000 0.000000
vn -1.000000 0.000000 0.000000
vn -1.000000 0.000000 0.000000
vn 0.000000 -1.000000 0.000000
vn 0.000000 -1.000000 0.000000
vn 0.000000 -1.000000 0.000000
vn 0.000000 -1.000000 0.000000
vn 0.000000 0.000000 -1.000000
vn 0.000000 0.000000 -1.000000
vn 0.000000 0.000000 -1.000000
vn 0.000000 0.000000 -1.000000
vn 0.000000 0.000000 1.000000
vn 0.000000 0.000000 1.000000
vn 0.000000 0.000000 1.000000
vn 0.000000 0.000000 1.000000
vn 0.000000 0.000000 -1.000000
vn 0.000000 0.000000 -1.000000
vn 0.000000 0.000000 -1.000000
vn 0.000000 0.000000 -1.000000
vn 0.000000 1.000000 0.000000
vn 0.000000 1.000000 0.000000
vn 0.000000 1.000000 0.000000
vn 0.000000 1.000000 0.000000
vn 0.000000 0.000000 1.000000
vn 0.000000 0.000000 1.000000
vn 0.000000 0.000000 1.000000
vn 0.000000 0.000000 1.000000
vn 0.000000 -1.000000 0.000000
vn 0.000000 -1.000000 0.000000
vn 0.000000 -1.000000 0.000000
vn 0.000000 -1.000000 0.000000
vn -1.000000 0.000000 0.000000
vn -1.000000 0.000000 0.000000
vn -1.000000 0.000000 0.000000
vn -1.000000 0.000000 0.000000
vn 1.000000 0.000000 0.000000
vn 1.000000 0.000000 0.000000
vn 1.000000 0.000000 0.000000
vn 1.000000 0.000000 0.000000
vn 0.000000 0.000000 1.000000
vn 0.000000 0.000000 1.000000
vn 0.000000 0.000000 1.000000
vn 0.000000 0.000000 1.000000
vn 0.000000 1.000000 0.000000
vn 0.000000 1.000000 0.000000
vn 0.000000 1.000000 0.000000
vn 0.000000 1.000000 0.000000
vn 0.000000 0.000000 -1.000000
vn 0.000000 0.000000 -1.000000
vn 0.000000 0.000000 -1.000000
vn 0.000000 0.000000 -1.000000
vn 0.000000 -1.000000 0.000000
vn 0.000000 -1.000000 0.000000
vn 0.000000 -1.000000 0.000000
vn 0.000000 -1.000000 0.000000
vn 1.000000 0.000000 0.000000
vn 1.000000 0.000000 0.000000
vn 1.000000 0.000000 0.000000
vn 1.000000 0.000000 0.000000
vn -1.000000 0.000000 0.000000
vn -1.000000 0.000000 0.000000
vn -1.000000 0.000000 0.000000
vn -1.000000 0.000000 0.000000
vn 0.000000 0.000000 1.000000
vn 0.000000 0.000000 1.000000
vn 0.000000 0.000000 1.000000
vn 0.000000 0.000000 1.000000
vn 0.000000 1.000000 0.000000
vn 0.000000 1.000000 0.000000
vn 0.000000 1.000000 0.000000
vn 0.000000 1.000000 0.000000
vn 0.000000 0.000000 -1.000000
vn 0.000000 0.000000 -1.000000
vn 0.000000 0.000000 -1.000000
vn 0.000000 0.000000 -1.000000
vn 0.000000 -1.000000 0.000000
vn 0.000000 -1.000000 0.000000
vn 0.000000 -1.000000 0.000000
vn 0.000000 -1.000000 0.000000
vn 1.000000 0.000000 0.000000
vn 1.000000 0.000000 0.000000
vn 1.000000 0.000000 0.000000
vn 1.000000 0.000000 0.000000
vn -1.000000 0.000000 0.000000
vn -1.000000 0.000000 0.000000
vn -1.000000 0.000000 0.000000
vn -1.000000 0.000000 0.000000
vn -1.000000 0.000000 0.000000
vn -1.000000 0.000000 0.000000
vn -1.000000 0.000000 0.000000
vn -1.000000 0.000000 0.000000
vn 0.000000 1.000000 0.000000
vn 0.000000 1.000000 0.000000
vn 0.000000 1.000000 0.000000
vn 0.000000 1.000000 0.000000
vn 1.000000 0.000000 0.000000
vn 1.000000 0.000000 0.000000
vn 1.000000 0.000000 0.000000
vn 1.000000 0.000000 0.000000
vn 0.000000 -1.000000 0.000000
vn 0.000000 -1.000000 0.000000
vn 0.000000 -1.000000 0.000000
vn 0.000000 -1.000000 0.000000
vn 0.000000 0.000000 1.000000
vn 0.000000 0.000000 1.000000
vn 0.000000 0.000000 1.000000
vn 0.000000 0.000000 1.000000
vn 0.000000 0.000000 -1.000000
vn 0.000000 0.000000 -1.000000
vn 0.000000 0.000000 -1.000000
vn 0.000000 0.000000 -1.000000
vn 0.000000 0.000000 1.000000
vn 0.000000 0.000000 1.000000
vn 0.000000 0.000000 1.000000
vn 0.000000 0.000000 1.000000
vn 0.000000 1.000000 0.000000
vn 0.000000 1.000000 0.000000
vn 0.000000 1.000000 0.000000
vn 0.000000 1.000000 0.000000
vn 0.000000 0.000000 -1.000000
vn 0.000000 0.000000 -1.000000
vn 0.000000 0.000000 -1.000000
vn 0.000000 0.000000 -1.000000
vn 0.000000 -1.000000 0.000000
vn 0.000000 -1.000000 0.000000
vn 0.000000 -1.000000 0.000000
vn 0.000000 -1.000000 0.000000
vn 1.000000 0.000000 0.000000
vn 1.000000 0.000000 0.000000
vn 1.000000 0.000000 0.000000
vn 1.000000 0.000000 0.000000
vn -1.000000 0.000000 0.000000
vn -1.000000 0.000000 0.000000
vn -1.000000 0.000000 0.000000
vn -1.000000 0.000000 0.000000
s off
g Dining_Table
usemtl aiStandardSurface1SG
f 1/1/1 2/2/2 4/3/3 3/4/4
f 3/49/5 4/50/6 6/51/7 5/52/8
f 5/5/9 6/6/10 8/7/11 7/8/12
f 7/53/13 8/54/14 2/55/15 1/56/16
f 2/97/17 8/98/18 6/99/19 4/100/20
f 7/101/21 1/102/22 3/103/23 5/104/24
f 9/105/25 10/106/26 12/107/27 11/108/28
f 11/57/29 12/58/30 14/59/31 13/60/32
f 13/109/33 14/110/34 16/111/35 15/112/36
f 15/61/37 16/62/38 10/63/39 9/64/40
f 10/9/41 16/10/42 14/11/43 12/12/44
f 15/13/45 9/14/46 11/15/47 13/16/48
f 17/113/49 18/114/50 20/115/51 19/116/52
f 19/65/53 20/66/54 22/67/55 21/68/56
f 21/117/57 22/118/58 24/119/59 23/120/60
f 23/69/61 24/70/62 18/71/63 17/72/64
f 18/17/65 24/18/66 22/19/67 20/20/68
f 23/21/69 17/22/70 19/23/71 21/24/72
f 25/121/73 26/122/74 28/123/75 27/124/76
f 27/73/77 28/74/78 30/75/79 29/76/80
f 29/125/81 30/126/82 32/127/83 31/128/84
f 31/77/85 32/78/86 26/79/87 25/80/88
f 26/25/89 32/26/90 30/27/91 28/28/92
f 31/29/93 25/30/94 27/31/95 29/32/96
f 33/33/97 34/34/98 36/35/99 35/36/100
f 35/81/101 36/82/102 38/83/103 37/84/104
f 37/37/105 38/38/106 40/39/107 39/40/108
f 39/85/109 40/86/110 34/87/111 33/88/112
f 34/129/113 40/130/114 38/131/115 36/132/116
f 39/133/117 33/134/118 35/135/119 37/136/120
f 41/137/121 42/138/122 44/139/123 43/140/124
f 43/89/125 44/90/126 46/91/127 45/92/128
f 45/141/129 46/142/130 48/143/131 47/144/132
f 47/93/133 48/94/134 42/95/135 41/96/136
f 42/41/137 48/42/138 46/43/139 44/44/140
f 47/45/141 41/46/142 43/47/143 45/48/144
