# This file uses meters as units for non-parametric coordinates.

mtllib Boys_Mug_01_0201.mtl
g default
v -5.866736 0.000000 4.904650
v -5.962086 0.000000 4.865154
v -6.057436 0.000000 4.904650
v -6.096932 0.000000 5.000000
v -6.057436 0.000000 5.095350
v -5.962086 0.000000 5.134846
v -5.866736 0.000000 5.095350
v -5.827240 0.000000 5.000000
v -5.866736 0.269691 4.904650
v -5.962086 0.269691 4.865154
v -6.057436 0.269691 4.904650
v -6.096932 0.269691 5.000000
v -6.057436 0.269691 5.095350
v -5.962086 0.269691 5.134846
v -5.866736 0.269691 5.095350
v -5.827240 0.269691 5.000000
v -5.962086 0.000000 5.000000
v -5.884762 0.269691 4.922676
v -5.962086 0.269691 4.890647
v -6.039410 0.269691 4.922676
v -6.071439 0.269691 5.000000
v -6.039410 0.269691 5.077324
v -5.962086 0.269691 5.109353
v -5.884762 0.269691 5.077324
v -5.852733 0.269691 5.000000
v -5.884762 0.054834 4.922676
v -5.962086 0.054834 4.890647
v -5.962086 0.054834 5.000000
v -6.039410 0.054834 4.922676
v -6.071439 0.054834 5.000000
v -6.039410 0.054834 5.077324
v -5.962086 0.054834 5.109353
v -5.884762 0.054834 5.077324
v -5.852733 0.054834 5.000000
v -6.081193 0.040395 5.028304
v -6.132616 0.054511 5.028304
v -6.147281 0.126043 5.028304
v -6.132616 0.197574 5.028304
v -6.081193 0.211691 5.028304
v -6.081193 0.040395 4.971696
v -6.132616 0.054511 4.971696
v -6.147281 0.126043 4.971696
v -6.132616 0.197574 4.971696
v -6.081193 0.211691 4.971696
v -6.081193 0.011749 5.028304
v -6.149154 0.030587 5.028304
v -6.149154 0.030587 4.971696
v -6.081193 0.011749 4.971696
v -6.172760 0.126043 5.028304
v -6.172760 0.126043 4.971696
v -6.149154 0.221498 5.028304
v -6.149154 0.221498 4.971696
v -6.081193 0.240336 5.028304
v -6.081193 0.240336 4.971696
vt 0.000000 0.649467
vt 0.119443 0.649467
vt 0.119443 0.987352
vt 0.000000 0.987352
vt 0.238886 0.649467
vt 0.238886 0.987352
vt 0.325067 0.000000
vt 0.444536 0.000000
vt 0.444536 0.337810
vt 0.325067 0.337810
vt 0.564006 0.000000
vt 0.564006 0.337810
vt 0.628477 0.944817
vt 0.531602 0.944817
vt 0.531602 0.675666
vt 0.628477 0.675666
vt 0.434728 0.944817
vt 0.434728 0.675666
vt 0.432653 0.944817
vt 0.335779 0.944817
vt 0.335779 0.675666
vt 0.432653 0.675666
vt 0.238905 0.944817
vt 0.238905 0.675666
vt 0.993458 0.469260
vt 0.993458 0.585929
vt 0.924287 0.585929
vt 0.924287 0.469260
vt 0.993458 0.702623
vt 0.924287 0.702623
vt 0.834208 0.000000
vt 0.903119 0.000000
vt 0.903119 0.086960
vt 0.834208 0.086960
vt 0.903119 0.173945
vt 0.834208 0.173945
vt 0.320393 0.000000
vt 0.320393 0.068170
vt 0.285902 0.068170
vt 0.285902 0.000000
vt 0.000000 0.068170
vt 0.000000 0.000000
vt 0.034491 0.000000
vt 0.034491 0.068170
vt 0.162378 0.000000
vt 0.277206 0.047576
vt 0.162378 0.162378
vt 0.324756 0.162378
vt 0.047563 0.047576
vt 0.277206 0.277180
vt 0.000000 0.162378
vt 0.162378 0.324756
vt 0.047563 0.277180
vt 0.792655 0.224805
vt 0.699545 0.263390
vt 0.699545 0.131695
vt 0.606447 0.224805
vt 0.831214 0.131695
vt 0.567888 0.131695
vt 0.792655 0.038584
vt 0.606447 0.038584
vt 0.699545 0.000000
vt 0.277175 0.601949
vt 0.162360 0.649469
vt 0.162360 0.618805
vt 0.255471 0.580220
vt 0.047558 0.601949
vt 0.069262 0.580220
vt 0.324721 0.487109
vt 0.294030 0.487109
vt 0.000000 0.487109
vt 0.030703 0.487109
vt 0.277175 0.372269
vt 0.255471 0.393998
vt 0.047558 0.372269
vt 0.069262 0.393998
vt 0.162360 0.324749
vt 0.162360 0.355414
vt 0.974124 0.083324
vt 0.974124 0.166710
vt 0.904704 0.166710
vt 0.904704 0.083324
vt 0.904704 0.083324
vt 0.904704 0.000000
vt 0.974176 0.000000
vt 0.974176 0.083324
vt 0.630908 0.236412
vt 0.630908 0.305866
vt 0.567888 0.305866
vt 0.567888 0.236412
vt 0.000000 0.354456
vt 0.000000 0.285054
vt 0.063067 0.285054
vt 0.063067 0.354456
vt 0.563972 0.337810
vt 0.683431 0.337810
vt 0.683431 0.675666
vt 0.563972 0.675666
vt 0.802877 0.337810
vt 0.802877 0.675666
vt 0.325067 0.337810
vt 0.444513 0.337810
vt 0.444513 0.675666
vt 0.325067 0.675666
vt 0.563972 0.337810
vt 0.563972 0.675666
vt 0.824294 0.944826
vt 0.727416 0.944826
vt 0.727416 0.675666
vt 0.824294 0.675666
vt 0.630552 0.944826
vt 0.630552 0.675666
vt 0.802876 0.200087
vt 0.899736 0.200087
vt 0.899736 0.469260
vt 0.802876 0.469260
vt 0.996609 0.200087
vt 0.996609 0.469260
vt 0.995377 0.759256
vt 0.933459 0.776266
vt 0.913543 0.747451
vt 0.995377 0.724756
vt 0.915802 0.862378
vt 0.885122 0.862378
vt 0.933459 0.948515
vt 0.913543 0.977330
vt 0.995377 0.965525
vt 0.995377 1.000000
vt 0.859050 0.693090
vt 0.920975 0.710152
vt 0.920975 0.744478
vt 0.839132 0.721932
vt 0.841392 0.606970
vt 0.810709 0.606970
vt 0.859050 0.520849
vt 0.839132 0.492007
vt 0.920975 0.503788
vt 0.920975 0.469258
vn 0.382683 0.000000 -0.923880
vn 0.382683 0.000000 -0.923880
vn 0.382683 0.000000 -0.923880
vn 0.382683 0.000000 -0.923880
vn -0.382683 0.000000 -0.923880
vn -0.382683 0.000000 -0.923880
vn -0.382683 0.000000 -0.923880
vn -0.382683 0.000000 -0.923880
vn -0.923880 0.000000 -0.382683
vn -0.923880 0.000000 -0.382683
vn -0.923880 0.000000 -0.382683
vn -0.923880 0.000000 -0.382683
vn -0.923880 0.000000 0.382683
vn -0.923880 0.000000 0.382683
vn -0.923880 0.000000 0.382683
vn -0.923880 0.000000 0.382683
vn -0.382683 0.000000 0.923880
vn -0.382683 0.000000 0.923880
vn -0.382683 0.000000 0.923880
vn -0.382683 0.000000 0.923880
vn 0.382683 0.000000 0.923880
vn 0.382683 0.000000 0.923880
vn 0.382683 0.000000 0.923880
vn 0.382683 0.000000 0.923880
vn 0.923879 0.000000 0.382684
vn 0.923879 0.000000 0.382684
vn 0.923879 0.000000 0.382684
vn 0.923879 0.000000 0.382684
vn 0.923879 0.000000 -0.382684
vn 0.923879 0.000000 -0.382684
vn 0.923879 0.000000 -0.382684
vn 0.923879 0.000000 -0.382684
vn 0.000000 -1.000000 0.000000
vn 0.000000 -1.000000 0.000000
vn 0.000000 -1.000000 0.000000
vn 0.000000 -1.000000 0.000000
vn 0.000000 -1.000000 0.000000
vn 0.000000 -1.000000 0.000000
vn 0.000000 -1.000000 0.000000
vn 0.000000 -1.000000 0.000000
vn 0.000000 -1.000000 0.000000
vn 0.000000 1.000000 0.000000
vn 0.000000 1.000000 0.000000
vn 0.000000 1.000000 -0.000000
vn 0.000000 1.000000 -0.000000
vn 0.000000 1.000000 -0.000000
vn 0.000000 1.000000 0.000000
vn 0.000000 1.000000 0.000000
vn 0.000000 1.000000 0.000000
vn 0.000000 1.000000 0.000000
vn 0.000000 1.000000 -0.000000
vn 0.000000 1.000000 -0.000000
vn 0.000000 1.000000 -0.000000
vn 0.000000 1.000000 -0.000000
vn 0.000000 1.000000 0.000000
vn 0.000000 1.000000 0.000000
vn 0.000000 1.000000 0.000000
vn 0.000000 1.000000 0.000000
vn 0.000000 1.000000 0.000000
vn 0.000000 1.000000 0.000000
vn 0.000000 1.000000 0.000000
vn 0.000000 1.000000 0.000000
vn 0.000000 1.000000 -0.000000
vn 0.000000 1.000000 -0.000000
vn 0.000000 1.000000 -0.000000
vn 0.000000 1.000000 -0.000000
vn 0.000000 1.000000 0.000000
vn 0.000000 1.000000 0.000000
vn 0.000000 1.000000 0.000000
vn 0.000000 1.000000 0.000000
vn 0.000000 1.000000 0.000000
vn 0.000000 1.000000 0.000000
vn 0.000000 1.000000 0.000000
vn 0.000000 1.000000 0.000000
vn 0.000000 1.000000 -0.000000
vn 0.000000 1.000000 -0.000000
vn 0.000000 1.000000 -0.000000
vn 0.000000 1.000000 -0.000000
vn 0.000000 1.000000 0.000000
vn 0.000000 1.000000 0.000000
vn 0.000000 1.000000 0.000000
vn 0.000000 1.000000 0.000000
vn -0.382683 0.000000 0.923880
vn -0.382683 0.000000 0.923880
vn -0.382683 0.000000 0.923880
vn -0.382683 0.000000 0.923880
vn 0.382683 0.000000 0.923880
vn 0.382683 0.000000 0.923880
vn 0.382683 0.000000 0.923880
vn 0.382683 0.000000 0.923880
vn 0.923879 0.000000 0.382684
vn 0.923879 0.000000 0.382684
vn 0.923879 0.000000 0.382684
vn 0.923879 0.000000 0.382684
vn 0.923879 0.000000 -0.382684
vn 0.923879 0.000000 -0.382684
vn 0.923879 0.000000 -0.382684
vn 0.923879 0.000000 -0.382684
vn 0.382683 0.000000 -0.923880
vn 0.382683 0.000000 -0.923880
vn 0.382683 0.000000 -0.923880
vn 0.382683 0.000000 -0.923880
vn -0.382683 0.000000 -0.923880
vn -0.382683 0.000000 -0.923880
vn -0.382683 0.000000 -0.923880
vn -0.382683 0.000000 -0.923880
vn -0.923879 0.000000 -0.382684
vn -0.923879 0.000000 -0.382684
vn -0.923879 0.000000 -0.382684
vn -0.923879 0.000000 -0.382684
vn -0.923879 0.000000 0.382684
vn -0.923879 0.000000 0.382684
vn -0.923879 0.000000 0.382684
vn -0.923879 0.000000 0.382684
vn -0.267114 -0.963665 0.000000
vn -0.267114 -0.963665 0.000000
vn -0.267114 -0.963665 0.000000
vn -0.267114 -0.963665 0.000000
vn -0.970758 -0.240062 -0.000000
vn -0.970758 -0.240062 -0.000000
vn -0.970758 -0.240062 -0.000000
vn -0.970758 -0.240062 -0.000000
vn -0.970758 0.240061 0.000000
vn -0.970758 0.240061 0.000000
vn -0.970758 0.240061 0.000000
vn -0.970758 0.240061 0.000000
vn -0.267115 0.963665 -0.000000
vn -0.267115 0.963665 -0.000000
vn -0.267115 0.963665 -0.000000
vn -0.267115 0.963665 -0.000000
vn 0.264725 0.964324 0.000000
vn 0.264725 0.964324 0.000000
vn 0.264725 0.964324 0.000000
vn 0.264725 0.964324 0.000000
vn 0.979625 0.200833 0.000000
vn 0.979625 0.200833 0.000000
vn 0.979625 0.200833 0.000000
vn 0.979625 0.200833 0.000000
vn 0.979625 -0.200833 0.000000
vn 0.979625 -0.200833 0.000000
vn 0.979625 -0.200833 0.000000
vn 0.979625 -0.200833 0.000000
vn 0.264726 -0.964324 0.000000
vn 0.264726 -0.964324 0.000000
vn 0.264726 -0.964324 0.000000
vn 0.264726 -0.964324 0.000000
vn 0.000000 0.000000 1.000000
vn -0.000000 0.000000 1.000000
vn -0.000000 0.000000 1.000000
vn 0.000000 0.000000 1.000000
vn 0.000000 0.000000 -1.000000
vn -0.000000 0.000000 -1.000000
vn -0.000000 0.000000 -1.000000
vn 0.000000 0.000000 -1.000000
vn 1.000000 0.000000 0.000000
vn 1.000000 0.000000 0.000000
vn 1.000000 0.000000 0.000000
vn 1.000000 0.000000 0.000000
vn 0.000000 0.000000 1.000000
vn 0.000000 0.000000 1.000000
vn 0.000000 0.000000 -1.000000
vn 0.000000 0.000000 -1.000000
vn 0.000000 0.000000 1.000000
vn 0.000000 0.000000 1.000000
vn 0.000000 0.000000 -1.000000
vn 0.000000 0.000000 -1.000000
vn 0.000000 0.000000 1.000000
vn 0.000000 0.000000 1.000000
vn 1.000000 0.000000 0.000000
vn 1.000000 0.000000 0.000000
vn 1.000000 0.000000 0.000000
vn 1.000000 0.000000 0.000000
vn 0.000000 0.000000 -1.000000
vn 0.000000 0.000000 -1.000000
s off
g Mug1
usemtl aiStandardSurface1SG
f 1/95/1 2/96/2 10/97/3 9/98/4
f 2/96/5 3/99/6 11/100/7 10/97/8
f 3/1/9 4/2/10 12/3/11 11/4/12
f 4/2/13 5/5/14 13/6/15 12/3/16
f 5/101/17 6/102/18 14/103/19 13/104/20
f 6/102/21 7/105/22 15/106/23 14/103/24
f 7/7/25 8/8/26 16/9/27 15/10/28
f 8/8/29 1/11/30 9/12/31 16/9/32
s 1
f 2/45/33 1/46/34 17/47/35
f 3/49/36 2/45/33 17/47/35
f 4/51/37 3/49/36 17/47/35
f 5/53/38 4/51/37 17/47/35
f 6/52/39 5/53/38 17/47/35
f 7/50/40 6/52/39 17/47/35
f 8/48/41 7/50/40 17/47/35
f 1/46/34 8/48/41 17/47/35
s 2
f 26/54/42 27/55/43 28/56/44
f 27/55/43 29/57/45 28/56/44
f 29/57/45 30/59/46 28/56/44
f 30/59/46 31/61/47 28/56/44
f 31/61/47 32/62/48 28/56/44
f 32/62/48 33/60/49 28/56/44
f 33/60/49 34/58/50 28/56/44
f 34/58/50 26/54/42 28/56/44
s off
f 9/63/51 10/64/52 19/65/53 18/66/54
f 10/64/55 11/67/56 20/68/57 19/65/58
f 11/67/59 12/71/60 21/72/61 20/68/62
f 12/71/63 13/75/64 22/76/65 21/72/66
f 13/75/67 14/77/68 23/78/69 22/76/70
f 14/77/71 15/73/72 24/74/73 23/78/74
f 15/73/75 16/69/76 25/70/77 24/74/78
f 16/69/79 9/63/80 18/66/81 25/70/82
f 18/107/83 19/108/84 27/109/85 26/110/86
f 19/108/87 20/111/88 29/112/89 27/109/90
f 20/13/91 21/14/92 30/15/93 29/16/94
f 21/14/95 22/17/96 31/18/97 30/15/98
f 22/113/99 23/114/100 32/115/101 31/116/102
f 23/114/103 24/117/104 33/118/105 32/115/106
f 24/19/107 25/20/108 34/21/109 33/22/110
f 25/20/111 18/23/112 26/24/113 34/21/114
f 45/79/115 46/80/116 47/81/117 48/82/118
f 46/25/119 49/26/120 50/27/121 47/28/122
f 49/26/123 51/29/124 52/30/125 50/27/126
f 51/83/127 53/84/128 54/85/129 52/86/130
f 35/87/131 40/88/132 41/89/133 36/90/134
f 36/31/135 41/32/136 42/33/137 37/34/138
f 37/34/139 42/33/140 43/35/141 38/36/142
f 38/91/143 43/92/144 44/93/145 39/94/146
s 3
f 35/119/147 36/120/148 46/121/149 45/122/150
s 4
f 41/129/151 40/130/152 48/131/153 47/132/154
s off
f 40/37/155 35/38/156 45/39/157 48/40/158
s 3
f 36/120/148 37/123/159 49/124/160 46/121/149
s 4
f 42/133/161 41/129/151 47/132/154 50/134/162
s 3
f 37/123/159 38/125/163 51/126/164 49/124/160
s 4
f 43/135/165 42/133/161 50/134/162 52/136/166
s 3
f 38/125/163 39/127/167 53/128/168 51/126/164
s off
f 39/41/169 44/42/170 54/43/171 53/44/172
s 4
f 44/137/173 43/135/165 52/136/166 54/138/174
