# This file uses meters as units for non-parametric coordinates.

mtllib Boys_Vase1_01_0201.mtl
g default
v -7.834485 0.000000 -2.286681
v -8.165515 0.000000 -2.286681
v -8.331030 0.000000 -2.000000
v -8.165515 0.000000 -1.713319
v -7.834485 0.000000 -1.713319
v -7.668970 0.000000 -2.000000
v -7.895484 1.616857 -2.181029
v -8.104516 1.616857 -2.181029
v -8.209032 1.616857 -2.000000
v -8.104516 1.616857 -1.818971
v -7.895484 1.616857 -1.818971
v -7.790968 1.616857 -2.000000
v -8.000000 0.000000 -2.000000
v -8.000000 1.616857 -2.000000
v -7.763678 0.807177 -2.409322
v -8.236322 0.807177 -2.409322
v -8.472644 0.807177 -2.000000
v -8.236322 0.807177 -1.590678
v -7.763678 0.807177 -1.590678
v -7.527356 0.807177 -2.000000
v -7.895757 1.581432 -2.180555
v -7.791514 1.581432 -2.000000
v -7.895757 1.581432 -1.819445
v -8.104243 1.581432 -1.819445
v -8.208486 1.581432 -2.000000
v -8.104243 1.581432 -2.180555
v -7.929727 1.493448 -2.121716
v -7.859455 1.493448 -2.000000
v -7.929727 1.493448 -1.878284
v -8.070273 1.493448 -1.878284
v -8.140545 1.493448 -2.000000
v -8.070273 1.493448 -2.121716
v -7.813250 1.024786 -2.323461
v -8.186750 1.024786 -2.323462
v -8.373501 1.024786 -2.000000
v -8.186750 1.024786 -1.676539
v -7.813250 1.024786 -1.676538
v -7.626499 1.024786 -2.000000
v -7.943956 1.333283 -2.097072
v -7.887912 1.333283 -2.000000
v -7.943956 1.333283 -1.902928
v -8.056044 1.333283 -1.902928
v -8.112088 1.333283 -2.000000
v -8.056044 1.333283 -2.097072
v -7.774181 0.487825 -2.391129
v -8.225818 0.487825 -2.391129
v -8.451637 0.487825 -2.000000
v -8.225818 0.487825 -1.608871
v -7.774182 0.487825 -1.608871
v -7.548363 0.487825 -2.000000
vt 0.004779 0.157841
vt 0.217568 0.160087
vt 0.216064 0.248762
vt 0.000000 0.262790
vt 0.053309 0.000000
vt 0.221058 0.009480
vt 0.432257 0.171295
vt 0.427800 0.278057
vt 0.214005 0.321171
vt 0.036511 0.346153
vt 0.393401 0.005473
vt 0.384600 0.356926
vt 0.208308 0.471246
vt 0.150215 0.479449
vt 0.264882 0.480718
vt 0.206924 0.529232
vt 0.140417 0.520681
vt 0.276390 0.523200
vt 0.205260 0.571001
vt 0.115226 0.554145
vt 0.300086 0.559373
vt 0.204987 0.581717
vt 0.112923 0.564751
vt 0.301597 0.570028
vt 0.435216 0.161211
vt 0.648004 0.158772
vt 0.648484 0.247526
vt 0.432784 0.266221
vt 0.480179 0.002326
vt 0.648068 0.008066
vt 0.862959 0.164803
vt 0.861125 0.271561
vt 0.648009 0.320024
vt 0.471141 0.348734
vt 0.820229 0.000000
vt 0.820064 0.351382
vt 0.645950 0.469500
vt 0.587961 0.479050
vt 0.701649 0.479337
vt 0.645085 0.527823
vt 0.578648 0.520301
vt 0.714261 0.521067
vt 0.644027 0.569629
vt 0.553928 0.554157
vt 0.738518 0.556860
vt 0.643914 0.580349
vt 0.551794 0.564799
vt 0.740177 0.567492
vt 0.000000 0.810166
vt 0.000000 0.649933
vt 0.138767 0.730049
vt 0.138767 0.569816
vt 0.138766 0.890283
vt 0.277533 0.649933
vt 0.277533 0.810166
vt 0.772076 0.625817
vt 0.772076 0.726998
vt 0.684449 0.676408
vt 0.684449 0.777588
vt 0.684449 0.575227
vt 0.596823 0.726998
vt 0.596823 0.625817
vt 0.315253 0.557323
vt 0.533757 0.564223
vt 0.535804 0.660485
vt 0.307137 0.653264
vt 0.349312 0.403575
vt 0.509466 0.408632
vt 0.509380 0.737043
vt 0.328679 0.731337
vt 0.441618 0.878373
vt 0.387389 0.876660
vt 0.446940 0.928044
vt 0.378943 0.925897
vt 0.462150 0.967363
vt 0.361283 0.964178
vt 0.461946 0.977986
vt 0.360816 0.974792
vt 0.779449 0.514903
vt 0.997953 0.521803
vt 1.000000 0.618065
vt 0.771333 0.610844
vt 0.813508 0.361155
vt 0.973662 0.366212
vt 0.973576 0.694623
vt 0.792874 0.688917
vt 0.905813 0.835953
vt 0.851585 0.834240
vt 0.911136 0.885624
vt 0.843139 0.883477
vt 0.926345 0.924943
vt 0.825479 0.921758
vt 0.926142 0.935565
vt 0.825012 0.932372
vn 0.000000 0.591633 -0.806207
vn 0.000000 0.591633 -0.806207
vn 0.000000 0.591633 -0.806207
vn 0.000000 0.591633 -0.806207
vn -0.698197 0.591633 -0.403103
vn -0.698197 0.591633 -0.403103
vn -0.698197 0.591633 -0.403103
vn -0.698197 0.591633 -0.403103
vn -0.698197 0.591633 0.403103
vn -0.698197 0.591633 0.403103
vn -0.698197 0.591633 0.403103
vn -0.698197 0.591633 0.403103
vn 0.000000 0.591633 0.806207
vn 0.000000 0.591633 0.806207
vn 0.000000 0.591633 0.806207
vn 0.000000 0.591633 0.806207
vn 0.698197 0.591633 0.403103
vn 0.698197 0.591633 0.403103
vn 0.698197 0.591633 0.403103
vn 0.698197 0.591633 0.403103
vn 0.698197 0.591633 -0.403103
vn 0.698197 0.591633 -0.403103
vn 0.698197 0.591633 -0.403103
vn 0.698197 0.591633 -0.403103
vn 0.000000 -1.000000 0.000000
vn 0.000000 -1.000000 0.000000
vn 0.000000 -1.000000 0.000000
vn 0.000000 -1.000000 0.000000
vn 0.000000 -1.000000 0.000000
vn 0.000000 -1.000000 0.000000
vn 0.000000 -1.000000 0.000000
vn 0.000000 -1.000000 0.000000
vn 0.000000 -1.000000 0.000000
vn 0.000000 -1.000000 0.000000
vn 0.000000 -1.000000 0.000000
vn 0.000000 -1.000000 0.000000
vn 0.000000 -1.000000 0.000000
vn 0.000000 -1.000000 0.000000
vn 0.000000 -1.000000 0.000000
vn 0.000000 -1.000000 0.000000
vn 0.000000 -1.000000 0.000000
vn 0.000000 -1.000000 0.000000
vn 0.000000 1.000000 0.000000
vn 0.000000 1.000000 0.000000
vn 0.000000 1.000000 0.000000
vn 0.000000 1.000000 0.000000
vn 0.000000 1.000000 0.000000
vn 0.000000 1.000000 0.000000
vn 0.000000 1.000000 0.000000
vn 0.000000 1.000000 0.000000
vn 0.000000 1.000000 0.000000
vn 0.000000 1.000000 0.000000
vn 0.000000 1.000000 0.000000
vn 0.000000 1.000000 0.000000
vn 0.000000 1.000000 0.000000
vn 0.000000 1.000000 0.000000
vn 0.000000 1.000000 0.000000
vn 0.000000 1.000000 0.000000
vn 0.000000 1.000000 0.000000
vn 0.000000 1.000000 0.000000
vn 0.000000 -0.138049 -0.990425
vn 0.000000 -0.138049 -0.990425
vn 0.000000 -0.056876 -0.998381
vn 0.000000 -0.056876 -0.998381
vn -0.857734 -0.138048 -0.495213
vn -0.857734 -0.138048 -0.495213
vn -0.864624 -0.056875 -0.499190
vn -0.864624 -0.056875 -0.499190
vn -0.857734 -0.138048 0.495212
vn -0.857734 -0.138048 0.495212
vn -0.864624 -0.056875 0.499190
vn -0.864624 -0.056875 0.499190
vn -0.000000 -0.138049 0.990425
vn -0.000000 -0.138049 0.990425
vn -0.000000 -0.056876 0.998381
vn -0.000000 -0.056876 0.998381
vn 0.857734 -0.138048 0.495212
vn 0.857734 -0.138048 0.495212
vn 0.864624 -0.056875 0.499190
vn 0.864624 -0.056875 0.499190
vn 0.857734 -0.138048 -0.495212
vn 0.857734 -0.138048 -0.495212
vn 0.864624 -0.056875 -0.499190
vn 0.864624 -0.056875 -0.499190
vn 0.865950 -0.013355 -0.499952
vn 0.865950 -0.013355 -0.499952
vn 0.865950 -0.013355 -0.499952
vn 0.865950 -0.013355 -0.499952
vn 0.865950 -0.013354 0.499952
vn 0.865950 -0.013354 0.499952
vn 0.865950 -0.013354 0.499952
vn 0.865950 -0.013354 0.499952
vn 0.000000 -0.013375 0.999911
vn 0.000000 -0.013375 0.999911
vn 0.000000 -0.013375 0.999911
vn 0.000000 -0.013375 0.999911
vn -0.865951 -0.013354 0.499951
vn -0.865951 -0.013354 0.499951
vn -0.865951 -0.013354 0.499951
vn -0.865950 -0.013354 0.499951
vn -0.865951 -0.013353 -0.499951
vn -0.865951 -0.013353 -0.499951
vn -0.865951 -0.013353 -0.499951
vn -0.865951 -0.013353 -0.499951
vn 0.000000 -0.013375 -0.999911
vn 0.000000 -0.013375 -0.999911
vn 0.000000 -0.013375 -0.999911
vn 0.000000 -0.013375 -0.999911
vn 0.719889 -0.555892 -0.415625
vn 0.719889 -0.555892 -0.415625
vn 0.719889 -0.555892 -0.415625
vn 0.719889 -0.555892 -0.415625
vn 0.719889 -0.555892 0.415626
vn 0.719889 -0.555892 0.415626
vn 0.719889 -0.555892 0.415626
vn 0.719889 -0.555891 0.415626
vn 0.000000 -0.555895 0.831253
vn 0.000000 -0.555895 0.831253
vn 0.000000 -0.555895 0.831253
vn 0.000000 -0.555895 0.831253
vn -0.719889 -0.555892 0.415625
vn -0.719889 -0.555892 0.415625
vn -0.719889 -0.555891 0.415625
vn -0.719889 -0.555892 0.415625
vn -0.719889 -0.555892 -0.415625
vn -0.719889 -0.555892 -0.415625
vn -0.719889 -0.555892 -0.415625
vn -0.719889 -0.555892 -0.415625
vn 0.000000 -0.555895 -0.831253
vn 0.000000 -0.555895 -0.831253
vn 0.000000 -0.555895 -0.831253
vn 0.000000 -0.555895 -0.831253
vn 0.000000 0.367027 -0.930210
vn 0.000000 0.367027 -0.930210
vn 0.000000 0.367027 -0.930210
vn 0.000000 0.367027 -0.930210
vn -0.805586 0.367027 -0.465105
vn -0.805586 0.367027 -0.465105
vn -0.805586 0.367027 -0.465105
vn -0.805586 0.367027 -0.465105
vn -0.805586 0.367027 0.465104
vn -0.805586 0.367027 0.465104
vn -0.805586 0.367027 0.465104
vn -0.805586 0.367027 0.465104
vn 0.000000 0.367027 0.930210
vn 0.000000 0.367027 0.930210
vn 0.000000 0.367027 0.930210
vn 0.000000 0.367027 0.930210
vn 0.805586 0.367027 0.465105
vn 0.805586 0.367027 0.465105
vn 0.805586 0.367027 0.465105
vn 0.805586 0.367027 0.465105
vn 0.805586 0.367027 -0.465104
vn 0.805586 0.367027 -0.465104
vn 0.805586 0.367027 -0.465105
vn 0.805586 0.367027 -0.465105
vn 0.855953 -0.152079 -0.494182
vn 0.855953 -0.152079 -0.494182
vn 0.855953 -0.152079 -0.494182
vn 0.855953 -0.152079 -0.494182
vn 0.855953 -0.152079 0.494183
vn 0.855953 -0.152079 0.494183
vn 0.855953 -0.152079 0.494183
vn 0.855953 -0.152079 0.494183
vn 0.000000 -0.152080 0.988368
vn 0.000000 -0.152080 0.988368
vn 0.000000 -0.152080 0.988368
vn 0.000000 -0.152080 0.988368
vn -0.855953 -0.152079 0.494182
vn -0.855953 -0.152079 0.494182
vn -0.855953 -0.152079 0.494182
vn -0.855953 -0.152079 0.494182
vn -0.855953 -0.152079 -0.494182
vn -0.855953 -0.152079 -0.494182
vn -0.855953 -0.152079 -0.494182
vn -0.855953 -0.152079 -0.494182
vn 0.000000 -0.152080 -0.988368
vn 0.000000 -0.152080 -0.988368
vn 0.000000 -0.152080 -0.988368
vn 0.000000 -0.152080 -0.988368
vn 0.000000 -0.209365 -0.977838
vn 0.000000 -0.209365 -0.977838
vn -0.846832 -0.209365 -0.488919
vn -0.846832 -0.209365 -0.488919
vn -0.846832 -0.209365 0.488918
vn -0.846832 -0.209365 0.488918
vn -0.000000 -0.209365 0.977838
vn -0.000000 -0.209365 0.977838
vn 0.846832 -0.209365 0.488919
vn 0.846832 -0.209365 0.488919
vn 0.846833 -0.209365 -0.488918
vn 0.846832 -0.209365 -0.488918
s off
g Vase_1
usemtl aiStandardSurface1SG
f 44/71/1 39/72/2 33/70/3 34/69/4
f 43/13/5 44/14/6 34/10/7 35/9/8
f 42/15/9 43/13/10 35/9/11 36/12/12
f 41/87/13 42/88/14 36/86/15 37/85/16
f 40/37/17 41/38/18 37/34/19 38/33/20
f 33/36/21 39/39/22 40/37/23 38/33/24
f 2/49/25 1/50/26 13/51/27
f 3/53/28 2/49/29 13/51/30
f 4/55/31 3/53/32 13/51/33
f 5/54/34 4/55/35 13/51/36
f 6/52/37 5/54/38 13/51/39
f 1/50/40 6/52/41 13/51/42
f 7/56/43 8/57/44 14/58/45
f 8/57/46 9/59/47 14/58/48
f 9/59/49 10/61/50 14/58/51
f 10/61/52 11/62/53 14/58/54
f 11/62/55 12/60/56 14/58/57
f 12/60/58 7/56/59 14/58/60
s 1
f 45/63/61 46/64/62 16/65/63 15/66/64
s 2
f 46/1/65 47/2/66 17/3/67 16/4/68
s 3
f 47/2/69 48/7/70 18/8/71 17/3/72
s 4
f 48/79/73 49/80/74 19/81/75 18/82/76
s 5
f 49/25/77 50/26/78 20/27/79 19/28/80
s 6
f 50/26/81 45/31/82 15/32/83 20/27/84
s off
f 22/43/85 21/45/86 7/48/87 12/46/88
f 23/44/89 22/43/90 12/46/91 11/47/92
f 24/92/93 23/91/94 11/93/95 10/94/96
f 25/19/97 24/21/98 10/24/99 9/22/100
f 26/20/101 25/19/102 9/22/103 8/23/104
f 21/76/105 26/75/106 8/77/107 7/78/108
f 28/40/109 27/42/110 21/45/111 22/43/112
f 29/41/113 28/40/114 22/43/115 23/44/116
f 30/90/117 29/89/118 23/91/119 24/92/120
f 31/16/121 30/18/122 24/21/123 25/19/124
f 32/17/125 31/16/126 25/19/127 26/20/128
f 27/74/129 32/73/130 26/75/131 21/76/132
f 15/66/133 16/65/134 34/69/135 33/70/136
f 16/4/137 17/3/138 35/9/139 34/10/140
f 17/3/141 18/8/142 36/12/143 35/9/144
f 18/82/145 19/81/146 37/85/147 36/86/148
f 19/28/149 20/27/150 38/33/151 37/34/152
f 20/27/153 15/32/154 33/36/155 38/33/156
f 40/37/157 39/39/158 27/42/159 28/40/160
f 41/38/161 40/37/162 28/40/163 29/41/164
f 42/88/165 41/87/166 29/89/167 30/90/168
f 43/13/169 42/15/170 30/18/171 31/16/172
f 44/14/173 43/13/174 31/16/175 32/17/176
f 39/72/177 44/71/178 32/73/179 27/74/180
s 1
f 1/67/181 2/68/182 46/64/62 45/63/61
s 2
f 2/5/183 3/6/184 47/2/66 46/1/65
s 3
f 3/6/185 4/11/186 48/7/70 47/2/69
s 4
f 4/83/187 5/84/188 49/80/74 48/79/73
s 5
f 5/29/189 6/30/190 50/26/78 49/25/77
s 6
f 6/30/191 1/35/192 45/31/82 50/26/81
