# This file uses meters as units for non-parametric coordinates.

mtllib Boys_Vase3_01_0201.mtl
g default
v -7.768424 0.198840 -0.401100
v -8.231575 0.198840 -0.401100
v -8.463151 0.198840 -0.000000
v -8.231575 0.198840 0.401100
v -7.768425 0.198840 0.401100
v -7.536849 0.198840 -0.000000
v -7.892073 1.488971 -0.186935
v -8.107927 1.488971 -0.186935
v -8.215854 1.488971 -0.000000
v -8.107927 1.488971 0.186935
v -7.892073 1.488971 0.186935
v -7.784146 1.488971 -0.000000
v -7.849060 1.628799 -0.261436
v -8.150940 1.628799 -0.261436
v -8.000000 1.628799 -0.000000
v -8.301880 1.628799 -0.000000
v -8.150940 1.628799 0.261436
v -7.849060 1.628799 0.261436
v -7.698120 1.628799 0.000000
v -7.835550 0.000000 -0.284835
v -8.164450 0.000000 -0.284835
v -8.000000 0.000000 -0.000000
v -8.328899 0.000000 -0.000000
v -8.164450 0.000000 0.284835
v -7.835550 0.000000 0.284835
v -7.671101 0.000000 -0.000000
vt 0.000000 0.069958
vt 0.161478 0.069958
vt 0.161478 0.523867
vt 0.086220 0.523867
vt 0.046807 0.000000
vt 0.161478 0.000000
vt 0.322955 0.069958
vt 0.236735 0.523867
vt 0.161478 0.573063
vt 0.056227 0.573063
vt 0.276148 0.000000
vt 0.266728 0.573063
vt 0.325385 0.069958
vt 0.486863 0.069958
vt 0.486863 0.523867
vt 0.411606 0.523867
vt 0.372192 0.000000
vt 0.486863 0.000000
vt 0.648341 0.069958
vt 0.562120 0.523867
vt 0.486863 0.573063
vt 0.381613 0.573063
vt 0.601534 0.000000
vt 0.592113 0.573063
vt 0.635073 0.376844
vt 0.766370 0.376844
vt 0.700721 0.490551
vt 0.608276 0.330431
vt 0.793166 0.330431
vt 0.832018 0.490551
vt 0.569424 0.490551
vt 0.766370 0.604257
vt 0.635073 0.604257
vt 0.793166 0.650670
vt 0.608276 0.650670
vt 0.419756 0.596231
vt 0.419756 0.706379
vt 0.324366 0.651305
vt 0.324366 0.761453
vt 0.324365 0.541157
vt 0.228975 0.706379
vt 0.228975 0.596231
vt 0.828528 0.496576
vt 1.000000 0.496576
vt 0.954222 0.914004
vt 0.874306 0.914004
vt 0.970146 0.959246
vt 0.858381 0.959246
vt 0.789361 0.000000
vt 0.960833 0.000000
vt 0.915055 0.417428
vt 0.835139 0.417428
vt 0.930979 0.462670
vt 0.819215 0.462670
vn 0.000000 0.163762 -0.986500
vn 0.000000 0.163762 -0.986500
vn 0.000000 0.163762 -0.986500
vn 0.000000 0.163762 -0.986500
vn -0.854334 0.163762 -0.493250
vn -0.854334 0.163762 -0.493250
vn -0.854334 0.163762 -0.493250
vn -0.854334 0.163762 -0.493250
vn -0.854334 0.163762 0.493250
vn -0.854334 0.163762 0.493250
vn -0.854334 0.163762 0.493250
vn -0.854334 0.163762 0.493250
vn -0.000000 0.163762 0.986500
vn -0.000000 0.163762 0.986500
vn -0.000000 0.163762 0.986500
vn -0.000000 0.163762 0.986500
vn 0.854334 0.163762 0.493250
vn 0.854334 0.163762 0.493250
vn 0.854334 0.163762 0.493250
vn 0.854334 0.163762 0.493250
vn 0.854334 0.163762 -0.493250
vn 0.854334 0.163762 -0.493250
vn 0.854334 0.163762 -0.493250
vn 0.854334 0.163762 -0.493250
vn 0.000000 -1.000000 -0.000000
vn 0.000000 -1.000000 -0.000000
vn 0.000000 -1.000000 -0.000000
vn 0.000000 -1.000000 0.000000
vn 0.000000 -1.000000 0.000000
vn 0.000000 -1.000000 0.000000
vn 0.000000 -1.000000 0.000000
vn 0.000000 -1.000000 0.000000
vn 0.000000 -1.000000 0.000000
vn 0.000000 -1.000000 -0.000000
vn 0.000000 -1.000000 -0.000000
vn 0.000000 -1.000000 -0.000000
vn 0.000000 -1.000000 0.000000
vn 0.000000 -1.000000 0.000000
vn 0.000000 -1.000000 0.000000
vn 0.000000 -1.000000 0.000000
vn 0.000000 -1.000000 0.000000
vn 0.000000 -1.000000 0.000000
vn 0.000000 1.000000 0.000000
vn 0.000000 1.000000 0.000000
vn 0.000000 1.000000 0.000000
vn 0.000000 1.000000 0.000000
vn 0.000000 1.000000 0.000000
vn 0.000000 1.000000 0.000000
vn 0.000000 1.000000 -0.000001
vn 0.000000 1.000000 -0.000001
vn 0.000000 1.000000 -0.000001
vn 0.000000 1.000000 0.000000
vn 0.000000 1.000000 0.000000
vn 0.000000 1.000000 0.000000
vn 0.000000 1.000000 -0.000000
vn 0.000000 1.000000 -0.000000
vn 0.000000 1.000000 -0.000000
vn 0.000000 1.000000 0.000001
vn 0.000000 1.000000 0.000001
vn 0.000000 1.000000 0.000001
vn 0.000000 -0.470226 -0.882546
vn 0.000000 -0.470225 -0.882546
vn 0.000000 -0.470225 -0.882546
vn 0.000000 -0.470225 -0.882546
vn -0.764307 -0.470226 -0.441274
vn -0.764307 -0.470226 -0.441274
vn -0.764307 -0.470226 -0.441274
vn -0.764307 -0.470226 -0.441273
vn -0.764307 -0.470226 0.441273
vn -0.764307 -0.470226 0.441273
vn -0.764307 -0.470226 0.441273
vn -0.764307 -0.470226 0.441273
vn -0.000000 -0.470226 0.882546
vn -0.000000 -0.470226 0.882546
vn -0.000000 -0.470226 0.882546
vn -0.000000 -0.470226 0.882546
vn 0.764307 -0.470226 0.441273
vn 0.764307 -0.470226 0.441273
vn 0.764307 -0.470226 0.441273
vn 0.764307 -0.470226 0.441273
vn 0.764307 -0.470226 -0.441273
vn 0.764307 -0.470225 -0.441273
vn 0.764307 -0.470225 -0.441273
vn 0.764307 -0.470225 -0.441273
vn 0.000000 -0.504762 -0.863258
vn 0.000000 -0.504762 -0.863258
vn 0.000000 -0.504762 -0.863258
vn 0.000000 -0.504762 -0.863258
vn -0.747604 -0.504762 -0.431629
vn -0.747604 -0.504762 -0.431629
vn -0.747604 -0.504762 -0.431629
vn -0.747604 -0.504762 -0.431629
vn -0.747604 -0.504762 0.431629
vn -0.747604 -0.504762 0.431629
vn -0.747604 -0.504762 0.431629
vn -0.747604 -0.504762 0.431629
vn -0.000000 -0.504762 0.863259
vn -0.000000 -0.504762 0.863259
vn -0.000000 -0.504762 0.863259
vn -0.000000 -0.504762 0.863258
vn 0.747604 -0.504762 0.431629
vn 0.747604 -0.504762 0.431629
vn 0.747604 -0.504762 0.431629
vn 0.747604 -0.504762 0.431629
vn 0.747604 -0.504762 -0.431629
vn 0.747604 -0.504762 -0.431629
vn 0.747604 -0.504762 -0.431629
vn 0.747604 -0.504762 -0.431629
s off
g Vase_3
usemtl aiStandardSurface1SG
f 1/43/1 2/44/2 8/45/3 7/46/4
f 2/1/5 3/2/6 9/3/7 8/4/8
f 3/2/9 4/7/10 10/8/11 9/3/12
f 4/49/13 5/50/14 11/51/15 10/52/16
f 5/13/17 6/14/18 12/15/19 11/16/20
f 6/14/21 1/19/22 7/20/23 12/15/24
f 21/25/25 20/26/26 22/27/27
f 23/31/28 21/25/29 22/27/30
f 24/33/31 23/31/32 22/27/33
f 25/32/34 24/33/35 22/27/36
f 26/30/37 25/32/38 22/27/39
f 20/26/40 26/30/41 22/27/42
f 13/36/43 14/37/44 15/38/45
f 14/37/46 16/39/47 15/38/48
f 16/39/49 17/41/50 15/38/51
f 17/41/52 18/42/53 15/38/54
f 18/42/55 19/40/56 15/38/57
f 19/40/58 13/36/59 15/38/60
f 7/46/61 8/45/62 14/47/63 13/48/64
f 8/4/65 9/3/66 16/9/67 14/10/68
f 9/3/69 10/8/70 17/12/71 16/9/72
f 10/52/73 11/51/74 18/53/75 17/54/76
f 11/16/77 12/15/78 19/21/79 18/22/80
f 12/15/81 7/20/82 13/24/83 19/21/84
f 2/28/85 1/29/86 20/26/87 21/25/88
f 3/2/89 2/1/90 21/5/91 23/6/92
f 4/7/93 3/2/94 23/6/95 24/11/96
f 5/34/97 4/35/98 24/33/99 25/32/100
f 6/14/101 5/13/102 25/17/103 26/18/104
f 1/19/105 6/14/106 26/18/107 20/23/108
