# This file uses meters as units for non-parametric coordinates.

mtllib Boys_Cup_01_0201.mtl
g default
v -5.929652 0.000000 5.929652
v -6.000000 0.000000 5.900512
v -6.070348 0.000000 5.929652
v -6.099488 0.000000 6.000000
v -6.070348 0.000000 6.070348
v -6.000000 0.000000 6.099488
v -5.929652 0.000000 6.070348
v -5.900512 0.000000 6.000000
v -5.907727 0.367086 5.907727
v -6.000000 0.367086 5.869506
v -6.092273 0.367086 5.907727
v -6.130494 0.367086 6.000000
v -6.092273 0.367086 6.092273
v -6.000000 0.367086 6.130494
v -5.907727 0.367086 6.092273
v -5.869506 0.367086 6.000000
v -6.000000 0.000000 6.000000
v -5.921431 0.367086 5.921431
v -6.000000 0.367086 5.888887
v -6.078569 0.367086 5.921431
v -6.111113 0.367086 6.000000
v -6.078569 0.367086 6.078569
v -6.000000 0.367086 6.111113
v -5.921431 0.367086 6.078569
v -5.888887 0.367086 6.000000
v -5.940345 0.014173 5.940345
v -6.000000 0.014173 5.915636
v -6.000000 0.014173 6.000000
v -6.059655 0.014173 5.940345
v -6.084364 0.014173 6.000000
v -6.059655 0.014173 6.059655
v -6.000000 0.014173 6.084364
v -5.940345 0.014173 6.059655
v -5.915636 0.014173 6.000000
vt 0.024988 0.000000
vt 0.105060 0.000000
vt 0.105060 0.417935
vt 0.000000 0.417935
vt 0.185131 0.000000
vt 0.210120 0.417935
vt 0.650294 0.180343
vt 0.730375 0.180343
vt 0.730375 0.598328
vt 0.625348 0.598328
vt 0.810456 0.180343
vt 0.835402 0.598328
vt 0.951543 0.999914
vt 0.862122 0.999914
vt 0.862122 0.598328
vt 0.930046 0.598328
vt 0.772700 0.999914
vt 0.794197 0.598328
vt 0.455604 0.819552
vt 0.366169 0.819552
vt 0.366169 0.417909
vt 0.434058 0.417909
vt 0.276734 0.819552
vt 0.298280 0.417909
vt 0.141055 0.441212
vt 0.217923 0.473087
vt 0.141055 0.549933
vt 0.249754 0.549933
vt 0.064188 0.473087
vt 0.217923 0.626779
vt 0.032346 0.549933
vt 0.141055 0.658653
vt 0.064188 0.626779
vt 0.890497 0.157385
vt 0.825332 0.184353
vt 0.825332 0.092176
vt 0.760167 0.157385
vt 0.917487 0.092176
vt 0.733166 0.092176
vt 0.890497 0.026968
vt 0.760167 0.026968
vt 0.825332 0.000000
vt 0.243426 0.661317
vt 0.142595 0.703124
vt 0.142595 0.681960
vt 0.228442 0.646398
vt 0.041764 0.661317
vt 0.056747 0.646398
vt 0.285190 0.560529
vt 0.264004 0.560529
vt 0.000000 0.560529
vt 0.021185 0.560529
vt 0.243426 0.459741
vt 0.228442 0.474659
vt 0.041764 0.459741
vt 0.056747 0.474659
vt 0.142595 0.417934
vt 0.142595 0.439097
vt 0.237009 0.000000
vt 0.317102 0.000000
vt 0.317102 0.417886
vt 0.212043 0.417886
vt 0.397196 0.000000
vt 0.422161 0.417886
vt 0.449051 0.000000
vt 0.529140 0.000000
vt 0.529140 0.417909
vt 0.424086 0.417909
vt 0.609229 0.000000
vt 0.634193 0.417909
vt 0.771839 1.000000
vt 0.682421 1.000000
vt 0.682421 0.598328
vt 0.750314 0.598328
vt 0.593002 1.000000
vt 0.614527 0.598328
vt 0.438462 0.417909
vt 0.527881 0.417909
vt 0.527881 0.819581
vt 0.459987 0.819581
vt 0.617299 0.417909
vt 0.595775 0.819581
vn 0.381523 -0.077800 -0.921079
vn 0.381523 -0.077800 -0.921079
vn 0.381524 -0.077800 -0.921079
vn 0.381524 -0.077800 -0.921079
vn -0.381523 -0.077800 -0.921079
vn -0.381523 -0.077800 -0.921079
vn -0.381524 -0.077800 -0.921079
vn -0.381524 -0.077800 -0.921079
vn -0.921079 -0.077800 -0.381523
vn -0.921079 -0.077800 -0.381523
vn -0.921079 -0.077800 -0.381523
vn -0.921079 -0.077800 -0.381523
vn -0.921079 -0.077800 0.381523
vn -0.921079 -0.077800 0.381523
vn -0.921079 -0.077800 0.381523
vn -0.921079 -0.077800 0.381523
vn -0.381523 -0.077800 0.921079
vn -0.381523 -0.077800 0.921079
vn -0.381524 -0.077800 0.921079
vn -0.381524 -0.077800 0.921079
vn 0.381523 -0.077800 0.921079
vn 0.381523 -0.077800 0.921079
vn 0.381523 -0.077800 0.921079
vn 0.381523 -0.077800 0.921079
vn 0.921079 -0.077800 0.381523
vn 0.921079 -0.077800 0.381523
vn 0.921079 -0.077800 0.381524
vn 0.921079 -0.077800 0.381524
vn 0.921079 -0.077800 -0.381523
vn 0.921079 -0.077800 -0.381523
vn 0.921079 -0.077800 -0.381523
vn 0.921079 -0.077800 -0.381523
vn 0.000000 -1.000000 0.000000
vn 0.000000 -1.000000 0.000000
vn 0.000000 -1.000000 0.000000
vn 0.000000 -1.000000 0.000000
vn 0.000000 -1.000000 0.000000
vn 0.000000 -1.000000 0.000000
vn 0.000000 -1.000000 0.000000
vn 0.000000 -1.000000 0.000000
vn 0.000000 -1.000000 0.000000
vn 0.000000 1.000000 0.000000
vn 0.000000 1.000000 0.000000
vn 0.000000 1.000000 0.000000
vn 0.000000 1.000000 0.000000
vn 0.000000 1.000000 0.000000
vn 0.000000 1.000000 0.000000
vn 0.000000 1.000000 0.000000
vn 0.000000 1.000000 0.000000
vn 0.000000 1.000000 0.000000
vn 0.000000 1.000000 0.000001
vn 0.000000 1.000000 0.000001
vn 0.000000 1.000000 0.000001
vn 0.000000 1.000000 0.000001
vn 0.000000 1.000000 0.000000
vn 0.000000 1.000000 0.000000
vn 0.000000 1.000000 0.000000
vn 0.000000 1.000000 0.000000
vn 0.000000 1.000000 -0.000000
vn 0.000000 1.000000 -0.000000
vn 0.000000 1.000000 -0.000000
vn 0.000000 1.000000 -0.000000
vn 0.000000 1.000000 0.000000
vn 0.000000 1.000000 0.000000
vn 0.000000 1.000000 0.000000
vn 0.000000 1.000000 0.000000
vn 0.000000 1.000000 -0.000001
vn 0.000000 1.000000 -0.000001
vn 0.000000 1.000000 -0.000001
vn 0.000000 1.000000 -0.000001
vn 0.000000 1.000000 0.000000
vn 0.000000 1.000000 0.000000
vn 0.000000 1.000000 0.000000
vn 0.000000 1.000000 0.000000
vn 0.000000 1.000000 0.000000
vn 0.000000 1.000000 0.000000
vn 0.000000 1.000000 0.000000
vn 0.000000 1.000000 0.000000
vn 0.000000 1.000000 -0.000000
vn 0.000000 1.000000 -0.000000
vn 0.000000 1.000000 -0.000000
vn 0.000000 1.000000 -0.000000
vn -0.381749 0.069854 0.921623
vn -0.381749 0.069854 0.921623
vn -0.381749 0.069854 0.921623
vn -0.381749 0.069854 0.921623
vn 0.381749 0.069854 0.921623
vn 0.381749 0.069854 0.921623
vn 0.381749 0.069854 0.921623
vn 0.381749 0.069854 0.921623
vn 0.921623 0.069854 0.381749
vn 0.921623 0.069854 0.381749
vn 0.921623 0.069854 0.381749
vn 0.921623 0.069854 0.381749
vn 0.921623 0.069854 -0.381749
vn 0.921623 0.069854 -0.381749
vn 0.921623 0.069854 -0.381749
vn 0.921623 0.069854 -0.381749
vn 0.381749 0.069854 -0.921623
vn 0.381749 0.069854 -0.921623
vn 0.381749 0.069854 -0.921623
vn 0.381749 0.069854 -0.921623
vn -0.381749 0.069854 -0.921623
vn -0.381749 0.069854 -0.921623
vn -0.381749 0.069854 -0.921623
vn -0.381749 0.069854 -0.921623
vn -0.921623 0.069854 -0.381749
vn -0.921623 0.069854 -0.381749
vn -0.921623 0.069854 -0.381749
vn -0.921623 0.069854 -0.381749
vn -0.921623 0.069854 0.381749
vn -0.921623 0.069854 0.381749
vn -0.921623 0.069854 0.381749
vn -0.921623 0.069854 0.381749
s off
g Cup1
usemtl aiStandardSurface1SG
f 1/59/1 2/60/2 10/61/3 9/62/4
f 2/60/5 3/63/6 11/64/7 10/61/8
f 3/1/9 4/2/10 12/3/11 11/4/12
f 4/2/13 5/5/14 13/6/15 12/3/16
f 5/65/17 6/66/18 14/67/19 13/68/20
f 6/66/21 7/69/22 15/70/23 14/67/24
f 7/7/25 8/8/26 16/9/27 15/10/28
f 8/8/29 1/11/30 9/12/31 16/9/32
s 1
f 2/25/33 1/26/34 17/27/35
f 3/29/36 2/25/33 17/27/35
f 4/31/37 3/29/36 17/27/35
f 5/33/38 4/31/37 17/27/35
f 6/32/39 5/33/38 17/27/35
f 7/30/40 6/32/39 17/27/35
f 8/28/41 7/30/40 17/27/35
f 1/26/34 8/28/41 17/27/35
s 2
f 26/34/42 27/35/43 28/36/44
f 27/35/43 29/37/45 28/36/44
f 29/37/45 30/39/46 28/36/44
f 30/39/46 31/41/47 28/36/44
f 31/41/47 32/42/48 28/36/44
f 32/42/48 33/40/49 28/36/44
f 33/40/49 34/38/50 28/36/44
f 34/38/50 26/34/42 28/36/44
s off
f 9/43/51 10/44/52 19/45/53 18/46/54
f 10/44/55 11/47/56 20/48/57 19/45/58
f 11/47/59 12/51/60 21/52/61 20/48/62
f 12/51/63 13/55/64 22/56/65 21/52/66
f 13/55/67 14/57/68 23/58/69 22/56/70
f 14/57/71 15/53/72 24/54/73 23/58/74
f 15/53/75 16/49/76 25/50/77 24/54/78
f 16/49/79 9/43/80 18/46/81 25/50/82
f 18/71/83 19/72/84 27/73/85 26/74/86
f 19/72/87 20/75/88 29/76/89 27/73/90
f 20/13/91 21/14/92 30/15/93 29/16/94
f 21/14/95 22/17/96 31/18/97 30/15/98
f 22/77/99 23/78/100 32/79/101 31/80/102
f 23/78/103 24/81/104 33/82/105 32/79/106
f 24/19/107 25/20/108 34/21/109 33/22/110
f 25/20/111 18/23/112 26/24/113 34/21/114
