# This file uses centimeters as units for non-parametric coordinates.

mtllib Boys_PicFrameC_02_0201.mtl
g default
v -10.446662 0.000000 1.250000
v 10.446663 0.000000 1.250000
v -10.446662 31.339989 1.250000
v 10.446663 31.339989 1.250000
v -10.446662 31.339989 -1.250000
v 10.446663 31.339989 -1.250000
v -10.446662 0.000000 -1.250000
v 10.446663 0.000000 -1.250000
v -7.446658 3.000000 1.250000
v 7.446666 3.000000 1.250000
v 7.446666 28.339989 1.250000
v -7.446658 28.339989 1.250000
v -7.446658 3.000000 -0.040550
v 7.446666 3.000000 -0.040550
v 7.446666 28.339989 -0.040550
v -7.446658 28.339989 -0.040550
vt 0.774026 0.000000
vt 0.804744 0.000000
vt 0.804744 0.552929
vt 0.774026 0.552929
vt 0.740077 0.000000
vt 0.770795 0.000000
vt 0.770795 0.552929
vt 0.740077 0.552929
vt 0.857780 0.000000
vt 0.857780 0.447071
vt 0.841923 0.447071
vt 0.841923 0.000000
vt 0.101846 0.500000
vt 0.101846 0.052929
vt 0.117703 0.052929
vt 0.117703 0.500000
vt 0.807974 0.368619
vt 0.807974 0.000000
vt 0.838692 0.000000
vt 0.838692 0.368619
vt 0.054318 0.421548
vt 0.054318 0.052929
vt 0.085036 0.052929
vt 0.085036 0.421548
vt 0.858897 0.262762
vt 0.858897 0.000000
vt 0.874754 0.000000
vt 0.874754 0.262762
vt 0.134677 0.052929
vt 0.134677 0.315690
vt 0.118820 0.315690
vt 0.118820 0.052929
vt 0.000000 0.552929
vt 0.262762 0.552929
vt 0.262762 1.000000
vt 0.000000 1.000000
vt 0.370039 0.000000
vt 0.738658 0.000000
vt 0.738658 0.552929
vt 0.370039 0.552929
vt 0.000000 0.000000
vt 0.368619 0.000000
vt 0.315691 0.052929
vt 0.052929 0.052929
vt 0.368619 0.552929
vt 0.315690 0.500000
vt 0.000000 0.552929
vt 0.052929 0.500000
vn 0.000000 0.000000 1.000000
vn 0.000000 0.000000 1.000000
vn 0.000000 0.000000 1.000000
vn 0.000000 0.000000 1.000000
vn 0.000000 1.000000 0.000000
vn 0.000000 1.000000 0.000000
vn 0.000000 1.000000 0.000000
vn 0.000000 1.000000 0.000000
vn 0.000000 0.000000 -1.000000
vn 0.000000 0.000000 -1.000000
vn 0.000000 0.000000 -1.000000
vn 0.000000 0.000000 -1.000000
vn 0.000000 -1.000000 0.000000
vn 0.000000 -1.000000 0.000000
vn 0.000000 -1.000000 0.000000
vn 0.000000 -1.000000 0.000000
vn 1.000000 0.000000 0.000000
vn 1.000000 0.000000 0.000000
vn 1.000000 0.000000 0.000000
vn 1.000000 0.000000 0.000000
vn -1.000000 0.000000 0.000000
vn -1.000000 0.000000 0.000000
vn -1.000000 0.000000 0.000000
vn -1.000000 0.000000 0.000000
vn 0.000000 0.000000 1.000000
vn -0.000000 0.000000 1.000000
vn -0.000000 0.000000 1.000000
vn 0.000000 0.000000 1.000000
vn -0.000000 0.000000 1.000000
vn -0.000000 0.000000 1.000000
vn 0.000000 0.000000 1.000000
vn 0.000000 0.000000 1.000000
vn 0.000000 1.000000 0.000000
vn 0.000000 1.000000 0.000000
vn 0.000000 1.000000 0.000000
vn 0.000000 1.000000 0.000000
vn -1.000000 0.000000 0.000000
vn -1.000000 0.000000 0.000000
vn -1.000000 0.000000 0.000000
vn -1.000000 0.000000 0.000000
vn 0.000000 -1.000000 0.000000
vn 0.000000 -1.000000 0.000000
vn 0.000000 -1.000000 0.000000
vn 0.000000 -1.000000 0.000000
vn 1.000000 0.000000 0.000000
vn 1.000000 0.000000 0.000000
vn 1.000000 0.000000 0.000000
vn 1.000000 0.000000 0.000000
s off
g Boys_PicPaintFrameC_02
usemtl initialShadingGroup
f 13/33/1 14/34/2 15/35/3 16/36/4
f 3/17/5 4/18/6 6/19/7 5/20/8
f 5/37/9 6/38/10 8/39/11 7/40/12
f 7/21/13 8/22/14 2/23/15 1/24/16
f 2/1/17 8/2/18 6/3/19 4/4/20
f 7/5/21 1/6/22 3/7/23 5/8/24
s 1
f 1/41/25 2/42/26 10/43/27 9/44/28
f 2/42/26 4/45/29 11/46/30 10/43/27
f 4/45/29 3/47/31 12/48/32 11/46/30
f 3/47/31 1/41/25 9/44/28 12/48/32
s off
f 9/25/33 10/26/34 14/27/35 13/28/36
f 10/9/37 11/10/38 15/11/39 14/12/40
f 11/29/41 12/30/42 16/31/43 15/32/44
f 12/13/45 9/14/46 13/15/47 16/16/48
