# This file uses centimeters as units for non-parametric coordinates.

mtllib Boys_PicFrameB_02_0201.mtl
g default
v -18.666668 0.000000 1.249997
v 18.666668 0.000000 1.249997
v -18.666668 26.000000 1.249997
v 18.666668 26.000000 1.249997
v -18.666668 26.000000 -1.249998
v 18.666668 26.000000 -1.249998
v -18.666668 0.000000 -1.249998
v 18.666668 0.000000 -1.249998
v -15.666668 3.000000 1.250001
v 15.666668 3.000000 1.250001
v 15.666668 23.000002 1.250001
v -15.666668 23.000002 1.250001
v -15.666668 3.000000 -0.040549
v 15.666668 3.000000 -0.040549
v 15.666668 23.000002 -0.040549
v -15.666668 23.000002 -0.040549
vt 0.758772 0.000000
vt 0.790173 0.000000
vt 0.790173 0.565217
vt 0.758772 0.565217
vt 0.790388 0.000000
vt 0.821788 0.000000
vt 0.821788 0.565217
vt 0.790388 0.565217
vt 0.901444 0.000000
vt 0.901444 0.434783
vt 0.885234 0.434783
vt 0.885234 0.000000
vt 0.902798 0.434783
vt 0.902798 0.000000
vt 0.919008 0.000000
vt 0.919008 0.434783
vt 0.853619 0.376812
vt 0.853619 0.000000
vt 0.885019 0.000000
vt 0.885019 0.376812
vt 0.822003 0.376812
vt 0.822003 0.000000
vt 0.853404 0.000000
vt 0.853404 0.376812
vt 0.031615 0.381470
vt 0.031615 0.065217
vt 0.047825 0.065217
vt 0.047825 0.381470
vt 0.936572 0.000000
vt 0.936572 0.316253
vt 0.920362 0.316253
vt 0.920362 0.000000
vt 0.000000 0.565217
vt 0.316253 0.565217
vt 0.316253 1.000000
vt 0.000000 1.000000
vt 0.379386 0.000000
vt 0.756198 0.000000
vt 0.756198 0.565217
vt 0.379386 0.565217
vt 0.000000 0.000000
vt 0.376812 0.000000
vt 0.346532 0.065217
vt 0.030280 0.065217
vt 0.376812 0.565217
vt 0.346532 0.500000
vt 0.000000 0.565217
vt 0.030280 0.500000
vn 0.000000 0.000000 1.000000
vn 0.000000 0.000000 1.000000
vn 0.000000 0.000000 1.000000
vn 0.000000 0.000000 1.000000
vn 0.000000 1.000000 0.000000
vn 0.000000 1.000000 0.000000
vn 0.000000 1.000000 0.000000
vn 0.000000 1.000000 0.000000
vn 0.000000 0.000000 -1.000000
vn 0.000000 0.000000 -1.000000
vn 0.000000 0.000000 -1.000000
vn 0.000000 0.000000 -1.000000
vn 0.000000 -1.000000 0.000000
vn 0.000000 -1.000000 0.000000
vn 0.000000 -1.000000 0.000000
vn 0.000000 -1.000000 0.000000
vn 1.000000 0.000000 0.000000
vn 1.000000 0.000000 0.000000
vn 1.000000 0.000000 0.000000
vn 1.000000 0.000000 0.000000
vn -1.000000 0.000000 0.000000
vn -1.000000 0.000000 0.000000
vn -1.000000 0.000000 0.000000
vn -1.000000 0.000000 0.000000
vn -0.000001 -0.000001 1.000000
vn 0.000000 -0.000001 1.000000
vn 0.000000 -0.000001 1.000000
vn -0.000001 -0.000001 1.000000
vn 0.000000 0.000001 1.000000
vn 0.000000 0.000001 1.000000
vn -0.000001 0.000001 1.000000
vn -0.000001 0.000001 1.000000
vn 0.000000 1.000000 0.000000
vn 0.000000 1.000000 0.000000
vn 0.000000 1.000000 0.000000
vn 0.000000 1.000000 0.000000
vn -1.000000 0.000000 0.000000
vn -1.000000 0.000000 0.000000
vn -1.000000 0.000000 0.000000
vn -1.000000 0.000000 0.000000
vn 0.000000 -1.000000 0.000000
vn 0.000000 -1.000000 0.000000
vn 0.000000 -1.000000 0.000000
vn 0.000000 -1.000000 0.000000
vn 1.000000 0.000000 0.000000
vn 1.000000 0.000000 0.000000
vn 1.000000 0.000000 0.000000
vn 1.000000 0.000000 0.000000
s off
g Boys_PicPaintFrameB_02
usemtl initialShadingGroup
f 13/33/1 14/34/2 15/35/3 16/36/4
f 3/17/5 4/18/6 6/19/7 5/20/8
f 5/37/9 6/38/10 8/39/11 7/40/12
f 7/21/13 8/22/14 2/23/15 1/24/16
f 2/1/17 8/2/18 6/3/19 4/4/20
f 7/5/21 1/6/22 3/7/23 5/8/24
s 1
f 1/41/25 2/42/26 10/43/27 9/44/28
f 2/42/26 4/45/29 11/46/30 10/43/27
f 4/45/29 3/47/31 12/48/32 11/46/30
f 3/47/31 1/41/25 9/44/28 12/48/32
s off
f 9/25/33 10/26/34 14/27/35 13/28/36
f 10/9/37 11/10/38 15/11/39 14/12/40
f 11/29/41 12/30/42 16/31/43 15/32/44
f 12/13/45 9/14/46 13/15/47 16/16/48
