# This file uses meters as units for non-parametric coordinates.

mtllib CircleRug.mtl
g default
v 92.387978 0.000000 -38.268288
v 70.710716 0.000000 -70.710632
v 38.268391 0.000000 -92.387924
v 0.000051 0.000000 -99.999992
v -38.268299 0.000000 -92.387970
v -70.710648 0.000000 -70.710709
v -92.387939 0.000000 -38.268379
v -100.000000 0.000000 -0.000036
v -92.387962 0.000000 38.268314
v -70.710693 0.000000 70.710663
v -38.268360 0.000000 92.387947
v -0.000015 0.000000 100.000000
v 38.268330 0.000000 92.387955
v 70.710670 0.000000 70.710686
v 92.387947 0.000000 38.268345
v 100.000000 0.000000 0.000000
v 87.438873 2.000000 -36.218307
v 66.922836 2.000000 -66.922760
v 36.218403 2.000000 -87.438828
v 0.000048 2.000000 -94.643120
v -36.218315 2.000000 -87.438866
v -66.922775 2.000000 -66.922829
v -87.438835 2.000000 -36.218391
v -94.643135 2.000000 -0.000034
v -87.438858 2.000000 36.218330
v -66.922813 2.000000 66.922783
v -36.218376 2.000000 87.438843
v -0.000014 2.000000 94.643135
v 36.218346 2.000000 87.438850
v 66.922791 2.000000 66.922806
v 87.438843 2.000000 36.218361
v 94.643135 2.000000 0.000000
v 0.000000 0.000000 0.000000
v 0.000000 2.000000 0.000000
vt 0.636885 0.001583
vt 0.712215 0.001583
vt 0.712215 0.395275
vt 0.640921 0.395275
vt 0.787545 0.001583
vt 0.783510 0.395275
vt 0.573024 0.001583
vt 0.580480 0.395275
vt 0.851407 0.001583
vt 0.843950 0.395275
vt 0.530353 0.001583
vt 0.540095 0.395275
vt 0.894078 0.001583
vt 0.884336 0.395275
vt 0.108524 0.001583
vt 0.183854 0.001583
vt 0.183854 0.395275
vt 0.112560 0.395275
vt 0.259184 0.001583
vt 0.255149 0.395275
vt 0.044663 0.001583
vt 0.052119 0.395275
vt 0.323046 0.001583
vt 0.315589 0.395275
vt 0.001992 0.001583
vt 0.011734 0.395275
vt 0.365717 0.001583
vt 0.355974 0.395275
vt 0.783558 0.456922
vt 0.826229 0.520783
vt 0.644367 0.596113
vt 0.841213 0.596113
vt 0.719697 0.414251
vt 0.826229 0.671443
vt 0.644367 0.399267
vt 0.783558 0.735305
vt 0.569037 0.414251
vt 0.719697 0.777975
vt 0.505175 0.456922
vt 0.644367 0.792960
vt 0.462504 0.520783
vt 0.569037 0.777975
vt 0.447520 0.596113
vt 0.505175 0.735304
vt 0.462504 0.671443
vt 0.326378 0.413448
vt 0.386819 0.453833
vt 0.255084 0.585568
vt 0.427204 0.514274
vt 0.255084 0.399267
vt 0.441385 0.585568
vt 0.183789 0.413448
vt 0.427204 0.656863
vt 0.123349 0.453833
vt 0.386819 0.717303
vt 0.082963 0.514274
vt 0.326378 0.757689
vt 0.068782 0.585568
vt 0.255084 0.771870
vt 0.082963 0.656863
vt 0.183789 0.757689
vt 0.123349 0.717303
vt 0.523148 0.395275
vt 0.447818 0.395275
vt 0.447818 0.001583
vt 0.519112 0.001583
vt 0.372488 0.395275
vt 0.376523 0.001583
vt 0.847348 0.399267
vt 0.922678 0.399267
vt 0.922678 0.792960
vt 0.851384 0.792960
vt 0.998008 0.399267
vt 0.993973 0.792960
vn 0.323145 0.936836 -0.133851
vn 0.247325 0.936836 -0.247325
vn 0.247325 0.936836 -0.247325
vn 0.323145 0.936836 -0.133851
vn 0.133851 0.936836 -0.323145
vn 0.133851 0.936836 -0.323145
vn 0.000000 0.936836 -0.349770
vn 0.000000 0.936836 -0.349770
vn -0.133851 0.936836 -0.323145
vn -0.133851 0.936836 -0.323145
vn -0.247325 0.936836 -0.247325
vn -0.247325 0.936836 -0.247325
vn -0.323145 0.936836 -0.133851
vn -0.323145 0.936836 -0.133851
vn -0.349770 0.936836 -0.000000
vn -0.349770 0.936836 -0.000000
vn -0.323145 0.936836 0.133851
vn -0.323145 0.936836 0.133851
vn -0.247324 0.936836 0.247324
vn -0.247324 0.936836 0.247324
vn -0.133851 0.936836 0.323145
vn -0.133851 0.936836 0.323145
vn -0.000000 0.936836 0.349770
vn -0.000000 0.936836 0.349770
vn 0.133851 0.936836 0.323145
vn 0.133851 0.936836 0.323145
vn 0.247325 0.936836 0.247325
vn 0.247325 0.936836 0.247325
vn 0.323145 0.936836 0.133851
vn 0.323145 0.936836 0.133851
vn 0.349770 0.936836 0.000000
vn 0.349770 0.936836 0.000000
vn 0.000000 -1.000000 0.000000
vn 0.000000 -1.000000 0.000000
vn 0.000000 -1.000000 -0.000000
vn 0.000000 -1.000000 -0.000000
vn 0.000000 -1.000000 -0.000000
vn 0.000000 -1.000000 -0.000000
vn 0.000000 -1.000000 -0.000000
vn 0.000000 -1.000000 0.000000
vn 0.000000 -1.000000 0.000000
vn 0.000000 -1.000000 0.000000
vn 0.000000 -1.000000 0.000000
vn 0.000000 -1.000000 -0.000000
vn 0.000000 -1.000000 -0.000000
vn 0.000000 -1.000000 -0.000000
vn 0.000000 -1.000000 -0.000000
vn 0.000000 -1.000000 0.000000
vn 0.000000 -1.000000 0.000000
vn 0.000000 1.000000 0.000000
vn 0.000000 1.000000 0.000000
vn 0.000000 1.000000 -0.000000
vn 0.000000 1.000000 0.000000
vn 0.000000 1.000000 0.000000
vn 0.000000 1.000000 0.000000
vn 0.000000 1.000000 -0.000000
vn 0.000000 1.000000 -0.000000
vn 0.000000 1.000000 0.000000
vn 0.000000 1.000000 0.000000
vn 0.000000 1.000000 0.000000
vn 0.000000 1.000000 0.000000
vn 0.000000 1.000000 -0.000000
vn 0.000000 1.000000 -0.000000
vn 0.000000 1.000000 0.000000
vn 0.000000 1.000000 0.000000
vn 0.000000 1.000000 0.000000
s 1
g pCylinder3
usemtl phong2SG
f 1/19/1 2/23/2 18/24/3 17/20/4
f 2/23/2 3/27/5 19/28/6 18/24/3
f 3/63/5 4/64/7 20/65/8 19/66/6
f 4/64/7 5/67/9 21/68/10 20/65/8
f 5/11/9 6/7/11 22/8/12 21/12/10
f 6/7/11 7/1/13 23/4/14 22/8/12
f 7/1/13 8/2/15 24/3/16 23/4/14
f 8/2/15 9/5/17 25/6/18 24/3/16
f 9/5/17 10/9/19 26/10/20 25/6/18
f 10/9/19 11/13/21 27/14/22 26/10/20
f 11/69/21 12/70/23 28/71/24 27/72/22
f 12/70/23 13/73/25 29/74/26 28/71/24
f 13/25/25 14/21/27 30/22/28 29/26/26
f 14/21/27 15/15/29 31/18/30 30/22/28
f 15/15/29 16/16/31 32/17/32 31/18/30
f 16/16/31 1/19/1 17/20/4 32/17/32
s 2
f 2/29/33 1/30/34 33/31/35
f 3/33/36 2/29/33 33/31/35
f 4/35/37 3/33/36 33/31/35
f 5/37/38 4/35/37 33/31/35
f 6/39/39 5/37/38 33/31/35
f 7/41/40 6/39/39 33/31/35
f 8/43/41 7/41/40 33/31/35
f 9/45/42 8/43/41 33/31/35
f 10/44/43 9/45/42 33/31/35
f 11/42/44 10/44/43 33/31/35
f 12/40/45 11/42/44 33/31/35
f 13/38/46 12/40/45 33/31/35
f 14/36/47 13/38/46 33/31/35
f 15/34/48 14/36/47 33/31/35
f 16/32/49 15/34/48 33/31/35
f 1/30/34 16/32/49 33/31/35
s 3
f 17/46/50 18/47/51 34/48/52
f 18/47/51 19/49/53 34/48/52
f 19/49/53 20/51/54 34/48/52
f 20/51/54 21/53/55 34/48/52
f 21/53/55 22/55/56 34/48/52
f 22/55/56 23/57/57 34/48/52
f 23/57/57 24/59/58 34/48/52
f 24/59/58 25/61/59 34/48/52
f 25/61/59 26/62/60 34/48/52
f 26/62/60 27/60/61 34/48/52
f 27/60/61 28/58/62 34/48/52
f 28/58/62 29/56/63 34/48/52
f 29/56/63 30/54/64 34/48/52
f 30/54/64 31/52/65 34/48/52
f 31/52/65 32/50/66 34/48/52
f 32/50/66 17/46/50 34/48/52
