# This file uses meters as units for non-parametric coordinates.

mtllib CabinetRight.mtl
g default
v 5.299503 42.889961 5.285429
v 3.251634 42.889961 5.285429
v 5.299503 53.921413 5.285429
v 3.251634 53.921413 5.285429
v 5.299503 53.921413 3.237557
v 3.251634 53.921413 3.237557
v 5.299503 42.889961 3.237557
v 3.251634 42.889961 3.237557
v 3.251634 44.958363 5.285429
v 5.299503 44.958363 5.285429
v 5.299503 44.958363 4.191754
v 3.251634 44.958363 4.191754
v 3.251634 51.853012 5.285429
v 5.299503 51.853012 5.285429
v 5.299503 51.853012 4.191754
v 3.251634 51.853012 4.191754
v 5.299503 44.958363 0.578862
v 3.251634 44.958363 0.578862
v 3.251634 42.889961 0.578862
v 5.299503 42.889961 0.578862
v 5.299503 53.921413 0.578862
v 3.251634 53.921413 0.578862
v 3.251634 51.853012 0.578862
v 5.299503 51.853012 0.578862
v 44.992895 9.419125 2.500000
v 0.542892 9.419125 2.500000
v 44.992895 67.839127 2.500000
v 0.542892 67.839127 2.500000
v 44.992895 67.839127 -0.045187
v 0.542892 67.839127 -0.045187
v 44.992895 9.419125 -0.045187
v 0.542892 9.419125 -0.045187
v 37.767896 9.419127 2.500000
v 37.767896 67.839127 2.500000
v 37.767896 67.839127 -0.045187
v 37.767896 9.419127 -0.045187
v 7.767892 9.419125 2.500000
v 7.767892 67.839127 2.500000
v 7.767892 67.839127 -0.045187
v 7.767892 9.419125 -0.045187
v 37.767896 16.629124 2.500000
v 44.992895 16.629129 2.500000
v 44.992895 16.629129 -0.045187
v 37.767896 16.629124 -0.045187
v 7.767892 16.629129 -0.045187
v 0.542892 16.629129 -0.045187
v 0.542892 16.629129 2.500000
v 7.767892 16.629129 2.500000
v 7.767892 60.629128 2.500000
v 37.767896 60.629128 2.500000
v 44.992895 60.629128 2.500000
v 44.992895 60.629128 -0.045187
v 37.767896 60.629128 -0.045187
v 7.767892 60.629128 -0.045187
v 0.542892 60.629128 -0.045187
v 0.542892 60.629128 2.500000
v 7.767892 16.629129 1.309094
v 37.767896 16.629124 1.309094
v 7.767892 60.629128 1.309094
v 37.767896 60.629128 1.309094
vt 0.635408 0.522840
vt 0.635408 0.541146
vt 0.625728 0.541146
vt 0.617284 0.522840
vt 0.635408 0.602165
vt 0.625728 0.602165
vt 0.593754 0.541146
vt 0.593754 0.522840
vt 0.635408 0.620470
vt 0.617284 0.620470
vt 0.593754 0.620470
vt 0.593754 0.602165
vt 0.564088 0.522840
vt 0.555644 0.541146
vt 0.545964 0.541146
vt 0.545964 0.522840
vt 0.587618 0.522840
vt 0.587618 0.541146
vt 0.555644 0.602165
vt 0.545964 0.602165
vt 0.564088 0.620470
vt 0.545964 0.620470
vt 0.587618 0.602165
vt 0.587618 0.620470
vt 0.823783 0.001821
vt 0.823783 0.065631
vt 0.801257 0.065631
vt 0.801257 0.001821
vt 0.823783 0.455039
vt 0.801257 0.455039
vt 0.823783 0.518848
vt 0.801257 0.518848
vt 0.853017 0.001821
vt 0.853017 0.065631
vt 0.830492 0.065631
vt 0.830492 0.001821
vt 0.853017 0.455039
vt 0.830492 0.455039
vt 0.853017 0.518848
vt 0.830492 0.518848
vt 0.699152 0.522840
vt 0.709692 0.522840
vt 0.709692 0.912248
vt 0.699152 0.912248
vt 0.726367 0.912248
vt 0.715827 0.912248
vt 0.715827 0.522840
vt 0.726367 0.522840
vt 0.515570 0.522840
vt 0.515570 0.540964
vt 0.497446 0.540964
vt 0.497446 0.522840
vt 0.515570 0.564494
vt 0.497446 0.564494
vt 0.491310 0.546370
vt 0.491310 0.564494
vt 0.473186 0.564494
vt 0.473186 0.546370
vt 0.473186 0.522840
vt 0.491310 0.522840
vt 0.467051 0.522840
vt 0.467051 0.554815
vt 0.448927 0.554815
vt 0.448927 0.522840
vt 0.424668 0.554815
vt 0.424668 0.522840
vt 0.442792 0.522840
vt 0.442792 0.554815
vt 0.859726 0.001821
vt 0.882251 0.001821
vt 0.882251 0.065763
vt 0.859726 0.065763
vt 0.882251 0.331269
vt 0.859726 0.331269
vt 0.882251 0.395212
vt 0.859726 0.395212
vt 0.888960 0.001821
vt 0.911486 0.001821
vt 0.911486 0.065763
vt 0.888960 0.065763
vt 0.911486 0.331269
vt 0.888960 0.331269
vt 0.911486 0.395212
vt 0.888960 0.395212
vt 0.682477 0.522840
vt 0.693017 0.522840
vt 0.693017 0.788346
vt 0.682477 0.788346
vt 0.676342 0.788346
vt 0.665802 0.788346
vt 0.665802 0.522840
vt 0.676342 0.522840
vt 0.659667 0.522840
vt 0.659667 0.541146
vt 0.641543 0.541146
vt 0.641543 0.522840
vt 0.659667 0.602165
vt 0.641543 0.602165
vt 0.659667 0.620470
vt 0.641543 0.620470
vt 0.539829 0.522840
vt 0.539829 0.583859
vt 0.521705 0.583859
vt 0.521705 0.522840
vt 0.395383 0.001821
vt 0.395383 0.065631
vt 0.331440 0.065631
vt 0.331440 0.001821
vt 0.395383 0.455039
vt 0.331440 0.455039
vt 0.065935 0.065631
vt 0.065935 0.001821
vt 0.395383 0.518848
vt 0.331440 0.518848
vt 0.001992 0.065631
vt 0.001992 0.001821
vt 0.065935 0.518848
vt 0.065935 0.455039
vt 0.001992 0.455039
vt 0.001992 0.518848
vt 0.795113 0.455039
vt 0.795113 0.518848
vt 0.731170 0.518848
vt 0.731170 0.455039
vt 0.465665 0.518848
vt 0.465665 0.455039
vt 0.795113 0.065631
vt 0.731170 0.065631
vt 0.401722 0.518848
vt 0.401722 0.455039
vt 0.465665 0.065631
vt 0.795113 0.001821
vt 0.731170 0.001821
vt 0.401722 0.065631
vt 0.465665 0.001821
vt 0.401722 0.001821
vt 0.998008 0.522840
vt 0.998008 0.912248
vt 0.732502 0.912248
vt 0.732502 0.522840
vn 0.000000 0.000000 1.000000
vn 0.000000 0.000000 1.000000
vn 0.000000 0.000000 1.000000
vn 0.000000 0.000000 1.000000
vn 0.000000 1.000000 0.000000
vn 0.000000 1.000000 0.000000
vn 0.000000 1.000000 0.000000
vn 0.000000 1.000000 0.000000
vn 0.000000 -1.000000 0.000000
vn 0.000000 -1.000000 0.000000
vn 0.000000 -1.000000 0.000000
vn 0.000000 -1.000000 0.000000
vn -1.000000 0.000000 0.000000
vn -1.000000 0.000000 0.000000
vn -1.000000 0.000000 0.000000
vn -1.000000 0.000000 0.000000
vn 1.000000 0.000000 0.000000
vn 1.000000 0.000000 0.000000
vn 1.000000 0.000000 0.000000
vn 1.000000 0.000000 0.000000
vn 0.000000 0.000000 1.000000
vn 0.000000 0.000000 1.000000
vn 1.000000 -0.000000 0.000000
vn 1.000000 -0.000000 0.000000
vn 0.000000 0.000000 -1.000000
vn 0.000000 0.000000 -1.000000
vn 0.000000 0.000000 -1.000000
vn 0.000000 0.000000 -1.000000
vn -1.000000 0.000000 0.000000
vn -1.000000 0.000000 0.000000
vn 0.000000 0.000000 1.000000
vn 0.000000 0.000000 1.000000
vn 1.000000 -0.000000 0.000000
vn 1.000000 -0.000001 0.000000
vn -1.000000 0.000000 0.000000
vn -1.000000 0.000000 0.000000
vn 0.000000 1.000000 0.000000
vn 0.000000 1.000000 0.000000
vn 0.000000 1.000000 0.000000
vn 0.000000 1.000000 0.000000
vn -1.000000 0.000000 0.000000
vn -1.000000 0.000000 0.000000
vn 0.000000 -1.000000 0.000000
vn 0.000000 -1.000000 0.000000
vn 1.000000 0.000000 0.000000
vn 1.000000 0.000000 0.000000
vn 0.000000 1.000000 0.000000
vn 0.000000 1.000000 0.000000
vn -1.000000 0.000000 0.000000
vn -1.000000 0.000000 0.000000
vn 0.000000 -1.000000 0.000000
vn 0.000000 -1.000000 0.000000
vn 0.000000 -1.000000 0.000000
vn 0.000000 -1.000000 0.000000
vn 1.000000 0.000000 0.000000
vn 1.000000 0.000000 0.000000
vn 0.000000 0.000000 1.000000
vn -0.000000 0.000000 1.000000
vn -0.000000 0.000000 1.000000
vn 0.000000 0.000000 1.000000
vn 0.000000 1.000000 0.000000
vn 0.000000 1.000000 0.000000
vn 0.000000 1.000000 0.000000
vn 0.000000 1.000000 0.000000
vn -0.000000 0.000000 -1.000000
vn -0.000000 0.000000 -1.000000
vn -0.000000 0.000000 -1.000000
vn 0.000000 0.000000 -1.000000
vn -0.000000 -1.000000 0.000000
vn -0.000000 -1.000000 0.000000
vn 0.000000 -1.000000 0.000000
vn 0.000000 -1.000000 0.000000
vn -1.000000 0.000000 0.000000
vn -1.000000 0.000000 0.000000
vn -1.000000 0.000000 0.000000
vn -1.000000 0.000000 0.000000
vn 1.000000 0.000000 0.000000
vn 1.000000 0.000000 0.000000
vn 1.000000 0.000000 0.000000
vn 1.000000 0.000000 0.000000
vn -0.000000 0.000000 1.000000
vn -0.000000 0.000000 1.000000
vn 0.000000 1.000000 0.000000
vn 0.000000 1.000000 0.000000
vn 0.000000 0.000000 -1.000000
vn 0.000000 0.000000 -1.000000
vn 0.000000 -1.000000 0.000000
vn 0.000000 -1.000000 0.000000
vn 0.000000 0.000000 1.000000
vn 0.000000 0.000000 1.000000
vn 0.000000 1.000000 0.000000
vn 0.000000 1.000000 0.000000
vn 0.000000 0.000000 -1.000000
vn 0.000000 0.000000 -1.000000
vn 0.000000 -1.000000 0.000000
vn 0.000000 -1.000000 0.000000
vn -0.000000 0.000000 1.000000
vn -0.000000 0.000000 1.000000
vn 1.000000 0.000000 0.000000
vn 1.000000 0.000000 0.000000
vn -0.000000 0.000000 -1.000000
vn 0.000000 0.000000 -1.000000
vn 0.000000 0.000000 -1.000000
vn 0.000000 0.000000 -1.000000
vn -1.000000 0.000000 0.000000
vn -1.000000 0.000000 0.000000
vn 0.000000 0.000000 1.000000
vn 0.000000 0.000000 1.000000
vn 0.000000 0.000000 1.000000
vn 0.000000 0.000000 1.000000
vn 0.000000 0.000000 1.000000
vn 0.000000 0.000000 1.000000
vn 0.000000 0.000000 1.000000
vn 0.000000 0.000000 1.000000
vn 0.000000 0.000000 1.000000
vn 1.000000 0.000000 0.000000
vn 1.000000 0.000000 0.000000
vn 0.000000 0.000000 -1.000000
vn 0.000000 0.000000 -1.000000
vn 0.000000 0.000000 -1.000000
vn 0.000000 0.000000 -1.000000
vn -1.000000 0.000000 0.000000
vn -1.000000 0.000000 0.000000
vn 0.000000 0.000000 1.000000
vn 0.000000 1.000000 0.000000
vn 0.000000 1.000000 0.000000
vn 0.000000 1.000000 0.000000
vn 0.000000 1.000000 0.000000
vn 1.000000 0.000000 0.000000
vn 1.000000 0.000000 0.000000
vn 1.000000 0.000000 0.000000
vn 1.000000 0.000000 0.000000
vn 0.000000 -1.000000 0.000000
vn 0.000000 -1.000000 0.000000
vn 0.000000 -1.000000 0.000000
vn 0.000000 -1.000000 0.000000
vn -1.000000 0.000000 0.000000
vn -1.000000 0.000000 0.000000
vn -1.000000 0.000000 0.000000
vn -1.000000 0.000000 0.000000
s 1
g pCube17
usemtl phong2SG
f 1/93/1 10/94/2 9/95/3 2/96/4
s 2
f 3/49/5 5/50/6 6/51/7 4/52/8
s 3
f 7/55/9 1/56/10 2/57/11 8/58/12
s 4
f 2/1/13 9/2/14 12/3/15 8/4/16
s 5
f 7/13/17 11/14/18 10/15/19 1/16/20
s 1
f 10/94/2 14/97/21 13/98/22 9/95/3
s 5
f 11/14/18 15/19/23 14/20/24 10/15/19
s off
f 15/101/25 11/102/26 12/103/27 16/104/28
s 4
f 9/2/14 13/5/29 16/6/30 12/3/15
s 1
f 14/97/21 3/99/31 4/100/32 13/98/22
s 5
f 15/19/23 5/21/33 3/22/34 14/20/24
s 4
f 13/5/29 4/9/35 6/10/36 16/6/30
s off
f 11/61/37 17/62/38 18/63/39 12/64/40
s 4
f 12/3/15 18/7/41 19/8/42 8/4/16
s 3
f 8/58/12 19/59/43 20/60/44 7/55/9
s 5
f 7/13/17 20/17/45 17/18/46 11/14/18
s 2
f 5/50/6 21/53/47 22/54/48 6/51/7
s 4
f 6/10/36 22/11/49 23/12/50 16/6/30
s off
f 16/65/51 23/66/52 24/67/53 15/68/54
s 5
f 15/19/23 24/23/55 21/24/56 5/21/33
s 6
f 25/105/57 42/106/58 41/107/59 33/108/60
s 7
f 27/69/61 29/70/62 35/71/63 34/72/64
s 8
f 43/121/65 31/122/66 36/123/67 44/124/68
s 9
f 31/77/69 25/78/70 33/79/71 36/80/72
s 10
f 26/25/73 47/26/74 46/27/75 32/28/76
s 11
f 31/33/77 43/34/78 42/35/79 25/36/80
s 6
f 33/108/60 41/107/59 48/111/81 37/112/82
s 7
f 35/71/63 39/73/83 38/74/84 34/72/64
s 8
f 36/123/67 40/125/85 45/126/86 44/124/68
s 9
f 33/79/71 37/81/87 40/82/88 36/80/72
s 6
f 37/112/82 48/111/81 47/115/89 26/116/90
s 7
f 39/73/83 30/75/91 28/76/92 38/74/84
s 8
f 40/125/85 32/129/93 46/130/94 45/126/86
s 9
f 37/81/87 26/83/95 32/84/96 40/82/88
s 6
f 42/106/58 51/109/97 50/110/98 41/107/59
s 11
f 43/34/78 52/37/99 51/38/100 42/35/79
s 8
f 52/127/101 43/121/65 44/124/68 53/128/102
f 45/126/86 54/131/103 53/128/102 44/124/68
f 46/130/94 55/134/104 54/131/103 45/126/86
s 10
f 47/26/74 56/29/105 55/30/106 46/27/75
s 6
f 48/111/81 49/118/107 56/119/108 47/115/89
s off
f 58/137/109 60/138/110 59/139/111 57/140/112
s 6
f 50/110/98 34/114/113 38/117/114 49/118/107
f 51/109/97 27/113/115 34/114/113 50/110/98
s 11
f 52/37/99 29/39/116 27/40/117 51/38/100
s 8
f 29/132/118 52/127/101 53/128/102 35/133/119
f 54/131/103 39/135/120 35/133/119 53/128/102
f 55/134/104 30/136/121 39/135/120 54/131/103
s 10
f 56/29/105 28/31/122 30/32/123 55/30/106
s 6
f 49/118/107 38/117/114 28/120/124 56/119/108
s off
f 41/85/125 58/86/126 57/87/127 48/88/128
f 48/41/129 57/42/130 59/43/131 49/44/132
f 49/89/133 59/90/134 60/91/135 50/92/136
f 50/45/137 60/46/138 58/47/139 41/48/140
