# This file uses meters as units for non-parametric coordinates.

mtllib Boys_KingBed_01_0201.mtl
g default
v 7.109505 0.000000 -13.959641
v 6.731278 0.000000 -13.959641
v 7.109505 4.709756 -13.959641
v 6.731278 4.709756 -13.959641
v 7.109505 4.709756 -13.581413
v 6.731278 4.709756 -13.581413
v 7.109505 0.000000 -13.581413
v 6.731278 0.000000 -13.581413
v 7.074061 4.679987 -13.770527
v 6.766722 4.679987 -13.770527
v 7.074061 4.679987 -8.222477
v 6.766722 4.679987 -8.222477
v 7.074061 4.301761 -8.222477
v 6.766722 4.301761 -8.222477
v 7.074061 4.301761 -13.770527
v 6.766722 4.301761 -13.770527
v 7.024182 0.582524 -13.775095
v 1.019902 0.582524 -13.775095
v 7.024182 1.431831 -13.775095
v 1.019902 1.431831 -13.775095
v 7.024182 1.431831 -8.225463
v 1.019902 1.431831 -8.225463
v 7.024182 0.582524 -8.225463
v 1.019902 0.582524 -8.225463
v 7.024182 1.259583 -8.225463
v 1.019902 1.259583 -8.225463
v 1.019902 1.259583 -13.775095
v 7.024182 1.259583 -13.775095
v 7.024182 0.754772 -13.775095
v 1.019902 0.754772 -13.775095
v 1.019902 0.754772 -8.225463
v 7.024182 0.754772 -8.225463
v 1.125797 1.259583 -13.669200
v 7.024182 1.259583 -13.563305
v 7.024182 0.754772 -13.563305
v 1.125797 0.754772 -13.669200
v 7.024182 1.259583 -8.437253
v 7.024182 0.754772 -8.437253
v 1.125797 1.259583 -8.331358
v 1.125797 0.754772 -8.331358
v 7.109505 0.000000 -8.418587
v 6.731278 0.000000 -8.418587
v 7.109505 4.709756 -8.418587
v 6.731278 4.709756 -8.418587
v 7.109505 4.709756 -8.040360
v 6.731278 4.709756 -8.040360
v 7.109505 0.000000 -8.040360
v 6.731278 0.000000 -8.040360
v 1.268722 0.000000 -8.418587
v 0.890496 0.000000 -8.418587
v 1.268722 1.495598 -8.418587
v 0.890496 1.495598 -8.418587
v 1.268722 1.495598 -8.040360
v 0.890496 1.495598 -8.040360
v 1.268722 0.000000 -8.040360
v 0.890496 0.000000 -8.040360
v 1.268722 0.000000 -13.959641
v 0.890496 0.000000 -13.959641
v 1.268722 1.495598 -13.959641
v 0.890496 1.495598 -13.959641
v 1.268722 1.495598 -13.581413
v 0.890496 1.495598 -13.581413
v 1.268722 0.000000 -13.581413
v 0.890496 0.000000 -13.581413
v 7.042508 0.287228 -13.700833
v 6.849465 0.287228 -13.700833
v 7.042508 4.627561 -13.700833
v 6.849465 4.627561 -13.700833
v 7.042508 4.627561 -8.299725
v 6.849465 4.627561 -8.299725
v 7.042508 0.287228 -8.299725
v 6.849465 0.287228 -8.299725
v 6.657014 1.680717 -10.637834
v 5.345253 1.680717 -10.637834
v 6.657014 1.975643 -10.637834
v 5.345253 1.975643 -10.637834
v 6.657014 1.975643 -8.796732
v 5.345253 1.975643 -8.796732
v 6.657014 1.680717 -8.796732
v 5.345253 1.680717 -8.796732
v 6.771169 1.409930 -13.542923
v 1.269275 1.409930 -13.542923
v 6.771169 1.766492 -13.542923
v 1.269275 1.766492 -13.542923
v 6.771169 1.766492 -8.457636
v 1.269275 1.766492 -8.457636
v 6.771169 1.409930 -8.457636
v 1.269275 1.409930 -8.457636
v 6.720249 1.828180 -13.495858
v 1.320195 1.828180 -13.495858
v 1.320195 1.828180 -8.504700
v 6.720249 1.828180 -8.504700
v 6.657014 1.680717 -13.123112
v 5.345253 1.680717 -13.123112
v 6.657014 1.975643 -13.123112
v 5.345253 1.975643 -13.123112
v 6.657014 1.975643 -11.282009
v 5.345253 1.975643 -11.282009
v 6.657014 1.680717 -11.282009
v 5.345253 1.680717 -11.282009
vt 0.247736 0.683929
vt 0.269277 0.683929
vt 0.269277 0.952165
vt 0.247736 0.952165
vt 0.224510 0.683929
vt 0.246052 0.683929
vt 0.246052 0.952165
vt 0.224510 0.952165
vt 0.950550 0.611824
vt 0.929009 0.611824
vt 0.929009 0.295844
vt 0.950550 0.295844
vt 0.263219 0.000000
vt 0.284760 0.000000
vt 0.284760 0.315981
vt 0.263219 0.315981
vt 0.696756 0.628580
vt 0.725507 0.628580
vt 0.725507 0.932588
vt 0.696756 0.932588
vt 0.340637 1.000000
vt 0.340637 0.683929
vt 0.350447 0.683929
vt 0.350447 1.000000
vt 0.352249 1.000000
vt 0.352249 0.683929
vt 0.362059 0.683929
vt 0.362059 1.000000
vt 0.294186 0.683929
vt 0.315727 0.683929
vt 0.315727 0.952166
vt 0.294186 0.952166
vt 0.317411 0.683929
vt 0.338953 0.683929
vt 0.338953 0.952166
vt 0.317411 0.952166
vt 0.526438 0.683929
vt 0.547980 0.683929
vt 0.547980 0.769108
vt 0.526438 0.769108
vt 0.549663 0.683929
vt 0.571205 0.683929
vt 0.571205 0.769108
vt 0.549663 0.769108
vt 0.387087 0.683929
vt 0.408628 0.683929
vt 0.408628 0.769108
vt 0.387087 0.769108
vt 0.410312 0.683929
vt 0.431854 0.683929
vt 0.431854 0.769108
vt 0.410312 0.769108
vt 0.332895 0.307612
vt 0.332895 0.000000
vt 0.580092 0.000000
vt 0.580092 0.307612
vt 0.015483 0.307612
vt 0.015483 0.000000
vt 0.262680 0.000000
vt 0.262680 0.307612
vt 0.727723 0.838293
vt 0.727723 0.733437
vt 0.744521 0.733437
vt 0.744521 0.838293
vt 0.747078 0.838294
vt 0.747078 0.733437
vt 0.763875 0.733437
vt 0.763875 0.838294
vt 0.580630 0.000000
vt 0.601374 0.000000
vt 0.601374 0.295844
vt 0.580630 0.295844
vt 0.604963 0.002738
vt 0.604963 0.293106
vt 0.592243 0.788785
vt 0.592243 0.683929
vt 0.609040 0.683929
vt 0.609040 0.788785
vt 0.572889 0.788786
vt 0.572889 0.683929
vt 0.589686 0.683929
vt 0.589686 0.788786
vt 0.929009 0.000000
vt 0.949752 0.000000
vt 0.949752 0.295844
vt 0.929009 0.295844
vt 0.953341 0.002738
vt 0.953341 0.293106
vt 0.029283 0.329153
vt 0.007742 0.329153
vt 0.007742 0.307612
vt 0.029283 0.307612
vt 0.602172 0.317385
vt 0.580630 0.317385
vt 0.580630 0.295844
vt 0.602172 0.295844
vt 0.900062 0.944560
vt 0.882558 0.944560
vt 0.882558 0.628580
vt 0.900062 0.628580
vt 0.919417 0.944560
vt 0.901913 0.944560
vt 0.901913 0.628580
vt 0.919417 0.628580
vt 0.316071 0.341965
vt 0.316071 0.683929
vt 0.000000 0.683929
vt 0.000000 0.341965
vt 0.633482 0.341965
vt 0.633482 0.683929
vt 0.317411 0.683929
vt 0.317411 0.341965
vt 0.000000 0.341965
vt 0.000000 0.000000
vt 0.012062 0.000000
vt 0.006031 0.335934
vt 0.316071 0.341965
vt 0.310040 0.335934
vt 0.316071 0.000000
vt 0.304009 0.000000
vt 0.633482 0.000000
vt 0.633482 0.341965
vt 0.627451 0.335934
vt 0.621420 0.000000
vt 0.317411 0.341965
vt 0.323442 0.335934
vt 0.317411 0.000000
vt 0.329473 0.000000
vt 0.122184 0.307612
vt 0.122184 0.329153
vt 0.100643 0.329153
vt 0.100643 0.307612
vt 0.098959 0.307612
vt 0.098959 0.329153
vt 0.077417 0.329153
vt 0.077417 0.307612
vt 0.145409 0.307612
vt 0.145409 0.329153
vt 0.123868 0.329153
vt 0.123868 0.307612
vt 0.168634 0.307612
vt 0.168634 0.329153
vt 0.147093 0.329153
vt 0.147093 0.307612
vt 0.052508 0.329153
vt 0.030967 0.329153
vt 0.030967 0.307612
vt 0.052508 0.307612
vt 0.075733 0.329153
vt 0.054192 0.329153
vt 0.054192 0.307612
vt 0.075733 0.307612
vt 0.978712 0.307612
vt 0.967717 0.307612
vt 0.967717 0.000000
vt 0.978712 0.000000
vt 0.967099 0.307611
vt 0.956105 0.307611
vt 0.956105 0.000000
vt 0.967099 0.000000
vt 0.152127 0.788786
vt 0.077417 0.788786
vt 0.077417 0.683929
vt 0.152127 0.683929
vt 0.074709 0.788786
vt 0.000000 0.788786
vt 0.000000 0.683929
vt 0.074709 0.683929
vt 0.923500 0.002918
vt 0.923500 0.312327
vt 0.637519 0.312327
vt 0.637519 0.002918
vt 0.926197 0.000000
vt 0.926197 0.315244
vt 0.634823 0.315244
vt 0.634823 0.000000
vt 0.924447 0.315228
vt 0.924447 0.628580
vt 0.634823 0.628580
vt 0.634823 0.315228
vt 0.802433 0.733437
vt 0.727723 0.733437
vt 0.727723 0.628580
vt 0.802433 0.628580
vt 0.879850 0.733437
vt 0.805141 0.733437
vt 0.805141 0.628580
vt 0.879850 0.628580
vt 0.222827 0.952166
vt 0.201285 0.952166
vt 0.201285 0.683929
vt 0.222827 0.683929
vt 0.199601 0.952166
vt 0.178060 0.952166
vt 0.178060 0.683929
vt 0.199601 0.683929
vt 0.207177 0.329153
vt 0.189673 0.329153
vt 0.189673 0.307612
vt 0.207177 0.307612
vt 0.187822 0.329153
vt 0.170318 0.329153
vt 0.170318 0.307612
vt 0.187822 0.307612
vt 0.634823 0.964540
vt 0.634823 0.628580
vt 0.663576 0.628580
vt 0.663576 0.964540
vt 0.665790 0.628580
vt 0.694543 0.628580
vt 0.694543 0.964540
vt 0.665790 0.964540
vt 0.981398 0.649576
vt 0.981398 0.991540
vt 0.971588 0.991540
vt 0.971588 0.649576
vt 0.981398 0.307612
vt 0.981398 0.649576
vt 0.971588 0.649576
vt 0.971588 0.307612
vt 0.993011 0.000000
vt 0.993011 0.341964
vt 0.983201 0.341964
vt 0.983201 0.000000
vt 0.993011 0.341964
vt 0.993011 0.683929
vt 0.983201 0.683929
vt 0.983201 0.341964
vt 0.176376 0.952166
vt 0.154835 0.952166
vt 0.154835 0.683929
vt 0.176376 0.683929
vt 0.292502 0.952166
vt 0.270961 0.952166
vt 0.270961 0.683929
vt 0.292502 0.683929
vt 0.455079 0.769108
vt 0.433537 0.769108
vt 0.433537 0.683929
vt 0.455079 0.683929
vt 0.501529 0.769108
vt 0.479988 0.769108
vt 0.479988 0.683929
vt 0.501529 0.683929
vt 0.478304 0.769108
vt 0.456763 0.769108
vt 0.456763 0.683929
vt 0.478304 0.683929
vt 0.524754 0.769108
vt 0.503213 0.769108
vt 0.503213 0.683929
vt 0.524754 0.683929
vt 0.374856 0.931125
vt 0.363862 0.931125
vt 0.363862 0.683929
vt 0.374856 0.683929
vt 0.386469 0.931124
vt 0.375474 0.931124
vt 0.375474 0.683929
vt 0.386469 0.683929
vt 0.841292 0.733437
vt 0.841292 0.808146
vt 0.824495 0.808146
vt 0.824495 0.733437
vt 0.802584 0.733437
vt 0.802584 0.808146
vt 0.785787 0.808146
vt 0.785787 0.733437
vt 0.948363 0.611824
vt 0.968670 0.611824
vt 0.968670 0.925176
vt 0.948363 0.925176
vt 0.925138 0.611824
vt 0.945445 0.611824
vt 0.945445 0.925176
vt 0.925138 0.925176
vt 0.821938 0.733437
vt 0.821938 0.808146
vt 0.805141 0.808146
vt 0.805141 0.733437
vt 0.783229 0.733437
vt 0.783229 0.808146
vt 0.766432 0.808146
vt 0.766432 0.733437
vn 0.000000 0.000000 -1.000000
vn 0.000000 0.000000 -1.000000
vn 0.000000 0.000000 -1.000000
vn 0.000000 0.000000 -1.000000
vn 0.000000 1.000000 0.000000
vn 0.000000 1.000000 0.000000
vn 0.000000 1.000000 0.000000
vn 0.000000 1.000000 0.000000
vn 0.000000 0.000000 1.000000
vn 0.000000 0.000000 1.000000
vn 0.000000 0.000000 1.000000
vn 0.000000 0.000000 1.000000
vn 0.000000 -1.000000 0.000000
vn 0.000000 -1.000000 0.000000
vn 0.000000 -1.000000 0.000000
vn 0.000000 -1.000000 0.000000
vn -1.000000 0.000000 0.000000
vn -1.000000 0.000000 0.000000
vn -1.000000 0.000000 0.000000
vn -1.000000 0.000000 0.000000
vn 1.000000 0.000000 0.000000
vn 1.000000 0.000000 0.000000
vn 1.000000 0.000000 0.000000
vn 1.000000 0.000000 0.000000
vn 0.000000 1.000000 0.000000
vn 0.000000 1.000000 0.000000
vn 0.000000 1.000000 0.000000
vn 0.000000 1.000000 0.000000
vn 0.000000 0.000000 1.000000
vn 0.000000 0.000000 1.000000
vn 0.000000 0.000000 1.000000
vn 0.000000 0.000000 1.000000
vn 0.000000 -1.000000 0.000000
vn 0.000000 -1.000000 0.000000
vn 0.000000 -1.000000 0.000000
vn 0.000000 -1.000000 0.000000
vn 0.000000 0.000000 -1.000000
vn 0.000000 0.000000 -1.000000
vn 0.000000 0.000000 -1.000000
vn 0.000000 0.000000 -1.000000
vn -1.000000 0.000000 0.000000
vn -1.000000 0.000000 0.000000
vn -1.000000 0.000000 0.000000
vn -1.000000 0.000000 0.000000
vn 1.000000 0.000000 0.000000
vn 1.000000 0.000000 0.000000
vn 1.000000 0.000000 0.000000
vn 1.000000 0.000000 0.000000
vn 0.017950 0.000000 -0.999839
vn 0.017950 0.000000 -0.999839
vn 0.017950 0.000000 -0.999839
vn 0.017950 0.000000 -0.999839
vn 0.000000 1.000000 0.000000
vn 0.000000 1.000000 0.000000
vn 0.000000 1.000000 0.000000
vn 0.000000 1.000000 0.000000
vn 0.017950 0.000000 0.999839
vn 0.017950 0.000000 0.999839
vn 0.017950 0.000000 0.999839
vn 0.017950 0.000000 0.999839
vn 0.000000 -1.000000 0.000000
vn 0.000000 -1.000000 0.000000
vn 0.000000 -1.000000 0.000000
vn 0.000000 -1.000000 0.000000
vn -1.000000 0.000000 0.000000
vn -1.000000 0.000000 0.000000
vn -1.000000 0.000000 0.000000
vn -1.000000 0.000000 0.000000
vn 0.000000 0.000000 1.000000
vn 0.000000 0.000000 1.000000
vn 0.000000 0.000000 1.000000
vn 0.000000 0.000000 1.000000
vn -1.000000 0.000000 0.000000
vn -1.000000 0.000000 0.000000
vn -1.000000 0.000000 0.000000
vn -1.000000 0.000000 0.000000
vn 0.000000 0.000000 -1.000000
vn 0.000000 0.000000 -1.000000
vn 0.000000 0.000000 -1.000000
vn 0.000000 0.000000 -1.000000
vn 0.000000 0.000000 -1.000000
vn 0.000000 0.000000 -1.000000
vn 0.000000 0.000000 -1.000000
vn 0.000000 0.000000 -1.000000
vn -1.000000 0.000000 0.000000
vn -1.000000 0.000000 0.000000
vn -1.000000 0.000000 0.000000
vn -1.000000 0.000000 0.000000
vn 0.000000 0.000000 1.000000
vn 0.000000 0.000000 1.000000
vn 0.000000 0.000000 1.000000
vn 0.000000 0.000000 1.000000
vn 0.000000 -1.000000 -0.000000
vn 0.000000 -1.000000 -0.000000
vn 0.000000 -1.000000 -0.000000
vn 0.000000 -1.000000 -0.000000
vn 0.000000 1.000000 0.000000
vn 0.000000 1.000000 0.000000
vn 0.000000 1.000000 0.000000
vn 0.000000 1.000000 0.000000
vn 0.000000 -1.000000 0.000001
vn 0.000000 -1.000000 0.000000
vn 0.000000 -1.000000 0.000000
vn 0.000000 -1.000000 0.000001
vn 0.000000 1.000000 -0.000000
vn 0.000000 1.000000 -0.000000
vn 0.000000 1.000000 -0.000000
vn 0.000000 1.000000 -0.000000
vn 0.000000 0.000000 -1.000000
vn 0.000000 0.000000 -1.000000
vn 0.000000 0.000000 -1.000000
vn 0.000000 0.000000 -1.000000
vn 0.000000 1.000000 0.000000
vn 0.000000 1.000000 0.000000
vn 0.000000 1.000000 0.000000
vn 0.000000 1.000000 0.000000
vn 0.000000 0.000000 1.000000
vn 0.000000 0.000000 1.000000
vn 0.000000 0.000000 1.000000
vn 0.000000 0.000000 1.000000
vn 0.000000 -1.000000 0.000000
vn 0.000000 -1.000000 0.000000
vn 0.000000 -1.000000 0.000000
vn 0.000000 -1.000000 0.000000
vn -1.000000 0.000000 0.000000
vn -1.000000 0.000000 0.000000
vn -1.000000 0.000000 0.000000
vn -1.000000 0.000000 0.000000
vn 1.000000 0.000000 0.000000
vn 1.000000 0.000000 0.000000
vn 1.000000 0.000000 0.000000
vn 1.000000 0.000000 0.000000
vn 0.000000 0.000000 -1.000000
vn 0.000000 0.000000 -1.000000
vn 0.000000 0.000000 -1.000000
vn 0.000000 0.000000 -1.000000
vn 0.000000 1.000000 0.000000
vn 0.000000 1.000000 0.000000
vn 0.000000 1.000000 0.000000
vn 0.000000 1.000000 0.000000
vn 0.000000 0.000000 1.000000
vn 0.000000 0.000000 1.000000
vn 0.000000 0.000000 1.000000
vn 0.000000 0.000000 1.000000
vn 0.000000 -1.000000 0.000000
vn 0.000000 -1.000000 0.000000
vn 0.000000 -1.000000 0.000000
vn 0.000000 -1.000000 0.000000
vn -1.000000 0.000000 0.000000
vn -1.000000 0.000000 0.000000
vn -1.000000 0.000000 0.000000
vn -1.000000 0.000000 0.000000
vn 1.000000 0.000000 0.000000
vn 1.000000 0.000000 0.000000
vn 1.000000 0.000000 0.000000
vn 1.000000 0.000000 0.000000
vn 0.000000 0.000000 -1.000000
vn 0.000000 0.000000 -1.000000
vn 0.000000 0.000000 -1.000000
vn 0.000000 0.000000 -1.000000
vn 0.000000 1.000000 0.000000
vn 0.000000 1.000000 0.000000
vn 0.000000 1.000000 0.000000
vn 0.000000 1.000000 0.000000
vn 0.000000 0.000000 1.000000
vn 0.000000 0.000000 1.000000
vn 0.000000 0.000000 1.000000
vn 0.000000 0.000000 1.000000
vn 0.000000 -1.000000 0.000000
vn 0.000000 -1.000000 0.000000
vn 0.000000 -1.000000 0.000000
vn 0.000000 -1.000000 0.000000
vn -1.000000 0.000000 0.000000
vn -1.000000 0.000000 0.000000
vn -1.000000 0.000000 0.000000
vn -1.000000 0.000000 0.000000
vn 1.000000 0.000000 0.000000
vn 1.000000 0.000000 0.000000
vn 1.000000 0.000000 0.000000
vn 1.000000 0.000000 0.000000
vn 0.000000 0.000000 -1.000000
vn 0.000000 0.000000 -1.000000
vn 0.000000 0.000000 -1.000000
vn 0.000000 0.000000 -1.000000
vn 0.000000 1.000000 0.000000
vn 0.000000 1.000000 0.000000
vn 0.000000 1.000000 0.000000
vn 0.000000 1.000000 0.000000
vn 0.000000 0.000000 1.000000
vn 0.000000 0.000000 1.000000
vn 0.000000 0.000000 1.000000
vn 0.000000 0.000000 1.000000
vn 0.000000 -1.000000 0.000000
vn 0.000000 -1.000000 0.000000
vn 0.000000 -1.000000 0.000000
vn 0.000000 -1.000000 0.000000
vn -1.000000 0.000000 0.000000
vn -1.000000 0.000000 0.000000
vn -1.000000 0.000000 0.000000
vn -1.000000 0.000000 0.000000
vn 1.000000 0.000000 0.000000
vn 1.000000 0.000000 0.000000
vn 1.000000 0.000000 0.000000
vn 1.000000 0.000000 0.000000
vn 0.000000 0.000000 -1.000000
vn 0.000000 0.000000 -1.000000
vn 0.000000 0.000000 -1.000000
vn 0.000000 0.000000 -1.000000
vn 0.000000 1.000000 0.000000
vn 0.000000 1.000000 0.000000
vn 0.000000 1.000000 0.000000
vn 0.000000 1.000000 0.000000
vn 0.000000 0.000000 1.000000
vn 0.000000 0.000000 1.000000
vn 0.000000 0.000000 1.000000
vn 0.000000 0.000000 1.000000
vn 0.000000 -1.000000 0.000000
vn 0.000000 -1.000000 0.000000
vn 0.000000 -1.000000 0.000000
vn 0.000000 -1.000000 0.000000
vn -1.000000 0.000000 0.000000
vn -1.000000 0.000000 0.000000
vn -1.000000 0.000000 0.000000
vn -1.000000 0.000000 0.000000
vn 1.000000 0.000000 0.000000
vn 1.000000 0.000000 0.000000
vn 1.000000 0.000000 0.000000
vn 1.000000 0.000000 0.000000
vn 0.000000 1.000000 0.000000
vn 0.000000 1.000000 0.000000
vn 0.000000 1.000000 0.000000
vn 0.000000 1.000000 0.000000
vn 0.000000 -1.000000 0.000000
vn 0.000000 -1.000000 0.000000
vn 0.000000 -1.000000 0.000000
vn 0.000000 -1.000000 0.000000
vn -1.000000 0.000000 0.000000
vn -1.000000 0.000000 0.000000
vn -1.000000 0.000000 0.000000
vn -1.000000 0.000000 0.000000
vn 0.000000 0.000000 -1.000000
vn 0.000000 0.000000 -1.000000
vn 0.000000 0.000000 -1.000000
vn 0.000000 0.000000 -1.000000
vn 0.000000 0.000000 1.000000
vn 0.000000 0.000000 1.000000
vn 0.000000 0.000000 1.000000
vn 0.000000 0.000000 1.000000
vn 0.000000 0.606570 -0.795030
vn 0.000000 0.606570 -0.795030
vn 0.000000 0.606570 -0.795030
vn 0.000000 0.606570 -0.795030
vn -0.771202 0.636590 0.000000
vn -0.771202 0.636590 0.000000
vn -0.771202 0.636590 0.000000
vn -0.771202 0.636590 0.000000
vn 0.000000 0.606562 0.795036
vn 0.000000 0.606562 0.795036
vn 0.000000 0.606562 0.795036
vn 0.000000 0.606562 0.795036
vn 0.771206 0.636586 0.000000
vn 0.771206 0.636586 0.000000
vn 0.771206 0.636586 0.000000
vn 0.771206 0.636586 0.000000
vn 0.000000 0.000000 -1.000000
vn 0.000000 0.000000 -1.000000
vn 0.000000 0.000000 -1.000000
vn 0.000000 0.000000 -1.000000
vn 0.000000 1.000000 0.000000
vn 0.000000 1.000000 0.000000
vn 0.000000 1.000000 0.000000
vn 0.000000 1.000000 0.000000
vn 0.000000 0.000000 1.000000
vn 0.000000 0.000000 1.000000
vn 0.000000 0.000000 1.000000
vn 0.000000 0.000000 1.000000
vn 0.000000 -1.000000 0.000000
vn 0.000000 -1.000000 0.000000
vn 0.000000 -1.000000 0.000000
vn 0.000000 -1.000000 0.000000
vn -1.000000 0.000000 0.000000
vn -1.000000 0.000000 0.000000
vn -1.000000 0.000000 0.000000
vn -1.000000 0.000000 0.000000
vn 1.000000 0.000000 0.000000
vn 1.000000 0.000000 0.000000
vn 1.000000 0.000000 0.000000
vn 1.000000 0.000000 0.000000
vn 1.000000 0.000000 0.000000
vn 1.000000 0.000000 0.000000
vn 1.000000 0.000000 0.000000
vn 1.000000 0.000000 0.000000
s off
g King_Bed
usemtl aiStandardSurface1SG
f 1/189/1 2/190/2 4/191/3 3/192/4
f 3/89/5 4/90/6 6/91/7 5/92/8
f 5/193/9 6/194/10 8/195/11 7/196/12
f 7/93/13 8/94/14 2/95/15 1/96/16
f 2/1/17 8/2/18 6/3/19 4/4/20
f 7/5/21 1/6/22 3/7/23 5/8/24
f 9/97/25 10/98/26 12/99/27 11/100/28
f 11/197/29 12/198/30 14/199/31 13/200/32
f 13/101/33 14/102/34 16/103/35 15/104/36
f 15/201/37 16/202/38 10/203/39 9/204/40
f 10/9/41 16/10/42 14/11/43 12/12/44
f 15/13/45 9/14/46 11/15/47 13/16/48
f 33/205/49 34/206/50 35/207/51 36/208/52
f 19/105/53 20/106/54 22/107/55 21/108/56
f 38/209/57 37/210/58 39/211/59 40/212/60
f 23/109/61 24/110/62 18/111/63 17/112/64
f 40/17/65 39/18/66 33/19/67 36/20/68
f 21/213/69 22/214/70 26/215/71 25/216/72
f 27/21/73 26/22/74 22/23/75 20/24/76
f 28/217/77 27/218/78 20/219/79 19/220/80
f 17/221/81 18/222/82 30/223/83 29/224/84
f 18/25/85 24/26/86 31/27/87 30/28/88
f 32/225/89 31/226/90 24/227/91 23/228/92
s 1
f 27/113/93 28/114/94 34/115/95 33/116/96
s 2
f 29/121/97 30/122/98 36/123/99 35/124/100
s 1
f 25/119/101 26/117/102 39/118/103 37/120/104
s 2
f 31/125/105 32/127/106 38/128/107 40/126/108
s 1
f 26/117/102 27/113/93 33/116/96 39/118/103
s 2
f 30/122/98 31/125/105 40/126/108 36/123/99
s off
f 41/229/109 42/230/110 44/231/111 43/232/112
f 43/129/113 44/130/114 46/131/115 45/132/116
f 45/233/117 46/234/118 48/235/119 47/236/120
f 47/133/121 48/134/122 42/135/123 41/136/124
f 42/29/125 48/30/126 46/31/127 44/32/128
f 47/33/129 41/34/130 43/35/131 45/36/132
f 49/237/133 50/238/134 52/239/135 51/240/136
f 51/137/137 52/138/138 54/139/139 53/140/140
f 53/241/141 54/242/142 56/243/143 55/244/144
f 55/141/145 56/142/146 50/143/147 49/144/148
f 50/37/149 56/38/150 54/39/151 52/40/152
f 55/41/153 49/42/154 51/43/155 53/44/156
f 57/245/157 58/246/158 60/247/159 59/248/160
f 59/145/161 60/146/162 62/147/163 61/148/164
f 61/249/165 62/250/166 64/251/167 63/252/168
f 63/149/169 64/150/170 58/151/171 57/152/172
f 58/45/173 64/46/174 62/47/175 60/48/176
f 63/49/177 57/50/178 59/51/179 61/52/180
f 65/253/181 66/254/182 68/255/183 67/256/184
f 67/153/185 68/154/186 70/155/187 69/156/188
f 69/257/189 70/258/190 72/259/191 71/260/192
f 71/157/193 72/158/194 66/159/195 65/160/196
f 66/53/197 72/54/198 70/55/199 68/56/200
f 71/57/201 65/58/202 67/59/203 69/60/204
f 73/261/205 74/262/206 76/263/207 75/264/208
f 75/161/209 76/162/210 78/163/211 77/164/212
f 77/265/213 78/266/214 80/267/215 79/268/216
f 79/165/217 80/166/218 74/167/219 73/168/220
f 74/61/221 80/62/222 78/63/223 76/64/224
f 79/65/225 73/66/226 75/67/227 77/68/228
f 89/169/229 90/170/230 91/171/231 92/172/232
f 87/177/233 88/178/234 82/179/235 81/180/236
f 88/69/237 86/70/238 84/71/239 82/72/240
f 83/269/241 81/270/242 82/271/243 84/272/244
f 87/273/245 85/274/246 86/275/247 88/276/248
f 83/173/249 84/174/250 90/170/251 89/169/252
f 84/71/253 86/70/254 91/73/255 90/74/256
f 86/175/257 85/176/258 92/172/259 91/171/260
f 85/85/261 83/84/262 89/87/263 92/88/264
f 93/277/265 94/278/266 96/279/267 95/280/268
f 95/181/269 96/182/270 98/183/271 97/184/272
f 97/281/273 98/282/274 100/283/275 99/284/276
f 99/185/277 100/186/278 94/187/279 93/188/280
f 94/75/281 100/76/282 98/77/283 96/78/284
f 99/79/285 93/80/286 95/81/287 97/82/288
f 81/83/289 83/84/290 85/85/291 87/86/292
