# This file uses meters as units for non-parametric coordinates.

mtllib Boys_Hamper_01_0201.mtl
g default
v -0.469854 1.938850 1.013817
v -0.469854 1.968996 1.043963
v -0.500000 1.968996 1.013817
v 0.500000 1.968996 1.013817
v 0.469854 1.968996 1.043963
v 0.469854 1.938850 1.013817
v -0.500000 2.009201 1.013817
v -0.469854 2.009201 1.043963
v -0.469854 2.039347 1.013817
v 0.469854 2.039347 1.013817
v 0.469854 2.009201 1.043963
v 0.500000 2.009201 1.013817
v -0.500000 2.009201 -1.013817
v -0.469854 2.039347 -1.013817
v -0.469854 2.009201 -1.043963
v 0.469854 2.009201 -1.043963
v 0.469854 2.039347 -1.013817
v 0.500000 2.009201 -1.013817
v -0.500000 1.968996 -1.013817
v -0.469854 1.968996 -1.043963
v -0.469854 1.938850 -1.013817
v 0.469854 1.938850 -1.013817
v 0.469854 1.968996 -1.043963
v 0.500000 1.968996 -1.013817
v -0.450005 0.000000 0.993968
v -0.450005 0.049995 1.043963
v -0.500000 0.049995 0.993968
v 0.500000 0.049995 0.993968
v 0.450005 0.049995 1.043963
v 0.450005 0.000000 0.993968
v -0.500000 1.888855 0.993968
v -0.450005 1.888855 1.043963
v -0.450005 1.938850 0.993968
v 0.450005 1.938850 0.993968
v 0.450005 1.888855 1.043963
v 0.500000 1.888855 0.993968
v -0.500000 1.888855 -0.993968
v -0.450005 1.938850 -0.993968
v -0.450005 1.888855 -1.043963
v 0.450005 1.888855 -1.043963
v 0.450005 1.938850 -0.993968
v 0.500000 1.888855 -0.993968
v -0.500000 0.049995 -0.993968
v -0.450005 0.049995 -1.043963
v -0.450005 0.000000 -0.993968
v 0.450005 0.000000 -0.993968
v 0.450005 0.049995 -1.043963
v 0.500000 0.049995 -0.993968
v 0.383342 1.795599 -0.545108
v 0.529190 1.795599 -0.545108
v 0.383342 2.053218 -0.545108
v 0.529190 2.053218 -0.545108
v 0.383342 2.053218 -0.654892
v 0.529190 2.053218 -0.654892
v 0.383342 1.795599 -0.654892
v 0.529190 1.795599 -0.654892
v 0.383342 1.795599 0.654892
v 0.529190 1.795599 0.654892
v 0.383342 2.053218 0.654892
v 0.529190 2.053218 0.654892
v 0.383342 2.053218 0.545108
v 0.529190 2.053218 0.545108
v 0.383342 1.795599 0.545108
v 0.529190 1.795599 0.545108
vt 0.956541 0.844306
vt 0.956541 0.381550
vt 0.965717 0.381550
vt 0.965717 0.844306
vt 0.949661 0.844306
vt 0.949661 0.381550
vt 0.965717 0.374670
vt 0.956541 0.374670
vt 0.972597 0.844306
vt 0.972597 0.381550
vt 0.956541 0.851186
vt 0.965717 0.851186
vt 0.980685 0.844306
vt 0.980685 0.381550
vt 0.989861 0.381550
vt 0.989861 0.844306
vt 0.973805 0.381550
vt 0.973805 0.844306
vt 0.980685 0.374670
vt 0.989861 0.374670
vt 0.996741 0.381550
vt 0.996741 0.844306
vt 0.989861 0.851186
vt 0.980685 0.851186
vt 0.416811 0.423475
vt 0.416811 0.010389
vt 0.798920 0.010389
vt 0.798920 0.423475
vt 0.406423 0.423475
vt 0.406423 0.010389
vt 0.798920 0.000000
vt 0.416811 0.000000
vt 0.809309 0.423475
vt 0.809309 0.010389
vt 0.416811 0.433864
vt 0.798920 0.433864
vt 0.010389 0.423475
vt 0.010389 0.010389
vt 0.392498 0.010389
vt 0.392498 0.423475
vt 0.000000 0.010389
vt 0.000000 0.423475
vt 0.010389 0.000000
vt 0.392498 0.000000
vt 0.402886 0.010389
vt 0.402886 0.423475
vt 0.392498 0.433864
vt 0.010389 0.433864
vt 0.909421 0.374670
vt 0.931790 0.374670
vt 0.931790 0.427160
vt 0.909421 0.427160
vt 0.869181 0.808534
vt 0.891550 0.808534
vt 0.891550 0.861024
vt 0.869181 0.861024
vt 0.820893 0.808534
vt 0.843262 0.808534
vt 0.843262 0.861024
vt 0.820893 0.861024
vt 0.845037 0.808534
vt 0.867406 0.808534
vt 0.867406 0.861024
vt 0.845037 0.861024
vt 0.193151 0.440043
vt 0.385759 0.440043
vt 0.385759 0.855639
vt 0.193151 0.855639
vt 0.193151 0.433864
vt 0.385759 0.433864
vt 0.193151 0.861818
vt 0.385759 0.861818
vt 0.000000 0.440043
vt 0.192608 0.440043
vt 0.192608 0.855639
vt 0.000000 0.855639
vt 0.000000 0.433864
vt 0.192608 0.433864
vt 0.000000 0.861818
vt 0.192608 0.861818
vt 0.575430 0.444151
vt 0.760618 0.444151
vt 0.760618 0.853193
vt 0.575430 0.853193
vt 0.575430 0.433864
vt 0.760618 0.433864
vt 0.575430 0.863480
vt 0.760618 0.863480
vt 0.386303 0.444151
vt 0.571491 0.444151
vt 0.571491 0.853193
vt 0.386303 0.853193
vt 0.386303 0.433864
vt 0.571491 0.433864
vt 0.386303 0.863480
vt 0.571491 0.863480
vt 0.893325 0.838250
vt 0.893325 0.808534
vt 0.915694 0.808534
vt 0.915694 0.838250
vt 0.893325 0.867967
vt 0.893325 0.838250
vt 0.915694 0.838250
vt 0.915694 0.867967
vt 0.917469 0.838250
vt 0.917469 0.808534
vt 0.939838 0.808534
vt 0.939838 0.838250
vt 0.000000 0.891535
vt 0.000000 0.861818
vt 0.022369 0.861818
vt 0.022369 0.891535
vt 0.764557 1.000000
vt 0.764557 0.808534
vt 0.772749 0.808534
vt 0.772749 1.000000
vt 0.776629 1.000000
vt 0.776629 0.808534
vt 0.784821 0.808534
vt 0.784821 1.000000
vt 0.764557 0.433864
vt 0.947935 0.433864
vt 0.947935 0.808534
vt 0.764557 0.808534
vt 0.812845 0.000000
vt 0.996223 0.000000
vt 0.996223 0.374670
vt 0.812845 0.374670
vt 0.877229 0.374670
vt 0.906946 0.374670
vt 0.906946 0.427160
vt 0.877229 0.427160
vt 0.788701 0.808534
vt 0.818418 0.808534
vt 0.818418 0.861024
vt 0.788701 0.861024
vt 0.845037 0.374670
vt 0.874754 0.374670
vt 0.874754 0.427160
vt 0.845037 0.427160
vt 0.812845 0.374670
vt 0.842562 0.374670
vt 0.842562 0.427160
vt 0.812845 0.427160
vn -0.707108 -0.707106 0.000000
vn -0.707108 -0.707106 0.000000
vn -0.707108 -0.707106 0.000000
vn -0.707108 -0.707106 0.000000
vn 0.000000 -0.707108 0.707106
vn 0.000000 -0.707108 0.707106
vn 0.000000 -0.707108 0.707106
vn 0.000000 -0.707108 0.707106
vn -0.707110 0.000000 0.707104
vn -0.707110 0.000000 0.707104
vn -0.707110 0.000000 0.707104
vn -0.707110 0.000000 0.707104
vn 0.707108 -0.707106 0.000000
vn 0.707108 -0.707106 0.000000
vn 0.707108 -0.707106 0.000000
vn 0.707108 -0.707106 0.000000
vn 0.707110 0.000000 0.707104
vn 0.707110 0.000000 0.707104
vn 0.707110 0.000000 0.707104
vn 0.707110 0.000000 0.707104
vn -0.707108 0.707106 0.000000
vn -0.707108 0.707106 0.000000
vn -0.707108 0.707106 0.000000
vn -0.707108 0.707106 0.000000
vn 0.000000 0.707108 0.707106
vn 0.000000 0.707108 0.707106
vn 0.000000 0.707108 0.707106
vn 0.000000 0.707108 0.707106
vn 0.707108 0.707106 0.000000
vn 0.707108 0.707106 0.000000
vn 0.707108 0.707106 0.000000
vn 0.707108 0.707106 0.000000
vn -0.707110 0.000000 -0.707104
vn -0.707110 0.000000 -0.707104
vn -0.707110 0.000000 -0.707104
vn -0.707110 0.000000 -0.707104
vn 0.000000 0.707108 -0.707106
vn 0.000000 0.707108 -0.707106
vn 0.000000 0.707108 -0.707106
vn 0.000000 0.707108 -0.707106
vn 0.707110 0.000000 -0.707104
vn 0.707110 0.000000 -0.707104
vn 0.707110 0.000000 -0.707104
vn 0.707110 0.000000 -0.707104
vn 0.000000 -0.707108 -0.707106
vn 0.000000 -0.707108 -0.707106
vn 0.000000 -0.707108 -0.707106
vn 0.000000 -0.707108 -0.707106
vn 0.000000 0.000000 1.000000
vn 0.000000 0.000000 1.000000
vn 0.000000 0.000000 1.000000
vn 0.000000 0.000000 1.000000
vn 0.000000 1.000000 0.000000
vn 0.000000 1.000000 0.000000
vn 0.000000 1.000000 0.000000
vn 0.000000 1.000000 0.000000
vn 0.000000 0.000000 -1.000000
vn 0.000000 0.000000 -1.000000
vn 0.000000 0.000000 -1.000000
vn 0.000000 0.000000 -1.000000
vn 0.000000 -1.000000 0.000000
vn 0.000000 -1.000000 0.000000
vn 0.000000 -1.000000 0.000000
vn 0.000000 -1.000000 0.000000
vn 1.000000 0.000000 0.000000
vn 1.000000 0.000000 0.000000
vn 1.000000 0.000000 0.000000
vn 1.000000 0.000000 0.000000
vn -1.000000 0.000000 0.000000
vn -1.000000 0.000000 0.000000
vn -1.000000 0.000000 0.000000
vn -1.000000 0.000000 0.000000
vn -0.577352 -0.577349 0.577350
vn -0.577352 -0.577349 0.577350
vn -0.577352 -0.577349 0.577350
vn 0.577352 -0.577349 0.577350
vn 0.577352 -0.577349 0.577350
vn 0.577352 -0.577349 0.577350
vn -0.577352 0.577349 0.577350
vn -0.577352 0.577349 0.577350
vn -0.577352 0.577349 0.577350
vn 0.577352 0.577349 0.577350
vn 0.577352 0.577349 0.577350
vn 0.577352 0.577349 0.577350
vn -0.577352 0.577349 -0.577350
vn -0.577352 0.577349 -0.577350
vn -0.577352 0.577349 -0.577350
vn 0.577352 0.577349 -0.577350
vn 0.577352 0.577349 -0.577350
vn 0.577352 0.577349 -0.577350
vn -0.577352 -0.577349 -0.577350
vn -0.577352 -0.577349 -0.577350
vn -0.577352 -0.577349 -0.577350
vn 0.577352 -0.577349 -0.577350
vn 0.577352 -0.577349 -0.577350
vn 0.577352 -0.577349 -0.577350
vn -0.707107 -0.707107 0.000000
vn -0.707107 -0.707107 0.000000
vn -0.707107 -0.707107 0.000000
vn -0.707107 -0.707107 0.000000
vn 0.000000 -0.707106 0.707107
vn 0.000000 -0.707106 0.707107
vn 0.000000 -0.707106 0.707107
vn 0.000000 -0.707106 0.707107
vn -0.707106 0.000000 0.707107
vn -0.707106 0.000000 0.707107
vn -0.707106 0.000000 0.707107
vn -0.707106 0.000000 0.707107
vn 0.707107 -0.707107 0.000000
vn 0.707107 -0.707107 0.000000
vn 0.707107 -0.707107 0.000000
vn 0.707107 -0.707107 0.000000
vn 0.707106 0.000000 0.707107
vn 0.707106 0.000000 0.707107
vn 0.707106 0.000000 0.707107
vn 0.707106 0.000000 0.707107
vn -0.707106 0.707107 0.000000
vn -0.707106 0.707107 0.000000
vn -0.707106 0.707107 0.000000
vn -0.707106 0.707107 0.000000
vn 0.000000 0.707107 0.707106
vn 0.000000 0.707107 0.707106
vn 0.000000 0.707107 0.707106
vn 0.000000 0.707107 0.707106
vn 0.707106 0.707107 0.000000
vn 0.707106 0.707107 0.000000
vn 0.707106 0.707107 0.000000
vn 0.707106 0.707107 0.000000
vn -0.707106 0.000000 -0.707107
vn -0.707106 0.000000 -0.707107
vn -0.707106 0.000000 -0.707107
vn -0.707106 0.000000 -0.707107
vn 0.000000 0.707107 -0.707106
vn 0.000000 0.707107 -0.707106
vn 0.000000 0.707107 -0.707106
vn 0.000000 0.707107 -0.707106
vn 0.707106 0.000000 -0.707107
vn 0.707106 0.000000 -0.707107
vn 0.707106 0.000000 -0.707107
vn 0.707106 0.000000 -0.707107
vn 0.000000 -0.707106 -0.707107
vn 0.000000 -0.707106 -0.707107
vn 0.000000 -0.707106 -0.707107
vn 0.000000 -0.707106 -0.707107
vn 0.000000 0.000000 1.000000
vn 0.000000 0.000000 1.000000
vn 0.000000 0.000000 1.000000
vn 0.000000 0.000000 1.000000
vn 0.000000 1.000000 0.000000
vn 0.000000 1.000000 0.000000
vn 0.000000 1.000000 0.000000
vn 0.000000 1.000000 0.000000
vn 0.000000 0.000000 -1.000000
vn 0.000000 0.000000 -1.000000
vn 0.000000 0.000000 -1.000000
vn 0.000000 0.000000 -1.000000
vn 0.000000 -1.000000 0.000000
vn 0.000000 -1.000000 0.000000
vn 0.000000 -1.000000 0.000000
vn 0.000000 -1.000000 0.000000
vn 1.000000 0.000000 0.000000
vn 1.000000 0.000000 0.000000
vn 1.000000 0.000000 0.000000
vn 1.000000 0.000000 0.000000
vn -1.000000 0.000000 0.000000
vn -1.000000 0.000000 0.000000
vn -1.000000 0.000000 0.000000
vn -1.000000 0.000000 0.000000
vn -0.577350 -0.577350 0.577351
vn -0.577350 -0.577350 0.577351
vn -0.577350 -0.577350 0.577351
vn 0.577350 -0.577350 0.577351
vn 0.577350 -0.577350 0.577351
vn 0.577350 -0.577350 0.577351
vn -0.577349 0.577350 0.577352
vn -0.577349 0.577350 0.577352
vn -0.577349 0.577350 0.577352
vn 0.577349 0.577350 0.577352
vn 0.577349 0.577350 0.577352
vn 0.577349 0.577350 0.577352
vn -0.577349 0.577350 -0.577352
vn -0.577349 0.577350 -0.577352
vn -0.577349 0.577350 -0.577352
vn 0.577349 0.577350 -0.577352
vn 0.577349 0.577350 -0.577352
vn 0.577349 0.577350 -0.577352
vn -0.577350 -0.577350 -0.577351
vn -0.577350 -0.577350 -0.577351
vn -0.577350 -0.577350 -0.577351
vn 0.577350 -0.577350 -0.577351
vn 0.577350 -0.577350 -0.577351
vn 0.577350 -0.577350 -0.577351
vn 0.000000 0.000000 1.000000
vn 0.000000 0.000000 1.000000
vn 0.000000 0.000000 1.000000
vn 0.000000 0.000000 1.000000
vn 0.000000 1.000000 0.000000
vn 0.000000 1.000000 0.000000
vn 0.000000 1.000000 0.000000
vn 0.000000 1.000000 0.000000
vn 0.000000 0.000000 -1.000000
vn 0.000000 0.000000 -1.000000
vn 0.000000 0.000000 -1.000000
vn 0.000000 0.000000 -1.000000
vn 0.000000 -1.000000 0.000000
vn 0.000000 -1.000000 0.000000
vn 0.000000 -1.000000 0.000000
vn 0.000000 -1.000000 0.000000
vn 1.000000 0.000000 0.000000
vn 1.000000 0.000000 0.000000
vn 1.000000 0.000000 0.000000
vn 1.000000 0.000000 0.000000
vn -1.000000 0.000000 0.000000
vn -1.000000 0.000000 0.000000
vn -1.000000 0.000000 0.000000
vn -1.000000 0.000000 0.000000
vn 0.000000 0.000000 1.000000
vn 0.000000 0.000000 1.000000
vn 0.000000 0.000000 1.000000
vn 0.000000 0.000000 1.000000
vn 0.000000 1.000000 0.000000
vn 0.000000 1.000000 0.000000
vn 0.000000 1.000000 0.000000
vn 0.000000 1.000000 0.000000
vn 0.000000 0.000000 -1.000000
vn 0.000000 0.000000 -1.000000
vn 0.000000 0.000000 -1.000000
vn 0.000000 0.000000 -1.000000
vn 0.000000 -1.000000 0.000000
vn 0.000000 -1.000000 0.000000
vn 0.000000 -1.000000 0.000000
vn 0.000000 -1.000000 0.000000
vn 1.000000 0.000000 0.000000
vn 1.000000 0.000000 0.000000
vn 1.000000 0.000000 0.000000
vn 1.000000 0.000000 0.000000
vn -1.000000 0.000000 0.000000
vn -1.000000 0.000000 0.000000
vn -1.000000 0.000000 0.000000
vn -1.000000 0.000000 0.000000
s off
g Hamper1
usemtl aiStandardSurface1SG
f 1/17/1 3/14/2 19/13/3 21/18/4
f 2/79/5 1/76/6 6/75/7 5/80/8
f 3/14/9 2/19/10 8/20/11 7/15/12
f 4/1/13 6/5/14 22/6/15 24/2/16
f 5/11/17 4/1/18 12/4/19 11/12/20
f 7/15/21 9/21/22 14/22/23 13/16/24
f 9/65/25 8/69/26 11/70/27 10/66/28
f 10/9/29 12/4/30 18/3/31 17/10/32
f 13/16/33 15/23/34 20/24/35 19/13/36
f 15/71/37 14/68/38 17/67/39 16/72/40
f 16/7/41 18/3/42 24/2/43 23/8/44
f 21/73/45 20/77/46 23/78/47 22/74/48
f 2/113/49 5/114/50 11/115/51 8/116/52
f 9/65/53 10/66/54 17/67/55 14/68/56
f 15/117/57 16/118/58 23/119/59 20/120/60
f 21/73/61 22/74/62 6/75/63 1/76/64
f 4/1/65 24/2/66 18/3/67 12/4/68
f 19/13/69 3/14/70 7/15/71 13/16/72
f 1/17/73 2/19/74 3/14/75
f 4/1/76 5/11/77 6/5/78
f 7/15/79 8/20/80 9/21/81
f 10/9/82 11/12/83 12/4/84
f 13/16/85 14/22/86 15/23/87
f 16/7/88 17/10/89 18/3/90
f 19/13/91 20/24/92 21/18/93
f 22/6/94 23/8/95 24/2/96
f 25/41/97 27/38/98 43/37/99 45/42/100
f 26/95/101 25/92/102 30/91/103 29/96/104
f 27/38/105 26/43/106 32/44/107 31/39/108
f 28/25/109 30/29/110 46/30/111 48/26/112
f 29/35/113 28/25/114 36/28/115 35/36/116
f 31/39/117 33/45/118 38/46/119 37/40/120
f 33/81/121 32/85/122 35/86/123 34/82/124
f 34/33/125 36/28/126 42/27/127 41/34/128
f 37/40/129 39/47/130 44/48/131 43/37/132
f 39/87/133 38/84/134 41/83/135 40/88/136
f 40/31/137 42/27/138 48/26/139 47/32/140
f 45/89/141 44/93/142 47/94/143 46/90/144
f 26/121/145 29/122/146 35/123/147 32/124/148
f 33/81/149 34/82/150 41/83/151 38/84/152
f 39/125/153 40/126/154 47/127/155 44/128/156
f 45/89/157 46/90/158 30/91/159 25/92/160
f 28/25/161 48/26/162 42/27/163 36/28/164
f 43/37/165 27/38/166 31/39/167 37/40/168
f 25/41/169 26/43/170 27/38/171
f 28/25/172 29/35/173 30/29/174
f 31/39/175 32/44/176 33/45/177
f 34/33/178 35/36/179 36/28/180
f 37/40/181 38/46/182 39/47/183
f 40/31/184 41/34/185 42/27/186
f 43/37/187 44/48/188 45/42/189
f 46/30/190 47/32/191 48/26/192
f 49/129/193 50/130/194 52/131/195 51/132/196
f 51/97/197 52/98/198 54/99/199 53/100/200
f 53/133/201 54/134/202 56/135/203 55/136/204
f 55/101/205 56/102/206 50/103/207 49/104/208
f 50/49/209 56/50/210 54/51/211 52/52/212
f 55/53/213 49/54/214 51/55/215 53/56/216
f 57/137/217 58/138/218 60/139/219 59/140/220
f 59/105/221 60/106/222 62/107/223 61/108/224
f 61/141/225 62/142/226 64/143/227 63/144/228
f 63/109/229 64/110/230 58/111/231 57/112/232
f 58/57/233 64/58/234 62/59/235 60/60/236
f 63/61/237 57/62/238 59/63/239 61/64/240
