# This file uses feet as units for non-parametric coordinates.

mtllib StairWell.mtl
g default
v -546.952410 -4.691061 291.925815
v -443.920824 -4.691061 291.925815
v -546.952410 16.217216 291.925815
v -443.920824 16.217216 291.925815
v -546.952410 16.217216 273.603031
v -443.920824 16.217216 273.603031
v -546.952410 34.539978 273.603031
v -443.920824 34.539978 273.603031
v -443.920824 34.539978 255.280246
v -546.952410 34.539978 255.280246
v -546.952410 52.862762 255.280246
v -443.920824 52.862762 255.280246
v -443.920824 52.862762 236.957431
v -546.952410 52.862762 236.957431
v -546.952410 71.185577 236.957431
v -443.920824 71.185577 236.957431
v -443.920824 71.185577 218.634647
v -546.952410 71.185577 218.634647
v -546.952410 89.508362 218.634647
v -443.920824 89.508362 218.634647
v -443.920824 89.508362 200.311832
v -546.952410 89.508362 200.311832
v -546.952410 107.831177 200.311832
v -443.920824 107.831177 200.311832
v -443.920824 107.831177 181.989032
v -546.952410 107.831177 181.989032
v -546.952410 126.153976 181.989032
v -443.920824 126.153976 181.989032
v -443.920824 126.153976 163.666248
v -546.952410 126.153976 163.666248
v -546.952410 144.476761 163.666248
v -443.920824 144.476761 163.666248
v -443.920824 144.476761 145.343433
v -546.952410 144.476761 145.343433
v -546.952410 162.799576 145.343433
v -443.920824 162.799576 145.343433
v -443.920824 162.799576 127.020633
v -546.952410 162.799576 127.020633
v -546.952410 181.122375 127.020633
v -443.920824 181.122375 127.020633
v -443.920824 181.122375 108.697849
v -546.952410 181.122375 108.697849
v -546.952410 199.445160 108.697849
v -443.920824 199.445160 108.697849
v -443.920824 199.445160 90.375019
v -546.952410 199.445160 90.375019
v -546.952410 217.767975 90.375019
v -443.920824 217.767975 90.375019
v -443.920824 217.767975 72.052234
v -546.952410 217.767975 72.052234
v -546.952410 236.090790 72.052234
v -443.920824 236.090790 72.052234
v -443.920824 236.090790 53.729450
v -546.952410 236.090790 53.729450
v -546.952410 254.413574 53.729450
v -443.920824 254.413574 53.729450
v -443.920824 254.413574 35.406673
v -546.952410 254.413574 35.406673
v -546.952410 272.736359 35.406673
v -443.920824 272.736359 35.406673
v -443.920824 272.736359 17.083858
v -546.952410 272.736359 17.083858
vt 0.875316 0.886232
vt 0.875316 0.701808
vt 0.908113 0.701808
vt 0.908113 0.886232
vt 0.766405 0.886232
vt 0.766405 0.701808
vt 0.799203 0.701808
vt 0.799203 0.886232
vt 0.258158 0.886232
vt 0.258158 0.701808
vt 0.290955 0.701808
vt 0.290955 0.886232
vt 0.657495 0.886232
vt 0.657495 0.701808
vt 0.690293 0.701808
vt 0.690293 0.886232
vt 0.076641 0.886232
vt 0.076641 0.701808
vt 0.109438 0.701808
vt 0.109438 0.886232
vt 0.512282 0.886232
vt 0.512282 0.701808
vt 0.545079 0.701808
vt 0.545079 0.886232
vt 0.947922 0.886232
vt 0.947922 0.701808
vt 0.980720 0.701808
vt 0.980720 0.886232
vt 0.367068 0.886232
vt 0.367068 0.701808
vt 0.399865 0.701808
vt 0.399865 0.886232
vt 0.403371 0.886232
vt 0.403371 0.701808
vt 0.436169 0.701808
vt 0.436169 0.886232
vt 0.802709 0.886232
vt 0.802709 0.701808
vt 0.835506 0.701808
vt 0.835506 0.886232
vt 0.040337 0.886232
vt 0.040337 0.701808
vt 0.073135 0.701808
vt 0.073135 0.886232
vt 0.693799 0.886232
vt 0.693799 0.701808
vt 0.726596 0.701808
vt 0.726596 0.886232
vt 0.584888 0.886232
vt 0.584888 0.701808
vt 0.617686 0.701808
vt 0.617686 0.886232
vt 0.951956 0.368849
vt 0.951956 0.184425
vt 0.984754 0.184425
vt 0.984754 0.368849
vt 0.294461 0.886232
vt 0.294461 0.701808
vt 0.327259 0.701808
vt 0.327259 0.886232
vt 0.000000 0.886232
vt 0.000000 0.701808
vt 0.037425 0.701808
vt 0.037425 0.886232
vt 0.951956 0.553274
vt 0.951956 0.368849
vt 0.984754 0.368849
vt 0.984754 0.553274
vt 0.621192 0.886232
vt 0.621192 0.701808
vt 0.653989 0.701808
vt 0.653989 0.886232
vt 0.112944 0.886232
vt 0.112944 0.701808
vt 0.145741 0.701808
vt 0.145741 0.886232
vt 0.911619 0.886232
vt 0.911619 0.701808
vt 0.944416 0.701808
vt 0.944416 0.886232
vt 0.221854 0.886232
vt 0.221854 0.701808
vt 0.254652 0.701808
vt 0.254652 0.886232
vt 0.439675 0.886232
vt 0.439675 0.701808
vt 0.472472 0.701808
vt 0.472472 0.886232
vt 0.951956 0.184425
vt 0.951956 0.000000
vt 0.984754 0.000000
vt 0.984754 0.184425
vt 0.330764 0.886232
vt 0.330764 0.701808
vt 0.363562 0.701808
vt 0.363562 0.886232
vt 0.475978 0.886232
vt 0.475978 0.701808
vt 0.508776 0.701808
vt 0.508776 0.886232
vt 0.548585 0.886232
vt 0.548585 0.701808
vt 0.581382 0.701808
vt 0.581382 0.886232
vt 0.149247 0.886232
vt 0.149247 0.701808
vt 0.182045 0.701808
vt 0.182045 0.886232
vt 0.185551 0.886232
vt 0.185551 0.701808
vt 0.218348 0.701808
vt 0.218348 0.886232
vt 0.730102 0.886232
vt 0.730102 0.701808
vt 0.762899 0.701808
vt 0.762899 0.886232
vt 0.839012 0.886232
vt 0.839012 0.701808
vt 0.871810 0.701808
vt 0.871810 0.886232
vn 0.000000 0.000000 1.000000
vn 0.000000 0.000000 1.000000
vn 0.000000 0.000000 1.000000
vn 0.000000 0.000000 1.000000
vn 0.000000 1.000000 0.000000
vn 0.000000 1.000000 0.000000
vn 0.000000 1.000000 0.000000
vn 0.000000 1.000000 0.000000
vn 0.000000 1.000000 0.000000
vn 0.000000 1.000000 0.000000
vn 0.000000 1.000000 0.000000
vn 0.000000 1.000000 0.000000
vn 0.000000 0.000000 1.000000
vn 0.000000 0.000000 1.000000
vn 0.000000 0.000000 1.000000
vn 0.000000 0.000000 1.000000
vn 0.000000 1.000000 0.000000
vn 0.000000 1.000000 0.000000
vn 0.000000 1.000000 0.000000
vn 0.000000 1.000000 0.000000
vn 0.000000 0.000000 1.000000
vn 0.000000 0.000000 1.000000
vn 0.000000 0.000000 1.000000
vn 0.000000 0.000000 1.000000
vn 0.000000 1.000000 0.000000
vn 0.000000 1.000000 0.000000
vn 0.000000 1.000000 0.000000
vn 0.000000 1.000000 0.000000
vn 0.000000 0.000000 1.000000
vn 0.000000 0.000000 1.000000
vn 0.000000 0.000000 1.000000
vn 0.000000 0.000000 1.000000
vn 0.000000 1.000000 0.000000
vn 0.000000 1.000000 0.000000
vn 0.000000 1.000000 0.000000
vn 0.000000 1.000000 0.000000
vn 0.000000 0.000000 1.000000
vn 0.000000 0.000000 1.000000
vn 0.000000 0.000000 1.000000
vn 0.000000 0.000000 1.000000
vn 0.000000 1.000000 0.000000
vn 0.000000 1.000000 0.000000
vn 0.000000 1.000000 0.000000
vn 0.000000 1.000000 0.000000
vn 0.000000 0.000000 1.000000
vn 0.000000 0.000000 1.000000
vn 0.000000 0.000000 1.000000
vn 0.000000 0.000000 1.000000
vn 0.000000 1.000000 0.000000
vn 0.000000 1.000000 0.000000
vn 0.000000 1.000000 0.000000
vn 0.000000 1.000000 0.000000
vn 0.000000 0.000000 1.000000
vn 0.000000 0.000000 1.000000
vn 0.000000 0.000000 1.000000
vn 0.000000 0.000000 1.000000
vn 0.000000 1.000000 0.000000
vn 0.000000 1.000000 0.000000
vn 0.000000 1.000000 0.000000
vn 0.000000 1.000000 0.000000
vn 0.000000 0.000000 1.000000
vn 0.000000 0.000000 1.000000
vn 0.000000 0.000000 1.000000
vn 0.000000 0.000000 1.000000
vn 0.000000 1.000000 0.000000
vn 0.000000 1.000000 0.000000
vn 0.000000 1.000000 0.000000
vn 0.000000 1.000000 0.000000
vn 0.000000 0.000000 1.000000
vn 0.000000 0.000000 1.000000
vn 0.000000 0.000000 1.000000
vn 0.000000 0.000000 1.000000
vn 0.000000 1.000000 0.000000
vn 0.000000 1.000000 0.000000
vn 0.000000 1.000000 0.000000
vn 0.000000 1.000000 0.000000
vn 0.000000 0.000000 1.000000
vn 0.000000 0.000000 1.000000
vn 0.000000 0.000000 1.000000
vn 0.000000 0.000000 1.000000
vn 0.000000 1.000000 0.000000
vn 0.000000 1.000000 0.000000
vn 0.000000 1.000000 0.000000
vn 0.000000 1.000000 0.000000
vn 0.000000 0.000000 1.000000
vn 0.000000 0.000000 1.000000
vn 0.000000 0.000000 1.000000
vn 0.000000 0.000000 1.000000
vn 0.000000 1.000000 0.000000
vn 0.000000 1.000000 0.000000
vn 0.000000 1.000000 0.000000
vn 0.000000 1.000000 0.000000
vn 0.000000 0.000000 1.000000
vn 0.000000 0.000000 1.000000
vn 0.000000 0.000000 1.000000
vn 0.000000 0.000000 1.000000
vn 0.000000 1.000000 0.000000
vn 0.000000 1.000000 0.000000
vn 0.000000 1.000000 0.000000
vn 0.000000 1.000000 0.000000
vn 0.000000 0.000000 1.000000
vn 0.000000 0.000000 1.000000
vn 0.000000 0.000000 1.000000
vn 0.000000 0.000000 1.000000
vn 0.000000 1.000000 0.000000
vn 0.000000 1.000000 0.000000
vn 0.000000 1.000000 0.000000
vn 0.000000 1.000000 0.000000
vn 0.000000 0.000000 1.000000
vn 0.000000 0.000000 1.000000
vn 0.000000 0.000000 1.000000
vn 0.000000 0.000000 1.000000
vn 0.000000 1.000000 0.000000
vn 0.000000 1.000000 0.000000
vn 0.000000 1.000000 0.000000
vn 0.000000 1.000000 0.000000
vn 0.000000 0.000000 1.000000
vn 0.000000 0.000000 1.000000
vn 0.000000 0.000000 1.000000
vn 0.000000 0.000000 1.000000
s off
g polySurface6 LivingRoomShape
usemtl initialShadingGroup
f 1/61/1 2/62/2 4/63/3 3/64/4
f 3/1/5 4/2/6 6/3/7 5/4/8
f 7/5/9 8/6/10 9/7/11 10/8/12
f 5/65/13 6/66/14 8/67/15 7/68/16
f 11/9/17 12/10/18 13/11/19 14/12/20
f 10/69/21 9/70/22 12/71/23 11/72/24
f 15/13/25 16/14/26 17/15/27 18/16/28
f 14/73/29 13/74/30 16/75/31 15/76/32
f 19/17/33 20/18/34 21/19/35 22/20/36
f 18/77/37 17/78/38 20/79/39 19/80/40
f 23/21/41 24/22/42 25/23/43 26/24/44
f 22/81/45 21/82/46 24/83/47 23/84/48
f 27/25/49 28/26/50 29/27/51 30/28/52
f 26/85/53 25/86/54 28/87/55 27/88/56
f 31/29/57 32/30/58 33/31/59 34/32/60
f 30/89/61 29/90/62 32/91/63 31/92/64
f 35/33/65 36/34/66 37/35/67 38/36/68
f 34/93/69 33/94/70 36/95/71 35/96/72
f 39/37/73 40/38/74 41/39/75 42/40/76
f 38/97/77 37/98/78 40/99/79 39/100/80
f 43/41/81 44/42/82 45/43/83 46/44/84
f 42/101/85 41/102/86 44/103/87 43/104/88
f 47/45/89 48/46/90 49/47/91 50/48/92
f 46/105/93 45/106/94 48/107/95 47/108/96
f 51/49/97 52/50/98 53/51/99 54/52/100
f 50/109/101 49/110/102 52/111/103 51/112/104
f 55/53/105 56/54/106 57/55/107 58/56/108
f 54/113/109 53/114/110 56/115/111 55/116/112
f 59/57/113 60/58/114 61/59/115 62/60/116
f 58/117/117 57/118/118 60/119/119 59/120/120
g default
v -550.155029 -0.000000 297.952159
v -543.596069 -0.000000 297.952159
v -550.155029 264.755463 297.952159
v -543.596069 264.755463 297.952159
v -550.155029 264.755463 -94.123265
v -543.596069 264.755463 -94.123265
v -550.155029 -0.000000 -94.123265
v -543.596069 -0.000000 -94.123265
vt 0.475978 0.701808
vt 0.475978 0.000000
vt 0.949885 0.000000
vt 0.949885 0.701808
vt 0.000000 0.701808
vt 0.000000 0.000000
vt 0.473907 0.000000
vt 0.473907 0.701808
vt 0.988260 0.000000
vt 1.000000 0.000000
vt 1.000000 0.473908
vt 0.988260 0.473908
vn 0.000000 0.000000 1.000000
vn 0.000000 0.000000 1.000000
vn 0.000000 0.000000 1.000000
vn 0.000000 0.000000 1.000000
vn 1.000000 0.000000 0.000000
vn 1.000000 0.000000 0.000000
vn 1.000000 0.000000 0.000000
vn 1.000000 0.000000 0.000000
vn -1.000000 0.000000 0.000000
vn -1.000000 0.000000 0.000000
vn -1.000000 0.000000 0.000000
vn -1.000000 0.000000 0.000000
s off
g LivingRoomShape polySurface7
usemtl initialShadingGroup
f 63/129/121 64/130/122 66/131/123 65/132/124
f 64/121/125 70/122/126 68/123/127 66/124/128
f 69/125/129 63/126/130 65/127/131 67/128/132
