# This file uses centimeters as units for non-parametric coordinates.

mtllib Boys_BoxFan_02_0201.mtl
g default
v -32.890442 67.890442 7.500000
v -35.000000 61.250874 7.500000
v -26.250875 70.000000 7.500000
v -35.000000 61.250874 -7.500000
v -32.890442 67.890442 -7.500000
v -26.250875 70.000000 -7.500000
v 32.890442 67.890442 7.500000
v 26.250875 70.000000 7.500000
v 35.000000 61.250874 7.500000
v 35.000000 61.250874 -7.500000
v 26.250875 70.000000 -7.500000
v 32.890442 67.890442 -7.500000
v -32.890442 2.109558 7.500000
v -26.250875 0.000000 7.500000
v -35.000000 8.749125 7.500000
v -32.890442 2.109558 -7.500000
v -35.000000 8.749125 -7.500000
v -26.250875 0.000000 -7.500000
v 32.890442 2.109558 7.500000
v 35.000000 8.749125 7.500000
v 26.250875 0.000000 7.500000
v 32.890442 2.109558 -7.500000
v 26.250875 0.000000 -7.500000
v 35.000000 8.749125 -7.500000
v -29.532070 64.532028 -7.500000
v 29.532068 64.532028 -7.500000
v -29.532070 5.467941 -7.500000
v 29.532068 5.467939 -7.500000
v -29.532066 5.467899 7.500000
v -29.532068 64.532051 7.500000
v 29.532057 64.532066 7.500000
v 29.532057 5.467928 7.500000
v -15.292147 73.757759 1.260051
v 15.292147 73.757759 1.260051
v -15.292147 73.757759 -1.239949
v 15.292147 73.757759 -1.239949
v -15.292147 71.257759 -1.239949
v 15.292147 71.257759 -1.239949
v -15.292147 71.257759 1.260051
v 15.292147 71.257759 1.260051
v 18.124025 71.257759 1.260051
v 16.991274 73.757759 1.260051
v 18.124025 71.257759 -1.239949
v 16.991274 73.757759 -1.239949
v -18.124025 71.257759 1.260051
v -16.991274 73.757759 1.260051
v -16.991274 73.757759 -1.239949
v -18.124025 71.257759 -1.239949
v 16.311623 68.757759 -1.239949
v 16.311623 68.757759 1.260051
v 19.332293 68.757759 -1.239949
v 19.332293 68.757759 1.260051
v -16.311623 68.757759 -1.239949
v -16.311623 68.757759 1.260051
v -19.332293 68.757759 1.260051
v -19.332293 68.757759 -1.239949
vt 0.833291 0.424773
vt 0.833424 0.474534
vt 0.726281 0.474819
vt 0.726149 0.425058
vt 0.725152 0.050046
vt 0.832294 0.049762
vt 0.832162 0.000000
vt 0.725020 0.000285
vt 0.504505 0.474857
vt 0.504355 0.425095
vt 0.611497 0.424772
vt 0.611647 0.474534
vt 0.503225 0.050084
vt 0.610367 0.049761
vt 0.503075 0.000323
vt 0.610217 0.000000
vt 0.522030 0.514404
vt 0.521801 0.494801
vt 0.539657 0.494592
vt 0.539886 0.514196
vt 0.521570 0.474969
vt 0.539426 0.474760
vt 0.557951 0.494609
vt 0.557923 0.514213
vt 0.540066 0.514187
vt 0.540094 0.494583
vt 0.540123 0.474749
vt 0.557980 0.474775
vt 0.618875 0.474941
vt 0.618532 0.492795
vt 0.599251 0.492425
vt 0.599594 0.474571
vt 0.596681 0.475008
vt 0.596338 0.492862
vt 0.577057 0.492491
vt 0.577400 0.474638
vt 0.943153 0.424812
vt 0.836010 0.424774
vt 0.836143 0.049762
vt 0.943286 0.049800
vt 0.835992 0.474536
vt 0.943135 0.474574
vt 0.836161 0.000000
vt 0.943304 0.000038
vt 0.722319 0.424773
vt 0.615176 0.425058
vt 0.614180 0.050046
vt 0.721322 0.049762
vt 0.722451 0.474534
vt 0.615309 0.474819
vt 0.721190 0.000000
vt 0.614047 0.000285
vt 0.503075 0.705453
vt 0.503075 0.486993
vt 0.520932 0.486993
vt 0.520932 0.705453
vt 0.503075 0.474857
vt 0.520932 0.474857
vt 0.520932 0.717589
vt 0.503075 0.717589
vt 0.980256 0.241017
vt 0.980256 0.022558
vt 0.998114 0.022558
vt 0.998114 0.241017
vt 0.576418 0.496270
vt 0.558561 0.496270
vt 0.558561 0.474694
vt 0.576418 0.474694
vt 0.000000 0.486016
vt 0.017857 0.486016
vt 0.017857 0.507592
vt 0.000000 0.507592
vt 0.437506 0.500000
vt 0.460943 0.460943
vt 0.500000 0.437506
vt 0.484932 0.484932
vt 0.039057 0.460943
vt 0.062494 0.500000
vt 0.460943 0.039057
vt 0.500000 0.062494
vt 0.039057 0.039056
vt 0.000000 0.437506
vt 0.015068 0.484932
vt 0.484932 0.015068
vt 0.437506 0.000000
vt 0.000000 0.062494
vt 0.062494 0.000000
vt 0.015068 0.015068
vt 0.039057 0.960943
vt 0.460943 0.960943
vt 0.437506 1.000000
vt 0.062494 1.000000
vt 0.039057 0.539057
vt 0.460943 0.539057
vt 0.484932 0.984932
vt 0.500000 0.937506
vt 0.000000 0.937506
vt 0.015068 0.984932
vt 0.437506 0.500000
vt 0.062494 0.500000
vt 0.500000 0.562494
vt 0.000000 0.562494
vt 0.484932 0.515068
vt 0.015068 0.515068
vt 0.946965 0.247317
vt 0.946965 0.028858
vt 0.964822 0.028858
vt 0.964822 0.247317
vt 0.946965 0.016722
vt 0.964822 0.008630
vt 0.964822 0.267545
vt 0.946965 0.259454
vt 0.982679 0.000000
vt 0.982679 0.021576
vt 0.982679 0.254599
vt 0.982679 0.276176
vt 0.961123 0.506685
vt 0.961123 0.288226
vt 0.978980 0.288226
vt 0.978980 0.506685
vt 0.961123 0.267998
vt 0.978980 0.276089
vt 0.978980 0.518821
vt 0.961123 0.526912
vt 0.943265 0.280943
vt 0.943265 0.259367
vt 0.943265 0.535543
vt 0.943265 0.513967
vn -0.035647 0.999364 0.000000
vn -0.035647 0.999364 0.000000
vn 0.035647 0.999364 0.000000
vn 0.035647 0.999364 0.000000
vn -0.035647 -0.999364 0.000000
vn -0.035647 -0.999364 0.000000
vn 0.035647 -0.999364 0.000000
vn 0.035647 -0.999364 0.000000
vn -0.953051 0.302808 0.000000
vn -0.953051 0.302808 0.000000
vn -0.953051 0.302808 0.000000
vn -0.953051 0.302808 0.000000
vn -0.302809 0.953051 0.000000
vn -0.302809 0.953051 0.000000
vn 0.302809 0.953051 0.000000
vn 0.302809 0.953051 0.000000
vn 0.953051 0.302808 0.000000
vn 0.953051 0.302808 0.000000
vn 0.953051 0.302808 0.000000
vn 0.953051 0.302808 0.000000
vn -0.302809 -0.953051 0.000000
vn -0.302809 -0.953051 0.000000
vn -0.953051 -0.302809 0.000000
vn -0.953051 -0.302809 0.000000
vn -0.953051 -0.302809 0.000000
vn -0.953051 -0.302809 0.000000
vn 0.953051 -0.302809 0.000000
vn 0.953051 -0.302809 0.000000
vn 0.953051 -0.302809 0.000000
vn 0.953051 -0.302809 0.000000
vn 0.302809 -0.953051 0.000000
vn 0.302809 -0.953051 0.000000
vn 0.000000 0.000000 1.000000
vn 0.000000 0.000000 1.000000
vn 0.000000 0.000000 1.000000
vn 0.000000 0.000000 1.000000
vn -0.000000 0.000000 -1.000000
vn -0.000000 0.000000 -1.000000
vn -0.000000 0.000000 -1.000000
vn -0.000000 0.000000 -1.000000
vn -0.000000 0.000000 -1.000000
vn -0.000000 0.000000 -1.000000
vn -0.000000 0.000000 -1.000000
vn -0.000000 0.000000 -1.000000
vn 0.000000 -0.000000 -1.000000
vn 0.000000 -0.000000 -1.000000
vn 0.000000 0.000000 -1.000000
vn 0.000000 0.000000 -1.000000
vn 0.000000 -0.000000 -1.000000
vn 0.000000 -0.000000 -1.000000
vn 0.000000 -0.000000 -1.000000
vn 0.000000 -0.000000 -1.000000
vn 0.000000 0.000000 1.000000
vn 0.000000 0.000000 1.000000
vn 0.000000 0.000000 1.000000
vn 0.000000 0.000000 1.000000
vn -0.000000 0.000000 1.000000
vn -0.000000 0.000000 1.000000
vn -0.000000 0.000000 1.000000
vn -0.000000 0.000000 1.000000
vn 0.000000 0.000000 1.000000
vn 0.000000 0.000000 1.000000
vn 0.000000 0.000000 1.000000
vn 0.000000 0.000000 1.000000
vn 0.000000 0.000000 -1.000000
vn 0.000000 0.000000 -1.000000
vn 0.000000 0.000000 -1.000000
vn 0.000000 0.000000 -1.000000
vn 0.000000 0.000000 -1.000000
vn 0.000000 0.000000 -1.000000
vn 0.000000 0.000000 -1.000000
vn 0.000000 0.000000 -1.000000
vn 0.000000 0.000000 -1.000000
vn 0.000000 0.000000 -1.000000
vn 0.000000 0.000000 -1.000000
vn 0.000000 0.000000 -1.000000
vn 1.000000 0.000000 0.000000
vn 1.000000 0.000000 0.000000
vn 1.000000 0.000000 0.000000
vn 1.000000 0.000000 0.000000
vn 0.000000 0.000000 1.000000
vn 0.000000 0.000000 1.000000
vn 0.000000 0.000000 1.000000
vn 0.000000 0.000000 1.000000
vn 0.000000 0.000000 1.000000
vn 0.000000 0.000000 1.000000
vn 0.000000 0.000000 1.000000
vn 0.000000 0.000000 1.000000
vn -0.000000 0.000000 1.000000
vn -0.000000 0.000000 1.000000
vn -0.000000 0.000000 1.000000
vn -0.000000 0.000000 1.000000
vn -1.000000 0.000000 0.000000
vn -1.000000 0.000000 0.000000
vn -1.000000 0.000000 0.000000
vn -1.000000 0.000000 0.000000
vn 0.000000 1.000000 0.000000
vn 0.000000 1.000000 0.000000
vn 0.000000 1.000000 0.000000
vn 0.000000 1.000000 0.000000
vn 0.000000 0.000000 -1.000000
vn 0.000000 0.000000 -1.000000
vn 0.000000 0.000000 -1.000000
vn 0.000000 0.000000 -1.000000
vn 0.000000 -1.000000 0.000000
vn 0.000000 -1.000000 0.000000
vn 0.000000 -1.000000 0.000000
vn 0.000000 -1.000000 0.000000
vn 0.000000 0.000000 1.000000
vn 0.000000 0.000000 1.000000
vn 0.000000 0.000000 1.000000
vn 0.000000 0.000000 1.000000
vn 0.910862 0.412712 0.000000
vn 0.905649 0.424028 0.000000
vn 0.905649 0.424028 0.000000
vn 0.910862 0.412712 0.000000
vn -0.905649 0.424028 0.000000
vn -0.910862 0.412712 0.000000
vn -0.910862 0.412712 0.000000
vn -0.905649 0.424028 0.000000
vn 0.000000 0.000000 1.000000
vn 0.000000 0.000000 1.000000
vn 0.000000 -1.000000 0.000000
vn 0.000000 -1.000000 0.000000
vn 0.000000 -1.000000 0.000000
vn 0.000000 -1.000000 0.000000
vn 0.000000 0.000000 -1.000000
vn 0.000000 0.000000 -1.000000
vn 0.000000 1.000000 0.000000
vn 0.000000 1.000000 0.000000
vn 0.000000 0.000000 1.000000
vn 0.000000 0.000000 1.000000
vn 0.000000 1.000000 0.000000
vn 0.000000 1.000000 0.000000
vn 0.000000 0.000000 -1.000000
vn 0.000000 0.000000 -1.000000
vn 0.000000 -1.000000 0.000000
vn 0.000000 -1.000000 0.000000
vn 0.000000 -1.000000 0.000000
vn 0.000000 -1.000000 0.000000
vn -0.925968 -0.377601 0.000000
vn -0.925968 -0.377601 0.000000
vn -0.925968 -0.377601 0.000000
vn -0.925968 -0.377601 0.000000
vn 0.000000 0.000000 -1.000000
vn 0.000000 0.000000 -1.000000
vn 0.900358 0.435149 0.000000
vn 0.900358 0.435149 0.000000
vn 0.000000 0.000000 1.000000
vn 0.000000 0.000000 1.000000
vn 0.925968 -0.377601 0.000000
vn 0.925968 -0.377601 0.000000
vn 0.925968 -0.377601 0.000000
vn 0.925968 -0.377601 0.000000
vn 0.000000 0.000000 1.000000
vn 0.000000 0.000000 1.000000
vn -0.900358 0.435149 0.000000
vn -0.900358 0.435149 0.000000
vn 0.000000 0.000000 -1.000000
vn 0.000000 0.000000 -1.000000
s 1
g Boys_BoxFan_02
usemtl initialShadingGroup
f 6/37/1 3/38/2 8/39/3 11/40/4
s 2
f 14/45/5 18/46/6 23/47/7 21/48/8
s off
f 2/1/9 1/2/10 5/3/11 4/4/12
s 1
f 1/41/13 3/38/2 6/37/1 5/42/14
f 8/39/3 7/43/15 12/44/16 11/40/4
s off
f 7/9/17 9/10/18 10/11/19 12/12/20
s 2
f 14/45/5 13/49/21 16/50/22 18/46/6
s off
f 13/7/23 15/6/24 17/5/25 16/8/26
f 20/13/27 19/15/28 22/16/29 24/14/30
s 2
f 19/51/31 21/48/8 23/47/7 22/52/32
s 3
f 8/73/33 31/74/34 9/75/35 7/76/36
s 4
f 27/89/37 28/90/38 23/91/39 18/92/40
f 22/95/41 23/91/39 28/90/38 24/96/42
f 17/97/43 27/89/37 18/92/40 16/98/44
s 5
f 6/100/45 25/93/46 4/102/47 5/104/48
f 11/99/49 26/94/50 25/93/46 6/100/45
f 10/101/51 26/94/50 11/99/49 12/103/52
s 3
f 2/82/53 30/77/54 3/78/55 1/83/56
s 6
f 14/87/57 29/81/58 15/86/59 13/88/60
f 19/84/61 20/80/62 32/79/63 21/85/64
s 3
f 30/77/54 31/74/34 8/73/33 3/78/55
s 6
f 21/85/64 32/79/63 29/81/58 14/87/57
s off
f 4/102/65 25/93/66 27/89/67 17/97/68
f 25/93/69 26/94/70 28/90/71 27/89/72
f 26/94/73 10/101/74 24/96/75 28/90/76
f 10/11/77 9/10/78 20/13/79 24/14/80
f 9/75/81 31/74/82 32/79/83 20/80/84
f 31/74/85 30/77/86 29/81/87 32/79/88
f 30/77/89 2/82/90 15/86/91 29/81/92
f 2/1/93 4/4/94 17/5/95 15/6/96
s 7
f 33/53/97 34/54/98 36/55/99 35/56/100
s 8
f 35/105/101 36/106/102 38/107/103 37/108/104
s off
f 37/61/105 38/62/106 40/63/107 39/64/108
s 9
f 39/117/109 40/118/110 34/119/111 33/120/112
s 10
f 42/17/113 41/18/114 43/19/115 44/20/116
s 11
f 45/23/117 46/24/118 47/25/119 48/26/120
s 9
f 34/119/111 40/118/110 41/121/121 42/122/122
s off
f 50/65/123 49/66/124 51/67/125 52/68/126
s 8
f 38/107/103 36/106/102 44/109/127 43/110/128
s 7
f 36/55/99 34/54/98 42/57/129 44/58/130
s 9
f 39/117/109 33/120/112 46/123/131 45/124/132
s 7
f 33/53/97 35/56/100 47/59/133 46/60/134
s 8
f 35/105/101 37/108/104 48/111/135 47/112/136
s off
f 53/69/137 54/70/138 55/71/139 56/72/140
f 40/29/141 38/30/142 49/31/143 50/32/144
s 8
f 38/107/103 43/110/128 51/113/145 49/114/146
s 10
f 43/19/115 41/18/114 52/21/147 51/22/148
s 9
f 41/121/121 40/118/110 50/125/149 52/126/150
s off
f 37/33/151 39/34/152 54/35/153 53/36/154
s 9
f 39/117/109 45/124/132 55/127/155 54/128/156
s 11
f 45/23/117 48/26/120 56/27/157 55/28/158
s 8
f 48/111/135 37/108/104 53/115/159 56/116/160
