# This file uses meters as units for non-parametric coordinates.

mtllib Boys_EndTable_01_0201.mtl
g default
v -4.874222 1.535703 3.103745
v -4.874222 1.535703 2.896255
v -4.874222 1.388511 2.792509
v -4.874222 1.388511 3.207491
v -4.940703 1.503203 3.066217
v -4.940703 1.503203 2.933783
v -4.940703 1.388511 2.867565
v -4.940703 1.388511 3.132435
v -4.940703 1.388511 3.000000
v -4.874222 1.388511 3.000000
v -4.938285 0.109735 2.284943
v -4.938285 0.109735 3.715057
v -4.938285 0.194470 2.284943
v -4.938285 0.194470 3.715057
v -3.061715 0.194470 2.284943
v -3.061715 0.194470 3.715057
v -3.061715 0.109735 2.284943
v -3.061715 0.109735 3.715057
v -4.934295 0.000000 3.529765
v -4.934295 0.000000 3.732032
v -4.990555 1.788462 3.529765
v -4.990555 1.788462 3.821507
v -4.698813 1.788462 3.529765
v -4.698813 1.788462 3.821507
v -4.698813 0.000000 3.529765
v -4.698813 0.000000 3.732032
v -4.934295 0.000000 2.265902
v -4.934295 0.000000 2.468169
v -4.990555 1.788462 2.176427
v -4.990555 1.788462 2.468169
v -4.698813 1.788462 2.176427
v -4.698813 1.788462 2.468169
v -4.698813 0.000000 2.265902
v -4.698813 0.000000 2.468169
v -3.302683 0.000000 3.529765
v -3.302683 0.000000 3.732032
v -3.302683 1.788462 3.529765
v -3.302683 1.788462 3.821507
v -3.010941 1.788462 3.529765
v -3.010941 1.788462 3.821507
v -3.067201 0.000000 3.529765
v -3.067201 0.000000 3.732032
v -4.938285 1.097105 2.284943
v -4.938285 1.097105 3.715057
v -4.938285 1.797968 2.284943
v -4.938285 1.797968 3.715057
v -3.061715 1.797968 2.284943
v -3.061715 1.797968 3.715057
v -3.061715 1.097105 2.284943
v -3.061715 1.097105 3.715057
v -4.938285 1.237278 2.284943
v -4.938285 1.237278 3.715057
v -3.061715 1.237278 3.715057
v -3.061715 1.237278 2.284943
v -3.061715 1.595402 2.284943
v -3.061715 1.595402 3.715057
v -4.938285 1.595402 3.715057
v -4.938285 1.595402 2.284943
v -4.896471 1.237278 2.326758
v -4.896471 1.237278 3.673242
v -4.896471 1.595402 3.673242
v -4.896471 1.595402 2.326758
v -3.103529 1.595402 2.326758
v -3.103529 1.595402 3.673242
v -3.103529 1.237278 3.673242
v -3.103529 1.237278 2.326758
v -3.302683 0.000000 2.265902
v -3.302683 0.000000 2.468169
v -3.302683 1.788462 2.176427
v -3.302683 1.788462 2.468169
v -3.010941 1.788462 2.176427
v -3.010941 1.788462 2.468169
v -3.067201 0.000000 2.265902
v -3.067201 0.000000 2.468169
v -5.067014 1.730630 2.099441
v -5.067014 1.730630 3.900559
v -5.067014 1.894576 2.099441
v -5.067014 1.894576 3.900559
v -2.932986 1.894576 2.099441
v -2.932986 1.894576 3.900559
v -2.932986 1.730630 2.099441
v -2.932986 1.730630 3.900559
vt 0.573066 0.988412
vt 0.573065 0.673350
vt 0.587292 0.673350
vt 0.587292 0.988412
vt 0.555700 0.988412
vt 0.555700 0.673350
vt 0.569926 0.673350
vt 0.569926 0.988412
vt 0.261229 0.365310
vt 0.300764 0.365308
vt 0.300783 0.665953
vt 0.251801 0.665956
vt 0.772770 0.630124
vt 0.812306 0.630124
vt 0.821751 0.930394
vt 0.772770 0.930394
vt 0.009446 0.673350
vt 0.048981 0.673350
vt 0.048981 0.973620
vt 0.000000 0.973620
vt 0.069487 0.365308
vt 0.109022 0.365311
vt 0.118444 0.665957
vt 0.069462 0.665953
vt 0.121584 0.365308
vt 0.161119 0.365311
vt 0.170541 0.665957
vt 0.121559 0.665953
vt 0.157053 0.673350
vt 0.196589 0.673350
vt 0.196589 0.973619
vt 0.147608 0.973619
vt 0.850915 0.301022
vt 0.850915 0.000000
vt 0.911042 0.000000
vt 0.911042 0.301022
vt 0.008683 0.666330
vt 0.008683 0.365308
vt 0.068809 0.365308
vt 0.068809 0.666330
vt 0.529651 0.988412
vt 0.529651 0.673350
vt 0.553185 0.673350
vt 0.553185 0.988412
vt 0.503603 0.988412
vt 0.503603 0.673350
vt 0.527137 0.673350
vt 0.527137 0.988412
vt 0.911695 0.315062
vt 0.911695 0.000000
vt 0.945704 0.000000
vt 0.945704 0.315062
vt 0.916036 0.945187
vt 0.916036 0.630124
vt 0.950046 0.630124
vt 0.950046 0.945187
vt 0.052097 0.673350
vt 0.091632 0.673350
vt 0.101078 0.973620
vt 0.052097 0.973620
vt 0.183083 0.365310
vt 0.222619 0.365308
vt 0.222637 0.665953
vt 0.173656 0.665956
vt 0.950768 0.988412
vt 0.950768 0.630124
vt 0.978293 0.630124
vt 0.978293 0.988412
vt 0.972475 0.358288
vt 0.972475 0.000000
vt 1.000000 0.000000
vt 1.000000 0.358288
vt 0.473150 0.365298
vt 0.472492 0.400128
vt 0.460189 0.393593
vt 0.460609 0.371362
vt 0.458326 0.422360
vt 0.447165 0.434961
vt 0.447165 0.400125
vt 0.458326 0.400125
vt 0.447165 0.365289
vt 0.458326 0.377890
vt 0.486237 0.358288
vt 0.726343 0.358288
vt 0.726343 0.673350
vt 0.486237 0.673350
vt 0.729356 0.315062
vt 0.969461 0.315062
vt 0.969461 0.630124
vt 0.729356 0.630124
vt 0.642528 0.315062
vt 0.676487 0.315062
vt 0.676487 0.354598
vt 0.642528 0.354598
vt 0.655552 0.673350
vt 0.689511 0.673350
vt 0.689511 0.712885
vt 0.655552 0.712885
vt 0.607797 0.315062
vt 0.641756 0.315062
vt 0.641756 0.354598
vt 0.607797 0.354598
vt 0.607797 0.000000
vt 0.847902 0.000000
vt 0.847902 0.315062
vt 0.607797 0.315062
vt 0.243119 0.358288
vt 0.483224 0.358288
vt 0.476204 0.365308
vt 0.250139 0.365308
vt 0.483224 0.673350
vt 0.476204 0.666329
vt 0.243119 0.673350
vt 0.250139 0.666330
vt 0.240106 0.673350
vt 0.000000 0.673350
vt 0.007021 0.666330
vt 0.233085 0.666330
vt 0.000000 0.358288
vt 0.007020 0.365308
vt 0.240105 0.358288
vt 0.233085 0.365308
vt 0.677259 0.315062
vt 0.711218 0.315062
vt 0.711218 0.354598
vt 0.677259 0.354598
vt 0.303898 0.000000
vt 0.606293 0.000000
vt 0.606293 0.358288
vt 0.303898 0.358288
vt 0.000000 0.000000
vt 0.302394 0.000000
vt 0.302394 0.358288
vt 0.000000 0.358288
vt 0.644427 0.701197
vt 0.644568 0.723333
vt 0.625228 0.712388
vt 0.625447 0.734762
vt 0.625162 0.690012
vt 0.652998 0.734306
vt 0.628219 0.751391
vt 0.627722 0.673349
vt 0.652717 0.690117
vt 0.590431 0.913455
vt 0.590431 0.673350
vt 0.604657 0.673350
vt 0.604657 0.913455
vt 0.607797 0.913455
vt 0.607797 0.673350
vt 0.622023 0.673350
vt 0.622023 0.913455
vt 0.408100 0.365308
vt 0.442059 0.365309
vt 0.457073 0.665727
vt 0.408092 0.665726
vt 0.104194 0.673350
vt 0.153175 0.673350
vt 0.138153 0.973619
vt 0.104194 0.973619
vt 0.735691 0.630125
vt 0.769650 0.630124
vt 0.769654 0.930543
vt 0.720673 0.930543
vt 0.863940 0.630124
vt 0.912921 0.630124
vt 0.912921 0.930394
vt 0.878962 0.930394
vt 0.824867 0.630124
vt 0.858826 0.630124
vt 0.873848 0.930394
vt 0.824867 0.930394
vt 0.355995 0.365309
vt 0.404976 0.365308
vt 0.389963 0.665726
vt 0.356004 0.665727
vt 0.312581 0.899415
vt 0.312581 0.673350
vt 0.372708 0.673350
vt 0.372708 0.899415
vt 0.251801 0.899415
vt 0.251801 0.673350
vt 0.311928 0.673350
vt 0.311928 0.899415
vt 0.946426 0.240105
vt 0.946426 0.000000
vt 0.969960 0.000000
vt 0.969960 0.240105
vt 0.972475 0.598393
vt 0.972475 0.358288
vt 0.996009 0.358288
vt 0.996009 0.598393
vt 0.434141 0.913455
vt 0.434141 0.673350
vt 0.468150 0.673350
vt 0.468150 0.913455
vt 0.468872 0.913455
vt 0.468872 0.673350
vt 0.502881 0.673350
vt 0.502881 0.913455
vt 0.214727 0.673350
vt 0.248686 0.673350
vt 0.248686 0.973619
vt 0.199705 0.973619
vt 0.303898 0.365308
vt 0.352880 0.365309
vt 0.352871 0.665728
vt 0.318912 0.665727
vt 0.403751 0.975744
vt 0.403751 0.673350
vt 0.431276 0.673350
vt 0.431276 0.975744
vt 0.373361 0.975744
vt 0.373361 0.673350
vt 0.400886 0.673350
vt 0.400886 0.975744
vn -0.439192 0.898393 0.000000
vn -0.439192 0.898393 0.000000
vn -0.439192 0.898393 0.000000
vn -0.439192 0.898393 0.000000
vn -0.644686 0.416164 -0.641239
vn -0.644686 0.416164 -0.641239
vn -0.644686 0.416164 -0.641239
vn -0.644686 0.416164 -0.641239
vn -0.644686 0.416164 0.641239
vn -0.644686 0.416164 0.641239
vn -0.644686 0.416164 0.641239
vn -0.644686 0.416164 0.641239
vn -1.000000 0.000000 0.000000
vn -1.000000 0.000000 0.000000
vn -1.000000 0.000000 0.000000
vn -1.000000 0.000000 0.000000
vn -1.000000 0.000000 0.000000
vn -0.000000 -1.000000 0.000000
vn -0.000000 -1.000000 0.000000
vn -0.000000 -1.000000 0.000000
vn -0.000000 -1.000000 0.000000
vn -0.000000 -1.000000 0.000000
vn -0.000000 -1.000000 0.000000
vn -1.000000 0.000000 0.000000
vn -1.000000 0.000000 0.000000
vn -1.000000 0.000000 0.000000
vn -1.000000 0.000000 0.000000
vn 0.000000 1.000000 -0.000000
vn 0.000000 1.000000 -0.000000
vn 0.000000 1.000000 -0.000000
vn 0.000000 1.000000 -0.000000
vn 1.000000 0.000000 -0.000000
vn 1.000000 0.000000 -0.000000
vn 1.000000 0.000000 -0.000000
vn 1.000000 0.000000 -0.000000
vn -0.000000 -1.000000 0.000000
vn -0.000000 -1.000000 0.000000
vn -0.000000 -1.000000 0.000000
vn -0.000000 -1.000000 0.000000
vn 0.000000 0.000000 1.000000
vn 0.000000 0.000000 1.000000
vn 0.000000 0.000000 1.000000
vn 0.000000 0.000000 1.000000
vn -0.000000 0.000000 -1.000000
vn -0.000000 0.000000 -1.000000
vn -0.000000 0.000000 -1.000000
vn -0.000000 0.000000 -1.000000
vn -0.999506 -0.031442 0.000000
vn -0.999506 -0.031442 0.000000
vn -0.999506 -0.031442 0.000000
vn -0.999506 -0.031442 0.000000
vn 1.000000 0.000000 -0.000000
vn 1.000000 0.000000 -0.000000
vn 1.000000 0.000000 -0.000000
vn 1.000000 0.000000 -0.000000
vn -0.000000 -1.000000 0.000000
vn -0.000000 -1.000000 0.000000
vn -0.000000 -1.000000 0.000000
vn -0.000000 -1.000000 0.000000
vn 0.000000 -0.049966 0.998751
vn 0.000000 -0.049966 0.998751
vn 0.000000 -0.049966 0.998751
vn 0.000000 -0.049966 0.998751
vn -0.000000 0.000000 -1.000000
vn -0.000000 0.000000 -1.000000
vn -0.000000 0.000000 -1.000000
vn -0.000000 0.000000 -1.000000
vn -0.999506 -0.031442 0.000000
vn -0.999506 -0.031442 0.000000
vn -0.999506 -0.031442 0.000000
vn -0.999506 -0.031442 0.000000
vn 1.000000 0.000000 -0.000000
vn 1.000000 0.000000 -0.000000
vn 1.000000 0.000000 -0.000000
vn 1.000000 0.000000 -0.000000
vn -0.000000 -1.000000 0.000000
vn -0.000000 -1.000000 0.000000
vn -0.000000 -1.000000 0.000000
vn -0.000000 -1.000000 0.000000
vn 0.000000 0.000000 1.000000
vn 0.000000 0.000000 1.000000
vn 0.000000 0.000000 1.000000
vn 0.000000 0.000000 1.000000
vn -0.000000 -0.049966 -0.998751
vn -0.000000 -0.049966 -0.998751
vn -0.000000 -0.049966 -0.998751
vn -0.000000 -0.049966 -0.998751
vn -1.000000 0.000000 0.000000
vn -1.000000 0.000000 0.000000
vn -1.000000 0.000000 0.000000
vn -1.000000 0.000000 0.000000
vn 0.999506 -0.031442 -0.000000
vn 0.999506 -0.031442 -0.000000
vn 0.999506 -0.031442 -0.000000
vn 0.999506 -0.031442 -0.000000
vn -0.000000 -1.000000 0.000000
vn -0.000000 -1.000000 0.000000
vn -0.000000 -1.000000 0.000000
vn -0.000000 -1.000000 0.000000
vn 0.000000 -0.049966 0.998751
vn 0.000000 -0.049966 0.998751
vn 0.000000 -0.049966 0.998751
vn 0.000000 -0.049966 0.998751
vn -0.000000 0.000000 -1.000000
vn -0.000000 0.000000 -1.000000
vn -0.000000 0.000000 -1.000000
vn -0.000000 0.000000 -1.000000
vn -1.000000 0.000000 0.000000
vn -1.000000 0.000000 0.000000
vn -1.000000 0.000000 0.000000
vn -1.000000 0.000000 0.000000
vn 1.000000 0.000000 -0.000000
vn 1.000000 0.000000 -0.000000
vn 1.000000 0.000000 -0.000000
vn 1.000000 0.000000 -0.000000
vn -0.000000 -1.000000 0.000000
vn -0.000000 -1.000000 0.000000
vn -0.000000 -1.000000 0.000000
vn -0.000000 -1.000000 0.000000
vn 0.000000 0.000000 1.000000
vn 0.000000 0.000000 1.000000
vn 0.000000 0.000000 1.000000
vn 0.000000 0.000000 1.000000
vn -0.000000 0.000000 -1.000000
vn -0.000000 0.000000 -1.000000
vn -0.000000 0.000000 -1.000000
vn -0.000000 0.000000 -1.000000
vn -1.000000 0.000000 0.000000
vn -1.000000 0.000000 0.000000
vn -1.000000 0.000000 0.000000
vn -1.000000 0.000000 0.000000
vn 0.000000 0.000000 1.000000
vn 0.000000 0.000000 1.000000
vn 0.000000 0.000000 1.000000
vn 0.000000 0.000000 1.000000
vn 1.000000 0.000000 -0.000000
vn 1.000000 0.000000 -0.000000
vn 1.000000 0.000000 -0.000000
vn 1.000000 0.000000 -0.000000
vn -0.000000 0.000000 -1.000000
vn -0.000000 0.000000 -1.000000
vn -0.000000 0.000000 -1.000000
vn -0.000000 0.000000 -1.000000
vn 1.000000 0.000000 -0.000000
vn 1.000000 0.000000 -0.000000
vn 1.000000 0.000000 -0.000000
vn 1.000000 0.000000 -0.000000
vn 0.000000 0.000000 1.000000
vn 0.000000 0.000000 1.000000
vn 0.000000 0.000000 1.000000
vn 0.000000 0.000000 1.000000
vn -1.000000 0.000000 0.000000
vn -1.000000 0.000000 0.000000
vn -1.000000 0.000000 0.000000
vn -1.000000 0.000000 0.000000
vn -0.000000 0.000000 -1.000000
vn -0.000000 0.000000 -1.000000
vn -0.000000 0.000000 -1.000000
vn -0.000000 0.000000 -1.000000
vn -0.000001 1.000000 0.000000
vn -0.000001 1.000000 0.000000
vn -0.000001 1.000000 0.000000
vn -0.000001 1.000000 0.000000
vn 0.000001 -1.000000 -0.000000
vn 0.000001 -1.000000 -0.000000
vn 0.000001 -1.000000 -0.000000
vn 0.000001 -1.000000 -0.000000
vn -0.000001 -1.000000 0.000000
vn -0.000001 -1.000000 0.000000
vn -0.000001 -1.000000 0.000000
vn -0.000001 -1.000000 0.000000
vn 0.000001 1.000000 -0.000000
vn 0.000001 1.000000 -0.000000
vn 0.000001 1.000000 -0.000000
vn 0.000001 1.000000 -0.000000
vn -1.000000 0.000000 0.000000
vn -1.000000 0.000000 0.000000
vn -1.000000 0.000000 0.000000
vn -1.000000 0.000000 0.000000
vn 0.999506 -0.031442 -0.000000
vn 0.999506 -0.031442 -0.000000
vn 0.999506 -0.031442 -0.000000
vn 0.999506 -0.031442 -0.000000
vn -0.000000 -1.000000 0.000000
vn -0.000000 -1.000000 0.000000
vn -0.000000 -1.000000 0.000000
vn -0.000000 -1.000000 0.000000
vn 0.000000 0.000000 1.000000
vn 0.000000 0.000000 1.000000
vn 0.000000 0.000000 1.000000
vn 0.000000 0.000000 1.000000
vn -0.000000 -0.049966 -0.998751
vn -0.000000 -0.049966 -0.998751
vn -0.000000 -0.049966 -0.998751
vn -0.000000 -0.049966 -0.998751
vn -1.000000 0.000000 0.000000
vn -1.000000 0.000000 0.000000
vn -1.000000 0.000000 0.000000
vn -1.000000 0.000000 0.000000
vn 0.000000 1.000000 -0.000000
vn 0.000000 1.000000 -0.000000
vn 0.000000 1.000000 -0.000000
vn 0.000000 1.000000 -0.000000
vn 1.000000 0.000000 -0.000000
vn 1.000000 0.000000 -0.000000
vn 1.000000 0.000000 -0.000000
vn 1.000000 0.000000 -0.000000
vn -0.000000 -1.000000 0.000000
vn -0.000000 -1.000000 0.000000
vn -0.000000 -1.000000 0.000000
vn -0.000000 -1.000000 0.000000
vn 0.000000 0.000000 1.000000
vn 0.000000 0.000000 1.000000
vn 0.000000 0.000000 1.000000
vn 0.000000 0.000000 1.000000
vn -0.000000 0.000000 -1.000000
vn -0.000000 0.000000 -1.000000
vn -0.000000 0.000000 -1.000000
vn -0.000000 0.000000 -1.000000
s off
g End_Table
usemtl aiStandardSurface1SG
f 1/73/1 2/74/2 6/75/3 5/76/4
f 2/140/5 3/141/6 7/138/7 6/136/8
f 4/142/9 1/143/10 5/135/11 8/139/12
s 1
f 5/135/13 6/136/14 9/137/15
f 6/136/14 7/138/16 9/137/15
f 8/139/17 5/135/13 9/137/15
s 2
f 7/77/18 3/78/19 10/79/20 9/80/21
f 9/80/21 10/79/20 4/81/22 8/82/23
s off
f 11/144/24 12/145/25 14/146/26 13/147/27
f 13/83/28 14/84/29 16/85/30 15/86/31
f 15/148/32 16/149/33 18/150/34 17/151/35
f 17/87/36 18/88/37 12/89/38 11/90/39
f 12/1/40 18/2/41 16/3/42 14/4/43
f 17/5/44 11/6/45 13/7/46 15/8/47
f 19/152/48 20/153/49 22/154/50 21/155/51
f 23/156/52 24/157/53 26/158/54 25/159/55
f 25/91/56 26/92/57 20/93/58 19/94/59
f 20/9/60 26/10/61 24/11/62 22/12/63
f 25/13/64 19/14/65 21/15/66 23/16/67
f 27/160/68 28/161/69 30/162/70 29/163/71
f 31/164/72 32/165/73 34/166/74 33/167/75
f 33/95/76 34/96/77 28/97/78 27/98/79
f 28/17/80 34/18/81 32/19/82 30/20/83
f 33/21/84 27/22/85 29/23/86 31/24/87
f 35/168/88 36/169/89 38/170/90 37/171/91
f 39/172/92 40/173/93 42/174/94 41/175/95
f 41/99/96 42/100/97 36/101/98 35/102/99
f 36/25/100 42/26/101 40/27/102 38/28/103
f 41/29/104 35/30/105 37/31/106 39/32/107
f 59/176/108 60/177/109 61/178/110 62/179/111
f 63/180/112 64/181/113 65/182/114 66/183/115
f 49/103/116 50/104/117 44/105/118 43/106/119
f 60/33/120 65/34/121 64/35/122 61/36/123
f 66/37/124 59/38/125 62/39/126 63/40/127
f 43/184/128 44/185/129 52/186/130 51/187/131
f 44/41/132 50/42/133 53/43/134 52/44/135
f 54/188/136 53/189/137 50/190/138 49/191/139
f 49/45/140 43/46/141 51/47/142 54/48/143
f 47/192/144 48/193/145 56/194/146 55/195/147
f 57/49/148 56/50/149 48/51/150 46/52/151
f 58/196/152 57/197/153 46/198/154 45/199/155
f 55/53/156 58/54/157 45/55/158 47/56/159
s 3
f 51/107/160 52/108/161 60/109/162 59/110/163
s 4
f 57/115/164 58/116/165 62/117/166 61/118/167
f 55/119/168 56/121/169 64/122/170 63/120/171
s 3
f 53/111/172 54/113/173 66/114/174 65/112/175
f 52/108/161 53/111/172 65/112/175 60/109/162
s 4
f 56/121/169 57/115/164 61/118/167 64/122/170
s 3
f 54/113/173 51/107/160 59/110/163 66/114/174
s 4
f 58/116/165 55/119/168 63/120/171 62/117/166
s off
f 67/200/176 68/201/177 70/202/178 69/203/179
f 71/204/180 72/205/181 74/206/182 73/207/183
f 73/123/184 74/124/185 68/125/186 67/126/187
f 68/57/188 74/58/189 72/59/190 70/60/191
f 73/61/192 67/62/193 69/63/194 71/64/195
f 75/208/196 76/209/197 78/210/198 77/211/199
f 77/127/200 78/128/201 80/129/202 79/130/203
f 79/212/204 80/213/205 82/214/206 81/215/207
f 81/131/208 82/132/209 76/133/210 75/134/211
f 76/65/212 82/66/213 80/67/214 78/68/215
f 81/69/216 75/70/217 77/71/218 79/72/219
