# This file uses meters as units for non-parametric coordinates.

mtllib Boys_Bowl_01_0201.mtl
g default
v -5.802707 0.000000 7.886093
v -5.886093 0.000000 7.802707
v -6.000000 0.000000 7.772185
v -6.113907 0.000000 7.802707
v -6.197293 0.000000 7.886093
v -6.227815 0.000000 8.000000
v -6.197293 0.000000 8.113907
v -6.113907 0.000000 8.197293
v -6.000000 0.000000 8.227815
v -5.886093 0.000000 8.197293
v -5.802707 0.000000 8.113907
v -5.772185 0.000000 8.000000
v -5.659518 0.217807 7.803423
v -5.803423 0.217807 7.659518
v -6.000000 0.217807 7.606846
v -6.196577 0.217807 7.659518
v -6.340481 0.217807 7.803423
v -6.393154 0.217807 8.000000
v -6.340481 0.217807 8.196577
v -6.196577 0.217807 8.340482
v -6.000000 0.217807 8.393154
v -5.803423 0.217807 8.340482
v -5.659518 0.217807 8.196577
v -5.606846 0.217807 8.000000
v -6.000000 0.000000 8.000000
v -5.698043 0.108904 7.825665
v -5.825665 0.108904 7.698043
v -6.000000 0.108904 7.651330
v -6.174335 0.108904 7.698043
v -6.301957 0.108904 7.825665
v -6.348670 0.108904 8.000000
v -6.301957 0.108904 8.174335
v -6.174335 0.108904 8.301957
v -6.000000 0.108904 8.348670
v -5.825665 0.108904 8.301957
v -5.698043 0.108904 8.174335
v -5.651330 0.108904 8.000000
v -5.693071 0.217807 7.822794
v -5.822794 0.217807 7.693071
v -6.000000 0.217807 7.645589
v -6.177206 0.217807 7.693071
v -6.306929 0.217807 7.822794
v -6.354411 0.217807 8.000000
v -6.306929 0.217807 8.177206
v -6.177206 0.217807 8.306929
v -6.000000 0.217807 8.354411
v -5.822794 0.217807 8.306929
v -5.693071 0.217807 8.177206
v -5.645589 0.217807 8.000000
v -5.720971 0.162559 7.838902
v -5.838902 0.162559 7.720971
v -6.000000 0.162559 8.000000
v -6.000000 0.162559 7.677805
v -6.161098 0.162559 7.720971
v -6.279029 0.162559 7.838902
v -6.322195 0.162559 8.000000
v -6.279029 0.162559 8.161098
v -6.161098 0.162559 8.279029
v -6.000000 0.162559 8.322195
v -5.838902 0.162559 8.279029
v -5.720971 0.162559 8.161098
v -5.677805 0.162559 8.000000
vt 0.475601 0.825720
vt 0.475601 0.685374
vt 0.563273 0.685374
vt 0.563273 0.843626
vt 0.387930 0.777074
vt 0.387930 0.685374
vt 0.475601 0.545028
vt 0.563273 0.527122
vt 0.475601 0.928461
vt 0.563273 0.959475
vt 0.387930 0.593675
vt 0.475601 0.442288
vt 0.563273 0.411274
vt 0.909621 0.866246
vt 0.909621 0.725899
vt 0.997293 0.725899
vt 0.997293 0.884151
vt 0.821950 0.817599
vt 0.821950 0.725899
vt 0.909621 0.585553
vt 0.997293 0.567647
vt 0.909621 0.968986
vt 0.997293 1.000000
vt 0.821950 0.634200
vt 0.909621 0.482812
vt 0.997293 0.451799
vt 0.655421 0.596308
vt 0.655421 0.739744
vt 0.610701 0.739744
vt 0.610701 0.609346
vt 0.655421 0.883181
vt 0.610701 0.870143
vt 0.655421 0.491305
vt 0.610701 0.513888
vt 0.655421 0.988184
vt 0.610701 0.965601
vt 0.609330 0.561805
vt 0.609330 0.705242
vt 0.564610 0.705242
vt 0.564610 0.574843
vt 0.609330 0.848678
vt 0.564610 0.835640
vt 0.609330 0.456802
vt 0.564610 0.479385
vt 0.609330 0.953682
vt 0.564610 0.931098
vt 0.856732 0.113324
vt 0.919157 0.175749
vt 0.771459 0.261023
vt 0.901970 0.034970
vt 0.997511 0.130511
vt 0.942006 0.261023
vt 0.771459 0.090475
vt 0.771459 0.000000
vt 0.919157 0.346297
vt 0.686185 0.113324
vt 0.640947 0.034970
vt 0.856732 0.408722
vt 0.623760 0.175749
vt 0.545406 0.130511
vt 0.997511 0.391534
vt 0.901970 0.487075
vt 0.771459 0.431571
vt 0.600911 0.261023
vt 0.771459 0.522046
vt 0.686185 0.408722
vt 0.623760 0.346297
vt 0.640947 0.487075
vt 0.545406 0.391534
vt 0.465402 0.362009
vt 0.383907 0.443505
vt 0.272582 0.250684
vt 0.272582 0.473334
vt 0.495232 0.250684
vt 0.161257 0.443505
vt 0.465402 0.139359
vt 0.079761 0.362009
vt 0.383907 0.057864
vt 0.049932 0.250684
vt 0.272582 0.028034
vt 0.079761 0.139359
vt 0.161257 0.057864
vt 0.506972 0.407528
vt 0.407528 0.506972
vt 0.394142 0.483786
vt 0.483786 0.394142
vt 0.271686 0.543371
vt 0.271686 0.516598
vt 0.543371 0.271686
vt 0.516598 0.271686
vt 0.135843 0.506972
vt 0.149229 0.483786
vt 0.506972 0.135843
vt 0.483786 0.149229
vt 0.036399 0.407528
vt 0.059585 0.394142
vt 0.407528 0.036399
vt 0.394142 0.059585
vt 0.000000 0.271686
vt 0.026773 0.271686
vt 0.271686 0.000000
vt 0.271686 0.026773
vt 0.036399 0.135843
vt 0.059585 0.149229
vt 0.135843 0.036399
vt 0.149229 0.059585
vt 0.079393 0.452296
vt 0.079393 0.579390
vt 0.000000 0.579390
vt 0.000000 0.436081
vt 0.079393 0.706484
vt 0.000000 0.722699
vt 0.080659 0.784195
vt 0.080659 0.657101
vt 0.160052 0.657101
vt 0.160052 0.800410
vt 0.080659 0.530007
vt 0.160052 0.513792
vt 0.387296 0.513338
vt 0.387296 0.646821
vt 0.345680 0.646821
vt 0.345680 0.525472
vt 0.387296 0.780304
vt 0.345680 0.768171
vt 0.161317 0.781785
vt 0.161317 0.648302
vt 0.202934 0.648302
vt 0.202934 0.769651
vt 0.161317 0.514819
vt 0.202934 0.526952
vn 0.590363 -0.550402 -0.590363
vn 0.590363 -0.550402 -0.590363
vn 0.657759 -0.367022 -0.657759
vn 0.657759 -0.367022 -0.657760
vn 0.216088 -0.550402 -0.806451
vn 0.216088 -0.550402 -0.806451
vn 0.240757 -0.367022 -0.898516
vn 0.240757 -0.367022 -0.898516
vn -0.216088 -0.550402 -0.806451
vn -0.216088 -0.550402 -0.806451
vn -0.240757 -0.367022 -0.898516
vn -0.240757 -0.367022 -0.898516
vn -0.590363 -0.550402 -0.590363
vn -0.590363 -0.550402 -0.590363
vn -0.657759 -0.367022 -0.657759
vn -0.657759 -0.367022 -0.657759
vn -0.806451 -0.550402 -0.216088
vn -0.806451 -0.550402 -0.216088
vn -0.898516 -0.367022 -0.240757
vn -0.898516 -0.367022 -0.240757
vn -0.806451 -0.550402 0.216088
vn -0.806451 -0.550402 0.216088
vn -0.898516 -0.367022 0.240757
vn -0.898516 -0.367022 0.240757
vn -0.590363 -0.550402 0.590363
vn -0.590363 -0.550402 0.590363
vn -0.657759 -0.367022 0.657759
vn -0.657759 -0.367022 0.657759
vn -0.216088 -0.550402 0.806451
vn -0.216088 -0.550402 0.806451
vn -0.240757 -0.367022 0.898516
vn -0.240757 -0.367022 0.898516
vn 0.216088 -0.550402 0.806451
vn 0.216088 -0.550402 0.806451
vn 0.240757 -0.367022 0.898516
vn 0.240757 -0.367022 0.898516
vn 0.590363 -0.550402 0.590363
vn 0.590363 -0.550402 0.590363
vn 0.657759 -0.367022 0.657760
vn 0.657759 -0.367022 0.657760
vn 0.806451 -0.550402 0.216088
vn 0.806451 -0.550402 0.216088
vn 0.898516 -0.367022 0.240756
vn 0.898516 -0.367022 0.240756
vn 0.806451 -0.550402 -0.216088
vn 0.806451 -0.550402 -0.216088
vn 0.898516 -0.367022 -0.240756
vn 0.898516 -0.367022 -0.240756
vn 0.000000 -1.000000 0.000000
vn 0.000000 -1.000000 0.000000
vn 0.000000 -1.000000 -0.000000
vn 0.000000 -1.000000 0.000000
vn 0.000000 -1.000000 0.000000
vn 0.000000 -1.000000 0.000000
vn 0.000000 -1.000000 -0.000000
vn 0.000000 -1.000000 -0.000000
vn 0.000000 -1.000000 0.000000
vn 0.000000 -1.000000 0.000000
vn 0.000000 -1.000000 0.000000
vn 0.000000 -1.000000 0.000000
vn 0.000000 -1.000000 0.000000
vn 0.000000 1.000000 0.000000
vn 0.000000 1.000000 0.000000
vn 0.000000 1.000000 0.000000
vn 0.000000 1.000000 0.000000
vn 0.000000 1.000000 -0.000000
vn 0.000000 1.000000 -0.000000
vn 0.000000 1.000000 0.000000
vn 0.000000 1.000000 0.000000
vn 0.000000 1.000000 0.000000
vn 0.000000 1.000000 0.000000
vn 0.000000 1.000000 0.000000
vn 0.000000 1.000000 0.000000
vn 0.000000 1.000000 0.000000
vn 0.482351 -0.731215 -0.482351
vn 0.482351 -0.731215 -0.482351
vn 0.176553 -0.731215 -0.658904
vn 0.176553 -0.731215 -0.658904
vn -0.176553 -0.731214 -0.658904
vn -0.176553 -0.731214 -0.658904
vn -0.482351 -0.731215 -0.482351
vn -0.482351 -0.731214 -0.482351
vn -0.658904 -0.731215 -0.176553
vn -0.658904 -0.731215 -0.176553
vn -0.658904 -0.731214 0.176553
vn -0.658904 -0.731215 0.176553
vn -0.482351 -0.731214 0.482351
vn -0.482351 -0.731215 0.482351
vn -0.176553 -0.731214 0.658904
vn -0.176553 -0.731214 0.658904
vn 0.176553 -0.731215 0.658904
vn 0.176553 -0.731215 0.658904
vn 0.482351 -0.731215 0.482351
vn 0.482351 -0.731215 0.482351
vn 0.658904 -0.731215 0.176552
vn 0.658904 -0.731215 0.176552
vn 0.658904 -0.731215 -0.176552
vn 0.658904 -0.731215 -0.176552
vn 0.000000 1.000000 0.000000
vn 0.000000 1.000000 0.000000
vn 0.000000 1.000000 0.000000
vn 0.000000 1.000000 0.000000
vn 0.000000 1.000000 0.000000
vn 0.000000 1.000000 0.000000
vn 0.000000 1.000000 0.000000
vn 0.000000 1.000000 0.000000
vn 0.000000 1.000000 0.000000
vn 0.000000 1.000000 0.000000
vn 0.000000 1.000000 0.000000
vn 0.000000 1.000000 0.000000
vn 0.000000 1.000000 -0.000000
vn 0.000000 1.000000 -0.000000
vn 0.000000 1.000000 -0.000000
vn 0.000000 1.000000 -0.000000
vn 0.000000 1.000000 0.000000
vn 0.000000 1.000000 0.000000
vn 0.000000 1.000000 0.000000
vn 0.000000 1.000000 0.000000
vn 0.000000 1.000000 0.000000
vn 0.000000 1.000000 0.000000
vn 0.000000 1.000000 0.000000
vn 0.000000 1.000000 0.000000
vn 0.000000 1.000000 0.000000
vn 0.000000 1.000000 0.000000
vn 0.000000 1.000000 0.000000
vn 0.000000 1.000000 0.000000
vn 0.000000 1.000000 -0.000000
vn 0.000000 1.000000 -0.000000
vn 0.000000 1.000000 -0.000000
vn 0.000000 1.000000 -0.000000
vn 0.000000 1.000000 0.000000
vn 0.000000 1.000000 0.000000
vn 0.000000 1.000000 0.000000
vn 0.000000 1.000000 0.000000
vn 0.000000 1.000000 -0.000000
vn 0.000000 1.000000 -0.000000
vn 0.000000 1.000000 -0.000000
vn 0.000000 1.000000 -0.000000
vn 0.000000 1.000000 0.000000
vn 0.000000 1.000000 0.000000
vn 0.000000 1.000000 0.000000
vn 0.000000 1.000000 0.000000
vn 0.000000 1.000000 0.000000
vn 0.000000 1.000000 0.000000
vn 0.000000 1.000000 0.000000
vn 0.000000 1.000000 0.000000
vn -0.616101 0.490754 0.616101
vn -0.616101 0.490754 0.616101
vn -0.616101 0.490754 0.616101
vn -0.616101 0.490754 0.616101
vn -0.225509 0.490754 0.841609
vn -0.225509 0.490754 0.841609
vn -0.225509 0.490754 0.841609
vn -0.225509 0.490754 0.841609
vn 0.225509 0.490754 0.841609
vn 0.225509 0.490754 0.841609
vn 0.225509 0.490754 0.841609
vn 0.225509 0.490754 0.841609
vn 0.616101 0.490754 0.616101
vn 0.616101 0.490754 0.616101
vn 0.616101 0.490754 0.616101
vn 0.616101 0.490754 0.616101
vn 0.841609 0.490754 0.225509
vn 0.841609 0.490754 0.225509
vn 0.841609 0.490754 0.225509
vn 0.841609 0.490754 0.225509
vn 0.841609 0.490754 -0.225509
vn 0.841609 0.490754 -0.225509
vn 0.841609 0.490754 -0.225509
vn 0.841609 0.490754 -0.225509
vn 0.616101 0.490754 -0.616101
vn 0.616101 0.490754 -0.616101
vn 0.616101 0.490754 -0.616101
vn 0.616101 0.490754 -0.616101
vn 0.225509 0.490754 -0.841609
vn 0.225509 0.490754 -0.841609
vn 0.225509 0.490754 -0.841609
vn 0.225509 0.490754 -0.841609
vn -0.225509 0.490754 -0.841609
vn -0.225509 0.490754 -0.841609
vn -0.225509 0.490754 -0.841609
vn -0.225509 0.490754 -0.841609
vn -0.616101 0.490754 -0.616101
vn -0.616101 0.490754 -0.616101
vn -0.616101 0.490754 -0.616101
vn -0.616101 0.490754 -0.616101
vn -0.841609 0.490754 -0.225508
vn -0.841610 0.490754 -0.225508
vn -0.841610 0.490754 -0.225508
vn -0.841610 0.490754 -0.225508
vn -0.841609 0.490754 0.225508
vn -0.841609 0.490754 0.225508
vn -0.841609 0.490754 0.225508
vn -0.841609 0.490754 0.225508
s 1
g Bowl1
usemtl aiStandardSurface1SG
f 26/20/1 27/25/2 14/26/3 13/21/4
s 2
f 27/107/5 28/108/6 15/109/7 14/110/8
s 3
f 28/108/9 29/111/10 16/112/11 15/109/12
s 4
f 29/9/13 30/1/14 17/4/15 16/10/16
s 5
f 30/1/17 31/2/18 18/3/19 17/4/20
s 6
f 31/2/21 32/7/22 19/8/23 18/3/24
s 7
f 32/7/25 33/12/26 20/13/27 19/8/28
s 8
f 33/113/29 34/114/30 21/115/31 20/116/32
s 9
f 34/114/33 35/117/34 22/118/35 21/115/36
s 10
f 35/22/37 36/14/38 23/17/39 22/23/40
s 11
f 36/14/41 37/15/42 24/16/43 23/17/44
s 12
f 37/15/45 26/20/46 13/21/47 24/16/48
s 13
f 2/47/49 1/48/50 25/49/51
f 3/53/52 2/47/49 25/49/51
f 4/56/53 3/53/52 25/49/51
f 5/59/54 4/56/53 25/49/51
f 6/64/55 5/59/54 25/49/51
f 7/67/56 6/64/55 25/49/51
f 8/66/57 7/67/56 25/49/51
f 9/63/58 8/66/57 25/49/51
f 10/58/59 9/63/58 25/49/51
f 11/55/60 10/58/59 25/49/51
f 12/52/61 11/55/60 25/49/51
f 1/48/50 12/52/61 25/49/51
s 14
f 50/70/62 51/71/63 52/72/64
f 51/71/63 53/73/65 52/72/64
f 53/73/65 54/75/66 52/72/64
f 54/75/66 55/77/67 52/72/64
f 55/77/67 56/79/68 52/72/64
f 56/79/68 57/81/69 52/72/64
f 57/81/69 58/82/70 52/72/64
f 58/82/70 59/80/71 52/72/64
f 59/80/71 60/78/72 52/72/64
f 60/78/72 61/76/73 52/72/64
f 61/76/73 62/74/74 52/72/64
f 62/74/74 50/70/62 52/72/64
s 1
f 1/48/75 2/47/76 27/50/2 26/51/1
s 2
f 2/47/77 3/53/78 28/54/6 27/50/5
s 3
f 3/53/79 4/56/80 29/57/10 28/54/9
s 4
f 4/56/81 5/59/82 30/60/14 29/57/13
s 5
f 5/5/83 6/6/84 31/2/18 30/1/17
s 6
f 6/6/85 7/11/86 32/7/22 31/2/21
s 7
f 7/67/87 8/66/88 33/68/26 32/69/25
s 8
f 8/66/89 9/63/90 34/65/30 33/68/29
s 9
f 9/63/91 10/58/92 35/62/34 34/65/33
s 10
f 10/58/93 11/55/94 36/61/38 35/62/37
s 11
f 11/18/95 12/19/96 37/15/42 36/14/41
s 12
f 12/19/97 1/24/98 26/20/46 37/15/45
s off
f 13/83/99 14/84/100 39/85/101 38/86/102
f 14/84/103 15/87/104 40/88/105 39/85/106
f 15/87/107 16/91/108 41/92/109 40/88/110
f 16/91/111 17/95/112 42/96/113 41/92/114
f 17/95/115 18/99/116 43/100/117 42/96/118
f 18/99/119 19/103/120 44/104/121 43/100/122
f 19/103/123 20/105/124 45/106/125 44/104/126
f 20/105/127 21/101/128 46/102/129 45/106/130
f 21/101/131 22/97/132 47/98/133 46/102/134
f 22/97/135 23/93/136 48/94/137 47/98/138
f 23/93/139 24/89/140 49/90/141 48/94/142
f 24/89/143 13/83/144 38/86/145 49/90/146
f 38/41/147 39/45/148 51/46/149 50/42/150
f 39/119/151 40/120/152 53/121/153 51/122/154
f 40/120/155 41/123/156 54/124/157 53/121/158
f 41/33/159 42/27/160 55/30/161 54/34/162
f 42/27/163 43/28/164 56/29/165 55/30/166
f 43/28/167 44/31/168 57/32/169 56/29/170
f 44/31/171 45/35/172 58/36/173 57/32/174
f 45/125/175 46/126/176 59/127/177 58/128/178
f 46/126/179 47/129/180 60/130/181 59/127/182
f 47/43/183 48/37/184 61/40/185 60/44/186
f 48/37/187 49/38/188 62/39/189 61/40/190
f 49/38/191 38/41/192 50/42/193 62/39/194
