# This file uses feet as units for non-parametric coordinates.

mtllib Foundation.mtl
g default
v -1043.816152 -30.480003 479.424928
v -1034.185555 -30.480003 479.424928
v -1043.816152 -0.000004 479.424928
v -1034.185555 -0.000004 479.424928
v -1043.816152 -0.000004 469.794369
v -1034.185555 -0.000004 469.794369
v -1043.816152 -30.480003 469.794369
v -60.343441 -30.480003 479.424928
v -60.343441 -0.000004 468.019497
v -60.343441 -0.000004 479.424928
v -50.685614 -30.480003 469.794369
v -50.685614 -30.480003 479.424928
v -50.685614 -0.000004 469.794369
v -50.685614 -0.000004 479.424928
v -60.343441 -0.000004 -99.598141
v -50.685614 -0.000004 -99.598141
v -50.685614 -30.480003 -99.598141
v -60.343441 -0.000004 -109.059801
v -60.343441 -30.480003 -109.059801
v -50.685614 -0.000004 -109.059801
v -50.685614 -30.480003 -109.059801
v -530.966075 -0.000004 -99.598141
v -530.966075 -0.000004 -109.059801
v -530.966075 -30.480003 -109.059801
v -539.247216 -0.000004 -99.598141
v -539.247216 -0.000004 -109.059801
v -530.966075 -0.000004 -406.944910
v -530.966075 -30.480003 -406.944910
v -539.247216 -0.000004 -406.944910
v -530.966075 -0.000004 -416.637451
v -530.966075 -30.480003 -416.637451
v -539.247216 -30.480003 -416.637451
v -539.247216 -0.000004 -416.637451
v -1034.185555 -0.000004 -406.944910
v -1034.185555 -0.000004 -416.637451
v -1034.185555 -30.480003 -416.637451
v -1043.816152 -0.000004 -406.944910
v -1043.816152 -30.480003 -406.944910
v -1043.816152 -0.000004 -416.637451
v -1043.816152 -30.480003 -416.637451
vt 0.023281 0.602280
vt 0.023281 0.592582
vt 0.032979 0.592582
vt 0.032979 0.602280
vt 0.023281 0.019252
vt 0.032979 0.019252
vt 0.023281 0.009725
vt 0.032979 0.009725
vt 0.011641 0.019422
vt 0.011641 0.009725
vt 0.021338 0.009725
vt 0.021338 0.019422
vt 0.021338 0.902225
vt 0.011641 0.902225
vt 0.021338 0.911985
vt 0.011641 0.911985
vt 0.067901 0.319430
vt 0.058204 0.319430
vt 0.058204 0.019484
vt 0.067901 0.019484
vt 0.058204 0.009725
vt 0.067901 0.009725
vt 0.000000 0.999999
vt 0.000000 0.990302
vt 0.009697 0.990302
vt 0.009697 0.999999
vt 0.000000 0.009725
vt 0.011484 0.009725
vt 0.892500 0.990302
vt 0.892500 0.999999
vt 0.000000 0.000000
vt 0.009697 0.000000
vt 0.902260 0.990302
vt 0.902260 0.999999
vt 0.583028 0.000000
vt 0.583028 0.009725
vt 0.892500 0.491941
vt 0.902260 0.491941
vt 0.592555 0.000000
vt 0.592555 0.009725
vt 0.892500 0.483602
vt 0.902260 0.483602
vt 0.592555 0.483602
vt 0.583028 0.483602
vt 0.592555 0.491941
vt 0.583028 0.491941
vt 0.904094 1.000000
vt 0.904094 0.990303
vt 0.913791 0.990303
vt 0.913791 1.000000
vt 0.904094 0.009725
vt 0.913791 0.009725
vt 0.904094 0.000000
vt 0.913791 0.000000
vt 0.056260 0.019449
vt 0.046563 0.019449
vt 0.046563 0.009725
vt 0.056260 0.009725
vt 0.056260 0.493328
vt 0.046563 0.493328
vt 0.034922 0.009725
vt 0.044619 0.009725
vt 0.044619 0.018063
vt 0.034922 0.018063
vt 0.044619 0.516425
vt 0.034922 0.516425
vt 0.044619 0.526122
vt 0.034922 0.526122
vn 0.000000 0.000000 1.000000
vn 0.000000 0.000000 1.000000
vn 0.000000 0.000000 1.000000
vn 0.000000 0.000000 1.000000
vn 0.000000 1.000000 0.000000
vn 0.000000 1.000000 0.000000
vn 0.000000 1.000000 0.000000
vn 0.000000 1.000000 0.000000
vn 1.000000 0.000000 0.000000
vn 1.000000 0.000000 0.000000
vn 1.000000 0.000000 0.000000
vn 1.000000 0.000000 0.000000
vn -1.000000 0.000000 0.000000
vn -1.000000 0.000000 0.000000
vn -1.000000 0.000000 0.000000
vn -1.000000 0.000000 0.000000
vn 0.000000 1.000000 0.000000
vn 0.000000 1.000000 0.000000
vn 0.000000 1.000000 0.000000
vn 0.000000 1.000000 0.000000
vn 0.000000 0.000000 1.000000
vn 0.000000 0.000000 1.000000
vn 0.000000 0.000000 1.000000
vn 0.000000 0.000000 1.000000
vn 0.000000 0.000000 -1.000000
vn 0.000000 0.000000 -1.000000
vn 0.000000 0.000000 -1.000000
vn 0.000000 0.000000 -1.000000
vn 0.000000 1.000000 0.000000
vn 0.000000 1.000000 0.000000
vn 0.000000 1.000000 0.000000
vn 0.000000 1.000000 0.000000
vn 0.000000 0.000000 1.000000
vn 0.000000 0.000000 1.000000
vn 0.000000 0.000000 1.000000
vn 0.000000 0.000000 1.000000
vn 0.000000 1.000000 0.000000
vn 0.000000 1.000000 0.000000
vn 0.000000 1.000000 0.000000
vn 0.000000 1.000000 0.000000
vn 1.000000 0.000000 0.000000
vn 1.000000 0.000000 0.000000
vn 1.000000 0.000000 0.000000
vn 1.000000 0.000000 0.000000
vn 0.000000 1.000000 0.000000
vn 0.000000 1.000000 0.000000
vn 0.000000 1.000000 0.000000
vn 0.000000 1.000000 0.000000
vn 1.000000 0.000000 0.000000
vn 1.000000 0.000000 0.000000
vn 1.000000 0.000000 0.000000
vn 1.000000 0.000000 0.000000
vn 0.000000 1.000000 0.000000
vn 0.000000 1.000000 0.000000
vn 0.000000 1.000000 0.000000
vn 0.000000 1.000000 0.000000
vn 0.000000 0.000000 -1.000000
vn 0.000000 0.000000 -1.000000
vn 0.000000 0.000000 -1.000000
vn 0.000000 0.000000 -1.000000
vn 0.000000 1.000000 0.000000
vn 0.000000 1.000000 0.000000
vn 0.000000 1.000000 0.000000
vn 0.000000 1.000000 0.000000
vn 0.000000 0.000000 -1.000000
vn 0.000000 0.000000 -1.000000
vn 0.000000 0.000000 -1.000000
vn 0.000000 0.000000 -1.000000
vn 1.000000 0.000000 0.000000
vn 1.000000 0.000000 0.000000
vn 1.000000 0.000000 0.000000
vn 1.000000 0.000000 0.000000
vn 0.000000 1.000000 0.000000
vn 0.000000 1.000000 0.000000
vn 0.000000 1.000000 0.000000
vn 0.000000 1.000000 0.000000
vn 1.000000 0.000000 0.000000
vn 1.000000 0.000000 0.000000
vn 1.000000 0.000000 0.000000
vn 1.000000 0.000000 0.000000
vn -1.000000 0.000000 0.000000
vn -1.000000 0.000000 0.000000
vn -1.000000 0.000000 0.000000
vn -1.000000 0.000000 0.000000
vn 0.000000 1.000000 0.000000
vn 0.000000 1.000000 0.000000
vn 0.000000 1.000000 0.000000
vn 0.000000 1.000000 0.000000
vn 0.000000 1.000000 0.000000
vn 0.000000 1.000000 0.000000
vn 0.000000 1.000000 0.000000
vn 0.000000 1.000000 0.000000
vn 0.000000 0.000000 -1.000000
vn 0.000000 0.000000 -1.000000
vn 0.000000 0.000000 -1.000000
vn 0.000000 0.000000 -1.000000
vn 0.000000 1.000000 0.000000
vn 0.000000 1.000000 0.000000
vn 0.000000 1.000000 0.000000
vn 0.000000 1.000000 0.000000
vn 0.000000 0.000000 -1.000000
vn 0.000000 0.000000 -1.000000
vn 0.000000 0.000000 -1.000000
vn 0.000000 0.000000 -1.000000
vn -1.000000 0.000000 0.000000
vn -1.000000 0.000000 0.000000
vn -1.000000 0.000000 0.000000
vn -1.000000 0.000000 0.000000
vn 0.000000 1.000000 0.000000
vn 0.000000 1.000000 0.000000
vn 0.000000 1.000000 0.000000
vn 0.000000 1.000000 0.000000
s off
g Foundation
usemtl initialShadingGroup
f 1/47/1 2/48/2 4/49/3 3/50/4
f 3/23/5 4/24/6 6/25/7 5/26/8
f 12/1/9 11/2/10 13/3/11 14/4/12
f 7/9/13 1/10/14 3/11/15 5/12/16
f 6/25/17 4/24/18 10/27/19 9/28/20
f 4/49/21 2/48/22 8/51/23 10/52/24
f 19/55/25 18/56/26 20/57/27 21/58/28
f 9/28/29 10/27/30 14/31/31 13/32/32
f 10/52/33 8/51/34 12/53/35 14/54/36
f 9/28/37 13/32/38 16/35/39 15/36/40
f 13/3/41 11/2/42 17/5/43 16/6/44
f 15/36/45 16/35/46 20/39/47 18/40/48
f 16/6/49 17/5/50 21/7/51 20/8/52
f 15/36/53 18/40/54 23/43/55 22/44/56
f 18/56/57 19/55/58 24/59/59 23/60/60
f 22/44/61 23/43/62 26/45/63 25/46/64
f 30/61/65 31/62/66 32/63/67 33/64/68
f 23/17/69 24/18/70 28/19/71 27/20/72
f 26/45/73 23/43/74 27/41/75 29/37/76
f 27/20/77 28/19/78 31/21/79 30/22/80
f 38/14/81 37/13/82 39/15/83 40/16/84
f 29/37/85 27/41/86 30/42/87 33/38/88
f 29/37/89 33/38/90 35/33/91 34/29/92
f 33/64/93 32/63/94 36/65/95 35/66/96
f 34/29/97 35/33/98 39/34/99 37/30/100
f 35/66/101 36/65/102 40/67/103 39/68/104
f 7/9/105 5/12/106 37/13/107 38/14/108
f 5/26/109 6/25/110 34/29/111 37/30/112
g default
v -1043.816152 -30.480003 479.424928
v -1034.185555 -30.480003 479.424928
v -1043.816152 -0.000004 479.424928
v -1034.185555 -0.000004 479.424928
v -1043.816152 -0.000004 469.794369
v -1034.185555 -0.000004 469.794369
v -1043.816152 -30.480003 469.794369
v -60.343441 -30.480003 479.424928
v -60.343441 -0.000004 468.019497
v -60.343441 -0.000004 479.424928
v -50.685614 -30.480003 469.794369
v -50.685614 -30.480003 479.424928
v -50.685614 -0.000004 469.794369
v -50.685614 -0.000004 479.424928
v -60.343441 -0.000004 -99.598141
v -50.685614 -0.000004 -99.598141
v -50.685614 -30.480003 -99.598141
v -60.343441 -0.000004 -109.059801
v -60.343441 -30.480003 -109.059801
v -50.685614 -0.000004 -109.059801
v -50.685614 -30.480003 -109.059801
v -530.966075 -0.000004 -99.598141
v -530.966075 -0.000004 -109.059801
v -530.966075 -30.480003 -109.059801
v -539.247216 -0.000004 -99.598141
v -539.247216 -0.000004 -109.059801
v -530.966075 -0.000004 -406.944910
v -530.966075 -30.480003 -406.944910
v -539.247216 -0.000004 -406.944910
v -530.966075 -0.000004 -416.637451
v -530.966075 -30.480003 -416.637451
v -539.247216 -30.480003 -416.637451
v -539.247216 -0.000004 -416.637451
v -1034.185555 -0.000004 -406.944910
v -1034.185555 -0.000004 -416.637451
v -1034.185555 -30.480003 -416.637451
v -1043.816152 -0.000004 -406.944910
v -1043.816152 -30.480003 -406.944910
v -1043.816152 -0.000004 -416.637451
v -1043.816152 -30.480003 -416.637451
vt 0.023281 0.602280
vt 0.023281 0.592582
vt 0.032979 0.592582
vt 0.032979 0.602280
vt 0.023281 0.019252
vt 0.032979 0.019252
vt 0.023281 0.009725
vt 0.032979 0.009725
vt 0.011641 0.019422
vt 0.011641 0.009725
vt 0.021338 0.009725
vt 0.021338 0.019422
vt 0.021338 0.902225
vt 0.011641 0.902225
vt 0.021338 0.911985
vt 0.011641 0.911985
vt 0.067901 0.319430
vt 0.058204 0.319430
vt 0.058204 0.019484
vt 0.067901 0.019484
vt 0.058204 0.009725
vt 0.067901 0.009725
vt 0.000000 0.999999
vt 0.000000 0.990302
vt 0.009697 0.990302
vt 0.009697 0.999999
vt 0.000000 0.009725
vt 0.011484 0.009725
vt 0.892500 0.990302
vt 0.892500 0.999999
vt 0.000000 0.000000
vt 0.009697 0.000000
vt 0.902260 0.990302
vt 0.902260 0.999999
vt 0.583028 0.000000
vt 0.583028 0.009725
vt 0.892500 0.491941
vt 0.902260 0.491941
vt 0.592555 0.000000
vt 0.592555 0.009725
vt 0.892500 0.483602
vt 0.902260 0.483602
vt 0.592555 0.483602
vt 0.583028 0.483602
vt 0.592555 0.491941
vt 0.583028 0.491941
vt 0.904094 1.000000
vt 0.904094 0.990303
vt 0.913791 0.990303
vt 0.913791 1.000000
vt 0.904094 0.009725
vt 0.913791 0.009725
vt 0.904094 0.000000
vt 0.913791 0.000000
vt 0.056260 0.019449
vt 0.046563 0.019449
vt 0.046563 0.009725
vt 0.056260 0.009725
vt 0.056260 0.493328
vt 0.046563 0.493328
vt 0.034922 0.009725
vt 0.044619 0.009725
vt 0.044619 0.018063
vt 0.034922 0.018063
vt 0.044619 0.516425
vt 0.034922 0.516425
vt 0.044619 0.526122
vt 0.034922 0.526122
vn 0.000000 0.000000 1.000000
vn 0.000000 0.000000 1.000000
vn 0.000000 0.000000 1.000000
vn 0.000000 0.000000 1.000000
vn 0.000000 1.000000 0.000000
vn 0.000000 1.000000 0.000000
vn 0.000000 1.000000 0.000000
vn 0.000000 1.000000 0.000000
vn 1.000000 0.000000 0.000000
vn 1.000000 0.000000 0.000000
vn 1.000000 0.000000 0.000000
vn 1.000000 0.000000 0.000000
vn -1.000000 0.000000 0.000000
vn -1.000000 0.000000 0.000000
vn -1.000000 0.000000 0.000000
vn -1.000000 0.000000 0.000000
vn 0.000000 1.000000 0.000000
vn 0.000000 1.000000 0.000000
vn 0.000000 1.000000 0.000000
vn 0.000000 1.000000 0.000000
vn 0.000000 0.000000 1.000000
vn 0.000000 0.000000 1.000000
vn 0.000000 0.000000 1.000000
vn 0.000000 0.000000 1.000000
vn 0.000000 0.000000 -1.000000
vn 0.000000 0.000000 -1.000000
vn 0.000000 0.000000 -1.000000
vn 0.000000 0.000000 -1.000000
vn 0.000000 1.000000 0.000000
vn 0.000000 1.000000 0.000000
vn 0.000000 1.000000 0.000000
vn 0.000000 1.000000 0.000000
vn 0.000000 0.000000 1.000000
vn 0.000000 0.000000 1.000000
vn 0.000000 0.000000 1.000000
vn 0.000000 0.000000 1.000000
vn 0.000000 1.000000 0.000000
vn 0.000000 1.000000 0.000000
vn 0.000000 1.000000 0.000000
vn 0.000000 1.000000 0.000000
vn 1.000000 0.000000 0.000000
vn 1.000000 0.000000 0.000000
vn 1.000000 0.000000 0.000000
vn 1.000000 0.000000 0.000000
vn 0.000000 1.000000 0.000000
vn 0.000000 1.000000 0.000000
vn 0.000000 1.000000 0.000000
vn 0.000000 1.000000 0.000000
vn 1.000000 0.000000 0.000000
vn 1.000000 0.000000 0.000000
vn 1.000000 0.000000 0.000000
vn 1.000000 0.000000 0.000000
vn 0.000000 1.000000 0.000000
vn 0.000000 1.000000 0.000000
vn 0.000000 1.000000 0.000000
vn 0.000000 1.000000 0.000000
vn 0.000000 0.000000 -1.000000
vn 0.000000 0.000000 -1.000000
vn 0.000000 0.000000 -1.000000
vn 0.000000 0.000000 -1.000000
vn 0.000000 1.000000 0.000000
vn 0.000000 1.000000 0.000000
vn 0.000000 1.000000 0.000000
vn 0.000000 1.000000 0.000000
vn 0.000000 0.000000 -1.000000
vn 0.000000 0.000000 -1.000000
vn 0.000000 0.000000 -1.000000
vn 0.000000 0.000000 -1.000000
vn 1.000000 0.000000 0.000000
vn 1.000000 0.000000 0.000000
vn 1.000000 0.000000 0.000000
vn 1.000000 0.000000 0.000000
vn 0.000000 1.000000 0.000000
vn 0.000000 1.000000 0.000000
vn 0.000000 1.000000 0.000000
vn 0.000000 1.000000 0.000000
vn 1.000000 0.000000 0.000000
vn 1.000000 0.000000 0.000000
vn 1.000000 0.000000 0.000000
vn 1.000000 0.000000 0.000000
vn -1.000000 0.000000 0.000000
vn -1.000000 0.000000 0.000000
vn -1.000000 0.000000 0.000000
vn -1.000000 0.000000 0.000000
vn 0.000000 1.000000 0.000000
vn 0.000000 1.000000 0.000000
vn 0.000000 1.000000 0.000000
vn 0.000000 1.000000 0.000000
vn 0.000000 1.000000 0.000000
vn 0.000000 1.000000 0.000000
vn 0.000000 1.000000 0.000000
vn 0.000000 1.000000 0.000000
vn 0.000000 0.000000 -1.000000
vn 0.000000 0.000000 -1.000000
vn 0.000000 0.000000 -1.000000
vn 0.000000 0.000000 -1.000000
vn 0.000000 1.000000 0.000000
vn 0.000000 1.000000 0.000000
vn 0.000000 1.000000 0.000000
vn 0.000000 1.000000 0.000000
vn 0.000000 0.000000 -1.000000
vn 0.000000 0.000000 -1.000000
vn 0.000000 0.000000 -1.000000
vn 0.000000 0.000000 -1.000000
vn -1.000000 0.000000 0.000000
vn -1.000000 0.000000 0.000000
vn -1.000000 0.000000 0.000000
vn -1.000000 0.000000 0.000000
vn 0.000000 1.000000 0.000000
vn 0.000000 1.000000 0.000000
vn 0.000000 1.000000 0.000000
vn 0.000000 1.000000 0.000000
s off
g Foundation
f 41/115/113 42/116/114 44/117/115 43/118/116
f 43/91/117 44/92/118 46/93/119 45/94/120
f 52/69/121 51/70/122 53/71/123 54/72/124
f 47/77/125 41/78/126 43/79/127 45/80/128
f 46/93/129 44/92/130 50/95/131 49/96/132
f 44/117/133 42/116/134 48/119/135 50/120/136
f 59/123/137 58/124/138 60/125/139 61/126/140
f 49/96/141 50/95/142 54/99/143 53/100/144
f 50/120/145 48/119/146 52/121/147 54/122/148
f 49/96/149 53/100/150 56/103/151 55/104/152
f 53/71/153 51/70/154 57/73/155 56/74/156
f 55/104/157 56/103/158 60/107/159 58/108/160
f 56/74/161 57/73/162 61/75/163 60/76/164
f 55/104/165 58/108/166 63/111/167 62/112/168
f 58/124/169 59/123/170 64/127/171 63/128/172
f 62/112/173 63/111/174 66/113/175 65/114/176
f 70/129/177 71/130/178 72/131/179 73/132/180
f 63/85/181 64/86/182 68/87/183 67/88/184
f 66/113/185 63/111/186 67/109/187 69/105/188
f 67/88/189 68/87/190 71/89/191 70/90/192
f 78/82/193 77/81/194 79/83/195 80/84/196
f 69/105/197 67/109/198 70/110/199 73/106/200
f 69/105/201 73/106/202 75/101/203 74/97/204
f 73/132/205 72/131/206 76/133/207 75/134/208
f 74/97/209 75/101/210 79/102/211 77/98/212
f 75/134/213 76/133/214 80/135/215 79/136/216
f 47/77/217 45/80/218 77/81/219 78/82/220
f 45/94/221 46/93/222 74/97/223 77/98/224
