# This file uses meters as units for non-parametric coordinates.

mtllib Boys_FloorLamp_01_0201.mtl
g default
v -3.703812 3.500170 5.486988
v -4.296187 3.500170 5.486988
v -4.592375 3.500170 6.000000
v -4.296188 3.500170 6.513012
v -3.703813 3.500170 6.513012
v -3.407625 3.500170 6.000000
v -3.879857 4.617112 5.791907
v -4.120143 4.617112 5.791907
v -4.240285 4.617112 6.000000
v -4.120143 4.617112 6.208093
v -3.879857 4.617112 6.208093
v -3.759715 4.617112 6.000000
v -4.000000 3.500170 6.000000
v -4.000000 4.617112 6.000000
v -3.921448 0.114706 5.921448
v -4.078552 0.114706 5.921448
v -4.078552 0.114706 6.078552
v -3.921448 0.114706 6.078552
v -3.921448 4.079345 5.921448
v -4.078552 4.079345 5.921448
v -4.078552 4.079345 6.078552
v -3.921448 4.079345 6.078552
v -3.799886 0.000000 5.653392
v -4.200114 0.000000 5.653392
v -4.400229 0.000000 6.000000
v -4.200114 0.000000 6.346608
v -3.799886 0.000000 6.346608
v -3.599771 0.000000 6.000000
v -3.821087 0.163050 5.690113
v -4.178913 0.163050 5.690113
v -4.357827 0.163050 6.000000
v -4.178913 0.163050 6.309887
v -3.821087 0.163050 6.309887
v -3.642173 0.163050 6.000000
v -4.000000 0.000000 6.000000
v -3.893382 0.270576 5.815332
v -4.106618 0.270576 5.815332
v -4.213236 0.270576 6.000000
v -4.106618 0.270576 6.184668
v -3.893382 0.270576 6.184668
v -3.786764 0.270576 6.000000
v -3.931162 0.570480 5.880769
v -4.068838 0.570480 5.880769
v -4.000000 0.570480 6.000000
v -4.137676 0.570480 6.000000
v -4.068838 0.570480 6.119231
v -3.931162 0.570480 6.119231
v -3.862324 0.570480 6.000000
v -3.936402 0.420528 5.889845
v -4.063598 0.420528 5.889845
v -4.127196 0.420528 6.000000
v -4.063598 0.420528 6.110155
v -3.936402 0.420528 6.110155
v -3.872804 0.420528 6.000000
v -3.760004 2.922863 6.021132
v -3.717740 2.922863 6.021132
v -3.760004 3.647591 6.021132
v -3.717740 3.647591 6.021132
v -3.760004 3.647591 5.978868
v -3.717740 3.647591 5.978868
v -3.760004 2.922863 5.978868
v -3.717740 2.922863 5.978868
vt 0.000000 0.000000
vt 0.141567 0.000000
vt 0.141567 0.308224
vt 0.084143 0.308224
vt 0.283134 0.000000
vt 0.198991 0.308224
vt 0.283321 0.000000
vt 0.424888 0.000000
vt 0.424888 0.308224
vt 0.367464 0.308224
vt 0.566455 0.000000
vt 0.482312 0.308224
vt 0.647591 0.000000
vt 0.687218 0.000000
vt 0.687218 1.000000
vt 0.647591 1.000000
vt 0.688066 0.000000
vt 0.727692 0.000000
vt 0.727692 1.000000
vt 0.688066 1.000000
vt 0.728540 0.371338
vt 0.728540 0.270498
vt 0.775977 0.270498
vt 0.775977 0.360655
vt 0.728540 0.169657
vt 0.775977 0.180341
vt 0.807260 0.270498
vt 0.807260 0.324224
vt 0.807260 0.216771
vt 0.850887 0.270498
vt 0.850887 0.302546
vt 0.850887 0.238450
vt 0.894513 0.270498
vt 0.894513 0.305186
vt 0.894513 0.235809
vt 0.831283 0.513959
vt 0.831283 0.413118
vt 0.878720 0.413118
vt 0.878720 0.503275
vt 0.831283 0.312278
vt 0.878720 0.322962
vt 0.910003 0.413118
vt 0.910003 0.466845
vt 0.910003 0.359392
vt 0.953629 0.413118
vt 0.953629 0.445166
vt 0.953629 0.381070
vt 0.997256 0.413118
vt 0.997256 0.447807
vt 0.997256 0.378430
vt 0.968274 0.000000
vt 0.978934 0.000000
vt 0.978934 0.182797
vt 0.968274 0.182797
vt 0.000000 0.045574
vt 0.010660 0.045574
vt 0.010660 0.228372
vt 0.000000 0.228372
vt 0.152558 0.485366
vt 0.152558 0.335951
vt 0.281954 0.410658
vt 0.281954 0.261244
vt 0.281954 0.560073
vt 0.411351 0.335951
vt 0.411351 0.485366
vt 0.257532 0.547756
vt 0.257532 0.608363
vt 0.205045 0.578060
vt 0.205045 0.638667
vt 0.205045 0.517453
vt 0.152558 0.608363
vt 0.152558 0.547756
vt 0.728540 0.151424
vt 0.728540 0.050475
vt 0.815965 0.100950
vt 0.815965 0.000000
vt 0.815965 0.201899
vt 0.903390 0.050475
vt 0.903390 0.151424
vt 0.966152 0.017363
vt 0.966152 0.052089
vt 0.936079 0.034726
vt 0.936079 0.069452
vt 0.936079 0.000000
vt 0.906005 0.052089
vt 0.906005 0.017363
vt 0.728540 0.000000
vt 0.739201 0.000000
vt 0.739201 0.010660
vt 0.728540 0.010660
vt 0.152124 0.595058
vt 0.000000 0.595058
vt 0.045209 0.308224
vt 0.106915 0.308224
vt 0.410972 0.308224
vt 0.563095 0.308224
vt 0.517887 0.595058
vt 0.456180 0.595058
vt 0.606269 1.000000
vt 0.566643 1.000000
vt 0.566643 0.000000
vt 0.606269 0.000000
vt 0.607117 0.000000
vt 0.646743 0.000000
vt 0.646743 1.000000
vt 0.607117 1.000000
vt 0.338753 0.236942
vt 0.230393 0.236942
vt 0.236133 0.192797
vt 0.333013 0.192797
vt 0.255707 0.163685
vt 0.313440 0.163685
vt 0.267354 0.123086
vt 0.301792 0.123086
vt 0.265936 0.082487
vt 0.303211 0.082487
vt 0.336249 0.528719
vt 0.444610 0.528719
vt 0.438869 0.572864
vt 0.341989 0.572864
vt 0.419296 0.601976
vt 0.361563 0.601976
vt 0.407648 0.642575
vt 0.373211 0.642575
vt 0.409067 0.683173
vt 0.371792 0.683173
vt 0.980727 0.000000
vt 0.991388 0.000000
vt 0.991388 0.182798
vt 0.980727 0.182798
vt 0.955820 0.058047
vt 0.966480 0.058047
vt 0.966480 0.240845
vt 0.955820 0.240845
vn 0.000000 0.263357 -0.964698
vn 0.000000 0.263357 -0.964698
vn 0.000000 0.263357 -0.964698
vn 0.000000 0.263357 -0.964698
vn -0.835453 0.263357 -0.482349
vn -0.835453 0.263357 -0.482349
vn -0.835453 0.263357 -0.482349
vn -0.835453 0.263357 -0.482349
vn -0.835453 0.263357 0.482349
vn -0.835453 0.263357 0.482349
vn -0.835453 0.263357 0.482349
vn -0.835453 0.263357 0.482349
vn 0.000000 0.263357 0.964698
vn 0.000000 0.263357 0.964698
vn 0.000000 0.263357 0.964698
vn 0.000000 0.263357 0.964698
vn 0.835453 0.263357 0.482349
vn 0.835453 0.263357 0.482349
vn 0.835453 0.263357 0.482349
vn 0.835453 0.263357 0.482349
vn 0.835454 0.263357 -0.482349
vn 0.835453 0.263357 -0.482349
vn 0.835454 0.263357 -0.482349
vn 0.835454 0.263357 -0.482349
vn 0.000000 -1.000000 -0.000000
vn 0.000000 -1.000000 -0.000000
vn 0.000000 -1.000000 -0.000000
vn 0.000000 -1.000000 -0.000000
vn 0.000000 -1.000000 -0.000000
vn 0.000000 -1.000000 -0.000000
vn 0.000000 -1.000000 0.000000
vn 0.000000 1.000000 -0.000001
vn 0.000000 1.000000 0.000000
vn 0.000000 1.000000 0.000000
vn 0.000000 1.000000 0.000001
vn 0.000000 1.000000 0.000001
vn 0.000000 1.000000 0.000001
vn 0.000000 1.000000 -0.000001
vn 0.000000 0.000000 -1.000000
vn 0.000000 0.000000 -1.000000
vn 0.000000 0.000000 -1.000000
vn 0.000000 0.000000 -1.000000
vn -1.000000 0.000000 -0.000000
vn -1.000000 0.000000 -0.000000
vn -1.000000 0.000000 -0.000000
vn -1.000000 0.000000 -0.000000
vn -0.000000 0.000000 1.000000
vn -0.000000 0.000000 1.000000
vn -0.000000 0.000000 1.000000
vn -0.000000 0.000000 1.000000
vn 1.000000 0.000000 0.000000
vn 1.000000 0.000000 0.000000
vn 1.000000 0.000000 0.000000
vn 1.000000 0.000000 0.000000
vn 0.000000 0.219712 -0.975565
vn 0.000000 0.219712 -0.975565
vn 0.000000 0.219712 -0.975565
vn 0.000000 0.219712 -0.975565
vn -0.844864 0.219711 -0.487783
vn -0.844864 0.219711 -0.487783
vn -0.844864 0.219711 -0.487783
vn -0.844864 0.219711 -0.487783
vn -0.844864 0.219711 0.487782
vn -0.844864 0.219711 0.487782
vn -0.844864 0.219711 0.487782
vn -0.844864 0.219711 0.487782
vn 0.000000 0.219711 0.975565
vn 0.000000 0.219711 0.975565
vn 0.000000 0.219711 0.975565
vn 0.000000 0.219711 0.975565
vn 0.844864 0.219711 0.487783
vn 0.844864 0.219711 0.487783
vn 0.844864 0.219711 0.487783
vn 0.844864 0.219711 0.487783
vn 0.844864 0.219711 -0.487782
vn 0.844864 0.219711 -0.487782
vn 0.844864 0.219711 -0.487782
vn 0.844864 0.219711 -0.487782
vn 0.000000 -1.000000 0.000000
vn 0.000000 -1.000000 0.000000
vn 0.000000 -1.000000 0.000000
vn 0.000000 -1.000000 0.000000
vn 0.000000 -1.000000 0.000000
vn 0.000000 -1.000000 0.000000
vn 0.000000 -1.000000 0.000000
vn 0.000000 1.000000 0.000000
vn 0.000000 1.000000 0.000001
vn 0.000000 1.000000 0.000000
vn 0.000000 1.000000 0.000000
vn 0.000000 1.000000 0.000000
vn 0.000000 1.000000 0.000000
vn 0.000000 1.000000 0.000000
vn 0.000000 0.758672 -0.651473
vn 0.000000 0.758672 -0.651473
vn 0.000000 0.758672 -0.651473
vn 0.000000 0.758672 -0.651473
vn -0.564192 0.758672 -0.325736
vn -0.564192 0.758672 -0.325736
vn -0.564192 0.758672 -0.325736
vn -0.564192 0.758672 -0.325736
vn -0.564192 0.758672 0.325736
vn -0.564192 0.758672 0.325736
vn -0.564192 0.758672 0.325736
vn -0.564192 0.758672 0.325736
vn 0.000000 0.758672 0.651472
vn 0.000000 0.758672 0.651472
vn 0.000000 0.758672 0.651472
vn 0.000000 0.758672 0.651472
vn 0.564192 0.758672 0.325736
vn 0.564192 0.758672 0.325736
vn 0.564192 0.758672 0.325736
vn 0.564192 0.758672 0.325736
vn 0.564192 0.758672 -0.325736
vn 0.564192 0.758672 -0.325736
vn 0.564192 0.758672 -0.325736
vn 0.564192 0.758672 -0.325736
vn 0.000000 0.260835 -0.965383
vn 0.000000 0.260835 -0.965383
vn 0.000000 -0.060412 -0.998174
vn 0.000000 -0.060412 -0.998174
vn -0.836047 0.260835 -0.482692
vn -0.836047 0.260835 -0.482692
vn -0.864444 -0.060412 -0.499087
vn -0.864444 -0.060412 -0.499087
vn -0.836047 0.260835 0.482691
vn -0.836047 0.260835 0.482691
vn -0.864444 -0.060412 0.499086
vn -0.864444 -0.060412 0.499086
vn 0.000000 0.260835 0.965383
vn 0.000000 0.260835 0.965383
vn 0.000000 -0.060412 0.998174
vn 0.000000 -0.060412 0.998174
vn 0.836047 0.260835 0.482692
vn 0.836047 0.260835 0.482692
vn 0.864444 -0.060412 0.499087
vn 0.864444 -0.060412 0.499087
vn 0.836047 0.260835 -0.482691
vn 0.836047 0.260835 -0.482691
vn 0.864444 -0.060412 -0.499087
vn 0.864444 -0.060412 -0.499087
vn 0.000000 0.444999 -0.895531
vn 0.000000 0.444999 -0.895531
vn -0.775553 0.444999 -0.447766
vn -0.775553 0.444999 -0.447766
vn -0.775553 0.444999 0.447765
vn -0.775553 0.444999 0.447765
vn 0.000000 0.444999 0.895531
vn 0.000000 0.444999 0.895531
vn 0.775553 0.444999 0.447766
vn 0.775553 0.444999 0.447766
vn 0.775553 0.444999 -0.447765
vn 0.775553 0.444999 -0.447765
vn 0.000000 0.000000 1.000000
vn 0.000000 0.000000 1.000000
vn 0.000000 0.000000 1.000000
vn 0.000000 0.000000 1.000000
vn 0.000000 0.000000 -1.000000
vn 0.000000 0.000000 -1.000000
vn 0.000000 0.000000 -1.000000
vn 0.000000 0.000000 -1.000000
vn 0.000000 -1.000000 0.000000
vn 0.000000 -1.000000 0.000000
vn 0.000000 -1.000000 0.000000
vn 0.000000 -1.000000 0.000000
vn 1.000000 0.000000 0.000000
vn 1.000000 0.000000 0.000000
vn 1.000000 0.000000 0.000000
vn 1.000000 0.000000 0.000000
vn -1.000000 0.000000 0.000000
vn -1.000000 0.000000 0.000000
vn -1.000000 0.000000 0.000000
vn -1.000000 0.000000 0.000000
s off
g Boys_FloorLamp_01_0131:pCylinder4
usemtl aiStandardSurface1SG
f 1/91/1 2/92/2 8/93/3 7/94/4
f 2/1/5 3/2/6 9/3/7 8/4/8
f 3/2/9 4/5/10 10/6/11 9/3/12
f 4/95/13 5/96/14 11/97/15 10/98/16
f 5/7/17 6/8/18 12/9/19 11/10/20
f 6/8/21 1/11/22 7/12/23 12/9/24
s 1
f 2/59/25 1/60/26 13/61/27
f 3/63/28 2/59/25 13/61/27
f 4/65/29 3/63/28 13/61/27
f 5/64/30 4/65/29 13/61/27
f 6/62/31 5/64/30 13/61/27
f 1/60/26 6/62/31 13/61/27
s 2
f 7/66/32 8/67/33 14/68/34
f 8/67/33 9/69/35 14/68/34
f 9/69/35 10/71/36 14/68/34
f 10/71/36 11/72/37 14/68/34
f 11/72/37 12/70/38 14/68/34
f 12/70/38 7/66/32 14/68/34
s off
f 15/99/39 16/100/40 20/101/41 19/102/42
f 16/13/43 17/14/44 21/15/45 20/16/46
f 17/103/47 18/104/48 22/105/49 21/106/50
f 18/17/51 15/18/52 19/19/53 22/20/54
f 23/107/55 24/108/56 30/109/57 29/110/58
f 24/21/59 25/22/60 31/23/61 30/24/62
f 25/22/63 26/25/64 32/26/65 31/23/66
f 26/117/67 27/118/68 33/119/69 32/120/70
f 27/36/71 28/37/72 34/38/73 33/39/74
f 28/37/75 23/40/76 29/41/77 34/38/78
s 3
f 24/73/79 23/74/80 35/75/81
f 25/77/82 24/73/79 35/75/81
f 26/79/83 25/77/82 35/75/81
f 27/78/84 26/79/83 35/75/81
f 28/76/85 27/78/84 35/75/81
f 23/74/80 28/76/85 35/75/81
s 4
f 42/80/86 43/81/87 44/82/88
f 43/81/87 45/83/89 44/82/88
f 45/83/89 46/85/90 44/82/88
f 46/85/90 47/86/91 44/82/88
f 47/86/91 48/84/92 44/82/88
f 48/84/92 42/80/86 44/82/88
s off
f 29/110/93 30/109/94 37/111/95 36/112/96
f 30/24/97 31/23/98 38/27/99 37/28/100
f 31/23/101 32/26/102 39/29/103 38/27/104
f 32/120/105 33/119/106 40/121/107 39/122/108
f 33/39/109 34/38/110 41/42/111 40/43/112
f 34/38/113 29/41/114 36/44/115 41/42/116
s 5
f 49/114/117 50/113/118 43/115/119 42/116/120
s 6
f 50/31/121 51/30/122 45/33/123 43/34/124
s 7
f 51/30/125 52/32/126 46/35/127 45/33/128
s 8
f 52/124/129 53/123/130 47/125/131 46/126/132
s 9
f 53/46/133 54/45/134 48/48/135 47/49/136
s 10
f 54/45/137 49/47/138 42/50/139 48/48/140
s 5
f 36/112/141 37/111/142 50/113/118 49/114/117
s 6
f 37/28/143 38/27/144 51/30/122 50/31/121
s 7
f 38/27/145 39/29/146 52/32/126 51/30/125
s 8
f 39/122/147 40/121/148 53/123/130 52/124/129
s 9
f 40/43/149 41/42/150 54/45/134 53/46/133
s 10
f 41/42/151 36/44/152 49/47/138 54/45/137
s off
f 55/127/153 56/128/154 58/129/155 57/130/156
f 59/131/157 60/132/158 62/133/159 61/134/160
f 61/87/161 62/88/162 56/89/163 55/90/164
f 56/51/165 62/52/166 60/53/167 58/54/168
f 61/55/169 55/56/170 57/57/171 59/58/172
