# This file uses meters as units for non-parametric coordinates.

mtllib Recliner.mtl
g default
v 44.316841 0.000000 35.776180
v 25.657120 0.000000 35.776180
v 44.316841 0.000000 -31.735304
v 25.657120 0.000000 -31.735304
v -44.316845 0.000000 35.776180
v -25.657124 0.000000 35.776180
v -44.316845 0.000000 -31.735304
v -25.657124 0.000000 -31.735304
v -34.986984 0.000000 35.781937
v 34.986984 0.000000 35.781937
v -34.986984 50.979416 35.781937
v 34.986984 50.979416 35.781937
v -34.986984 50.979416 -29.893646
v 34.986984 50.979416 -29.893646
v -34.986984 0.000000 -29.893646
v 34.986984 0.000000 -29.893646
v -43.232010 25.489710 -28.645695
v 43.232010 25.489710 -28.645695
v -43.232010 50.979416 -28.645695
v 43.232010 50.979416 -28.645695
v -43.232010 0.000002 -28.645695
v 43.232010 0.000002 -28.645695
v -43.232010 25.489708 -28.645695
v 43.232010 25.489708 -28.645695
v -43.232010 0.000002 -42.405392
v 43.232010 0.000002 -42.405392
v -42.737831 17.994076 30.191273
v 42.737831 17.994076 30.191273
v -42.737831 94.843475 56.032112
v 42.737831 94.843475 56.032112
v -42.737831 25.430813 8.074776
v 42.737831 25.430813 8.074776
v 25.657120 68.044632 35.776180
v 27.056459 69.443970 35.776180
v 25.657120 68.044632 -31.735304
v 27.056459 69.443970 -31.735304
v 42.917503 69.443970 35.776180
v 44.316841 68.044632 35.776180
v 44.316841 68.044632 -31.735304
v 42.917503 69.443970 -31.735304
v -44.316845 68.044632 35.776180
v -42.917507 69.443970 35.776180
v -44.316845 68.044632 -31.735304
v -42.917507 69.443970 -31.735304
v -27.056463 69.443970 35.776180
v -25.657124 68.044632 35.776180
v -25.657124 68.044632 -31.735304
v -27.056463 69.443970 -31.735304
v -42.737831 97.857353 32.428417
v -42.737831 100.793015 38.338470
v 42.737831 97.857353 32.428417
v 42.737831 100.793015 38.338470
v -43.232010 48.915668 -42.405392
v -43.232010 50.979416 -40.341644
v 43.232010 48.915668 -42.405392
v 43.232010 50.979416 -40.341644
v -43.232010 27.503004 -42.405392
v -43.232010 25.446812 -40.341644
v 43.232010 27.503004 -42.405392
v 43.232010 25.446812 -40.341644
v -43.232010 23.425961 -42.405392
v -43.232010 25.489708 -40.341644
v 43.232010 23.425961 -42.405392
v 43.232010 25.489708 -40.341644
vt 0.577280 0.473612
vt 0.577280 0.660287
vt 0.392068 0.660287
vt 0.392068 0.473612
vt 0.577280 0.664126
vt 0.392068 0.664126
vt 0.768773 0.478244
vt 0.768773 0.664918
vt 0.583562 0.664918
vt 0.583562 0.478244
vt 0.583562 0.668757
vt 0.768773 0.668757
vt 0.722740 0.672389
vt 0.907951 0.672389
vt 0.907951 0.859063
vt 0.722740 0.859063
vt 0.722740 0.862902
vt 0.907951 0.862902
vt 0.531946 0.672389
vt 0.717158 0.672389
vt 0.717158 0.859063
vt 0.531946 0.859063
vt 0.717158 0.862902
vt 0.531946 0.862902
vt 0.061225 0.814202
vt 0.061225 0.634027
vt 0.201083 0.634027
vt 0.201083 0.814202
vt 0.001812 0.998008
vt 0.001812 0.817833
vt 0.141670 0.817833
vt 0.141670 0.998008
vt 0.147383 0.817951
vt 0.179469 0.817833
vt 0.185131 0.823474
vt 0.185131 0.882218
vt 0.179469 0.887879
vt 0.147383 0.887879
vt 0.236037 0.822870
vt 0.273785 0.822870
vt 0.273785 0.887137
vt 0.268124 0.892798
vt 0.236037 0.892798
vt 0.280364 0.822870
vt 0.318112 0.822870
vt 0.318112 0.892798
vt 0.286026 0.892798
vt 0.280364 0.887137
vt 0.642999 0.240118
vt 0.703674 0.260520
vt 0.636862 0.459216
vt 0.620648 0.467269
vt 0.572107 0.450948
vt 0.434959 0.263232
vt 0.495633 0.242830
vt 0.566526 0.453659
vt 0.517985 0.469981
vt 0.501771 0.461927
vt 0.191710 0.828511
vt 0.197371 0.822870
vt 0.229458 0.822987
vt 0.229458 0.892916
vt 0.197371 0.892916
vt 0.191710 0.887254
vt 0.412819 0.667757
vt 0.412819 0.852968
vt 0.369305 0.852968
vt 0.369305 0.667757
vt 0.320210 0.819238
vt 0.320210 0.634027
vt 0.363724 0.634027
vt 0.363724 0.819238
vt 0.103763 0.434797
vt 0.103763 0.242830
vt 0.283938 0.242830
vt 0.283938 0.434797
vt 0.078232 0.239198
vt 0.078232 0.001992
vt 0.110319 0.001992
vt 0.110319 0.239198
vt 0.115981 0.239198
vt 0.115981 0.001992
vt 0.264406 0.239198
vt 0.264406 0.001992
vt 0.296493 0.001992
vt 0.296493 0.239198
vt 0.302155 0.239198
vt 0.302155 0.001992
vt 0.686401 0.236487
vt 0.686401 0.001992
vt 0.734941 0.001992
vt 0.734941 0.236487
vt 0.751155 0.236487
vt 0.751155 0.001992
vt 0.417405 0.239198
vt 0.385319 0.239198
vt 0.385319 0.001992
vt 0.417405 0.001992
vt 0.379657 0.239198
vt 0.379657 0.001992
vt 0.461732 0.001992
vt 0.461732 0.239198
vt 0.423984 0.239198
vt 0.423984 0.001992
vt 0.263437 0.819238
vt 0.263437 0.634027
vt 0.314629 0.634027
vt 0.314629 0.819238
vt 0.206664 0.819238
vt 0.206664 0.634027
vt 0.257856 0.634027
vt 0.257856 0.819238
vt 0.327558 0.438428
vt 0.327558 0.630395
vt 0.147383 0.630395
vt 0.147383 0.438428
vt 0.384748 0.438428
vt 0.384748 0.625103
vt 0.380909 0.628941
vt 0.337396 0.628941
vt 0.333557 0.625103
vt 0.333557 0.438428
vt 0.775055 0.478244
vt 0.826246 0.478244
vt 0.826246 0.664918
vt 0.822407 0.668757
vt 0.778894 0.668757
vt 0.775055 0.664918
vt 0.289520 0.434797
vt 0.289520 0.242830
vt 0.429377 0.242830
vt 0.429377 0.434797
vt 0.001812 0.630395
vt 0.001812 0.438428
vt 0.141670 0.438428
vt 0.141670 0.630395
vt 0.001812 0.239198
vt 0.001812 0.001992
vt 0.071741 0.001992
vt 0.071741 0.239198
vt 0.122559 0.239198
vt 0.122559 0.001992
vt 0.181303 0.001992
vt 0.181303 0.239198
vt 0.188164 0.239198
vt 0.188164 0.001992
vt 0.258092 0.001992
vt 0.258092 0.239198
vt 0.308733 0.239198
vt 0.308733 0.001992
vt 0.373000 0.001992
vt 0.373000 0.239198
vt 0.468311 0.236487
vt 0.468311 0.001992
vt 0.679141 0.001992
vt 0.679141 0.236487
vt 0.709256 0.474613
vt 0.709256 0.240118
vt 0.907951 0.240118
vt 0.907951 0.474613
vt 0.522525 0.667757
vt 0.526365 0.671596
vt 0.526365 0.858270
vt 0.475173 0.858270
vt 0.475173 0.671596
vt 0.479012 0.667757
vt 0.418400 0.671596
vt 0.422239 0.667757
vt 0.465753 0.667757
vt 0.469592 0.671596
vt 0.469592 0.858270
vt 0.418400 0.858270
vn 0.000000 0.000000 1.000000
vn 0.000000 0.000000 1.000000
vn 0.000000 0.000000 1.000000
vn 0.000000 0.000000 1.000000
vn 0.000000 0.000000 1.000000
vn 0.000000 0.000000 1.000000
vn 0.000000 1.000000 0.000000
vn 0.000000 1.000000 0.000000
vn 0.000000 1.000000 0.000000
vn 0.000000 1.000000 0.000000
vn -1.000000 0.000000 0.000000
vn -1.000000 0.000000 0.000000
vn -1.000000 0.000000 0.000000
vn -1.000000 0.000000 0.000000
vn 1.000000 0.000000 0.000000
vn 1.000000 0.000000 0.000000
vn 1.000000 0.000000 0.000000
vn 1.000000 0.000000 0.000000
vn 0.000000 0.000000 1.000000
vn 0.000000 0.000000 1.000000
vn 0.000000 0.000000 1.000000
vn 0.000000 0.000000 1.000000
vn 0.000000 0.000000 1.000000
vn 0.000000 0.000000 1.000000
vn 0.000000 1.000000 0.000000
vn 0.000000 1.000000 0.000000
vn 0.000000 1.000000 0.000000
vn 0.000000 1.000000 0.000000
vn 1.000000 0.000000 0.000000
vn 1.000000 0.000000 0.000000
vn 1.000000 0.000000 0.000000
vn 1.000000 0.000000 0.000000
vn -1.000000 0.000000 0.000000
vn -1.000000 0.000000 0.000000
vn -1.000000 0.000000 0.000000
vn -1.000000 0.000000 0.000000
vn 0.000000 0.000000 1.000000
vn 0.000000 0.000000 1.000000
vn 0.000000 0.000000 1.000000
vn 0.000000 0.000000 1.000000
vn 0.000000 1.000000 0.000000
vn 0.000000 1.000000 0.000000
vn 0.000000 1.000000 0.000000
vn 0.000000 1.000000 0.000000
vn 0.000000 0.000000 -1.000000
vn 0.000000 0.000000 -1.000000
vn 0.000000 0.000000 -1.000000
vn 0.000000 0.000000 -1.000000
vn 1.000000 0.000000 0.000000
vn 1.000000 0.000000 0.000000
vn 1.000000 0.000000 0.000000
vn 1.000000 0.000000 0.000000
vn -1.000000 0.000000 0.000000
vn -1.000000 0.000000 0.000000
vn -1.000000 0.000000 0.000000
vn -1.000000 0.000000 0.000000
vn 0.000000 0.000000 1.000000
vn 0.000000 0.000000 1.000000
vn 0.000000 0.000000 1.000000
vn 0.000000 0.000000 1.000000
vn 0.000000 1.000000 0.000000
vn 0.000000 1.000000 0.000000
vn 0.000000 1.000000 0.000000
vn 0.000000 1.000000 0.000000
vn 0.000000 0.000000 -1.000000
vn 0.000000 0.000000 -1.000000
vn 0.000000 0.000000 -1.000000
vn 0.000000 0.000000 -1.000000
vn 1.000000 0.000000 0.000000
vn 1.000000 0.000000 0.000000
vn 1.000000 0.000000 0.000000
vn 1.000000 0.000000 0.000000
vn 1.000000 0.000000 0.000000
vn 1.000000 0.000000 0.000000
vn 0.000000 0.000000 1.000000
vn 0.000000 0.000000 1.000000
vn 0.000000 0.000000 1.000000
vn 0.000000 0.000000 1.000000
vn 0.000000 1.000000 0.000000
vn 0.000000 1.000000 0.000000
vn 0.000000 1.000000 0.000000
vn 0.000000 1.000000 0.000000
vn 0.000000 0.000000 -1.000000
vn 0.000000 0.000000 -1.000000
vn 0.000000 0.000000 -1.000000
vn 0.000000 0.000000 -1.000000
vn 1.000000 0.000000 0.000000
vn 1.000000 0.000000 0.000000
vn 1.000000 0.000000 0.000000
vn 1.000000 0.000000 0.000000
vn 1.000000 0.000000 0.000000
vn -1.000000 0.000000 0.000000
vn -1.000000 0.000000 0.000000
vn -1.000000 0.000000 0.000000
vn -1.000000 0.000000 0.000000
vn -1.000000 0.000000 0.000000
vn 0.000000 -0.318717 0.947850
vn 0.000000 -0.318717 0.947850
vn 0.000000 -0.318717 0.947850
vn 0.000000 -0.318717 0.947850
vn 0.000000 0.947850 0.318717
vn 0.000000 0.947850 0.318717
vn 0.000000 0.947850 0.318717
vn 0.000000 0.947850 0.318717
vn 0.000000 0.318717 -0.947850
vn 0.000000 0.318717 -0.947850
vn 0.000000 0.318717 -0.947850
vn 0.000000 0.318717 -0.947850
vn 1.000000 0.000000 0.000000
vn 1.000000 0.000000 0.000000
vn 1.000000 0.000000 0.000000
vn 1.000000 0.000000 0.000000
vn 1.000000 0.000000 0.000000
vn -1.000000 0.000000 0.000000
vn -1.000000 0.000000 0.000000
vn -1.000000 0.000000 0.000000
vn -1.000000 0.000000 0.000000
vn -1.000000 0.000000 0.000000
vn -0.000000 0.000000 -1.000000
vn -0.000000 0.000000 -1.000000
vn -0.000000 0.000000 -1.000000
vn -0.000000 0.000000 -1.000000
vn -0.000000 0.000000 -1.000000
vn -0.000000 0.000000 -1.000000
vn 0.000000 0.000000 -1.000000
vn 0.000000 0.000000 -1.000000
vn 0.000000 0.000000 -1.000000
vn 0.000000 0.000000 -1.000000
vn 0.000000 0.000000 -1.000000
vn 0.000000 0.000000 -1.000000
vn -0.707106 0.707107 0.000000
vn -0.707106 0.707107 0.000000
vn -0.707106 0.707107 0.000000
vn -0.707106 0.707107 0.000000
vn 0.707107 0.707107 0.000000
vn 0.707107 0.707107 0.000000
vn 0.707107 0.707107 0.000000
vn 0.707107 0.707107 0.000000
vn -0.707107 0.707107 0.000000
vn -0.707107 0.707107 0.000000
vn -0.707107 0.707107 0.000000
vn -0.707107 0.707107 0.000000
vn 0.707106 0.707107 0.000000
vn 0.707106 0.707107 0.000000
vn 0.707106 0.707107 0.000000
vn 0.707106 0.707107 0.000000
vn 0.000000 0.895598 -0.444865
vn 0.000000 0.895598 -0.444865
vn 0.000000 0.895598 -0.444865
vn 0.000000 0.895598 -0.444865
vn 0.000000 0.707107 -0.707107
vn 0.000000 0.707107 -0.707107
vn 0.000000 0.707107 -0.707107
vn 0.000000 0.707107 -0.707107
vn 0.000000 -0.999993 0.003668
vn 0.000000 -0.999993 0.003668
vn 0.000000 -0.999993 0.003668
vn 0.000000 -0.999993 0.003668
vn -1.000000 0.000000 0.000000
vn -1.000000 0.000000 0.000000
vn -1.000000 0.000000 0.000000
vn -1.000000 0.000000 0.000000
vn -1.000000 0.000000 0.000000
vn -1.000000 0.000000 0.000000
vn 0.000000 -0.708402 -0.705809
vn 0.000000 -0.708402 -0.705809
vn 0.000000 -0.708402 -0.705809
vn 0.000000 -0.708402 -0.705809
vn 0.000000 0.707107 -0.707107
vn 0.000000 0.707107 -0.707107
vn 0.000000 0.707107 -0.707107
vn 0.000000 0.707107 -0.707107
vn 0.000000 -1.000000 0.000000
vn 0.000000 -1.000000 0.000000
vn 0.000000 -1.000000 0.000000
vn 0.000000 -1.000000 0.000000
vn 0.000000 -1.000000 0.000000
vn 0.000000 -1.000000 0.000000
vn 0.000000 -1.000000 0.000000
vn 0.000000 -1.000000 0.000000
vn 0.000000 -1.000000 0.000000
vn 0.000000 -1.000000 0.000000
vn 0.000000 -1.000000 0.000000
vn 0.000000 -1.000000 0.000000
vn 0.000000 -1.000000 0.000000
vn 0.000000 -1.000000 0.000000
vn 0.000000 -1.000000 0.000000
vn 0.000000 -1.000000 0.000000
s off
g Arm_left3
usemtl phong1SG
f 1/117/1 38/118/2 37/119/3 34/120/4 33/121/5 2/122/6
f 37/65/7 40/66/8 36/67/9 34/68/10
f 2/1/11 33/2/12 35/3/13 4/4/14
f 3/7/15 39/8/16 38/9/17 1/10/18
f 5/123/19 6/124/20 46/125/21 45/126/22 42/127/23 41/128/24
f 44/69/25 42/70/26 45/71/27 48/72/28
f 6/13/29 8/14/30 47/15/31 46/16/32
f 7/19/33 5/20/34 41/21/35 43/22/36
f 9/129/37 10/130/38 12/131/39 11/132/40
f 11/73/41 12/74/42 14/75/43 13/76/44
f 13/133/45 14/134/46 16/135/47 15/136/48
f 10/25/49 16/26/50 14/27/51 12/28/52
f 15/29/53 9/30/54 11/31/55 13/32/56
f 17/137/57 18/138/58 20/139/59 19/140/60
f 19/77/61 20/78/62 56/79/63 54/80/64
f 53/141/65 55/142/66 59/143/67 57/144/68
f 18/33/69 60/34/70 59/35/71 55/36/72 56/37/73 20/38/74
f 21/145/75 22/146/76 24/147/77 23/148/78
f 23/83/79 24/84/80 64/85/81 62/86/82
f 61/149/83 63/150/84 26/151/85 25/152/86
f 22/39/87 26/40/88 63/41/89 64/42/90 24/43/91
f 25/44/92 21/45/93 23/46/94 62/47/95 61/48/96
f 27/153/97 28/154/98 30/155/99 29/156/100
f 29/89/101 30/90/102 52/91/103 50/92/104
f 49/157/105 51/158/106 32/159/107 31/160/108
f 28/49/109 32/50/110 51/51/111 52/52/112 30/53/113
f 31/54/114 27/55/115 29/56/116 50/57/117 49/58/118
f 40/161/119 39/162/120 3/163/121 4/164/122 35/165/123 36/166/124
f 43/167/125 44/168/126 48/169/127 47/170/128 8/171/129 7/172/130
f 33/2/131 34/5/132 36/6/133 35/3/134
f 37/11/135 38/9/136 39/8/137 40/12/138
f 41/21/139 42/23/140 44/24/141 43/22/142
f 45/17/143 46/16/144 47/15/145 48/18/146
f 49/93/147 50/92/148 52/91/149 51/94/150
f 53/81/151 54/80/152 56/79/153 55/82/154
f 17/95/155 58/96/156 60/97/157 18/98/158
f 57/59/159 58/60/160 17/61/161 19/62/162 54/63/163 53/64/164
f 58/96/165 57/99/166 59/100/167 60/97/168
f 61/87/169 62/86/170 64/85/171 63/88/172
f 22/101/173 21/102/174 25/103/175 26/104/176
f 2/105/177 4/106/178 3/107/179 1/108/180
f 5/109/181 7/110/182 8/111/183 6/112/184
f 10/113/185 9/114/186 15/115/187 16/116/188
