# This file uses centimeters as units for non-parametric coordinates.

mtllib Boys_Shelves_02_0201.mtl
g default
v -25.000000 98.750000 50.000000
v 25.000000 98.750000 50.000000
v -25.000000 101.250000 50.000000
v 25.000000 101.250000 50.000000
v -25.000000 101.250000 -50.000000
v 25.000000 101.250000 -50.000000
v -25.000000 98.750000 -50.000000
v 25.000000 98.750000 -50.000000
v -26.250000 0.000000 51.250000
v -23.750000 0.000000 51.250000
v -26.250000 200.000000 51.250000
v -23.750000 200.000000 51.250000
v -26.250000 200.000000 48.750000
v -23.750000 200.000000 48.750000
v -26.250000 0.000000 48.750000
v -23.750000 0.000000 48.750000
v -25.000000 8.750000 50.000000
v 25.000000 8.750000 50.000000
v -25.000000 11.250000 50.000000
v 25.000000 11.250000 50.000000
v -25.000000 11.250000 -50.000000
v 25.000000 11.250000 -50.000000
v -25.000000 8.750000 -50.000000
v 25.000000 8.750000 -50.000000
v 23.750000 0.000000 51.250000
v 26.250000 0.000000 51.250000
v 23.750000 200.000000 51.250000
v 26.250000 200.000000 51.250000
v 23.750000 200.000000 48.750000
v 26.250000 200.000000 48.750000
v 23.750000 0.000000 48.750000
v 26.250000 0.000000 48.750000
v -25.000000 48.750000 50.000000
v 25.000000 48.750000 50.000000
v -25.000000 51.250000 50.000000
v 25.000000 51.250000 50.000000
v -25.000000 51.250000 -50.000000
v 25.000000 51.250000 -50.000000
v -25.000000 48.750000 -50.000000
v 25.000000 48.750000 -50.000000
v -25.000000 148.750000 50.000000
v 25.000000 148.750000 50.000000
v -25.000000 151.250000 50.000000
v 25.000000 151.250000 50.000000
v -25.000000 151.250000 -50.000000
v 25.000000 151.250000 -50.000000
v -25.000000 148.750000 -50.000000
v 25.000000 148.750000 -50.000000
v -25.000000 197.462357 50.000000
v 25.000000 197.462357 50.000000
v -25.000000 199.962357 50.000000
v 25.000000 199.962357 50.000000
v -25.000000 199.962357 -50.000000
v 25.000000 199.962357 -50.000000
v -25.000000 197.462357 -50.000000
v 25.000000 197.462357 -50.000000
v 23.750000 0.000000 -48.750000
v 26.250000 0.000000 -48.750000
v 23.750000 200.000000 -48.750000
v 26.250000 200.000000 -48.750000
v 23.750000 200.000000 -51.250000
v 26.250000 200.000000 -51.250000
v 23.750000 0.000000 -51.250000
v 26.250000 0.000000 -51.250000
v -26.250000 0.000000 -48.750000
v -23.750000 0.000000 -48.750000
v -26.250000 200.000000 -48.750000
v -23.750000 200.000000 -48.750000
v -26.250000 200.000000 -51.250000
v -23.750000 200.000000 -51.250000
v -26.250000 0.000000 -51.250000
v -23.750000 0.000000 -51.250000
vt 0.000000 0.978807
vt 0.000000 0.652538
vt 0.008157 0.652538
vt 0.008157 0.978807
vt 0.095642 0.978807
vt 0.095642 0.652538
vt 0.103799 0.652538
vt 0.103799 0.978807
vt 0.896201 0.000000
vt 0.904358 0.000000
vt 0.904358 0.652538
vt 0.896201 0.652538
vt 0.917455 0.000000
vt 0.925612 0.000000
vt 0.925612 0.652538
vt 0.917455 0.652538
vt 0.085015 0.978807
vt 0.085015 0.652538
vt 0.093172 0.652538
vt 0.093172 0.978807
vt 0.010627 0.978807
vt 0.010627 0.652538
vt 0.018784 0.652538
vt 0.018784 0.978807
vt 0.832440 0.000000
vt 0.840597 0.000000
vt 0.840597 0.652538
vt 0.832440 0.652538
vt 0.885574 0.000000
vt 0.893731 0.000000
vt 0.893731 0.652538
vt 0.885574 0.652538
vt 0.063761 0.978807
vt 0.063761 0.652538
vt 0.071918 0.652538
vt 0.071918 0.978807
vt 0.074388 0.978807
vt 0.074388 0.652538
vt 0.082545 0.652538
vt 0.082545 0.978807
vt 0.031881 0.978807
vt 0.031881 0.652538
vt 0.040037 0.652538
vt 0.040037 0.978807
vt 0.021254 0.978807
vt 0.021254 0.652538
vt 0.029411 0.652538
vt 0.029411 0.978807
vt 0.042508 0.978807
vt 0.042508 0.652538
vt 0.050664 0.652538
vt 0.050664 0.978807
vt 0.053134 0.978807
vt 0.053134 0.652538
vt 0.061291 0.652538
vt 0.061291 0.978807
vt 0.991843 0.000000
vt 1.000000 0.000000
vt 1.000000 0.652538
vt 0.991843 0.652538
vt 0.853694 0.000000
vt 0.861850 0.000000
vt 0.861850 0.652538
vt 0.853694 0.652538
vt 0.864321 0.000000
vt 0.872477 0.000000
vt 0.872477 0.652538
vt 0.864321 0.652538
vt 0.843067 0.000000
vt 0.851224 0.000000
vt 0.851224 0.652538
vt 0.843067 0.652538
vt 0.000000 0.000000
vt 0.163134 0.000000
vt 0.163134 0.326269
vt 0.000000 0.326269
vt 0.000000 0.326269
vt 0.163134 0.326269
vt 0.163134 0.652538
vt 0.000000 0.652538
vt 0.244419 0.652538
vt 0.252575 0.652538
vt 0.252575 0.660695
vt 0.244419 0.660695
vt 0.233792 0.652538
vt 0.241948 0.652538
vt 0.241948 0.660695
vt 0.233792 0.660695
vt 0.166488 0.326269
vt 0.329622 0.326269
vt 0.329622 0.652538
vt 0.166488 0.652538
vt 0.166488 0.000000
vt 0.329622 0.000000
vt 0.329622 0.326269
vt 0.166488 0.326269
vt 0.255045 0.652538
vt 0.263202 0.652538
vt 0.263202 0.660695
vt 0.255045 0.660695
vt 0.212538 0.660695
vt 0.212538 0.652538
vt 0.220695 0.652538
vt 0.220695 0.660695
vt 0.332976 0.000000
vt 0.496110 0.000000
vt 0.496110 0.326269
vt 0.332976 0.326269
vt 0.499464 0.000000
vt 0.662598 0.000000
vt 0.662598 0.326269
vt 0.499464 0.326269
vt 0.665952 0.326269
vt 0.829086 0.326269
vt 0.829086 0.652538
vt 0.665952 0.652538
vt 0.332976 0.326269
vt 0.496110 0.326269
vt 0.496110 0.652538
vt 0.332976 0.652538
vt 0.665952 0.000000
vt 0.829086 0.000000
vt 0.829086 0.326269
vt 0.665952 0.326269
vt 0.499464 0.326269
vt 0.662598 0.326269
vt 0.662598 0.652538
vt 0.499464 0.652538
vt 0.276299 0.652538
vt 0.284456 0.652538
vt 0.284456 0.660695
vt 0.276299 0.660695
vt 0.286926 0.652538
vt 0.295083 0.652538
vt 0.295083 0.660695
vt 0.286926 0.660695
vt 0.223165 0.652538
vt 0.231321 0.652538
vt 0.231321 0.660695
vt 0.223165 0.660695
vt 0.265672 0.652538
vt 0.273829 0.652538
vt 0.273829 0.660695
vt 0.265672 0.660695
vt 0.159403 0.815672
vt 0.159403 0.652538
vt 0.167560 0.652538
vt 0.167560 0.815672
vt 0.106269 0.815672
vt 0.106269 0.652538
vt 0.114426 0.652538
vt 0.114426 0.815672
vt 0.906828 0.000000
vt 0.914985 0.000000
vt 0.914985 0.652538
vt 0.906828 0.652538
vt 0.928082 0.000000
vt 0.936239 0.000000
vt 0.936239 0.652538
vt 0.928082 0.652538
vt 0.201911 0.815672
vt 0.201911 0.652538
vt 0.210068 0.652538
vt 0.210068 0.815672
vt 0.180657 0.815672
vt 0.180657 0.652538
vt 0.188814 0.652538
vt 0.188814 0.815672
vt 0.981216 0.000000
vt 0.989373 0.000000
vt 0.989373 0.652538
vt 0.981216 0.652538
vt 0.959963 0.000000
vt 0.968119 0.000000
vt 0.968119 0.652538
vt 0.959963 0.652538
vt 0.191284 0.815672
vt 0.191284 0.652538
vt 0.199441 0.652538
vt 0.199441 0.815672
vt 0.116896 0.815672
vt 0.116896 0.652538
vt 0.125053 0.652538
vt 0.125053 0.815672
vt 0.170030 0.815672
vt 0.170030 0.652538
vt 0.178187 0.652538
vt 0.178187 0.815672
vt 0.148776 0.815672
vt 0.148777 0.652538
vt 0.156933 0.652538
vt 0.156933 0.815672
vt 0.138150 0.815672
vt 0.138150 0.652538
vt 0.146306 0.652538
vt 0.146306 0.815672
vt 0.127523 0.815672
vt 0.127523 0.652538
vt 0.135679 0.652538
vt 0.135679 0.815672
vt 0.970590 0.000000
vt 0.978746 0.000000
vt 0.978746 0.652538
vt 0.970590 0.652538
vt 0.874947 0.000000
vt 0.883104 0.000000
vt 0.883104 0.652538
vt 0.874947 0.652538
vt 0.938709 0.000000
vt 0.946866 0.000000
vt 0.946866 0.652538
vt 0.938709 0.652538
vt 0.949336 0.000000
vt 0.957492 0.000000
vt 0.957492 0.652538
vt 0.949336 0.652538
vn 0.000000 0.000000 1.000000
vn 0.000000 0.000000 1.000000
vn 0.000000 0.000000 1.000000
vn 0.000000 0.000000 1.000000
vn 0.000000 1.000000 0.000000
vn 0.000000 1.000000 0.000000
vn 0.000000 1.000000 0.000000
vn 0.000000 1.000000 0.000000
vn 0.000000 0.000000 -1.000000
vn 0.000000 0.000000 -1.000000
vn 0.000000 0.000000 -1.000000
vn 0.000000 0.000000 -1.000000
vn 0.000000 -1.000000 0.000000
vn 0.000000 -1.000000 0.000000
vn 0.000000 -1.000000 0.000000
vn 0.000000 -1.000000 0.000000
vn 1.000000 0.000000 0.000000
vn 1.000000 0.000000 0.000000
vn 1.000000 0.000000 0.000000
vn 1.000000 0.000000 0.000000
vn -1.000000 0.000000 0.000000
vn -1.000000 0.000000 0.000000
vn -1.000000 0.000000 0.000000
vn -1.000000 0.000000 0.000000
vn 0.000000 0.000000 1.000000
vn 0.000000 0.000000 1.000000
vn 0.000000 0.000000 1.000000
vn 0.000000 0.000000 1.000000
vn 0.000000 1.000000 0.000000
vn 0.000000 1.000000 0.000000
vn 0.000000 1.000000 0.000000
vn 0.000000 1.000000 0.000000
vn 0.000000 0.000000 -1.000000
vn 0.000000 0.000000 -1.000000
vn 0.000000 0.000000 -1.000000
vn 0.000000 0.000000 -1.000000
vn 0.000000 -1.000000 0.000000
vn 0.000000 -1.000000 0.000000
vn 0.000000 -1.000000 0.000000
vn 0.000000 -1.000000 0.000000
vn 1.000000 0.000000 0.000000
vn 1.000000 0.000000 0.000000
vn 1.000000 0.000000 0.000000
vn 1.000000 0.000000 0.000000
vn -1.000000 0.000000 0.000000
vn -1.000000 0.000000 0.000000
vn -1.000000 0.000000 0.000000
vn -1.000000 0.000000 0.000000
vn 0.000000 0.000000 1.000000
vn 0.000000 0.000000 1.000000
vn 0.000000 0.000000 1.000000
vn 0.000000 0.000000 1.000000
vn 0.000000 1.000000 0.000000
vn 0.000000 1.000000 0.000000
vn 0.000000 1.000000 0.000000
vn 0.000000 1.000000 0.000000
vn 0.000000 0.000000 -1.000000
vn 0.000000 0.000000 -1.000000
vn 0.000000 0.000000 -1.000000
vn 0.000000 0.000000 -1.000000
vn 0.000000 -1.000000 0.000000
vn 0.000000 -1.000000 0.000000
vn 0.000000 -1.000000 0.000000
vn 0.000000 -1.000000 0.000000
vn 1.000000 0.000000 0.000000
vn 1.000000 0.000000 0.000000
vn 1.000000 0.000000 0.000000
vn 1.000000 0.000000 0.000000
vn -1.000000 0.000000 0.000000
vn -1.000000 0.000000 0.000000
vn -1.000000 0.000000 0.000000
vn -1.000000 0.000000 0.000000
vn 0.000000 0.000000 1.000000
vn 0.000000 0.000000 1.000000
vn 0.000000 0.000000 1.000000
vn 0.000000 0.000000 1.000000
vn 0.000000 1.000000 0.000000
vn 0.000000 1.000000 0.000000
vn 0.000000 1.000000 0.000000
vn 0.000000 1.000000 0.000000
vn 0.000000 0.000000 -1.000000
vn 0.000000 0.000000 -1.000000
vn 0.000000 0.000000 -1.000000
vn 0.000000 0.000000 -1.000000
vn 0.000000 -1.000000 0.000000
vn 0.000000 -1.000000 0.000000
vn 0.000000 -1.000000 0.000000
vn 0.000000 -1.000000 0.000000
vn 1.000000 0.000000 0.000000
vn 1.000000 0.000000 0.000000
vn 1.000000 0.000000 0.000000
vn 1.000000 0.000000 0.000000
vn -1.000000 0.000000 0.000000
vn -1.000000 0.000000 0.000000
vn -1.000000 0.000000 0.000000
vn -1.000000 0.000000 0.000000
vn 0.000000 0.000000 1.000000
vn 0.000000 0.000000 1.000000
vn 0.000000 0.000000 1.000000
vn 0.000000 0.000000 1.000000
vn 0.000000 1.000000 0.000000
vn 0.000000 1.000000 0.000000
vn 0.000000 1.000000 0.000000
vn 0.000000 1.000000 0.000000
vn 0.000000 0.000000 -1.000000
vn 0.000000 0.000000 -1.000000
vn 0.000000 0.000000 -1.000000
vn 0.000000 0.000000 -1.000000
vn 0.000000 -1.000000 0.000000
vn 0.000000 -1.000000 0.000000
vn 0.000000 -1.000000 0.000000
vn 0.000000 -1.000000 0.000000
vn 1.000000 0.000000 0.000000
vn 1.000000 0.000000 0.000000
vn 1.000000 0.000000 0.000000
vn 1.000000 0.000000 0.000000
vn -1.000000 0.000000 0.000000
vn -1.000000 0.000000 0.000000
vn -1.000000 0.000000 0.000000
vn -1.000000 0.000000 0.000000
vn 0.000000 0.000000 1.000000
vn 0.000000 0.000000 1.000000
vn 0.000000 0.000000 1.000000
vn 0.000000 0.000000 1.000000
vn 0.000000 1.000000 0.000000
vn 0.000000 1.000000 0.000000
vn 0.000000 1.000000 0.000000
vn 0.000000 1.000000 0.000000
vn 0.000000 0.000000 -1.000000
vn 0.000000 0.000000 -1.000000
vn 0.000000 0.000000 -1.000000
vn 0.000000 0.000000 -1.000000
vn 0.000000 -1.000000 0.000000
vn 0.000000 -1.000000 0.000000
vn 0.000000 -1.000000 0.000000
vn 0.000000 -1.000000 0.000000
vn 1.000000 0.000000 0.000000
vn 1.000000 0.000000 0.000000
vn 1.000000 0.000000 0.000000
vn 1.000000 0.000000 0.000000
vn -1.000000 0.000000 0.000000
vn -1.000000 0.000000 0.000000
vn -1.000000 0.000000 0.000000
vn -1.000000 0.000000 0.000000
vn 0.000000 0.000000 1.000000
vn 0.000000 0.000000 1.000000
vn 0.000000 0.000000 1.000000
vn 0.000000 0.000000 1.000000
vn 0.000000 1.000000 0.000000
vn 0.000000 1.000000 0.000000
vn 0.000000 1.000000 0.000000
vn 0.000000 1.000000 0.000000
vn 0.000000 0.000000 -1.000000
vn 0.000000 0.000000 -1.000000
vn 0.000000 0.000000 -1.000000
vn 0.000000 0.000000 -1.000000
vn 0.000000 -1.000000 0.000000
vn 0.000000 -1.000000 0.000000
vn 0.000000 -1.000000 0.000000
vn 0.000000 -1.000000 0.000000
vn 1.000000 0.000000 0.000000
vn 1.000000 0.000000 0.000000
vn 1.000000 0.000000 0.000000
vn 1.000000 0.000000 0.000000
vn -1.000000 0.000000 0.000000
vn -1.000000 0.000000 0.000000
vn -1.000000 0.000000 0.000000
vn -1.000000 0.000000 0.000000
vn 0.000000 0.000000 1.000000
vn 0.000000 0.000000 1.000000
vn 0.000000 0.000000 1.000000
vn 0.000000 0.000000 1.000000
vn 0.000000 1.000000 0.000000
vn 0.000000 1.000000 0.000000
vn 0.000000 1.000000 0.000000
vn 0.000000 1.000000 0.000000
vn 0.000000 0.000000 -1.000000
vn 0.000000 0.000000 -1.000000
vn 0.000000 0.000000 -1.000000
vn 0.000000 0.000000 -1.000000
vn 0.000000 -1.000000 0.000000
vn 0.000000 -1.000000 0.000000
vn 0.000000 -1.000000 0.000000
vn 0.000000 -1.000000 0.000000
vn 1.000000 0.000000 0.000000
vn 1.000000 0.000000 0.000000
vn 1.000000 0.000000 0.000000
vn 1.000000 0.000000 0.000000
vn -1.000000 0.000000 0.000000
vn -1.000000 0.000000 0.000000
vn -1.000000 0.000000 0.000000
vn -1.000000 0.000000 0.000000
vn 0.000000 0.000000 1.000000
vn 0.000000 0.000000 1.000000
vn 0.000000 0.000000 1.000000
vn 0.000000 0.000000 1.000000
vn 0.000000 1.000000 0.000000
vn 0.000000 1.000000 0.000000
vn 0.000000 1.000000 0.000000
vn 0.000000 1.000000 0.000000
vn 0.000000 0.000000 -1.000000
vn 0.000000 0.000000 -1.000000
vn 0.000000 0.000000 -1.000000
vn 0.000000 0.000000 -1.000000
vn 0.000000 -1.000000 0.000000
vn 0.000000 -1.000000 0.000000
vn 0.000000 -1.000000 0.000000
vn 0.000000 -1.000000 0.000000
vn 1.000000 0.000000 0.000000
vn 1.000000 0.000000 0.000000
vn 1.000000 0.000000 0.000000
vn 1.000000 0.000000 0.000000
vn -1.000000 0.000000 0.000000
vn -1.000000 0.000000 0.000000
vn -1.000000 0.000000 0.000000
vn -1.000000 0.000000 0.000000
s off
g Boys_Shelves_02
usemtl initialShadingGroup
f 1/145/1 2/146/2 4/147/3 3/148/4
f 3/73/5 4/74/6 6/75/7 5/76/8
f 5/149/9 6/150/10 8/151/11 7/152/12
f 7/77/13 8/78/14 2/79/15 1/80/16
f 2/1/17 8/2/18 6/3/19 4/4/20
f 7/5/21 1/6/22 3/7/23 5/8/24
f 9/153/25 10/154/26 12/155/27 11/156/28
f 11/81/29 12/82/30 14/83/31 13/84/32
f 13/157/33 14/158/34 16/159/35 15/160/36
f 15/85/37 16/86/38 10/87/39 9/88/40
f 10/9/41 16/10/42 14/11/43 12/12/44
f 15/13/45 9/14/46 11/15/47 13/16/48
f 17/161/49 18/162/50 20/163/51 19/164/52
f 19/89/53 20/90/54 22/91/55 21/92/56
f 21/165/57 22/166/58 24/167/59 23/168/60
f 23/93/61 24/94/62 18/95/63 17/96/64
f 18/17/65 24/18/66 22/19/67 20/20/68
f 23/21/69 17/22/70 19/23/71 21/24/72
f 25/169/73 26/170/74 28/171/75 27/172/76
f 27/97/77 28/98/78 30/99/79 29/100/80
f 29/173/81 30/174/82 32/175/83 31/176/84
f 31/101/85 32/102/86 26/103/87 25/104/88
f 26/25/89 32/26/90 30/27/91 28/28/92
f 31/29/93 25/30/94 27/31/95 29/32/96
f 33/177/97 34/178/98 36/179/99 35/180/100
f 35/105/101 36/106/102 38/107/103 37/108/104
f 37/181/105 38/182/106 40/183/107 39/184/108
f 39/109/109 40/110/110 34/111/111 33/112/112
f 34/33/113 40/34/114 38/35/115 36/36/116
f 39/37/117 33/38/118 35/39/119 37/40/120
f 41/185/121 42/186/122 44/187/123 43/188/124
f 43/113/125 44/114/126 46/115/127 45/116/128
f 45/189/129 46/190/130 48/191/131 47/192/132
f 47/117/133 48/118/134 42/119/135 41/120/136
f 42/41/137 48/42/138 46/43/139 44/44/140
f 47/45/141 41/46/142 43/47/143 45/48/144
f 49/193/145 50/194/146 52/195/147 51/196/148
f 51/121/149 52/122/150 54/123/151 53/124/152
f 53/197/153 54/198/154 56/199/155 55/200/156
f 55/125/157 56/126/158 50/127/159 49/128/160
f 50/49/161 56/50/162 54/51/163 52/52/164
f 55/53/165 49/54/166 51/55/167 53/56/168
f 57/201/169 58/202/170 60/203/171 59/204/172
f 59/129/173 60/130/174 62/131/175 61/132/176
f 61/205/177 62/206/178 64/207/179 63/208/180
f 63/133/181 64/134/182 58/135/183 57/136/184
f 58/57/185 64/58/186 62/59/187 60/60/188
f 63/61/189 57/62/190 59/63/191 61/64/192
f 65/209/193 66/210/194 68/211/195 67/212/196
f 67/137/197 68/138/198 70/139/199 69/140/200
f 69/213/201 70/214/202 72/215/203 71/216/204
f 71/141/205 72/142/206 66/143/207 65/144/208
f 66/65/209 72/66/210 70/67/211 68/68/212
f 71/69/213 65/70/214 67/71/215 69/72/216
