# This file uses meters as units for non-parametric coordinates.

mtllib Boys_Plate1_01_0201.mtl
g default
v -5.817167 0.000000 8.683324
v -6.182833 0.000000 8.683324
v -6.365666 0.000000 9.000000
v -6.182833 0.000000 9.316676
v -5.817167 0.000000 9.316676
v -5.634334 0.000000 9.000000
v -5.780139 0.052847 8.619190
v -6.219861 0.052847 8.619190
v -6.439722 0.052847 9.000000
v -6.219861 0.052847 9.380810
v -5.780139 0.052847 9.380810
v -5.560278 0.052847 9.000000
v -6.000000 0.000000 9.000000
v -5.833785 0.033340 8.712107
v -6.166215 0.033340 8.712107
v -6.000000 0.016970 9.000000
v -6.332430 0.033340 9.000000
v -6.166215 0.033340 9.287893
v -5.833785 0.033340 9.287893
v -5.667570 0.033340 9.000000
vt 0.771991 0.928994
vt 0.771991 0.703301
vt 0.976004 0.703301
vt 0.976004 0.974702
vt 0.771991 0.477607
vt 0.976004 0.431900
vt 0.523321 0.954292
vt 0.523321 0.728599
vt 0.727334 0.728599
vt 0.727334 1.000000
vt 0.523321 0.502906
vt 0.727334 0.457198
vt 0.560436 0.359357
vt 0.560436 0.119786
vt 0.767911 0.239572
vt 0.767911 0.000000
vt 0.767911 0.479143
vt 0.975386 0.119786
vt 0.975386 0.359357
vt 0.489208 0.200091
vt 0.489208 0.443289
vt 0.278592 0.321690
vt 0.557184 0.160845
vt 0.557184 0.482535
vt 0.278592 0.564888
vt 0.278592 0.078492
vt 0.278592 0.643380
vt 0.278592 0.000000
vt 0.067976 0.443289
vt 0.067976 0.200091
vt 0.000000 0.482535
vt 0.000000 0.160845
vt 0.382853 0.657234
vt 0.382853 0.899757
vt 0.192998 0.924315
vt 0.192998 0.632675
vt 0.000000 0.861035
vt 0.000000 0.618512
vt 0.189855 0.593954
vt 0.189855 0.885593
vn 0.000000 -0.771750 -0.635926
vn 0.000000 -0.771750 -0.635926
vn 0.000000 -0.771750 -0.635926
vn 0.000000 -0.771750 -0.635926
vn -0.550728 -0.771750 -0.317963
vn -0.550728 -0.771750 -0.317963
vn -0.550728 -0.771750 -0.317963
vn -0.550728 -0.771750 -0.317963
vn -0.550728 -0.771750 0.317963
vn -0.550728 -0.771750 0.317963
vn -0.550728 -0.771750 0.317963
vn -0.550728 -0.771750 0.317963
vn 0.000000 -0.771750 0.635926
vn 0.000000 -0.771750 0.635926
vn 0.000000 -0.771750 0.635926
vn 0.000000 -0.771750 0.635926
vn 0.550728 -0.771750 0.317963
vn 0.550728 -0.771750 0.317963
vn 0.550728 -0.771750 0.317963
vn 0.550728 -0.771750 0.317963
vn 0.550728 -0.771750 -0.317963
vn 0.550728 -0.771750 -0.317963
vn 0.550728 -0.771750 -0.317963
vn 0.550728 -0.771750 -0.317963
vn 0.000000 -1.000000 0.000000
vn 0.000000 -1.000000 0.000000
vn 0.000000 -1.000000 0.000000
vn 0.000000 -1.000000 0.000000
vn 0.000000 -1.000000 0.000000
vn 0.000000 -1.000000 0.000000
vn 0.000000 -1.000000 0.000000
vn -0.024592 0.998790 0.042594
vn 0.024592 0.998790 0.042594
vn 0.000000 1.000000 -0.000000
vn 0.049183 0.998790 0.000000
vn 0.024592 0.998790 -0.042594
vn -0.024592 0.998790 -0.042594
vn -0.049183 0.998790 -0.000000
vn -0.000000 0.978666 0.205459
vn -0.000000 0.978666 0.205459
vn -0.000000 0.978666 0.205459
vn -0.000000 0.978666 0.205459
vn 0.177933 0.978666 0.102730
vn 0.177933 0.978666 0.102730
vn 0.177933 0.978666 0.102730
vn 0.177933 0.978666 0.102730
vn 0.177933 0.978666 -0.102729
vn 0.177933 0.978666 -0.102729
vn 0.177933 0.978666 -0.102729
vn 0.177933 0.978666 -0.102729
vn 0.000000 0.978666 -0.205459
vn 0.000000 0.978666 -0.205459
vn 0.000000 0.978666 -0.205459
vn 0.000000 0.978666 -0.205459
vn -0.177933 0.978666 -0.102730
vn -0.177933 0.978666 -0.102730
vn -0.177933 0.978666 -0.102730
vn -0.177933 0.978666 -0.102730
vn -0.177933 0.978666 0.102729
vn -0.177933 0.978666 0.102729
vn -0.177933 0.978666 0.102729
vn -0.177933 0.978666 0.102729
s off
g Plate_1
usemtl aiStandardSurface1SG
f 1/33/1 2/34/2 8/35/3 7/36/4
f 2/1/5 3/2/6 9/3/7 8/4/8
f 3/2/9 4/5/10 10/6/11 9/3/12
f 4/37/13 5/38/14 11/39/15 10/40/16
f 5/7/17 6/8/18 12/9/19 11/10/20
f 6/8/21 1/11/22 7/12/23 12/9/24
s 1
f 2/13/25 1/14/26 13/15/27
f 3/17/28 2/13/25 13/15/27
f 4/19/29 3/17/28 13/15/27
f 5/18/30 4/19/29 13/15/27
f 6/16/31 5/18/30 13/15/27
f 1/14/26 6/16/31 13/15/27
s 2
f 14/20/32 15/21/33 16/22/34
f 15/21/33 17/25/35 16/22/34
f 17/25/35 18/29/36 16/22/34
f 18/29/36 19/30/37 16/22/34
f 19/30/37 20/26/38 16/22/34
f 20/26/38 14/20/32 16/22/34
s off
f 7/23/39 8/24/40 15/21/41 14/20/42
f 8/24/43 9/27/44 17/25/45 15/21/46
f 9/27/47 10/31/48 18/29/49 17/25/50
f 10/31/51 11/32/52 19/30/53 18/29/54
f 11/32/55 12/28/56 20/26/57 19/30/58
f 12/28/59 7/23/60 14/20/61 20/26/62
