# This file uses centimeters as units for non-parametric coordinates.

mtllib Boys_TableLampB_02_0201.mtl
g default
v 2.594899 0.000000 -4.494493
v -2.594896 0.000000 -4.494495
v -5.189795 0.000000 -0.000001
v -2.594898 0.000000 4.494494
v 2.594897 0.000000 4.494494
v 5.189795 0.000000 -0.000000
v 2.511193 37.500000 -4.349512
v -2.511192 37.500000 -4.349512
v -5.022385 37.500000 -0.000001
v -2.511193 37.500000 4.349512
v 2.511192 37.500000 4.349512
v 5.022385 37.500000 -0.000000
v 0.000000 0.000000 0.000000
v -3.515604 18.573498 -6.089207
v 3.515607 18.573498 -6.089206
v 7.031211 18.573498 0.000000
v 3.515605 18.573498 6.089207
v -3.515606 18.573498 6.089207
v -7.031211 18.573498 -0.000001
v -0.892971 23.063196 -1.546671
v 0.892971 23.063196 -1.546671
v 1.785942 23.063196 -0.000000
v 0.892971 23.063196 1.546671
v -0.892971 23.063196 1.546671
v -1.785942 23.063196 -0.000000
v -0.948772 18.703028 -1.643322
v 0.948772 18.703028 -1.643321
v 1.897544 18.703028 -0.000000
v 0.948772 18.703028 1.643321
v -0.948772 18.703028 1.643321
v -1.897544 18.703028 -0.000001
v -1.674181 16.882519 -2.899768
v 1.674181 16.882519 -2.899767
v 3.348362 16.882519 0.000000
v 1.674181 16.882519 2.899767
v -1.674181 16.882519 2.899767
v -3.348363 16.882519 -0.000001
v -1.004572 14.089705 -1.739972
v 1.004573 14.089705 -1.739971
v 2.009145 14.089705 -0.000000
v 1.004573 14.089705 1.739971
v -1.004573 14.089705 1.739971
v -2.009145 14.089705 -0.000001
v -1.262592 10.895813 -2.186874
v 1.262593 10.895813 -2.186874
v 2.525185 10.895813 -0.000000
v 1.262592 10.895813 2.186873
v -1.262593 10.895813 2.186873
v -2.525185 10.895813 -0.000001
v -3.124999 8.454393 -5.412660
v 3.125001 8.454393 -5.412659
v 6.250000 8.454393 -0.000000
v 3.125000 8.454393 5.412659
v -3.125001 8.454393 5.412659
v -6.250000 8.454393 -0.000001
v -3.658935 18.603926 -6.337465
v 3.658939 18.603924 -6.337463
v -2.654523 37.530426 -4.597769
v 2.654525 37.530426 -4.597769
v 7.317874 18.603922 0.000000
v 5.309048 37.530426 -0.000000
v 3.658937 18.603924 6.337464
v 2.654523 37.530426 4.597769
v -3.658938 18.603924 6.337464
v -2.654525 37.530426 4.597769
v -7.317873 18.603924 -0.000001
v -5.309048 37.530422 -0.000001
v 2.511193 34.568626 -4.349513
v -2.511192 34.568626 -4.349514
v 0.000000 34.568630 0.000000
v -5.022385 34.568626 -0.000002
v -2.511193 34.568626 4.349514
v 2.511192 34.568626 4.349514
v 5.022385 34.568626 -0.000000
vt 0.239944 -0.000000
vt 0.340290 0.001310
vt 0.337121 0.159121
vt 0.223990 0.166537
vt 0.443389 0.003434
vt 0.447558 0.174779
vt 0.334279 0.235964
vt 0.283018 0.243550
vt 0.384087 0.244620
vt 0.332700 0.301584
vt 0.293592 0.301146
vt 0.372770 0.302599
vt 0.331009 0.358889
vt 0.272271 0.358016
vt 0.389847 0.362833
vt 0.329694 0.400394
vt 0.292090 0.402209
vt 0.366907 0.403664
vt 0.327418 0.485036
vt 0.293402 0.484867
vt 0.361692 0.486876
vt 0.015955 0.000000
vt 0.116300 0.001310
vt 0.113131 0.159121
vt 0.000000 0.166537
vt 0.219399 0.003434
vt 0.223568 0.174779
vt 0.110289 0.235964
vt 0.059029 0.243550
vt 0.160098 0.244620
vt 0.108711 0.301584
vt 0.069602 0.301146
vt 0.148780 0.302599
vt 0.107019 0.358889
vt 0.048282 0.358016
vt 0.165857 0.362833
vt 0.105704 0.400394
vt 0.068100 0.402209
vt 0.142917 0.403664
vt 0.103428 0.485036
vt 0.069412 0.484867
vt 0.137702 0.486876
vt 0.576340 0.361805
vt 0.714915 0.371556
vt 0.670020 0.730323
vt 0.569294 0.723368
vt 0.437480 0.366033
vt 0.468385 0.726523
vt 0.583340 0.000000
vt 0.721915 0.009751
vt 0.677020 0.368518
vt 0.576294 0.361563
vt 0.444480 0.004228
vt 0.475385 0.364718
vt 0.056259 0.470614
vt 0.056823 0.566038
vt 0.001127 0.566367
vt 0.000564 0.470943
vt 0.055695 0.375191
vt 0.000000 0.375520
vt 0.251658 0.203420
vt 0.254745 0.298795
vt 0.199078 0.300597
vt 0.195991 0.205222
vt 0.257832 0.394171
vt 0.202165 0.395972
vt 0.293987 0.822827
vt 0.293987 0.724221
vt 0.379382 0.773524
vt 0.379382 0.674918
vt 0.379382 0.872130
vt 0.464777 0.724221
vt 0.464777 0.822827
vt 0.630760 0.771808
vt 0.630760 0.867234
vt 0.548119 0.819521
vt 0.548119 0.914946
vt 0.548119 0.724096
vt 0.465479 0.867234
vt 0.465479 0.771808
vt 0.081975 0.528219
vt 0.083766 0.684117
vt 0.078849 0.687027
vt 0.076996 0.525415
vt 0.191287 0.587556
vt 0.189810 0.619118
vt 0.219674 0.760515
vt 0.219735 0.766228
vt 0.216090 0.448718
vt 0.216030 0.443005
vt 0.216405 0.636179
vt 0.219360 0.573054
vt 0.353790 0.681014
vt 0.358768 0.683818
vt 0.351998 0.525116
vt 0.356916 0.522207
vt 0.244477 0.621677
vt 0.245955 0.590115
vt 0.170037 0.842435
vt 0.170053 0.747006
vt 0.174801 0.744265
vt 0.174784 0.845177
vt 0.087417 0.699276
vt 0.087418 0.693794
vt 0.087384 0.890135
vt 0.087383 0.895617
vt 0.004764 0.746976
vt 0.000017 0.744235
vt 0.004748 0.842406
vt 0.000000 0.845146
vt 0.856001 0.792894
vt 0.757444 0.789789
vt 0.752466 0.627974
vt 0.871157 0.631714
vt 0.790254 0.552262
vt 0.838209 0.553773
vt 0.797084 0.491172
vt 0.835239 0.492374
vt 0.786177 0.433343
vt 0.849764 0.435346
vt 0.801277 0.391770
vt 0.837312 0.392905
vt 0.804946 0.308981
vt 0.838862 0.310049
vt 0.711623 0.116648
vt 0.810180 0.119753
vt 0.815159 0.281568
vt 0.696468 0.277828
vt 0.777370 0.357280
vt 0.729416 0.355769
vt 0.770541 0.418370
vt 0.732386 0.417168
vt 0.781448 0.476200
vt 0.717860 0.474196
vt 0.766348 0.517772
vt 0.730313 0.516637
vt 0.762679 0.600561
vt 0.728763 0.599493
vt 0.979001 0.361194
vt 0.839962 0.361107
vt 0.859273 0.000000
vt 0.960145 0.000064
vt 0.860961 0.361122
vt 1.000000 0.361210
vt 0.980688 0.722317
vt 0.879817 0.722253
vt 0.836160 0.000000
vt 0.836160 0.095425
vt 0.780464 0.095425
vt 0.780464 0.000000
vt 0.724467 0.095425
vt 0.724467 0.000000
vt 0.780163 0.000000
vt 0.780163 0.095425
vn 0.000000 -0.107967 -0.994155
vn 0.000000 -0.107967 -0.994155
vn 0.000000 0.095889 -0.995392
vn 0.000000 0.095889 -0.995392
vn -0.860963 -0.107967 -0.497077
vn -0.860963 -0.107967 -0.497077
vn -0.862035 0.095889 -0.497696
vn -0.862035 0.095889 -0.497696
vn -0.860963 -0.107967 0.497077
vn -0.860963 -0.107967 0.497077
vn -0.862035 0.095889 0.497696
vn -0.862035 0.095889 0.497696
vn -0.000000 -0.107967 0.994155
vn -0.000000 -0.107967 0.994155
vn -0.000000 0.095889 0.995392
vn -0.000000 0.095889 0.995392
vn 0.860963 -0.107967 0.497077
vn 0.860963 -0.107967 0.497077
vn 0.862035 0.095889 0.497696
vn 0.862035 0.095889 0.497696
vn 0.860963 -0.107967 -0.497077
vn 0.860963 -0.107967 -0.497077
vn 0.862035 0.095889 -0.497696
vn 0.862035 0.095889 -0.497696
vn 0.000000 -1.000000 0.000000
vn 0.000000 -1.000000 0.000000
vn 0.000000 -1.000000 -0.000000
vn 0.000000 -1.000000 -0.000000
vn 0.000000 -1.000000 -0.000000
vn 0.000000 -1.000000 0.000000
vn 0.000000 -1.000000 0.000000
vn 0.000000 1.000000 -0.000000
vn -0.000000 1.000000 -0.000001
vn -0.000000 1.000000 -0.000000
vn -0.000001 1.000000 -0.000000
vn -0.000000 1.000000 0.000000
vn 0.000000 1.000000 0.000000
vn 0.000001 1.000000 0.000000
vn 0.000000 0.091533 -0.995802
vn 0.000000 0.091533 -0.995802
vn 0.000000 0.091533 -0.995802
vn 0.000000 0.091533 -0.995802
vn 0.862390 0.091533 -0.497901
vn 0.862390 0.091533 -0.497901
vn 0.862390 0.091533 -0.497901
vn 0.862390 0.091533 -0.497901
vn 0.862390 0.091533 0.497901
vn 0.862390 0.091533 0.497901
vn 0.862390 0.091533 0.497901
vn 0.862390 0.091533 0.497901
vn 0.000000 0.091533 0.995802
vn 0.000000 0.091533 0.995802
vn 0.000000 0.091533 0.995802
vn 0.000000 0.091533 0.995802
vn -0.862390 0.091533 0.497901
vn -0.862390 0.091533 0.497901
vn -0.862390 0.091533 0.497901
vn -0.862390 0.091533 0.497901
vn -0.862390 0.091533 -0.497901
vn -0.862390 0.091533 -0.497901
vn -0.862390 0.091533 -0.497901
vn -0.862390 0.091533 -0.497901
vn -0.000000 -0.831053 0.556193
vn -0.000000 -0.831054 0.556193
vn -0.000000 -0.711231 0.702958
vn -0.000000 -0.711231 0.702958
vn -0.481677 -0.831054 0.278096
vn -0.481677 -0.831053 0.278096
vn -0.608780 -0.711231 0.351479
vn -0.608780 -0.711231 0.351479
vn -0.481677 -0.831054 -0.278096
vn -0.481677 -0.831054 -0.278096
vn -0.608780 -0.711231 -0.351479
vn -0.608780 -0.711231 -0.351479
vn 0.000000 -0.831054 -0.556193
vn 0.000000 -0.831053 -0.556192
vn 0.000000 -0.711231 -0.702958
vn 0.000000 -0.711231 -0.702958
vn 0.481677 -0.831053 -0.278096
vn 0.481677 -0.831054 -0.278096
vn 0.608780 -0.711231 -0.351479
vn 0.608780 -0.711231 -0.351479
vn 0.481677 -0.831054 0.278096
vn 0.481677 -0.831054 0.278096
vn 0.608780 -0.711231 0.351479
vn 0.608780 -0.711231 0.351479
vn 0.000000 0.289014 -0.957325
vn 0.000000 0.289014 -0.957325
vn 0.829068 0.289014 -0.478662
vn 0.829068 0.289014 -0.478662
vn 0.829068 0.289014 0.478662
vn 0.829068 0.289014 0.478662
vn 0.000000 0.289014 0.957325
vn 0.000000 0.289014 0.957325
vn -0.829068 0.289014 0.478662
vn -0.829068 0.289014 0.478662
vn -0.829068 0.289014 -0.478663
vn -0.829068 0.289014 -0.478663
vn 0.000000 -0.004394 -0.999990
vn 0.000000 -0.004394 -0.999990
vn 0.866017 -0.004395 -0.499995
vn 0.866017 -0.004395 -0.499995
vn 0.866017 -0.004395 0.499995
vn 0.866017 -0.004394 0.499995
vn 0.000000 -0.004394 0.999990
vn 0.000000 -0.004394 0.999990
vn -0.866017 -0.004395 0.499995
vn -0.866017 -0.004395 0.499995
vn -0.866017 -0.004395 -0.499995
vn -0.866017 -0.004394 -0.499995
vn 0.000000 -0.151569 -0.988447
vn 0.000000 -0.151569 -0.988447
vn 0.856020 -0.151569 -0.494223
vn 0.856020 -0.151569 -0.494223
vn 0.856020 -0.151569 0.494223
vn 0.856020 -0.151569 0.494223
vn 0.000000 -0.151569 0.988447
vn 0.000000 -0.151569 0.988447
vn -0.856020 -0.151569 0.494223
vn -0.856020 -0.151569 0.494223
vn -0.856020 -0.151569 -0.494224
vn -0.856020 -0.151569 -0.494224
vn 0.000000 0.679329 -0.733834
vn 0.000000 0.679329 -0.733834
vn 0.635518 0.679329 -0.366917
vn 0.635518 0.679329 -0.366917
vn 0.635519 0.679329 0.366917
vn 0.635519 0.679329 0.366917
vn -0.000000 0.679329 0.733833
vn -0.000000 0.679329 0.733834
vn -0.635519 0.679329 0.366917
vn -0.635519 0.679329 0.366917
vn -0.635519 0.679329 -0.366917
vn -0.635519 0.679329 -0.366917
vn 0.052771 -0.994415 -0.091406
vn -0.052775 -0.994414 -0.091408
vn -0.052774 -0.994414 -0.091408
vn 0.052771 -0.994415 -0.091406
vn 0.052770 0.994415 0.091403
vn -0.052773 0.994415 0.091405
vn -0.052773 0.994415 0.091405
vn 0.052769 0.994415 0.091403
vn 0.105542 -0.994415 0.000000
vn 0.105542 -0.994415 0.000000
vn -0.105546 0.994414 0.000000
vn -0.105546 0.994415 0.000000
vn 0.052771 -0.994415 0.091405
vn 0.052771 -0.994415 0.091404
vn -0.052773 0.994415 -0.091402
vn -0.052773 0.994415 -0.091402
vn -0.052773 -0.994415 0.091405
vn -0.052773 -0.994415 0.091405
vn 0.052770 0.994415 -0.091400
vn 0.052770 0.994415 -0.091399
vn -0.105548 -0.994414 -0.000001
vn -0.105548 -0.994414 -0.000001
vn 0.105539 0.994415 0.000001
vn 0.105539 0.994415 0.000001
vn -0.000000 -0.000000 1.000000
vn -0.000000 -0.000000 1.000000
vn -0.000000 -0.000000 1.000000
vn -0.000000 -0.000000 1.000000
vn 0.866025 -0.000000 0.500000
vn 0.866025 -0.000000 0.500000
vn 0.866025 -0.000000 0.500000
vn 0.866025 -0.000000 0.500000
vn 0.866026 -0.000000 -0.500000
vn 0.866026 -0.000000 -0.500000
vn 0.866026 -0.000000 -0.500000
vn 0.866026 -0.000000 -0.500000
vn -0.000000 -0.000001 -1.000000
vn -0.000000 -0.000001 -1.000000
vn -0.000000 -0.000001 -1.000000
vn -0.000000 -0.000001 -1.000000
vn -0.866026 -0.000000 -0.500000
vn -0.866026 -0.000000 -0.500000
vn -0.866026 -0.000000 -0.500000
vn -0.866026 -0.000000 -0.500000
vn -0.866025 -0.000000 0.500000
vn -0.866025 -0.000000 0.500000
vn -0.866025 -0.000000 0.500000
vn -0.866025 -0.000000 0.500000
s 1
g Boys_TableLampB_02
usemtl initialShadingGroup
f 1/111/1 2/112/2 50/113/3 51/114/4
s 2
f 2/1/5 3/2/6 55/3/7 50/4/8
s 3
f 3/2/9 4/5/10 54/6/11 55/3/12
s 4
f 4/125/13 5/126/14 53/127/15 54/128/16
s 5
f 5/22/17 6/23/18 52/24/19 53/25/20
s 6
f 6/23/21 1/26/22 51/27/23 52/24/24
s 7
f 2/67/25 1/68/26 13/69/27
f 3/71/28 2/67/25 13/69/27
f 4/73/29 3/71/28 13/69/27
f 5/72/30 4/73/29 13/69/27
f 6/70/31 5/72/30 13/69/27
f 1/68/26 6/70/31 13/69/27
s 8
f 68/74/32 69/75/33 70/76/34
f 69/75/33 71/77/35 70/76/34
f 71/77/35 72/79/36 70/76/34
f 72/79/36 73/80/37 70/76/34
f 73/80/37 74/78/38 70/76/34
f 74/78/38 68/74/32 70/76/34
s off
f 57/139/39 56/140/40 58/141/41 59/142/42
f 60/43/43 57/44/44 59/45/45 61/46/46
f 62/47/47 60/43/48 61/46/49 63/48/50
f 64/143/51 62/144/52 63/145/53 65/146/54
f 66/49/55 64/50/56 65/51/57 67/52/58
f 56/53/59 66/49/60 67/52/61 58/54/62
s 1
f 21/85/63 20/86/64 14/82/65 15/81/66
s 6
f 22/92/67 21/85/68 15/81/69 16/89/70
s 5
f 23/98/71 22/92/72 16/89/73 17/95/74
s 4
f 24/97/75 23/98/76 17/95/77 18/93/78
s 3
f 25/91/79 24/97/80 18/93/81 19/87/82
s 2
f 20/86/83 25/91/84 19/87/85 14/82/86
s 1
f 27/122/87 26/121/88 20/123/64 21/124/63
s 6
f 28/37/89 27/39/90 21/42/68 22/40/67
s 5
f 29/38/91 28/37/92 22/40/72 23/41/71
s 4
f 30/136/93 29/135/94 23/137/76 24/138/75
s 3
f 31/16/95 30/18/96 24/21/80 25/19/79
s 2
f 26/17/97 31/16/98 25/19/84 20/20/83
s 1
f 33/120/99 32/119/100 26/121/88 27/122/87
s 6
f 34/34/101 33/36/102 27/39/90 28/37/89
s 5
f 35/35/103 34/34/104 28/37/92 29/38/91
s 4
f 36/134/105 35/133/106 29/135/94 30/136/93
s 3
f 37/13/107 36/15/108 30/18/96 31/16/95
s 2
f 32/14/109 37/13/110 31/16/98 26/17/97
s 1
f 39/118/111 38/117/112 32/119/100 33/120/99
s 6
f 40/31/113 39/33/114 33/36/102 34/34/101
s 5
f 41/32/115 40/31/116 34/34/104 35/35/103
s 4
f 42/132/117 41/131/118 35/133/106 36/134/105
s 3
f 43/10/119 42/12/120 36/15/108 37/13/107
s 2
f 38/11/121 43/10/122 37/13/110 32/14/109
s 1
f 45/116/123 44/115/124 38/117/112 39/118/111
s 6
f 46/28/125 45/30/126 39/33/114 40/31/113
s 5
f 47/29/127 46/28/128 40/31/116 41/32/115
s 4
f 48/130/129 47/129/130 41/131/118 42/132/117
s 3
f 49/7/131 48/9/132 42/12/120 43/10/119
s 2
f 44/8/133 49/7/134 43/10/122 38/11/121
s 1
f 51/114/4 50/113/3 44/115/124 45/116/123
s 6
f 52/24/24 51/27/23 45/30/126 46/28/125
s 5
f 53/25/20 52/24/19 46/28/128 47/29/127
s 4
f 54/128/16 53/127/15 47/129/130 48/130/129
s 3
f 55/3/12 54/6/11 48/9/132 49/7/131
s 2
f 50/4/8 55/3/7 49/7/134 44/8/133
s 15
f 15/81/135 14/82/136 56/83/137 57/84/138
s 16
f 8/99/139 7/100/140 59/101/141 58/102/142
s 15
f 16/89/143 15/81/135 57/84/138 60/90/144
s 16
f 7/100/140 12/103/145 61/104/146 59/101/141
s 15
f 17/95/147 16/89/143 60/90/144 62/96/148
s 16
f 12/103/145 11/107/149 63/108/150 61/104/146
s 15
f 18/93/151 17/95/147 62/96/148 64/94/152
s 16
f 11/107/149 10/109/153 65/110/154 63/108/150
s 15
f 19/87/155 18/93/151 64/94/152 66/88/156
s 16
f 10/109/153 9/105/157 67/106/158 65/110/154
s 15
f 14/82/136 19/87/155 66/88/156 56/83/137
s 16
f 9/105/157 8/99/139 58/102/142 67/106/158
s off
f 7/147/159 8/148/160 69/149/161 68/150/162
f 8/59/163 9/55/164 71/58/165 69/60/166
f 9/55/167 10/56/168 72/57/169 71/58/170
f 10/151/171 11/152/172 73/153/173 72/154/174
f 11/61/175 12/62/176 74/63/177 73/64/178
f 12/62/179 7/65/180 68/66/181 74/63/182
