# This file uses feet as units for non-parametric coordinates.

mtllib Bed2.mtl
g default
v -1034.185547 264.755459 -98.961136
v -539.247314 264.755459 -98.961136
v -1034.185547 264.755459 -406.944855
v -539.247314 264.755459 -406.944855
v -1034.185547 277.885464 -98.961136
v -539.247314 277.885464 -98.961136
v -539.247314 277.885464 -406.944855
v -1034.185547 277.885464 -406.944855
v -1025.718994 277.885464 -98.961136
v -549.312439 277.885464 -98.961136
v -549.312439 277.885464 -399.254028
v -1025.718994 277.885464 -399.254028
v -539.247314 542.640927 -98.961136
v -539.247314 542.640927 -406.944855
v -549.312439 542.640927 -399.254028
v -549.312439 542.640927 -98.961136
v -1034.185547 542.640927 -406.944855
v -1025.718994 542.640927 -399.254028
v -1034.185547 542.640927 -98.961136
v -1025.718994 542.640927 -98.961136
v -1034.185547 542.640927 -268.138794
v -1034.185547 277.885464 -268.138794
v -1034.185547 264.755459 -268.138794
v -539.247314 264.755459 -268.138794
v -539.247314 277.885464 -268.138794
v -539.247314 542.640927 -268.138794
v -549.312439 542.640927 -268.138763
v -549.312439 277.885464 -268.138763
v -1025.718994 277.885464 -268.138763
v -1025.718994 542.640927 -268.138763
v -1034.185547 542.640927 -369.738892
v -1034.185547 277.885464 -369.738892
v -1034.185547 264.755459 -369.738892
v -539.247314 264.755459 -369.738892
v -539.247314 277.885464 -369.738892
v -539.247314 542.640927 -369.738892
v -549.312439 542.640927 -369.738831
v -549.312439 277.885464 -369.738831
v -1025.718994 277.885464 -369.738831
v -1025.718994 542.640927 -369.738831
v -910.048523 277.885464 -98.961136
v -910.048523 277.885464 -268.138763
v -910.048523 277.885464 -369.738831
v -910.048523 277.885464 -399.254028
v -910.048523 542.640927 -399.254028
v -910.048584 542.640927 -406.944855
v -910.048584 277.885464 -406.944855
v -910.048584 264.755459 -406.944855
v -910.048584 264.755459 -369.738892
v -910.048584 264.755459 -268.138794
v -910.048584 264.755459 -98.961136
v -1000.014648 277.885464 -98.961136
v -1000.014648 277.885464 -268.138794
v -1000.014648 277.885464 -369.738892
v -1000.014648 277.885464 -399.254028
v -1000.014648 542.640927 -399.254028
v -1000.014709 542.640927 -406.944855
v -1000.014709 277.885464 -406.944855
v -1000.014709 264.755459 -406.944855
v -1000.014709 264.755459 -369.738892
v -1000.014709 264.755459 -268.138794
v -1000.014709 264.755459 -98.961136
v -668.294800 277.885494 -98.961136
v -668.294800 277.885494 -268.138763
v -668.294800 277.885464 -369.738831
v -668.294800 277.885494 -399.254028
v -668.294800 542.640927 -399.254028
v -668.294739 542.640927 -406.944885
v -668.294739 277.885494 -406.944885
v -668.294739 264.755459 -406.944885
v -668.294739 264.755459 -369.738892
v -668.294739 264.755459 -268.138794
v -668.294739 264.755459 -98.961136
v -574.510132 277.885464 -98.961136
v -574.510132 277.885464 -268.138763
v -574.510132 277.885464 -369.738831
v -574.510132 277.885464 -399.254028
v -574.510132 542.640927 -399.254028
v -574.510071 542.640927 -406.944855
v -574.510071 277.885464 -406.944855
v -574.510071 264.755459 -406.944855
v -574.510071 264.755459 -369.738892
v -574.510071 264.755459 -268.138794
v -574.510071 264.755459 -98.961136
v -1034.185547 370.102535 -98.961136
v -1034.185547 370.102535 -268.138794
v -1034.185547 370.102535 -369.738892
v -1034.185547 370.102535 -406.944855
v -1000.014709 370.102535 -406.944824
v -910.048584 370.102535 -406.944824
v -668.294739 370.102535 -406.944885
v -574.510071 370.102535 -406.944824
v -539.247314 370.102535 -406.944855
v -539.247314 370.102535 -369.738892
v -539.247314 370.102535 -268.138794
v -539.247314 370.102535 -98.961136
v -1034.185547 477.161679 -98.961136
v -1034.185547 477.161679 -268.138794
v -1034.185547 477.161679 -369.738892
v -1034.185547 477.161679 -406.944855
v -1000.014709 477.161679 -406.944824
v -910.048584 477.161679 -406.944824
v -668.294739 477.161679 -406.944885
v -574.510071 477.161679 -406.944824
v -539.247314 477.161679 -406.944855
v -539.247314 477.161679 -369.738892
v -539.247314 477.161679 -268.138794
v -539.247314 477.161679 -98.961136
v -1025.718994 475.836117 -98.961136
v -1025.718994 475.836117 -268.138763
v -1025.718994 475.836117 -369.738831
v -1025.718994 475.836117 -399.254028
v -1000.014648 475.836117 -399.254028
v -910.048523 475.836117 -399.254028
v -668.294800 475.836117 -399.254028
v -574.510193 475.836117 -399.254028
v -549.312439 475.836117 -399.254028
v -549.312439 475.836117 -369.738831
v -549.312439 475.836117 -268.138763
v -549.312439 475.836117 -98.961136
v -1025.718994 370.102535 -98.961136
v -1025.718994 370.102535 -268.138763
v -1025.718994 370.102535 -369.738831
v -1025.718994 370.102535 -399.254028
v -1000.014648 371.370602 -399.254028
v -910.048523 370.102535 -399.254028
v -668.294800 370.102535 -399.254028
v -574.510132 370.102535 -399.254028
v -549.312439 370.102535 -399.254028
v -549.312439 370.102535 -369.738831
v -549.312439 370.102535 -268.138763
v -549.312439 370.102535 -98.961136
vt 0.522657 0.727802
vt 0.522657 0.574452
vt 0.534558 0.574452
vt 0.534558 0.727802
vt 0.522657 0.482358
vt 0.534558 0.482358
vt 0.618148 0.574452
vt 0.618148 0.727802
vt 0.522657 0.448633
vt 0.534558 0.448633
vt 0.618148 0.482358
vt 0.715191 0.574452
vt 0.715191 0.727802
vt 0.618148 0.448633
vt 0.774544 0.574452
vt 0.774544 0.727802
vt 0.715191 0.482358
vt 0.715191 0.448633
vt 0.774544 0.482358
vt 0.774544 0.448633
vt 0.000000 0.601982
vt 0.000000 0.448633
vt 0.011902 0.448633
vt 0.011902 0.601982
vt 0.095491 0.448633
vt 0.095491 0.601982
vt 0.000000 0.694077
vt 0.011902 0.694077
vt 0.192534 0.448633
vt 0.192534 0.601982
vt 0.095491 0.694077
vt 0.000000 0.727802
vt 0.011902 0.727802
vt 0.251887 0.448633
vt 0.251887 0.601982
vt 0.095491 0.727802
vt 0.192534 0.694077
vt 0.251887 0.694077
vt 0.192534 0.727802
vt 0.251887 0.727802
vt 0.702087 0.881152
vt 0.702087 0.727802
vt 0.762642 0.727802
vt 0.762642 0.881152
vt 0.606246 0.881152
vt 0.606246 0.727802
vt 0.702087 0.973246
vt 0.762642 0.973246
vt 0.522657 0.881152
vt 0.522657 0.727802
vt 0.702087 1.000000
vt 0.762642 1.000000
vt 0.522657 0.973246
vt 0.606246 0.973246
vt 0.606246 1.000000
vt 0.522657 1.000000
vt 0.179431 1.000000
vt 0.179431 0.846650
vt 0.239985 0.846650
vt 0.239985 1.000000
vt 0.083589 1.000000
vt 0.083589 0.846650
vt 0.179431 0.754556
vt 0.239985 0.754556
vt 0.000000 1.000000
vt 0.000000 0.846650
vt 0.179431 0.727802
vt 0.239985 0.727802
vt 0.083589 0.754556
vt 0.000000 0.754556
vt 0.083589 0.727802
vt 0.000000 0.727802
vt 0.279995 0.431835
vt 0.279995 0.408535
vt 0.433344 0.408535
vt 0.433344 0.431835
vt 0.279995 0.326986
vt 0.433344 0.326986
vt 0.525439 0.408535
vt 0.525439 0.431835
vt 0.279995 0.107851
vt 0.433344 0.107851
vt 0.525439 0.326986
vt 0.552193 0.408535
vt 0.552193 0.431835
vt 0.279995 0.022840
vt 0.433344 0.022840
vt 0.525439 0.107851
vt 0.552193 0.326986
vt 0.279995 0.000000
vt 0.433344 0.000000
vt 0.525439 0.022840
vt 0.552193 0.107851
vt 0.525439 0.000000
vt 0.552193 0.022840
vt 0.552193 0.000000
vt 0.279169 0.448633
vt 0.125820 0.448633
vt 0.125820 0.417659
vt 0.279169 0.417659
vt 0.033725 0.448633
vt 0.033725 0.417659
vt 0.125820 0.336110
vt 0.279169 0.336110
vt 0.000000 0.448633
vt 0.000000 0.417659
vt 0.033725 0.336110
vt 0.125820 0.116974
vt 0.279169 0.116974
vt 0.000000 0.336110
vt 0.033725 0.116974
vt 0.125820 0.031964
vt 0.279169 0.031964
vt 0.000000 0.116974
vt 0.033725 0.031964
vt 0.125820 0.000000
vt 0.279169 0.000000
vt 0.000000 0.031964
vt 0.033725 0.000000
vt 0.000000 0.000000
vt 0.804410 0.417659
vt 0.804410 0.448633
vt 0.792508 0.448633
vt 0.792508 0.417659
vt 0.708919 0.448633
vt 0.708919 0.417659
vt 0.804410 0.336110
vt 0.792508 0.336110
vt 0.611876 0.448633
vt 0.611876 0.417659
vt 0.708919 0.336110
vt 0.804410 0.116974
vt 0.792508 0.116974
vt 0.552523 0.448633
vt 0.552523 0.417659
vt 0.708919 0.116974
vt 0.804410 0.031964
vt 0.792508 0.031964
vt 0.611876 0.336110
vt 0.552523 0.336110
vt 0.611876 0.116974
vt 0.708919 0.031964
vt 0.804410 0.000000
vt 0.792508 0.000000
vt 0.552523 0.116974
vt 0.708919 0.000000
vt 0.611876 0.031964
vt 0.552523 0.031964
vt 0.611876 0.000000
vt 0.552523 0.000000
vt 0.459425 0.863670
vt 0.459425 0.840370
vt 0.519980 0.840370
vt 0.519980 0.863670
vt 0.363584 0.863670
vt 0.364733 0.840370
vt 0.459425 0.758821
vt 0.519980 0.758821
vt 0.279995 0.863670
vt 0.279995 0.840370
vt 0.459425 0.539685
vt 0.519980 0.539685
vt 0.363584 0.758821
vt 0.279995 0.758821
vt 0.363584 0.539685
vt 0.459425 0.454675
vt 0.519980 0.454675
vt 0.279995 0.539685
vt 0.459425 0.431835
vt 0.519980 0.431835
vt 0.363584 0.454675
vt 0.279995 0.454675
vt 0.363584 0.431835
vt 0.279995 0.431835
vn 0.000000 1.000000 0.000000
vn 0.000000 1.000000 0.000000
vn 0.000000 1.000000 0.000000
vn 0.000000 1.000000 0.000000
vn 1.000000 0.000000 0.000000
vn 1.000000 0.000000 0.000000
vn 1.000000 0.000000 0.000000
vn 1.000000 0.000000 0.000000
vn 0.000000 0.000000 -1.000000
vn 0.000000 0.000000 -1.000000
vn 0.000000 0.000000 -1.000000
vn 0.000000 0.000000 -1.000000
vn -1.000000 0.000000 0.000000
vn -1.000000 0.000000 0.000000
vn -1.000000 0.000000 0.000000
vn -1.000000 0.000000 0.000000
vn 0.000000 -1.000000 0.000000
vn 0.000000 -1.000000 0.000000
vn 0.000000 -1.000000 0.000000
vn 0.000000 -1.000000 0.000000
vn 1.000000 0.000000 0.000000
vn 1.000000 0.000000 0.000000
vn 1.000000 0.000000 0.000000
vn 1.000000 0.000000 0.000000
vn -1.000000 0.000000 0.000000
vn -1.000000 0.000000 0.000000
vn -1.000000 0.000000 0.000000
vn -1.000000 0.000000 0.000000
vn 0.000000 0.000000 -1.000000
vn 0.000000 0.000000 -1.000000
vn 0.000001 0.000000 -1.000000
vn 0.000000 0.000000 -1.000000
vn 0.000000 0.000000 1.000000
vn 0.000000 0.000000 1.000000
vn 0.000000 0.000000 1.000000
vn 0.000000 0.000000 1.000000
vn -1.000000 0.000000 0.000000
vn -1.000000 0.000000 0.000000
vn -1.000000 0.000000 0.000000
vn -1.000000 0.000000 0.000000
vn 1.000000 0.000000 0.000000
vn 1.000000 0.000000 0.000000
vn 1.000000 0.000000 0.000000
vn 1.000000 0.000000 0.000000
vn -1.000000 0.000000 0.000000
vn -1.000000 0.000000 0.000000
vn -1.000000 0.000000 0.000000
vn -1.000000 0.000000 0.000000
vn 0.000000 -1.000000 0.000000
vn 0.000000 -1.000000 0.000000
vn 1.000000 0.000000 0.000000
vn 1.000000 0.000000 0.000000
vn 1.000000 0.000000 0.000000
vn 1.000000 0.000000 0.000000
vn -1.000000 0.000000 0.000000
vn -1.000000 0.000000 0.000000
vn 0.000000 1.000000 0.000000
vn 0.000000 1.000000 0.000000
vn 1.000000 0.000000 0.000000
vn 1.000000 0.000000 0.000000
vn -1.000000 0.000000 0.000000
vn -1.000000 0.000000 0.000000
vn -1.000000 0.000000 0.000000
vn -1.000000 0.000000 0.000000
vn 0.000000 -1.000000 0.000000
vn 0.000000 -1.000000 0.000000
vn 1.000000 0.000000 0.000000
vn 1.000000 0.000000 0.000000
vn 1.000000 0.000000 0.000000
vn 1.000000 0.000000 0.000000
vn -1.000000 0.000000 0.000000
vn -1.000000 0.000000 0.000000
vn 0.000000 1.000000 0.000000
vn 0.000000 1.000000 0.000000
vn 1.000000 0.000000 0.000000
vn 1.000000 0.000000 0.000000
vn -0.000000 1.000000 0.000000
vn 0.000000 1.000000 0.000000
vn 0.000000 1.000000 -0.000000
vn -0.000000 1.000000 -0.000000
vn -0.000000 1.000000 0.000000
vn -0.000000 1.000000 -0.000000
vn -0.000000 1.000000 0.000001
vn -0.000000 1.000000 0.000001
vn 0.000000 0.000000 1.000000
vn 0.000000 0.000000 1.000000
vn 0.000000 0.000000 1.000000
vn 0.000000 0.000000 1.000000
vn 0.000000 0.000000 -1.000000
vn -0.000000 0.000000 -1.000000
vn -0.000000 0.000000 -1.000000
vn -0.000000 0.000000 -1.000000
vn 0.000000 0.000000 -1.000000
vn -0.000000 0.000000 -1.000000
vn -0.000000 0.000000 -1.000000
vn -0.000000 0.000000 -1.000000
vn 0.000000 -1.000000 0.000000
vn 0.000000 -1.000000 0.000000
vn 0.000000 -1.000000 0.000000
vn 0.000000 -1.000000 0.000000
vn 0.000000 -1.000000 0.000000
vn 0.000000 -1.000000 0.000000
vn 0.000000 -1.000000 0.000000
vn 0.000000 -1.000000 0.000000
vn 0.000000 1.000000 0.000000
vn 0.000000 1.000000 -0.000000
vn 0.000000 1.000000 -0.000000
vn 0.000000 1.000000 0.000001
vn 0.000000 0.000000 1.000000
vn 0.000000 0.000000 1.000000
vn 0.000000 0.000000 -1.000000
vn 0.000000 0.000000 -1.000000
vn 0.000000 0.000000 -1.000000
vn 0.000000 0.000000 -1.000000
vn 0.000000 -1.000000 0.000000
vn 0.000000 -1.000000 0.000000
vn 0.000000 -1.000000 0.000000
vn 0.000000 -1.000000 0.000000
vn 0.000000 1.000000 0.000000
vn 0.000000 1.000000 0.000000
vn 0.000000 1.000000 0.000000
vn 0.000000 1.000000 0.000000
vn 0.000000 0.000000 1.000000
vn 0.000000 0.000000 1.000000
vn 0.000000 0.000000 -1.000000
vn -0.000001 0.000000 -1.000000
vn 0.000000 0.000000 -1.000000
vn 0.000000 0.000000 -1.000000
vn 0.000000 -1.000000 0.000000
vn 0.000000 -1.000000 0.000000
vn 0.000000 -1.000000 0.000000
vn 0.000000 -1.000000 0.000000
vn -1.000000 0.000000 0.000000
vn -1.000000 0.000000 0.000000
vn -1.000000 0.000000 0.000000
vn -1.000000 0.000000 0.000000
vn 0.000001 -0.000000 -1.000000
vn 0.000000 -0.000000 -1.000000
vn -0.000000 -0.000000 -1.000000
vn -0.000000 -0.000000 -1.000000
vn -0.000000 -0.000000 -1.000000
vn -0.000001 -0.000000 -1.000000
vn 1.000000 0.000000 0.000000
vn 1.000000 0.000000 0.000000
vn 1.000000 0.000000 0.000000
vn 1.000000 0.000000 0.000000
vn -1.000000 0.000000 0.000000
vn -1.000000 0.000000 0.000000
vn -1.000000 0.000000 0.000000
vn -1.000000 0.000000 0.000000
vn 0.000001 -0.000000 -1.000000
vn 0.000000 -0.000000 -1.000000
vn -0.000000 -0.000000 -1.000000
vn 0.000000 -0.000000 -1.000000
vn 0.000000 -0.000000 -1.000000
vn -0.000001 -0.000000 -1.000000
vn 1.000000 0.000000 0.000000
vn 1.000000 0.000000 0.000000
vn 1.000000 0.000000 0.000000
vn 1.000000 0.000000 0.000000
vn 1.000000 0.000000 0.000000
vn 1.000000 0.000000 0.000000
vn 1.000000 0.000000 0.000000
vn 1.000000 0.000000 0.000000
vn -0.000001 0.000000 1.000000
vn 0.000000 0.000000 1.000000
vn 0.000000 0.000000 1.000000
vn -0.000000 0.000000 1.000000
vn 0.000000 0.000000 1.000000
vn 0.000000 0.000000 1.000000
vn -1.000000 0.000000 0.000000
vn -1.000000 0.000000 0.000000
vn -1.000000 0.000000 0.000000
vn -1.000000 0.000000 0.000000
vn 1.000000 0.000000 0.000000
vn 1.000000 0.000000 0.000000
vn 1.000000 0.000000 0.000000
vn 1.000000 0.000000 0.000000
vn -0.000002 0.000000 1.000000
vn -0.000000 0.000000 1.000000
vn 0.000000 0.000000 1.000000
vn 0.000000 0.000000 1.000000
vn 0.000000 0.000000 1.000000
vn 0.000000 0.000000 1.000000
vn -1.000000 0.000000 0.000000
vn -1.000000 0.000000 0.000000
vn -1.000000 0.000000 0.000000
vn -1.000000 0.000000 0.000000
s 1
g polySurface8 LivingRoomShape
usemtl initialShadingGroup
f 9/73/1 52/74/2 53/75/3 29/76/4
s 2
f 2/1/5 24/2/6 25/3/7 6/4/8
s 3
f 59/121/9 3/122/10 8/123/11 58/124/12
s 4
f 23/21/13 1/22/14 5/23/15 22/24/16
s 5
f 1/97/17 23/98/18 61/99/19 62/100/20
s 6
f 6/4/21 25/3/22 95/7/23 96/8/24
s 7
f 119/41/25 120/42/26 16/43/27 27/44/28
s 8
f 58/124/29 8/123/30 88/125/31 89/126/32
s 9
f 112/151/33 113/152/34 56/153/35 18/154/36
s 10
f 22/24/37 5/23/38 85/25/39 86/26/40
s 11
f 109/57/41 110/58/42 30/59/43 20/60/44
s 10
f 32/28/45 22/24/37 86/26/40 87/31/46
s 4
f 33/27/47 23/21/13 22/24/16 32/28/48
s 5
f 61/99/19 23/98/18 33/101/49 60/102/50
s 2
f 25/3/7 24/2/6 34/5/51 35/6/52
s 6
f 95/7/23 25/3/22 35/6/53 94/11/54
s 7
f 118/47/55 119/41/25 27/44/28 37/48/56
s 1
f 29/76/4 53/75/3 54/79/57 39/80/58
s 11
f 30/59/43 110/58/42 111/63/59 40/64/60
s 10
f 8/33/61 32/28/45 87/31/46 88/36/62
s 4
f 3/32/63 33/27/47 32/28/48 8/33/64
s 5
f 60/102/50 33/101/49 3/105/65 59/106/66
s 2
f 35/6/52 34/5/51 4/9/67 7/10/68
s 6
f 94/11/54 35/6/53 7/10/69 93/14/70
s 7
f 117/51/71 118/47/55 37/48/56 15/52/72
s 1
f 39/80/58 54/79/57 55/84/73 12/85/74
s 11
f 40/64/60 111/63/59 112/67/75 18/68/76
s 1
f 41/77/77 63/81/78 64/82/79 42/78/80
f 43/83/81 42/78/80 64/82/79 65/88/82
f 44/89/83 43/83/81 65/88/82 66/93/84
s 9
f 45/158/85 114/157/86 115/161/87 67/162/88
s 8
f 69/133/89 47/128/90 90/131/91 91/136/92
s 3
f 70/132/93 48/127/94 47/128/95 69/133/96
s 5
f 71/111/97 49/107/98 48/110/99 70/114/100
f 72/108/101 50/103/102 49/107/98 71/111/97
f 51/104/103 50/103/102 72/108/101 73/109/104
s 1
f 52/74/2 41/77/77 42/78/80 53/75/3
f 54/79/57 53/75/3 42/78/80 43/83/81
f 55/84/73 54/79/57 43/83/81 44/89/83
s 9
f 56/153/35 113/152/34 114/157/86 45/158/85
s 8
f 47/128/90 58/124/29 89/126/32 90/131/91
s 3
f 48/127/94 59/121/9 58/124/12 47/128/95
s 5
f 49/107/98 60/102/50 59/106/66 48/110/99
f 50/103/102 61/99/19 60/102/50 49/107/98
f 62/100/20 61/99/19 50/103/102 51/104/103
s 1
f 63/81/78 74/86/105 75/87/106 64/82/79
f 65/88/82 64/82/79 75/87/106 76/92/107
f 66/93/84 65/88/82 76/92/107 77/95/108
s 9
f 67/162/88 115/161/87 116/166/109 78/167/110
s 8
f 80/138/111 69/133/89 91/136/92 92/142/112
s 3
f 81/137/113 70/132/93 69/133/96 80/138/114
s 5
f 82/115/115 71/111/97 70/114/100 81/118/116
f 83/112/117 72/108/101 71/111/97 82/115/115
f 73/109/104 72/108/101 83/112/117 84/113/118
s 1
f 74/86/105 10/90/119 28/91/120 75/87/106
f 76/92/107 75/87/106 28/91/120 38/94/121
f 77/95/108 76/92/107 38/94/121 11/96/122
s 9
f 78/167/110 116/166/109 117/169/123 15/170/124
s 8
f 7/144/125 80/138/111 92/142/112 93/146/126
s 3
f 4/143/127 81/137/113 80/138/114 7/144/128
s 5
f 34/119/129 82/115/115 81/118/116 4/120/130
f 24/116/131 83/112/117 82/115/115 34/119/129
f 84/113/118 83/112/117 24/116/131 2/117/132
s 10
f 86/26/40 85/25/39 97/29/133 98/30/134
f 88/36/62 87/31/46 99/37/135 100/39/136
s 8
f 89/126/32 88/125/31 100/129/137 101/130/138
f 91/136/92 90/131/91 102/139/139 103/141/140
f 93/146/126 92/142/112 104/147/141 105/149/142
s 6
f 106/17/143 94/11/54 93/14/70 105/18/144
f 96/8/24 95/7/23 107/12/145 108/13/146
s 10
f 98/30/134 97/29/133 19/34/147 21/35/148
f 99/37/135 98/30/134 21/35/148 31/38/149
f 100/39/136 99/37/135 31/38/149 17/40/150
s 8
f 101/130/138 100/129/137 17/134/151 57/135/152
f 102/139/139 101/130/138 57/135/152 46/140/153
f 103/141/140 102/139/139 46/140/153 68/145/154
f 104/147/141 103/141/140 68/145/154 79/148/155
f 105/149/142 104/147/141 79/148/155 14/150/156
s 6
f 36/19/157 106/17/143 105/18/144 14/20/158
f 26/15/159 107/12/145 106/17/143 36/19/157
f 108/13/146 107/12/145 26/15/159 13/16/160
s 11
f 121/61/161 122/62/162 110/58/42 109/57/41
f 112/67/75 111/63/59 123/69/163 124/71/164
s 9
f 124/155/165 125/156/166 113/152/34 112/151/33
f 115/161/87 114/157/86 126/163/167 127/165/168
f 117/169/123 116/166/109 128/171/169 129/173/170
s 7
f 129/55/171 130/54/172 118/47/55 117/51/71
f 131/45/173 132/46/174 120/42/26 119/41/25
s 11
f 9/65/175 29/66/176 122/62/162 121/61/161
f 123/69/163 122/62/162 29/66/176 39/70/177
f 124/71/164 123/69/163 39/70/177 12/72/178
s 9
f 12/159/179 55/160/180 125/156/166 124/155/165
f 126/163/167 125/156/166 55/160/180 44/164/181
f 127/165/168 126/163/167 44/164/181 66/168/182
f 128/171/169 127/165/168 66/168/182 77/172/183
f 129/173/170 128/171/169 77/172/183 11/174/184
s 7
f 11/56/185 38/53/186 130/54/172 129/55/171
f 38/53/186 28/49/187 131/45/173 130/54/172
f 28/49/187 10/50/188 132/46/174 131/45/173
