# This file uses meters as units for non-parametric coordinates.

mtllib Boys_Microwave_01_0201.mtl
g default
v -4.487871 0.023568 -4.615448
v -4.487871 0.023568 -4.536921
v -4.487871 1.232253 -4.615448
v -4.487871 1.232253 -4.536921
v -4.435175 1.232253 -4.615448
v -4.435175 1.232253 -4.536921
v -4.435175 0.023568 -4.615448
v -4.435175 0.023568 -4.536921
v -4.633763 0.829358 -4.615448
v -4.581068 0.829358 -4.615448
v -4.581068 0.829358 -4.536921
v -4.633763 0.829358 -4.536921
v -4.633763 0.426463 -4.615448
v -4.581068 0.426463 -4.615448
v -4.581068 0.426463 -4.536921
v -4.633763 0.426463 -4.536921
v -3.366237 1.260000 -6.125000
v -3.366237 1.260000 -3.875000
v -4.382499 1.260000 -6.125000
v -4.506237 1.260000 -6.001262
v -4.382499 1.260000 -3.875000
v -4.506237 1.260000 -3.998738
v -4.506237 1.008000 -3.998738
v -4.506237 1.008000 -6.001262
v -4.506237 1.008000 -5.918993
v -4.506237 1.260000 -5.918992
v -4.506237 1.008000 -4.638955
v -4.506237 1.260000 -4.638955
v -4.472856 1.008000 -4.638955
v -4.472857 1.008000 -5.918993
v -3.366237 1.260000 -5.900000
v -3.366237 1.260000 -5.990000
v -3.366237 1.260000 -4.685000
v -3.366237 1.260000 -4.028090
v -3.366237 0.000000 -6.125000
v -3.366237 0.000000 -3.875000
v -4.382499 0.000000 -6.125000
v -4.506237 0.000000 -6.001262
v -4.382499 0.000000 -3.875000
v -4.506237 0.000000 -3.998738
v -4.506237 0.201600 -3.998738
v -4.506237 0.201600 -6.001262
v -4.506237 0.201600 -5.918993
v -4.506237 0.000000 -5.918992
v -4.506237 0.201600 -4.638955
v -4.506237 0.000000 -4.638955
v -4.472856 0.201600 -4.638955
v -4.472857 0.201600 -5.918993
v -3.366237 0.000000 -5.900000
v -3.366237 0.000000 -5.990000
v -3.366237 0.000000 -4.685000
v -3.366237 0.000000 -4.028090
vt 0.805673 0.180774
vt 0.820552 0.180774
vt 0.779357 0.294536
vt 0.764478 0.294536
vt 0.779357 0.408299
vt 0.764478 0.408299
vt 0.820552 0.522061
vt 0.805673 0.522061
vt 0.704350 0.180774
vt 0.719230 0.180774
vt 0.760424 0.294536
vt 0.745545 0.294536
vt 0.760424 0.408299
vt 0.745545 0.408299
vt 0.719230 0.522061
vt 0.704350 0.522061
vt 0.329050 0.635316
vt 0.329050 0.999003
vt 0.035716 0.999003
vt 0.035716 0.635316
vt 0.000000 0.926266
vt 0.000000 0.693506
vt 0.000000 0.999003
vt 0.000000 0.635316
vt 0.937557 0.929125
vt 0.644223 0.929125
vt 0.644223 0.565438
vt 0.937557 0.565438
vt 0.973273 0.856388
vt 0.973273 0.623628
vt 0.973273 0.929125
vt 0.973273 0.565438
vt 0.885568 0.408471
vt 0.876143 0.408471
vt 0.876143 0.180774
vt 0.885568 0.180774
vt 0.898453 0.408471
vt 0.889028 0.408471
vt 0.889028 0.180774
vt 0.898453 0.180774
vt 0.747299 0.202947
vt 0.747299 0.180774
vt 0.762178 0.180774
vt 0.762178 0.202947
vt 0.730119 0.202947
vt 0.730119 0.180774
vt 0.744999 0.180774
vt 0.744999 0.202947
vt 0.034939 0.635316
vt 0.000000 0.600377
vt 0.321893 0.597197
vt 0.321893 0.635316
vt 0.000000 0.577147
vt 0.321893 0.571784
vt 0.000000 0.215712
vt 0.321893 0.228714
vt 0.321893 0.043227
vt 0.000000 0.034939
vt 0.034939 0.000000
vt 0.321893 0.000000
vt 0.640764 0.613027
vt 0.640764 0.974462
vt 0.631339 0.974462
vt 0.631338 0.613027
vt 0.609066 0.635316
vt 0.322111 0.635316
vt 0.322111 0.597197
vt 0.644005 0.600377
vt 0.322112 0.571784
vt 0.644005 0.577147
vt 0.322111 0.228714
vt 0.644005 0.215712
vt 0.322111 0.043227
vt 0.644005 0.034939
vt 0.322111 0.000000
vt 0.609066 0.000000
vt 0.618454 0.625911
vt 0.627879 0.625911
vt 0.627879 0.987348
vt 0.618454 0.987348
vt 0.850374 0.180774
vt 0.873012 0.180774
vt 0.873012 0.296921
vt 0.850374 0.296921
vt 0.873012 0.413068
vt 0.850374 0.413068
vt 0.873012 0.529215
vt 0.850374 0.529215
vt 0.824605 0.413068
vt 0.847243 0.413068
vt 0.847243 0.529215
vt 0.824605 0.529215
vt 0.824605 0.296921
vt 0.847243 0.296921
vt 0.824605 0.180774
vt 0.847243 0.180774
vt 0.928845 0.542208
vt 0.928845 0.565438
vt 0.701147 0.565438
vt 0.701147 0.542208
vt 1.000000 0.565438
vt 1.000000 0.542208
vt 0.644223 0.565438
vt 0.644223 0.542208
vt 0.928845 0.180774
vt 1.000000 0.180773
vt 0.644223 0.180773
vt 0.701147 0.180774
vt 0.928845 0.000000
vt 1.000000 0.000000
vt 0.644223 0.000000
vt 0.701147 0.000000
vt 0.558398 0.635316
vt 0.558398 0.996751
vt 0.330701 0.996751
vt 0.330701 0.635316
vn -0.940253 -0.340476 0.000000
vn -0.940253 -0.340476 0.000000
vn -0.984002 -0.178159 0.000000
vn -0.984002 -0.178159 0.000000
vn 0.000000 1.000000 0.000000
vn 0.000000 1.000000 0.000000
vn 0.000000 1.000000 0.000000
vn 0.000000 1.000000 0.000000
vn 0.984002 0.178159 -0.000000
vn 0.984002 0.178159 -0.000000
vn 0.940253 0.340476 -0.000000
vn 0.940253 0.340476 -0.000000
vn 0.000000 -1.000000 0.000000
vn 0.000000 -1.000000 0.000000
vn 0.000000 -1.000000 0.000000
vn 0.000000 -1.000000 0.000000
vn 0.000000 0.000000 1.000000
vn 0.000000 0.000000 1.000000
vn 0.000000 0.000000 1.000000
vn 0.000000 0.000000 1.000000
vn -0.000000 0.000000 -1.000000
vn -0.000000 0.000000 -1.000000
vn -0.000000 0.000000 -1.000000
vn -0.000000 0.000000 -1.000000
vn -0.000000 0.000000 -1.000000
vn -0.000000 0.000000 -1.000000
vn -0.000000 0.000000 -1.000000
vn -0.000000 0.000000 -1.000000
vn 0.940253 -0.340476 -0.000000
vn 0.940253 -0.340476 -0.000000
vn 0.984002 -0.178159 -0.000000
vn 0.984002 -0.178159 -0.000000
vn 0.000000 0.000000 1.000000
vn 0.000000 0.000000 1.000000
vn 0.000000 0.000000 1.000000
vn 0.000000 0.000000 1.000000
vn -0.984002 0.178159 0.000000
vn -0.984002 0.178159 0.000000
vn -0.940253 0.340476 0.000000
vn -0.940253 0.340476 0.000000
vn -1.000000 -0.000000 0.000000
vn -1.000000 0.000000 0.000000
vn -1.000000 0.000000 0.000000
vn -1.000000 0.000000 0.000000
vn 0.000000 0.000000 1.000000
vn 0.000000 0.000000 1.000000
vn 0.000000 0.000000 1.000000
vn 0.000000 0.000000 1.000000
vn -0.000000 0.000000 -1.000000
vn -0.000000 0.000000 -1.000000
vn -0.000000 0.000000 -1.000000
vn -0.000000 0.000000 -1.000000
vn 0.000000 1.000000 0.000000
vn 0.000000 1.000000 0.000000
vn 0.000000 1.000000 0.000000
vn 0.000000 1.000000 0.000000
vn -0.707107 0.000000 -0.707107
vn -0.707107 0.000000 -0.707107
vn -0.707107 0.000000 -0.707107
vn -0.707107 0.000000 -0.707107
vn -0.707107 0.000000 0.707107
vn -0.707107 0.000000 0.707107
vn -0.707107 0.000000 0.707107
vn -0.707107 0.000000 0.707107
vn -0.707106 0.000000 0.707107
vn -1.000000 0.000000 0.000000
vn -1.000000 -0.000000 0.000000
vn -0.707106 0.000000 -0.707107
vn -1.000000 0.000000 0.000000
vn -1.000000 0.000000 0.000000
vn -1.000000 0.000000 0.000000
vn -1.000000 0.000000 0.000000
vn -1.000000 -0.000000 -0.000000
vn -1.000000 -0.000000 -0.000000
vn -1.000000 0.000000 -0.000000
vn -1.000000 0.000000 -0.000000
vn -1.000000 -0.000000 -0.000000
vn -1.000000 -0.000000 -0.000000
vn -0.000000 0.000000 -1.000000
vn -0.000000 0.000000 -1.000000
vn -0.000000 0.000000 -1.000000
vn -0.000000 0.000000 -1.000000
vn 0.000000 -1.000000 0.000000
vn 0.000000 -1.000000 0.000000
vn 0.000000 -1.000000 0.000000
vn 0.000000 -1.000000 0.000000
vn 0.000000 0.000000 1.000000
vn 0.000000 0.000000 1.000000
vn 0.000000 0.000000 1.000000
vn 0.000000 0.000000 1.000000
vn 0.000000 1.000000 -0.000000
vn 0.000000 1.000000 -0.000000
vn 0.000000 1.000000 -0.000000
vn 0.000000 1.000000 -0.000000
vn -0.000000 1.000000 0.000000
vn -0.000000 1.000000 0.000000
vn 0.000000 1.000000 0.000000
vn 0.000000 1.000000 0.000000
vn 0.000000 -1.000000 0.000000
vn 0.000000 -1.000000 0.000000
vn 0.000000 -1.000000 0.000000
vn 0.000000 -1.000000 0.000000
vn -0.707107 0.000000 0.707107
vn -1.000000 0.000000 0.000000
vn -1.000000 0.000000 0.000000
vn -0.707107 0.000000 -0.707107
vn -1.000000 0.000000 -0.000000
vn -1.000000 0.000000 0.000000
vn -1.000000 0.000000 -0.000000
vn -1.000000 0.000000 -0.000000
vn -0.000000 1.000000 -0.000000
vn -0.000000 1.000000 -0.000000
vn -0.000000 1.000000 -0.000000
vn -0.000000 1.000000 -0.000000
vn 0.000000 -1.000000 0.000000
vn 0.000000 -1.000000 0.000000
vn 0.000000 -1.000000 0.000000
vn 0.000000 -1.000000 0.000000
vn 0.000000 -1.000000 0.000000
vn 0.000000 -1.000000 0.000000
vn 0.000000 -1.000000 0.000000
vn 0.000000 -1.000000 0.000000
s 1
g Microwave
usemtl aiStandardSurface1SG
f 1/81/1 2/82/2 16/83/3 13/84/4
s off
f 3/41/5 4/42/6 6/43/7 5/44/8
s 2
f 14/89/9 15/90/10 8/91/11 7/92/12
s off
f 7/45/13 8/46/14 2/47/15 1/48/16
s 3
f 2/1/17 8/2/18 15/3/19 16/4/20
s 4
f 7/9/21 1/10/22 13/11/23 14/12/24
f 10/14/25 9/13/26 3/15/27 5/16/28
s 2
f 5/95/29 6/96/30 11/94/31 10/93/32
s 3
f 12/6/33 11/5/34 6/7/35 4/8/36
s 1
f 9/86/37 12/85/38 4/87/39 3/88/40
s 4
f 14/12/24 13/11/23 9/13/26 10/14/25
s 2
f 10/93/32 11/94/31 15/90/10 14/89/9
s 3
f 16/4/20 15/3/19 11/5/34 12/6/33
s 1
f 13/84/4 16/83/3 12/85/38 9/86/37
s 5
f 25/97/41 24/98/42 42/99/43 43/100/44
s off
f 36/17/45 18/18/46 21/19/47 39/20/48
f 19/25/49 17/26/50 35/27/51 37/28/52
s 6
f 19/49/53 20/50/54 32/51/55 17/52/56
s 7
f 24/29/57 19/25/58 37/28/59 42/30/60
s 8
f 21/19/61 23/21/62 41/22/63 39/20/64
f 23/21/62 21/19/61 22/23/65
s 5
f 20/101/66 24/98/42 25/97/41 26/102/67
s 7
f 19/25/58 24/29/57 20/31/68
s off
f 29/113/69 30/114/70 48/115/71 47/116/72
s 5
f 26/102/67 25/97/41 27/105/73 28/106/74
f 45/108/75 41/112/76 23/109/77 27/105/73
f 28/106/74 27/105/73 23/109/77 22/110/78
s off
f 27/33/79 29/34/80 47/35/81 45/36/82
f 27/61/83 25/62/84 30/63/85 29/64/86
f 30/37/87 25/38/88 43/39/89 48/40/90
s 6
f 31/54/91 26/53/92 28/55/93 33/56/94
f 32/51/55 20/50/54 26/53/92 31/54/91
f 34/57/95 33/56/94 28/55/93 22/58/96
f 34/57/95 22/58/96 21/59/97 18/60/98
s 9
f 37/65/99 35/66/100 50/67/101 38/68/102
s 8
f 41/22/63 40/24/103 39/20/64
s 5
f 38/103/104 44/104/105 43/100/44 42/99/43
s 7
f 37/28/59 38/32/106 42/30/60
s 5
f 44/104/105 46/107/107 45/108/108 43/100/44
f 40/111/109 41/112/110 45/108/108 46/107/107
s off
f 45/77/111 47/78/112 48/79/113 43/80/114
s 9
f 49/69/115 51/71/116 46/72/117 44/70/118
f 50/67/101 49/69/115 44/70/118 38/68/102
f 51/71/116 52/73/119 40/74/120 46/72/117
f 52/73/119 36/75/121 39/76/122 40/74/120
