# This file uses centimeters as units for non-parametric coordinates.

mtllib Boys_DoorFrameB_02_0201.mtl
g default
v -35.000000 0.000000 4.202014
v 35.000000 0.000000 4.202014
v -35.000000 210.000000 4.202014
v 35.000000 210.000000 4.202014
v -35.000000 210.000000 -12.530460
v 35.000000 210.000000 -12.530460
v -35.000000 0.000000 -12.530460
v 35.000000 0.000000 -12.530460
v -36.250000 211.250000 4.202014
v 36.250000 211.250000 4.202014
v 36.250000 211.250000 -12.530460
v -36.250000 211.250000 -12.530460
v 36.250000 0.000000 -12.530460
v 36.250000 0.000000 4.202014
v -36.250000 0.000000 -12.530460
v -36.250000 0.000000 4.202014
vt 0.768559 0.000000
vt 0.847766 0.000000
vt 0.847766 1.000000
vt 0.768559 1.000000
vt 0.688673 0.000000
vt 0.767880 0.000000
vt 0.767880 1.000000
vt 0.688673 1.000000
vt 0.167357 0.000000
vt 0.167357 0.994083
vt 0.088150 0.994083
vt 0.088150 0.000000
vt 0.087471 0.000000
vt 0.087471 0.994083
vt 0.008264 0.994083
vt 0.008264 0.000000
vt 0.168036 0.343195
vt 0.168036 0.000000
vt 0.247243 0.000000
vt 0.247243 0.343195
vt 0.327129 0.331361
vt 0.247922 0.331361
vt 0.247922 0.000000
vt 0.327129 0.000000
vt 0.360865 0.085124
vt 0.360865 0.005917
vt 0.366782 0.005917
vt 0.366782 0.085124
vt 0.358518 0.005917
vt 0.358518 0.085124
vt 0.352601 0.085124
vt 0.352601 0.005917
vt 0.005917 0.994083
vt 0.337278 0.994083
vt 0.343196 1.000000
vt 0.000000 1.000000
vt 0.337274 0.000000
vt 0.343192 0.000000
vt 0.005920 0.000000
vt 0.000003 0.000000
vt 0.681615 0.005917
vt 0.350254 0.005917
vt 0.344337 0.000000
vt 0.687532 0.000000
vt 0.350256 1.000000
vt 0.344339 1.000000
vt 0.681613 0.999999
vt 0.687530 0.999999
vn 0.000000 1.000000 0.000000
vn 0.000000 1.000000 0.000000
vn 0.000000 1.000000 0.000000
vn 0.000000 1.000000 0.000000
vn 1.000000 0.000000 0.000000
vn 1.000000 0.000000 0.000000
vn 1.000000 0.000000 0.000000
vn 1.000000 0.000000 0.000000
vn -1.000000 0.000000 0.000000
vn -1.000000 0.000000 0.000000
vn -1.000000 0.000000 0.000000
vn -1.000000 0.000000 0.000000
vn 0.000000 -1.000000 0.000000
vn 0.000000 -1.000000 0.000000
vn 0.000000 -1.000000 0.000000
vn 0.000000 -1.000000 0.000000
vn -1.000000 0.000000 0.000000
vn -1.000000 0.000000 0.000000
vn -1.000000 0.000000 0.000000
vn -1.000000 0.000000 0.000000
vn 1.000000 0.000000 0.000000
vn 1.000000 0.000000 0.000000
vn 1.000000 0.000000 0.000000
vn 1.000000 0.000000 0.000000
vn 0.000000 0.000000 1.000000
vn -0.000000 0.000000 1.000000
vn -0.000000 0.000000 1.000000
vn 0.000000 0.000000 1.000000
vn 0.000000 0.000000 -1.000000
vn 0.000000 0.000000 -1.000000
vn 0.000000 0.000000 -1.000000
vn 0.000000 0.000000 -1.000000
vn 0.000000 -1.000000 0.000000
vn 0.000000 -1.000000 0.000000
vn 0.000000 -1.000000 0.000000
vn 0.000000 -1.000000 0.000000
vn 0.000000 0.000000 -1.000000
vn 0.000000 0.000000 -1.000000
vn -0.000000 0.000000 1.000000
vn -0.000000 0.000000 1.000000
vn 0.000000 -1.000000 0.000000
vn 0.000000 -1.000000 0.000000
vn 0.000000 -1.000000 0.000000
vn 0.000000 -1.000000 0.000000
vn 0.000000 0.000000 1.000000
vn 0.000000 0.000000 1.000000
vn 0.000000 0.000000 -1.000000
vn 0.000000 0.000000 -1.000000
s off
g Boys_DoorFrameB_02
usemtl initialShadingGroup
f 9/17/1 10/18/2 11/19/3 12/20/4
f 14/1/5 13/2/6 11/3/7 10/4/8
f 15/5/9 16/6/10 9/7/11 12/8/12
f 3/21/13 5/22/14 6/23/15 4/24/16
f 2/9/17 4/10/18 6/11/19 8/12/20
f 7/13/21 5/14/22 3/15/23 1/16/24
s 1
f 3/33/25 4/34/26 10/35/27 9/36/28
s 2
f 6/41/29 5/42/30 12/43/31 11/44/32
s off
f 2/25/33 8/26/34 13/27/35 14/28/36
s 2
f 8/47/37 6/41/29 11/44/32 13/48/38
s 1
f 4/34/26 2/37/39 14/38/40 10/35/27
s off
f 7/29/41 1/30/42 16/31/43 15/32/44
s 1
f 1/39/45 3/33/25 9/36/28 16/40/46
s 2
f 5/42/30 7/45/47 15/46/48 12/43/31
