# This file uses meters as units for non-parametric coordinates.

mtllib CabinetLeft.mtl
g default
v -5.299504 42.889961 5.285429
v -3.251635 42.889961 5.285429
v -5.299504 53.921413 5.285429
v -3.251635 53.921413 5.285429
v -5.299504 53.921413 3.237557
v -3.251635 53.921413 3.237557
v -5.299504 42.889961 3.237557
v -3.251635 42.889961 3.237557
v -3.251635 44.958363 5.285429
v -5.299504 44.958363 5.285429
v -5.299504 44.958363 4.191754
v -3.251635 44.958363 4.191754
v -3.251635 51.853012 5.285429
v -5.299504 51.853012 5.285429
v -5.299504 51.853012 4.191754
v -3.251635 51.853012 4.191754
v -5.299504 44.958363 0.578862
v -3.251635 44.958363 0.578862
v -3.251635 42.889961 0.578862
v -5.299504 42.889961 0.578862
v -5.299504 53.921413 0.578862
v -3.251635 53.921413 0.578862
v -3.251635 51.853012 0.578862
v -5.299504 51.853012 0.578862
v -44.992894 9.419125 2.500000
v -0.542893 9.419125 2.500000
v -44.992894 67.839127 2.500000
v -0.542893 67.839127 2.500000
v -44.992894 67.839127 -0.045187
v -0.542893 67.839127 -0.045187
v -44.992894 9.419125 -0.045187
v -0.542893 9.419125 -0.045187
v -37.767895 9.419127 2.500000
v -37.767895 67.839127 2.500000
v -37.767895 67.839127 -0.045187
v -37.767895 9.419127 -0.045187
v -7.767892 9.419125 2.500000
v -7.767892 67.839127 2.500000
v -7.767892 67.839127 -0.045187
v -7.767892 9.419125 -0.045187
v -37.767895 16.629124 2.500000
v -44.992894 16.629129 2.500000
v -44.992894 16.629129 -0.045187
v -37.767895 16.629124 -0.045187
v -7.767892 16.629129 -0.045187
v -0.542893 16.629129 -0.045187
v -0.542893 16.629129 2.500000
v -7.767892 16.629129 2.500000
v -7.767892 60.629128 2.500000
v -37.767895 60.629128 2.500000
v -44.992894 60.629128 2.500000
v -44.992894 60.629128 -0.045187
v -37.767895 60.629128 -0.045187
v -7.767892 60.629128 -0.045187
v -0.542893 60.629128 -0.045187
v -0.542893 60.629128 2.500000
v -7.767892 16.629129 1.309094
v -37.767895 16.629124 1.309094
v -7.767892 60.629128 1.309094
v -37.767895 60.629128 1.309094
vt 0.593754 0.522840
vt 0.611878 0.522840
vt 0.603433 0.541146
vt 0.593754 0.541146
vt 0.635408 0.522840
vt 0.635408 0.541146
vt 0.603433 0.602165
vt 0.593754 0.602165
vt 0.611878 0.620470
vt 0.593754 0.620470
vt 0.635408 0.602165
vt 0.635408 0.620470
vt 0.569494 0.522840
vt 0.587618 0.522840
vt 0.587618 0.541146
vt 0.577939 0.541146
vt 0.587618 0.602165
vt 0.577939 0.602165
vt 0.545964 0.541146
vt 0.545964 0.522840
vt 0.587618 0.620470
vt 0.569494 0.620470
vt 0.545964 0.620470
vt 0.545964 0.602165
vt 0.801257 0.001821
vt 0.823783 0.001821
vt 0.823783 0.065631
vt 0.801257 0.065631
vt 0.823783 0.455039
vt 0.801257 0.455039
vt 0.823783 0.518848
vt 0.801257 0.518848
vt 0.830492 0.001821
vt 0.853017 0.001821
vt 0.853017 0.065631
vt 0.830492 0.065631
vt 0.853017 0.455039
vt 0.830492 0.455039
vt 0.853017 0.518848
vt 0.830492 0.518848
vt 0.709692 0.522840
vt 0.709692 0.912248
vt 0.699152 0.912248
vt 0.699152 0.522840
vt 0.715827 0.912248
vt 0.715827 0.522840
vt 0.726367 0.522840
vt 0.726367 0.912248
vt 0.497446 0.522840
vt 0.515570 0.522840
vt 0.515570 0.540964
vt 0.497446 0.540964
vt 0.515570 0.564494
vt 0.497446 0.564494
vt 0.473186 0.546370
vt 0.491310 0.546370
vt 0.491310 0.564494
vt 0.473186 0.564494
vt 0.473186 0.522840
vt 0.491310 0.522840
vt 0.448927 0.522840
vt 0.467051 0.522840
vt 0.467051 0.554815
vt 0.448927 0.554815
vt 0.442792 0.554815
vt 0.424668 0.554815
vt 0.424668 0.522840
vt 0.442792 0.522840
vt 0.859726 0.395212
vt 0.859726 0.331269
vt 0.882251 0.331269
vt 0.882251 0.395212
vt 0.859726 0.065763
vt 0.882251 0.065763
vt 0.859726 0.001821
vt 0.882251 0.001821
vt 0.888960 0.395212
vt 0.888960 0.331269
vt 0.911486 0.331269
vt 0.911486 0.395212
vt 0.888960 0.065763
vt 0.911486 0.065763
vt 0.888960 0.001821
vt 0.911486 0.001821
vt 0.665802 0.788346
vt 0.665802 0.522840
vt 0.676342 0.522840
vt 0.676342 0.788346
vt 0.693017 0.522840
vt 0.693017 0.788346
vt 0.682477 0.788346
vt 0.682477 0.522840
vt 0.641543 0.522840
vt 0.659667 0.522840
vt 0.659667 0.541146
vt 0.641543 0.541146
vt 0.659667 0.602165
vt 0.641543 0.602165
vt 0.659667 0.620470
vt 0.641543 0.620470
vt 0.521705 0.522840
vt 0.539829 0.522840
vt 0.539829 0.583859
vt 0.521705 0.583859
vt 0.001992 0.001821
vt 0.065935 0.001821
vt 0.065935 0.065631
vt 0.001992 0.065631
vt 0.331440 0.001821
vt 0.331440 0.065631
vt 0.065935 0.455039
vt 0.001992 0.455039
vt 0.395383 0.001821
vt 0.395383 0.065631
vt 0.065935 0.518848
vt 0.001992 0.518848
vt 0.395383 0.455039
vt 0.331440 0.455039
vt 0.331440 0.518848
vt 0.395383 0.518848
vt 0.401722 0.455039
vt 0.465665 0.455039
vt 0.465665 0.518848
vt 0.401722 0.518848
vt 0.401722 0.065631
vt 0.465665 0.065631
vt 0.731170 0.455039
vt 0.731170 0.518848
vt 0.401722 0.001821
vt 0.465665 0.001821
vt 0.731170 0.065631
vt 0.795113 0.455039
vt 0.795113 0.518848
vt 0.731170 0.001821
vt 0.795113 0.065631
vt 0.795113 0.001821
vt 0.732502 0.522840
vt 0.998008 0.522840
vt 0.998008 0.912248
vt 0.732502 0.912248
vn 0.000000 0.000000 1.000000
vn 0.000000 0.000000 1.000000
vn 0.000000 0.000000 1.000000
vn 0.000000 0.000000 1.000000
vn 0.000000 1.000000 0.000000
vn 0.000000 1.000000 0.000000
vn 0.000000 1.000000 0.000000
vn 0.000000 1.000000 0.000000
vn 0.000000 -1.000000 0.000000
vn 0.000000 -1.000000 0.000000
vn 0.000000 -1.000000 0.000000
vn 0.000000 -1.000000 0.000000
vn 1.000000 0.000001 0.000000
vn 1.000000 0.000000 0.000000
vn 1.000000 0.000000 0.000000
vn 1.000000 0.000000 0.000000
vn -1.000000 0.000000 0.000000
vn -1.000000 0.000000 0.000000
vn -1.000000 0.000000 0.000000
vn -1.000000 0.000000 0.000000
vn 0.000000 0.000000 1.000000
vn 0.000000 0.000000 1.000000
vn -1.000000 0.000000 0.000000
vn -1.000000 0.000000 0.000000
vn 0.000000 0.000000 -1.000000
vn 0.000000 0.000000 -1.000000
vn 0.000000 0.000000 -1.000000
vn 0.000000 0.000000 -1.000000
vn 1.000000 0.000000 0.000000
vn 1.000000 0.000000 0.000000
vn 0.000000 0.000000 1.000000
vn 0.000000 0.000000 1.000000
vn -1.000000 0.000000 0.000000
vn -1.000000 0.000000 0.000000
vn 1.000000 0.000000 0.000000
vn 1.000000 0.000000 0.000000
vn 0.000000 1.000000 0.000000
vn 0.000000 1.000000 0.000000
vn 0.000000 1.000000 0.000000
vn 0.000000 1.000000 0.000000
vn 1.000000 0.000000 0.000000
vn 1.000000 0.000000 0.000000
vn 0.000000 -1.000000 0.000000
vn 0.000000 -1.000000 0.000000
vn -1.000000 0.000000 0.000000
vn -1.000000 0.000000 0.000000
vn 0.000000 1.000000 0.000000
vn 0.000000 1.000000 0.000000
vn 1.000000 0.000000 0.000000
vn 1.000000 0.000000 0.000000
vn 0.000000 -1.000000 0.000000
vn 0.000000 -1.000000 0.000000
vn 0.000000 -1.000000 0.000000
vn 0.000000 -1.000000 0.000000
vn -1.000000 0.000001 0.000000
vn -1.000000 0.000001 0.000000
vn 0.000000 0.000000 1.000000
vn 0.000000 0.000000 1.000000
vn 0.000000 0.000000 1.000000
vn 0.000000 0.000000 1.000000
vn 0.000000 1.000000 0.000000
vn 0.000000 1.000000 0.000000
vn 0.000000 1.000000 0.000000
vn 0.000000 1.000000 0.000000
vn 0.000000 0.000000 -1.000000
vn -0.000000 0.000000 -1.000000
vn -0.000000 0.000000 -1.000000
vn -0.000000 0.000000 -1.000000
vn 0.000000 -1.000000 0.000000
vn 0.000000 -1.000000 0.000000
vn 0.000000 -1.000000 0.000000
vn 0.000000 -1.000000 0.000000
vn 1.000000 0.000000 0.000000
vn 1.000000 0.000000 0.000000
vn 1.000000 0.000000 0.000000
vn 1.000000 0.000000 0.000000
vn -1.000000 0.000000 0.000000
vn -1.000000 0.000000 0.000000
vn -1.000000 0.000000 0.000000
vn -1.000000 0.000000 0.000000
vn 0.000000 0.000000 1.000000
vn 0.000000 0.000000 1.000000
vn 0.000000 1.000000 0.000000
vn 0.000000 1.000000 0.000000
vn -0.000000 0.000000 -1.000000
vn 0.000000 0.000000 -1.000000
vn -0.000000 -1.000000 0.000000
vn -0.000000 -1.000000 0.000000
vn 0.000000 0.000000 1.000000
vn 0.000000 0.000000 1.000000
vn 0.000000 1.000000 0.000000
vn 0.000000 1.000000 0.000000
vn 0.000000 0.000000 -1.000000
vn 0.000000 0.000000 -1.000000
vn 0.000000 -1.000000 0.000000
vn 0.000000 -1.000000 0.000000
vn 0.000000 0.000000 1.000000
vn 0.000000 0.000000 1.000000
vn -1.000000 0.000000 0.000000
vn -1.000000 0.000000 0.000000
vn 0.000000 0.000000 -1.000000
vn 0.000000 0.000000 -1.000000
vn -0.000000 0.000000 -1.000000
vn 0.000000 0.000000 -1.000000
vn 1.000000 0.000000 0.000000
vn 1.000000 0.000000 0.000000
vn 0.000000 0.000000 1.000000
vn 0.000000 0.000000 1.000000
vn -0.000000 0.000000 1.000000
vn -0.000000 0.000000 1.000000
vn -0.000000 0.000000 1.000000
vn -0.000000 0.000000 1.000000
vn 0.000000 0.000000 1.000000
vn 0.000000 0.000000 1.000000
vn 0.000000 0.000000 1.000000
vn -1.000000 0.000000 0.000000
vn -1.000000 0.000000 0.000000
vn 0.000000 0.000000 -1.000000
vn 0.000000 0.000000 -1.000000
vn 0.000000 0.000000 -1.000000
vn 0.000000 0.000000 -1.000000
vn 1.000000 0.000000 0.000000
vn 1.000000 0.000000 0.000000
vn 0.000000 0.000000 1.000000
vn -0.000000 1.000000 0.000000
vn -0.000000 1.000000 0.000000
vn -0.000000 1.000000 0.000000
vn -0.000000 1.000000 0.000000
vn -1.000000 0.000000 0.000000
vn -1.000000 0.000000 0.000000
vn -1.000000 0.000000 0.000000
vn -1.000000 0.000000 0.000000
vn 0.000000 -1.000000 0.000000
vn 0.000000 -1.000000 0.000000
vn 0.000000 -1.000000 0.000000
vn 0.000000 -1.000000 0.000000
vn 1.000000 0.000000 0.000000
vn 1.000000 0.000000 0.000000
vn 1.000000 0.000000 0.000000
vn 1.000000 0.000000 0.000000
s 1
g pCube15 pCube13
usemtl phong1SG
f 1/93/1 2/94/2 9/95/3 10/96/4
s 2
f 3/49/5 4/50/6 6/51/7 5/52/8
s 3
f 7/55/9 8/56/10 2/57/11 1/58/12
s 4
f 2/1/13 8/2/14 12/3/15 9/4/16
s 5
f 7/13/17 1/14/18 10/15/19 11/16/20
s 1
f 10/96/4 9/95/3 13/97/21 14/98/22
s 5
f 11/16/20 10/15/19 14/17/23 15/18/24
s off
f 15/101/25 16/102/26 12/103/27 11/104/28
s 4
f 9/4/16 12/3/15 16/7/29 13/8/30
s 1
f 14/98/22 13/97/21 4/99/31 3/100/32
s 5
f 15/18/24 14/17/23 3/21/33 5/22/34
s 4
f 13/8/30 16/7/29 6/9/35 4/10/36
s off
f 11/61/37 12/62/38 18/63/39 17/64/40
s 4
f 12/3/15 8/2/14 19/5/41 18/6/42
s 3
f 8/56/10 7/55/9 20/59/43 19/60/44
s 5
f 7/13/17 11/16/20 17/19/45 20/20/46
s 2
f 5/52/8 6/51/7 22/53/47 21/54/48
s 4
f 6/9/35 16/7/29 23/11/49 22/12/50
s off
f 16/65/51 15/66/52 24/67/53 23/68/54
s 5
f 15/18/24 5/22/34 21/23/55 24/24/56
s 6
f 25/105/57 33/106/58 41/107/59 42/108/60
s 7
f 27/69/61 34/70/62 35/71/63 29/72/64
s 8
f 43/121/65 44/122/66 36/123/67 31/124/68
s 9
f 31/77/69 36/78/70 33/79/71 25/80/72
s 10
f 26/25/73 32/26/74 46/27/75 47/28/76
s 11
f 31/33/77 25/34/78 42/35/79 43/36/80
s 6
f 33/106/58 37/109/81 48/110/82 41/107/59
s 7
f 35/71/63 34/70/62 38/73/83 39/74/84
s 8
f 36/123/67 44/122/66 45/127/85 40/128/86
s 9
f 33/79/71 36/78/70 40/81/87 37/82/88
s 6
f 37/109/81 26/113/89 47/114/90 48/110/82
s 7
f 39/74/84 38/73/83 28/75/91 30/76/92
s 8
f 40/128/86 45/127/85 46/132/93 32/133/94
s 9
f 37/82/88 40/81/87 32/83/95 26/84/96
s 6
f 42/108/60 41/107/59 50/111/97 51/112/98
s 11
f 43/36/80 42/35/79 51/37/99 52/38/100
s 8
f 52/125/101 53/126/102 44/122/66 43/121/65
f 45/127/85 44/122/66 53/126/102 54/131/103
f 46/132/93 45/127/85 54/131/103 55/135/104
s 10
f 47/28/76 46/27/75 55/29/105 56/30/106
s 6
f 48/110/82 47/114/90 56/117/107 49/118/108
s off
f 58/137/109 57/138/110 59/139/111 60/140/112
s 6
f 50/111/97 49/118/108 38/119/113 34/115/114
f 51/112/98 50/111/97 34/115/114 27/116/115
s 11
f 52/38/100 51/37/99 27/39/116 29/40/117
s 8
f 29/129/118 35/130/119 53/126/102 52/125/101
f 54/131/103 53/126/102 35/130/119 39/134/120
f 55/135/104 54/131/103 39/134/120 30/136/121
s 10
f 56/30/106 55/29/105 30/31/122 28/32/123
s 6
f 49/118/108 56/117/107 28/120/124 38/119/113
s off
f 41/85/125 48/86/126 57/87/127 58/88/128
f 48/41/129 49/42/130 59/43/131 57/44/132
f 49/89/133 50/90/134 60/91/135 59/92/136
f 50/45/137 41/46/138 58/47/139 60/48/140
