# This file uses meters as units for non-parametric coordinates.

mtllib Boys_CoffeeTable_01_0201.mtl
g default
v -5.989321 -0.000000 -0.929024
v -5.989321 -0.000000 -0.736645
v -6.144913 1.299375 -1.031658
v -6.144913 1.299375 -0.736645
v -5.849900 1.299375 -1.031658
v -5.849900 1.299375 -0.736645
v -5.849900 -0.000000 -0.929024
v -5.849900 -0.000000 -0.736645
v -2.000503 -0.000000 -0.929024
v -2.139924 -0.000000 -0.929024
v -1.844911 1.299375 -1.031658
v -2.139924 1.299375 -1.031658
v -1.844911 1.299375 -0.736645
v -2.139924 1.299375 -0.736645
v -2.000503 -0.000000 -0.736645
v -2.139924 -0.000000 -0.736645
v -2.000503 -0.000000 0.928551
v -2.000503 -0.000000 0.736172
v -1.844911 1.299375 1.031185
v -1.844911 1.299375 0.736172
v -2.139924 1.299375 1.031185
v -2.139924 1.299375 0.736172
v -2.139924 -0.000000 0.928551
v -2.139924 -0.000000 0.736172
v -6.271344 1.234469 1.135765
v -1.728656 1.234469 1.135765
v -6.271344 1.400253 1.135765
v -1.728656 1.400253 1.135765
v -6.271344 1.400253 -1.135765
v -1.728656 1.400253 -1.135765
v -6.271344 1.234469 -1.135765
v -1.728656 1.234469 -1.135765
v -6.052548 0.875282 0.940140
v -1.947452 0.875282 0.940140
v -6.052548 1.302561 0.940140
v -1.947452 1.302561 0.940140
v -6.052548 1.302561 -0.940140
v -1.947452 1.302561 -0.940140
v -6.052548 0.875282 -0.940140
v -1.947452 0.875282 -0.940140
v -6.052548 0.960737 0.940140
v -1.947452 0.960737 0.940140
v -1.947452 0.960737 -0.940140
v -6.052548 0.960737 -0.940140
v -6.052548 1.179067 -0.940140
v -1.947452 1.179067 -0.940140
v -1.947452 1.179067 0.940140
v -6.052548 1.179067 0.940140
v -6.009472 0.960737 0.904698
v -1.990528 0.960737 0.904698
v -1.990528 1.179067 0.904698
v -6.009472 1.179067 0.904698
v -6.009472 1.179067 -0.904698
v -1.990528 1.179067 -0.904698
v -1.990528 0.960737 -0.904698
v -6.009472 0.960737 -0.904698
v -5.989321 -0.000000 0.928551
v -5.849900 -0.000000 0.928551
v -6.144913 1.299375 1.031185
v -5.849900 1.299375 1.031185
v -6.144913 1.299375 0.736172
v -5.849900 1.299375 0.736172
v -5.989321 -0.000000 0.736172
v -5.849900 -0.000000 0.736172
vt 0.714837 0.004987
vt 0.737083 0.004982
vt 0.737119 0.156310
vt 0.703004 0.156318
vt 0.597274 0.629936
vt 0.563159 0.629936
vt 0.563159 0.479680
vt 0.585405 0.479680
vt 0.563689 0.307048
vt 0.585935 0.307048
vt 0.585935 0.457303
vt 0.551821 0.457303
vt 0.589694 0.004981
vt 0.611940 0.004993
vt 0.623731 0.156327
vt 0.589617 0.156310
vt 0.677041 0.004987
vt 0.699287 0.004982
vt 0.699323 0.156310
vt 0.665208 0.156318
vt 0.661527 0.457306
vt 0.627412 0.457306
vt 0.627412 0.307051
vt 0.649658 0.307051
vt 0.030237 0.787972
vt 0.030237 0.525301
vt 0.049407 0.525301
vt 0.049407 0.787972
vt 0.052914 0.787972
vt 0.052914 0.525301
vt 0.072085 0.525301
vt 0.072085 0.787972
vt 0.563159 0.214214
vt 0.563159 0.004981
vt 0.588406 0.004981
vt 0.588406 0.214214
vt 0.536702 0.214213
vt 0.536702 0.004981
vt 0.561949 0.004981
vt 0.561949 0.214213
vt 0.680327 0.697109
vt 0.680327 0.479680
vt 0.690209 0.479680
vt 0.690209 0.697109
vt 0.668988 0.697109
vt 0.668988 0.479680
vt 0.678870 0.479680
vt 0.678870 0.697109
vt 0.638751 0.697109
vt 0.638751 0.479680
vt 0.653032 0.479680
vt 0.653032 0.697109
vt 0.653870 0.697109
vt 0.653870 0.479680
vt 0.668150 0.479680
vt 0.668150 0.697109
vt 0.612824 0.479680
vt 0.635070 0.479680
vt 0.635070 0.629936
vt 0.600955 0.629936
vt 0.627490 0.004981
vt 0.649736 0.004993
vt 0.661527 0.156327
vt 0.627412 0.156310
vt 0.734245 0.200807
vt 0.734245 0.223053
vt 0.718123 0.223053
vt 0.718123 0.200807
vt 0.734245 0.200807
vt 0.718123 0.200807
vt 0.718123 0.178561
vt 0.734245 0.178561
vt 0.718123 0.245299
vt 0.718123 0.223053
vt 0.734245 0.223053
vt 0.734245 0.245299
vt 0.000000 0.525301
vt 0.000000 0.000000
vt 0.262672 0.000000
vt 0.262672 0.525301
vt 0.264572 0.525301
vt 0.264572 0.000000
vt 0.527243 0.000000
vt 0.527243 0.525301
vt 0.748360 0.474699
vt 0.748360 0.000000
vt 0.965788 0.000000
vt 0.965788 0.474699
vt 0.529143 0.474699
vt 0.529144 0.000000
vt 0.533242 0.004981
vt 0.533241 0.469718
vt 0.746573 0.000000
vt 0.742474 0.004982
vt 0.746572 0.474699
vt 0.742474 0.469718
vt 0.746573 0.474699
vt 0.746572 0.949398
vt 0.742474 0.944417
vt 0.742474 0.479681
vt 0.529143 0.949398
vt 0.533241 0.944417
vt 0.529144 0.474699
vt 0.533242 0.479680
vt 0.718123 0.156315
vt 0.734245 0.156315
vt 0.734245 0.178561
vt 0.718123 0.178561
vt 0.720996 0.282921
vt 0.737119 0.282921
vt 0.737119 0.433176
vt 0.703004 0.433176
vt 0.714416 0.307043
vt 0.698294 0.307041
vt 0.680327 0.156315
vt 0.714441 0.156320
vt 0.635975 0.307051
vt 0.619853 0.307050
vt 0.619856 0.156327
vt 0.653970 0.156328
vt 0.623731 0.457304
vt 0.589617 0.457304
vt 0.589617 0.307048
vt 0.605739 0.307048
vt 0.552824 0.364469
vt 0.536702 0.364469
vt 0.536702 0.214214
vt 0.570817 0.214214
vt 0.657674 0.156327
vt 0.673796 0.156330
vt 0.691763 0.307056
vt 0.657649 0.307051
vt 0.967576 0.525301
vt 0.967576 0.000000
vt 0.986747 0.000000
vt 0.986747 0.525301
vt 0.774817 1.000000
vt 0.774817 0.474699
vt 0.793987 0.474699
vt 0.793987 1.000000
vt 0.748360 0.939436
vt 0.748360 0.474699
vt 0.773606 0.474699
vt 0.773606 0.939436
vt 0.536702 0.944417
vt 0.536702 0.479680
vt 0.561949 0.479680
vt 0.561949 0.944417
vt 0.086931 1.000000
vt 0.086931 0.525301
vt 0.096812 0.525301
vt 0.096812 1.000000
vt 0.075592 1.000000
vt 0.075592 0.525301
vt 0.085474 0.525301
vt 0.085474 1.000000
vt 0.015118 1.000000
vt 0.015118 0.525301
vt 0.029399 0.525301
vt 0.029399 1.000000
vt 0.000000 1.000000
vt 0.000000 0.525301
vt 0.014280 0.525301
vt 0.014280 1.000000
vt 0.600052 0.156325
vt 0.616174 0.156325
vt 0.616172 0.307049
vt 0.582057 0.307048
vt 0.653870 0.307056
vt 0.687984 0.307056
vt 0.687984 0.457311
vt 0.671862 0.457311
vn -0.992907 -0.118894 0.000000
vn -0.992907 -0.118894 0.000000
vn -0.992907 -0.118894 0.000000
vn -0.992907 -0.118894 0.000000
vn 1.000000 -0.000000 0.000000
vn 1.000000 -0.000000 0.000000
vn 1.000000 -0.000000 0.000000
vn 1.000000 -0.000000 0.000000
vn 0.000000 -1.000000 0.000000
vn 0.000000 -1.000000 0.000000
vn 0.000000 -1.000000 0.000000
vn 0.000000 -1.000000 0.000000
vn -0.000000 0.000000 1.000000
vn -0.000000 0.000000 1.000000
vn -0.000000 0.000000 1.000000
vn -0.000000 0.000000 1.000000
vn 0.000000 -0.078742 -0.996895
vn 0.000000 -0.078742 -0.996895
vn 0.000000 -0.078742 -0.996895
vn 0.000000 -0.078742 -0.996895
vn 0.000000 -0.078742 -0.996895
vn 0.000000 -0.078742 -0.996895
vn 0.000000 -0.078742 -0.996895
vn 0.000000 -0.078742 -0.996895
vn -0.000000 0.000000 1.000000
vn -0.000000 0.000000 1.000000
vn -0.000000 0.000000 1.000000
vn -0.000000 0.000000 1.000000
vn 0.000000 -1.000000 0.000000
vn 0.000000 -1.000000 0.000000
vn 0.000000 -1.000000 0.000000
vn 0.000000 -1.000000 0.000000
vn -1.000000 0.000000 0.000000
vn -1.000000 0.000000 0.000000
vn -1.000000 0.000000 0.000000
vn -1.000000 0.000000 0.000000
vn 0.992907 -0.118894 0.000000
vn 0.992907 -0.118894 0.000000
vn 0.992907 -0.118894 0.000000
vn 0.992907 -0.118894 0.000000
vn 0.992907 -0.118894 0.000000
vn 0.992907 -0.118894 0.000000
vn 0.992907 -0.118894 0.000000
vn 0.992907 -0.118894 0.000000
vn -1.000000 0.000000 0.000000
vn -1.000000 0.000000 0.000000
vn -1.000000 0.000000 0.000000
vn -1.000000 0.000000 0.000000
vn 0.000000 -1.000000 0.000000
vn 0.000000 -1.000000 0.000000
vn 0.000000 -1.000000 0.000000
vn 0.000000 -1.000000 0.000000
vn 0.000000 0.000000 -1.000000
vn 0.000000 0.000000 -1.000000
vn 0.000000 0.000000 -1.000000
vn 0.000000 0.000000 -1.000000
vn -0.000000 -0.078742 0.996895
vn -0.000000 -0.078742 0.996895
vn -0.000000 -0.078742 0.996895
vn -0.000000 -0.078742 0.996895
vn -0.000000 0.000000 1.000000
vn -0.000000 0.000000 1.000000
vn -0.000000 0.000000 1.000000
vn -0.000000 0.000000 1.000000
vn 0.000000 1.000000 0.000000
vn 0.000000 1.000000 0.000000
vn 0.000000 1.000000 0.000000
vn 0.000000 1.000000 0.000000
vn 0.000000 0.000000 -1.000000
vn 0.000000 0.000000 -1.000000
vn 0.000000 0.000000 -1.000000
vn 0.000000 0.000000 -1.000000
vn 0.000000 -1.000000 0.000000
vn 0.000000 -1.000000 0.000000
vn 0.000000 -1.000000 0.000000
vn 0.000000 -1.000000 0.000000
vn 1.000000 0.000000 0.000000
vn 1.000000 0.000000 0.000000
vn 1.000000 0.000000 0.000000
vn 1.000000 0.000000 0.000000
vn -1.000000 0.000000 0.000000
vn -1.000000 0.000000 0.000000
vn -1.000000 0.000000 0.000000
vn -1.000000 0.000000 0.000000
vn -0.000000 0.000000 1.000000
vn -0.000000 0.000000 1.000000
vn -0.000000 0.000000 1.000000
vn -0.000000 0.000000 1.000000
vn 0.000000 0.000000 -1.000000
vn 0.000000 0.000000 -1.000000
vn 0.000000 0.000000 -1.000000
vn 0.000000 0.000000 -1.000000
vn 0.000000 -1.000000 0.000000
vn 0.000000 -1.000000 0.000000
vn 0.000000 -1.000000 0.000000
vn 0.000000 -1.000000 0.000000
vn 1.000000 0.000000 0.000000
vn 1.000000 0.000000 0.000000
vn 1.000000 0.000000 0.000000
vn 1.000000 0.000000 0.000000
vn -1.000000 0.000000 0.000000
vn -1.000000 0.000000 0.000000
vn -1.000000 0.000000 0.000000
vn -1.000000 0.000000 0.000000
vn -0.000000 0.000000 1.000000
vn -0.000000 0.000000 1.000000
vn -0.000000 0.000000 1.000000
vn -0.000000 0.000000 1.000000
vn 1.000000 0.000000 0.000000
vn 1.000000 0.000000 0.000000
vn 1.000000 0.000000 0.000000
vn 1.000000 0.000000 0.000000
vn 0.000000 0.000000 -1.000000
vn 0.000000 0.000000 -1.000000
vn 0.000000 0.000000 -1.000000
vn 0.000000 0.000000 -1.000000
vn -1.000000 0.000000 0.000000
vn -1.000000 0.000000 0.000000
vn -1.000000 0.000000 0.000000
vn -1.000000 0.000000 0.000000
vn 0.000000 0.000000 -1.000000
vn 0.000000 0.000000 -1.000000
vn 0.000000 0.000000 -1.000000
vn 0.000000 0.000000 -1.000000
vn 1.000000 0.000000 0.000000
vn 1.000000 0.000000 0.000000
vn 1.000000 0.000000 0.000000
vn 1.000000 0.000000 0.000000
vn -0.000000 0.000000 1.000000
vn -0.000000 0.000000 1.000000
vn -0.000000 0.000000 1.000000
vn -0.000000 0.000000 1.000000
vn -1.000000 0.000000 0.000000
vn -1.000000 0.000000 0.000000
vn -1.000000 0.000000 0.000000
vn -1.000000 0.000000 0.000000
vn -0.000000 1.000000 0.000001
vn -0.000000 1.000000 0.000001
vn -0.000000 1.000000 0.000001
vn -0.000000 1.000000 0.000001
vn -0.000000 -1.000000 0.000001
vn -0.000000 -1.000000 0.000001
vn -0.000000 -1.000000 0.000001
vn -0.000000 -1.000000 0.000001
vn 0.000000 -1.000000 -0.000001
vn 0.000000 -1.000000 -0.000001
vn 0.000000 -1.000000 -0.000001
vn 0.000000 -1.000000 -0.000001
vn 0.000000 1.000000 -0.000001
vn 0.000000 1.000000 -0.000001
vn 0.000000 1.000000 -0.000001
vn 0.000000 1.000000 -0.000001
vn -0.000000 -0.078742 0.996895
vn -0.000000 -0.078742 0.996895
vn -0.000000 -0.078742 0.996895
vn -0.000000 -0.078742 0.996895
vn 0.000000 0.000000 -1.000000
vn 0.000000 0.000000 -1.000000
vn 0.000000 0.000000 -1.000000
vn 0.000000 0.000000 -1.000000
vn 0.000000 -1.000000 0.000000
vn 0.000000 -1.000000 0.000000
vn 0.000000 -1.000000 0.000000
vn 0.000000 -1.000000 0.000000
vn 1.000000 -0.000000 0.000000
vn 1.000000 -0.000000 0.000000
vn 1.000000 -0.000000 0.000000
vn 1.000000 -0.000000 0.000000
vn -0.992907 -0.118894 0.000000
vn -0.992907 -0.118894 0.000000
vn -0.992907 -0.118894 0.000000
vn -0.992907 -0.118894 0.000000
s off
g Coffee_Table
usemtl aiStandardSurface1SG
f 1/1/1 2/2/2 4/3/3 3/4/4
f 5/5/5 6/6/6 8/7/7 7/8/8
f 7/65/9 8/66/10 2/67/11 1/68/12
f 2/109/13 8/110/14 6/111/15 4/112/16
f 7/113/17 1/114/18 3/115/19 5/116/20
f 9/117/21 10/118/22 12/119/23 11/120/24
f 13/121/25 14/122/26 16/123/27 15/124/28
f 15/69/29 16/70/30 10/71/31 9/72/32
f 10/9/33 16/10/34 14/11/35 12/12/36
f 15/13/37 9/14/38 11/15/39 13/16/40
f 17/17/41 18/18/42 20/19/43 19/20/44
f 21/21/45 22/22/46 24/23/47 23/24/48
f 23/73/49 24/74/50 18/75/51 17/76/52
f 18/125/53 24/126/54 22/127/55 20/128/56
f 23/129/57 17/130/58 19/131/59 21/132/60
f 25/133/61 26/134/62 28/135/63 27/136/64
f 27/77/65 28/78/66 30/79/67 29/80/68
f 29/137/69 30/138/70 32/139/71 31/140/72
f 31/81/73 32/82/74 26/83/75 25/84/76
f 26/25/77 32/26/78 30/27/79 28/28/80
f 31/29/81 25/30/82 27/31/83 29/32/84
f 49/141/85 50/142/86 51/143/87 52/144/88
f 53/145/89 54/146/90 55/147/91 56/148/92
f 39/85/93 40/86/94 34/87/95 33/88/96
f 50/33/97 55/34/98 54/35/99 51/36/100
f 56/37/101 49/38/102 52/39/103 53/40/104
f 33/149/105 34/150/106 42/151/107 41/152/108
f 34/41/109 40/42/110 43/43/111 42/44/112
f 44/153/113 43/154/114 40/155/115 39/156/116
f 39/45/117 33/46/118 41/47/119 44/48/120
f 37/157/121 38/158/122 46/159/123 45/160/124
f 47/49/125 46/50/126 38/51/127 36/52/128
f 48/161/129 47/162/130 36/163/131 35/164/132
f 45/53/133 48/54/134 35/55/135 37/56/136
s 1
f 41/89/137 42/90/138 50/91/139 49/92/140
s 2
f 47/97/141 48/98/142 52/99/143 51/100/144
f 45/101/145 46/103/146 54/104/147 53/102/148
s 1
f 43/93/149 44/95/150 56/96/151 55/94/152
f 42/90/138 43/93/149 55/94/152 50/91/139
s 2
f 46/103/146 47/97/141 51/100/144 54/104/147
s 1
f 44/95/150 41/89/137 49/92/140 56/96/151
s 2
f 48/98/142 45/101/145 53/102/148 52/99/143
s off
f 57/165/153 58/166/154 60/167/155 59/168/156
f 61/169/157 62/170/158 64/171/159 63/172/160
f 63/105/161 64/106/162 58/107/163 57/108/164
f 58/57/165 64/58/166 62/59/167 60/60/168
f 63/61/169 57/62/170 59/63/171 61/64/172
